<svg xmlns="http://www.w3.org/2000/svg" width="46.701" height="44.001" viewBox="0 0 46.701 44.001"><g transform="translate(-616.324 -1379.499)"><g transform="translate(616.324 1364.699)"><path d="M45.74,48.457,29.234,18.138a6.853,6.853,0,0,0-11.767,0L.961,48.457a6.833,6.833,0,0,0-.055,6.9A6.751,6.751,0,0,0,6.845,58.8H39.856a6.751,6.751,0,0,0,5.938-3.448A6.833,6.833,0,0,0,45.74,48.457Z" transform="translate(0 0)" fill="#061023"/><path d="M278.444,55.353a6.751,6.751,0,0,1-5.938,3.448H256v-44a6.832,6.832,0,0,1,5.883,3.338l16.506,30.319A6.833,6.833,0,0,1,278.444,55.353Z" transform="translate(-232.649 0)" fill="#061023"/><path d="M70.652,77.117,54.146,46.8a4.118,4.118,0,0,0-7.06,0L30.58,77.117a4.122,4.122,0,0,0,3.53,6.212H67.122a4.122,4.122,0,0,0,3.53-6.212Z" transform="translate(-27.265 -27.264)" fill="#ffde33"/><path d="M276.063,81.249a4.038,4.038,0,0,1-3.557,2.08H256V44.8a4.063,4.063,0,0,1,3.53,2l16.506,30.319A4.064,4.064,0,0,1,276.063,81.249Z" transform="translate(-232.649 -27.264)" fill="#ffbc33"/><g transform="translate(20.614 25.964)"><path d="M228.736,382.673a2.736,2.736,0,1,1,2.736-2.736A2.74,2.74,0,0,1,228.736,382.673Z" transform="translate(-226 -355.309)" fill="#0e1d3a"/><path d="M231.473,153.618a2.736,2.736,0,1,1-5.473,0V139.936a2.736,2.736,0,0,1,5.473,0Z" transform="translate(-226 -137.2)" fill="#0e1d3a"/></g><g transform="translate(23.351 25.964)"><path d="M258.736,379.936A2.74,2.74,0,0,0,256,377.2v5.473A2.74,2.74,0,0,0,258.736,379.936Z" transform="translate(-256 -355.309)" fill="#061023"/><path d="M258.736,153.618V139.936A2.74,2.74,0,0,0,256,137.2v19.155A2.74,2.74,0,0,0,258.736,153.618Z" transform="translate(-256 -137.2)" fill="#061023"/></g></g></g></svg>