<svg xmlns="http://www.w3.org/2000/svg" width="85.523" height="48.735" viewBox="0 0 85.523 48.735"><g transform="translate(-179.477 -1040)"><g transform="translate(-525.523 632)"><g transform="translate(525 -1747.356)"><g transform="translate(0 1057)"><path d="M418.688,104.917a2.239,2.239,0,1,1-2.238-2.138A2.19,2.19,0,0,1,418.688,104.917Z" transform="translate(-234.214 995.577)" fill="#13c6cc"/><path d="M418.688,104.917a2.239,2.239,0,1,1-2.238-2.138A2.19,2.19,0,0,1,418.688,104.917Z" transform="translate(-183.559 995.577)" fill="#13c6cc"/><path d="M427.134,104.917a2.239,2.239,0,1,1-2.236-2.138A2.189,2.189,0,0,1,427.134,104.917Z" transform="translate(-232.529 995.577)" fill="#13c6cc"/><path d="M427.134,104.917a2.239,2.239,0,1,1-2.236-2.138A2.189,2.189,0,0,1,427.134,104.917Z" transform="translate(-181.873 995.577)" fill="#13c6cc"/><path d="M435.58,104.917a2.239,2.239,0,1,1-2.236-2.138A2.189,2.189,0,0,1,435.58,104.917Z" transform="translate(-230.844 995.577)" fill="#13c6cc"/><path d="M435.58,104.917a2.239,2.239,0,1,1-2.236-2.138A2.189,2.189,0,0,1,435.58,104.917Z" transform="translate(-180.188 995.577)" fill="#13c6cc"/><path d="M444.027,104.917a2.239,2.239,0,1,1-2.238-2.138A2.19,2.19,0,0,1,444.027,104.917Z" transform="translate(-229.16 995.577)" fill="#13c6cc"/><path d="M444.027,104.917a2.239,2.239,0,1,1-2.238-2.138A2.19,2.19,0,0,1,444.027,104.917Z" transform="translate(-178.504 995.577)" fill="#13c6cc"/><path d="M452.473,104.917a2.239,2.239,0,1,1-2.236-2.138A2.189,2.189,0,0,1,452.473,104.917Z" transform="translate(-227.475 995.577)" fill="#13c6cc"/></g><g transform="translate(0 1057)"><ellipse cx="2.237" cy="2.139" rx="2.237" ry="2.139" transform="translate(180 1109.47)" fill="#13c6cc"/><ellipse cx="2.237" cy="2.139" rx="2.237" ry="2.139" transform="translate(230.656 1109.47)" fill="#13c6cc"/><path d="M427.134,112.425a2.239,2.239,0,1,1-2.236-2.138A2.19,2.19,0,0,1,427.134,112.425Z" transform="translate(-232.529 999.182)" fill="#13c6cc"/><path d="M427.134,112.425a2.239,2.239,0,1,1-2.236-2.138A2.19,2.19,0,0,1,427.134,112.425Z" transform="translate(-181.873 999.182)" fill="#13c6cc"/><ellipse cx="2.237" cy="2.139" rx="2.237" ry="2.139" transform="translate(200.262 1109.47)" fill="#13c6cc"/><ellipse cx="2.237" cy="2.139" rx="2.237" ry="2.139" transform="translate(250.918 1109.47)" fill="#13c6cc"/><path d="M444.027,112.425a2.239,2.239,0,1,1-2.238-2.138A2.191,2.191,0,0,1,444.027,112.425Z" transform="translate(-229.16 999.182)" fill="#13c6cc"/><path d="M444.027,112.425a2.239,2.239,0,1,1-2.238-2.138A2.191,2.191,0,0,1,444.027,112.425Z" transform="translate(-178.504 999.182)" fill="#13c6cc"/><path d="M452.473,112.425a2.239,2.239,0,1,1-2.236-2.138A2.19,2.19,0,0,1,452.473,112.425Z" transform="translate(-227.475 999.182)" fill="#13c6cc"/></g><g transform="translate(0 1057)"><path d="M418.688,119.934a2.239,2.239,0,1,1-2.238-2.14A2.191,2.191,0,0,1,418.688,119.934Z" transform="translate(-234.214 1002.789)" fill="#13c6cc"/><path d="M418.688,119.934a2.239,2.239,0,1,1-2.238-2.14A2.191,2.191,0,0,1,418.688,119.934Z" transform="translate(-183.559 1002.789)" fill="#13c6cc"/><path d="M427.134,119.934a2.239,2.239,0,1,1-2.236-2.14A2.19,2.19,0,0,1,427.134,119.934Z" transform="translate(-232.529 1002.789)" fill="#13c6cc"/><path d="M427.134,119.934a2.239,2.239,0,1,1-2.236-2.14A2.19,2.19,0,0,1,427.134,119.934Z" transform="translate(-181.873 1002.789)" fill="#13c6cc"/><path d="M435.58,119.934a2.239,2.239,0,1,1-2.236-2.14A2.191,2.191,0,0,1,435.58,119.934Z" transform="translate(-230.844 1002.789)" fill="#13c6cc"/><path d="M435.58,119.934a2.239,2.239,0,1,1-2.236-2.14A2.191,2.191,0,0,1,435.58,119.934Z" transform="translate(-180.188 1002.789)" fill="#13c6cc"/><path d="M444.027,119.934a2.239,2.239,0,1,1-2.238-2.14A2.191,2.191,0,0,1,444.027,119.934Z" transform="translate(-229.16 1002.789)" fill="#13c6cc"/><path d="M444.027,119.934a2.239,2.239,0,1,1-2.238-2.14A2.191,2.191,0,0,1,444.027,119.934Z" transform="translate(-178.504 1002.789)" fill="#13c6cc"/><path d="M452.473,119.934a2.239,2.239,0,1,1-2.236-2.14A2.19,2.19,0,0,1,452.473,119.934Z" transform="translate(-227.475 1002.789)" fill="#13c6cc"/></g><g transform="translate(0 1057)"><ellipse cx="2.237" cy="2.139" rx="2.237" ry="2.139" transform="translate(180 1131.699)" fill="#13c6cc"/><ellipse cx="2.237" cy="2.139" rx="2.237" ry="2.139" transform="translate(230.656 1131.699)" fill="#13c6cc"/><path d="M427.134,127.442a2.239,2.239,0,1,1-2.236-2.14A2.189,2.189,0,0,1,427.134,127.442Z" transform="translate(-232.529 1006.396)" fill="#13c6cc"/><path d="M427.134,127.442a2.239,2.239,0,1,1-2.236-2.14A2.189,2.189,0,0,1,427.134,127.442Z" transform="translate(-181.873 1006.396)" fill="#13c6cc"/><ellipse cx="2.237" cy="2.139" rx="2.237" ry="2.139" transform="translate(200.262 1131.699)" fill="#13c6cc"/><ellipse cx="2.237" cy="2.139" rx="2.237" ry="2.139" transform="translate(250.918 1131.699)" fill="#13c6cc"/><path d="M444.027,127.442a2.239,2.239,0,1,1-2.238-2.14A2.189,2.189,0,0,1,444.027,127.442Z" transform="translate(-229.16 1006.396)" fill="#13c6cc"/><path d="M444.027,127.442a2.239,2.239,0,1,1-2.238-2.14A2.189,2.189,0,0,1,444.027,127.442Z" transform="translate(-178.504 1006.396)" fill="#13c6cc"/><path d="M452.473,127.442a2.239,2.239,0,1,1-2.236-2.14A2.189,2.189,0,0,1,452.473,127.442Z" transform="translate(-227.475 1006.396)" fill="#13c6cc"/></g><g transform="translate(0 1057)"><ellipse cx="2.237" cy="2.139" rx="2.237" ry="2.139" transform="translate(180 1142.813)" fill="#13c6cc"/><ellipse cx="2.237" cy="2.139" rx="2.237" ry="2.139" transform="translate(230.656 1142.813)" fill="#13c6cc"/><path d="M427.134,134.95a2.239,2.239,0,1,1-2.236-2.14A2.189,2.189,0,0,1,427.134,134.95Z" transform="translate(-232.529 1010.002)" fill="#13c6cc"/><path d="M427.134,134.95a2.239,2.239,0,1,1-2.236-2.14A2.189,2.189,0,0,1,427.134,134.95Z" transform="translate(-181.873 1010.002)" fill="#13c6cc"/><ellipse cx="2.237" cy="2.139" rx="2.237" ry="2.139" transform="translate(200.262 1142.813)" fill="#13c6cc"/><ellipse cx="2.237" cy="2.139" rx="2.237" ry="2.139" transform="translate(250.918 1142.813)" fill="#13c6cc"/><path d="M444.027,134.95a2.239,2.239,0,1,1-2.238-2.14A2.189,2.189,0,0,1,444.027,134.95Z" transform="translate(-229.16 1010.002)" fill="#13c6cc"/><path d="M444.027,134.95a2.239,2.239,0,1,1-2.238-2.14A2.189,2.189,0,0,1,444.027,134.95Z" transform="translate(-178.504 1010.002)" fill="#13c6cc"/><path d="M452.473,134.95a2.239,2.239,0,1,1-2.236-2.14A2.189,2.189,0,0,1,452.473,134.95Z" transform="translate(-227.475 1010.002)" fill="#13c6cc"/></g></g></g></g></svg>