<svg xmlns="http://www.w3.org/2000/svg" width="85" height="84.473" viewBox="0 0 85 84.473"><g transform="translate(-600 -1137)"><rect width="85" height="84.473" transform="translate(600 1137)" fill="#004f83"/><g transform="translate(594.544 1151)"><g transform="translate(22.456 0)"><path d="M254.267,140.414c-.733-.221-1.659.08-3.1,1.005-1.162.749-2.364,1.7-2.468,3.038-.14,1.816,1.837,3.589,3.574,3.587,1.867,0,2.789-1.749,3-3.371C255.5,143.069,255.788,140.872,254.267,140.414Zm-.611,4.044c-.143,1.419-1,2.629-2.426,1.53-.426-.378-.925-.929-.889-1.4-.129-.761,2.837-2.622,3.4-2.6A6.476,6.476,0,0,1,253.656,144.457Z" transform="translate(-223.879 -124.949)" fill="#fff"/><path d="M73.676,16.338A3.227,3.227,0,0,0,71.5,13.917a.821.821,0,1,0-.62,1.52c2.867,1.119-.069,4.668-1.642,6.33A22.176,22.176,0,0,0,47.094,0C28.644-.264,18.126,22.242,29.958,36.171c-2.05.1-5.577-.292-5.835-1.012-.069-.14.031-.508.541-1.087a.821.821,0,0,0-1.232-1.085c-.941,1.069-1.2,2.044-.781,2.9.7,1.98,6.338,2.053,8.746,1.879a22.086,22.086,0,0,0,14.876,6.522v4.241h-4.6a.821.821,0,0,0,0,1.641H61.808v1.356H32.415V50.17h5.444a.821.821,0,0,0,0-1.642H31.594a.821.821,0,0,0-.821.821v2.177c-4.449.047-3.7-.66-3.756,3.818a.821.821,0,0,0,.821.821H66.385a.821.821,0,0,0,.821-.821c-.081-4.42.764-3.786-3.756-3.818V49.349a.821.821,0,0,0-.821-.821H47.915V44.287A22.182,22.182,0,0,0,69.161,24.076c1.068-1.054,4.832-4.059,4.515-7.738ZM65.564,53.167v1.356h-36.9V53.167ZM26.585,22.153a20.383,20.383,0,0,1,2.475-9.76c2.468,2.557,5.943,4.1,9.125,5.476.912.4,2.316.756,2.943,1.583.49.647-.082,1-.668,1.036a8.681,8.681,0,0,1-3.445-.541,4.376,4.376,0,0,0-2.114-.37A2.254,2.254,0,0,0,33.284,20.7a1.928,1.928,0,0,0,.628,2.383,3,3,0,0,0-.584,3.677c1.057,2.109,3.615,3.323,5.649,4.272a8.642,8.642,0,0,1,4.313,3.278,70.346,70.346,0,0,1-11.156,1.767A20.667,20.667,0,0,1,26.585,22.153ZM40.43,41.542a20.323,20.323,0,0,1-6.74-3.953,74.559,74.559,0,0,0,11.017-1.938,3.6,3.6,0,0,0,2.171.7.46.46,0,0,1-.094.468,1.157,1.157,0,0,1-.187.05,4.137,4.137,0,0,0-1.8,1.066A28.514,28.514,0,0,0,40.43,41.542ZM65.853,30.377A21.053,21.053,0,0,1,42.208,42.061c1.49-1.312,3.415-2.711,4.532-3.525.2-.111.475-.11.693-.206a2.061,2.061,0,0,0,.27-3.481c5.69-1.682,12.329-3.877,19.61-9.262a19.559,19.559,0,0,1-1.46,4.79Zm1.717-7.1C59.3,29.814,52.36,31.814,45.109,33.855c-1.036-1.024-1.817-2.38-3.134-3.147-2.443-1.453-5.591-2.188-7.179-4.687-.726-1.63.658-1.581.814-2.83.05-.87-.536-1.2-.9-1.666.32-.612,1.137-.238,1.751-.034a10.34,10.34,0,0,0,4.094.636,2.215,2.215,0,0,0,1.885-3.665,4.913,4.913,0,0,0-2.058-1.422c-3.65-1.637-7.706-3.1-10.441-6.11C34.987,2.71,46.965-.929,55.843,3.662a8.83,8.83,0,0,1-2.505.641,13.569,13.569,0,0,0-2.955.385c-3.027,1.016-3.067,4.483-.074,5.584.649.208,2.011.7,2.2-.4.078-1.066-1-.882-1.637-1.143-.583-.211-1.167-.716-1.155-1.27C50,5.875,52.254,6.067,53.5,5.936a10.568,10.568,0,0,0,4.11-1.313,20.971,20.971,0,0,1,8.495,9.883C65.1,15.647,63.45,15.7,62.685,17.343c-.692,1.381-.216,3.061-.422,4.44a3.115,3.115,0,0,1-.968,2c-.312.232-1.039.363-1.244-.082-.273-.6.334-1.581.44-2.173a6.22,6.22,0,0,0-.054-2,22.766,22.766,0,0,1,.07-3.292A7.309,7.309,0,0,0,55.7,9.734a.821.821,0,0,0-.64,1.512c2.727,1.176,4.188,3.466,3.729,6a10.28,10.28,0,0,0,.025,2.513,4.681,4.681,0,0,1-.143,2.217,3.2,3.2,0,0,0-.111,2.409,2.489,2.489,0,0,0,3.717.718,4.744,4.744,0,0,0,1.6-3.006c.256-1.312-.329-2.772.286-4.035.467-.933,1.72-1.172,2.554-1.868a20.159,20.159,0,0,1,.856,7.086Z" transform="translate(-22.456 0)" fill="#fff"/></g></g></g></svg>