<svg xmlns="http://www.w3.org/2000/svg" width="85" height="84.473" viewBox="0 0 85 84.473"><g transform="translate(-1020 -1137)"><rect width="85" height="84.473" transform="translate(1020 1137)" fill="#004f83"/><g transform="translate(1033.499 1151)"><path d="M220.6,332.067a1.1,1.1,0,1,0-1.552,0A1.1,1.1,0,0,0,220.6,332.067Zm0,0" transform="translate(-194.285 -293.972)" fill="#fff"/><path d="M188.449,12.063A12.063,12.063,0,1,0,200.512,0,12.077,12.077,0,0,0,188.449,12.063Zm21.933,0a9.87,9.87,0,1,1-9.87-9.87A9.881,9.881,0,0,1,210.382,12.063Zm0,0" transform="translate(-167.33)" fill="#fff"/><path d="M13.133,244.869a1.1,1.1,0,0,0,1.548.009L20,239.64a3.314,3.314,0,0,0,.781-3.4l1.144-1.1a3.271,3.271,0,0,1,2.284-.923H38.785a9.819,9.819,0,0,0,6.884-2.8c.076-.074-.579.7,9.946-11.882a4.387,4.387,0,0,0-6.675-5.694l-6.471,6.651a4.407,4.407,0,0,0-3.41-1.633H26.83a14.149,14.149,0,0,0-5.492-1.1,13.568,13.568,0,0,0-12.367,7.012,3.276,3.276,0,0,0-2.933.909L.821,230.914a1.1,1.1,0,0,0,0,1.547Zm8.2-24.915a11.972,11.972,0,0,1,4.828,1,1.1,1.1,0,0,0,.44.092H39.059a2.193,2.193,0,1,1,0,4.387H30.111a1.1,1.1,0,1,0,0,2.193h8.948a4.38,4.38,0,0,0,4.348-4.96c6.26-6.435,7.143-7.339,7.18-7.384a2.194,2.194,0,1,1,3.349,2.834L44.1,229.88a7.636,7.636,0,0,1-5.316,2.138H24.206a5.452,5.452,0,0,0-3.807,1.537l-.932.9-8.592-8.591c2.008-3.767,5.776-5.91,10.462-5.91ZM7.59,227.232a1.094,1.094,0,0,1,1.358-.154c.19.116-.355-.381,9.5,9.46a1.1,1.1,0,0,1,.006,1.546l-4.533,4.465L3.145,231.69Zm0,0" transform="translate(0 -189.028)" fill="#fff"/><path d="M268.05,41.085V42.37a3.29,3.29,0,0,0,1.1,6.392,1.1,1.1,0,1,1,0,2.193,1.983,1.983,0,0,1-1.424-.83,1.1,1.1,0,0,0-1.679,1.411,4.549,4.549,0,0,0,2.006,1.428v1.28a1.1,1.1,0,0,0,2.193,0V52.96a3.29,3.29,0,0,0-1.1-6.392,1.1,1.1,0,0,1,0-2.194,1.761,1.761,0,0,1,1.186.573,1.1,1.1,0,0,0,1.526-1.576,4.237,4.237,0,0,0-1.615-1.01V41.085a1.1,1.1,0,1,0-2.193,0Zm0,0" transform="translate(-236.184 -35.602)" fill="#fff"/></g></g></svg>