<svg xmlns="http://www.w3.org/2000/svg" width="85" height="84.473" viewBox="0 0 85 84.473"><g transform="translate(-600 -1243)"><rect width="85" height="84.473" transform="translate(600 1243)" fill="#004f83"/><g transform="translate(611 1219.432)"><g transform="translate(0 69.37)"><path d="M37.4,298.674H32.651a1.224,1.224,0,1,0,0,2.448H37.4a1.329,1.329,0,1,1,0,2.658H24.616a6.431,6.431,0,0,1-4.958-2.325L16.6,297.78a8.868,8.868,0,0,0-6.582-3.2v-7.23h4.506a8.49,8.49,0,0,1,5.925,2.393l6.6,6.369a1.2,1.2,0,0,1-1.648,1.751l-5.18-4.749a1.224,1.224,0,1,0-1.654,1.8l5.18,4.749a3.65,3.65,0,0,0,5-5.317l-6.6-6.369a10.926,10.926,0,0,0-7.625-3.08H9.781a3.038,3.038,0,0,0-2.8-1.857H1.224A1.224,1.224,0,0,0,0,284.27v8.95a1.224,1.224,0,0,0,2.448,0v-7.726H6.985a.587.587,0,0,1,.586.586v9.81a.587.587,0,0,1-.586.586H5.714a1.224,1.224,0,1,0,0,2.448H6.985a3.038,3.038,0,0,0,2.814-1.9,6.431,6.431,0,0,1,4.921,2.324l3.057,3.675a8.872,8.872,0,0,0,6.839,3.207H37.4a3.777,3.777,0,1,0,0-7.554Z" transform="translate(0 -283.046)" fill="#fff"/></g><g transform="translate(21.493 39.568)"><g transform="translate(0 0)"><path d="M215.544,50.874A1.224,1.224,0,0,0,214.32,52.1v8.2h-4.537a.587.587,0,0,1-.586-.586v-9.81a.587.587,0,0,1,.586-.586h1.181a1.224,1.224,0,1,0,0-2.448h-1.181a3.038,3.038,0,0,0-2.814,1.9,6.431,6.431,0,0,1-4.921-2.324l-3.057-3.675a8.872,8.872,0,0,0-6.84-3.207H179.367a3.777,3.777,0,1,0,0,7.554h5.228a1.224,1.224,0,0,0,0-2.448h-5.228a1.329,1.329,0,1,1,0-2.658h12.784a6.431,6.431,0,0,1,4.958,2.325l3.057,3.675a8.868,8.868,0,0,0,6.582,3.2v7.23h-4.506a8.49,8.49,0,0,1-5.925-2.393l-6.6-6.369a1.2,1.2,0,0,1,1.648-1.751l5.181,4.749a1.224,1.224,0,1,0,1.654-1.8l-5.181-4.749a3.65,3.65,0,0,0-5,5.317l6.6,6.369a10.926,10.926,0,0,0,7.625,3.08h4.744a3.038,3.038,0,0,0,2.8,1.857h5.761a1.224,1.224,0,0,0,1.224-1.224V52.1A1.224,1.224,0,0,0,215.544,50.874Z" transform="translate(-175.59 -39.568)" fill="#fff"/></g></g><g transform="translate(37.163 80.473)"><path d="M305.969,374.473a1.236,1.236,0,1,0-.64,1.632l.026-.012A1.226,1.226,0,0,0,305.969,374.473Z" transform="translate(-303.617 -373.752)" fill="#fff"/></g><g transform="translate(40.344 78.638)"><path d="M331.818,359.253a1.228,1.228,0,1,0-.267,1.717l.015-.011A1.219,1.219,0,0,0,331.818,359.253Z" transform="translate(-329.603 -358.757)" fill="#fff"/></g><g transform="translate(33.663 81.598)"><g transform="translate(0 0)"><path d="M277.448,383.91a1.235,1.235,0,1,0-.978,1.458l.036-.007A1.222,1.222,0,0,0,277.448,383.91Z" transform="translate(-275.016 -382.94)" fill="#fff"/></g></g><g transform="translate(43.064 76.156)"><g transform="translate(0 0)"><path d="M353.871,338.8a1.224,1.224,0,0,0-1.728.089l-.026.029a1.224,1.224,0,1,0,1.754-.118Zm-.684,1.032-.136-.123.147.133Z" transform="translate(-351.819 -338.487)" fill="#fff"/></g></g><g transform="translate(46.649 69.786)"><path d="M382.691,286.5a1.229,1.229,0,1,0,.812,1.54l.005-.017A1.221,1.221,0,0,0,382.691,286.5Z" transform="translate(-381.109 -286.442)" fill="#fff"/></g><g transform="translate(47.367 62.503)"><path d="M389.41,227.958c0-.016-.006-.031-.009-.047a1.233,1.233,0,1,0,.009.047Z" transform="translate(-386.979 -226.939)" fill="#fff"/></g><g transform="translate(47.343 66.173)"><path d="M388.116,256.928a1.225,1.225,0,0,0-1.327,1.112c0,.012,0,.036,0,.048a1.224,1.224,0,0,0,1.15,1.294l.073,0a1.23,1.23,0,0,0,.107-2.455Z" transform="translate(-386.783 -256.923)" fill="#fff"/></g><g transform="translate(45.198 73.162)"><g transform="translate(0 0)"><path d="M371.093,314.183a1.224,1.224,0,0,0-1.668.461l-.017.031a1.226,1.226,0,0,0,1.075,1.814,1.214,1.214,0,0,0,1.07-.637l-1.064-.6,1.065.6A1.224,1.224,0,0,0,371.093,314.183Z" transform="translate(-369.259 -314.024)" fill="#fff"/></g></g><g transform="translate(22.51 49.336)"><g transform="translate(0 0)"><path d="M186.223,120.046a1.224,1.224,0,0,0-1.642-.547l-.011.005a1.224,1.224,0,1,0,1.653.542Z" transform="translate(-183.898 -119.37)" fill="#fff"/></g></g><g transform="translate(25.948 48.057)"><path d="M214.415,109.854a1.224,1.224,0,0,0-1.478-.9l-.029.007a1.224,1.224,0,1,0,1.507.894Z" transform="translate(-211.987 -108.918)" fill="#fff"/></g><g transform="translate(19.413 51.322)"><g transform="translate(0 0)"><path d="M160.785,136.051a1.225,1.225,0,0,0-1.721-.186l.759.96-.762-.957a1.224,1.224,0,0,0,1.525,1.915l.016-.013A1.223,1.223,0,0,0,160.785,136.051Z" transform="translate(-158.599 -135.595)" fill="#fff"/></g></g><g transform="translate(13.524 60.442)"><path d="M112.036,210.15a1.224,1.224,0,0,0-1.5.859l-.012.046a1.224,1.224,0,1,0,1.514-.9Z" transform="translate(-110.487 -210.106)" fill="#fff"/></g><g transform="translate(12.998 64.08)"><path d="M107.486,239.826a1.224,1.224,0,0,0-1.293,1.151c0,.016,0,.031,0,.047a1.223,1.223,0,0,0,1.187,1.258h.037a1.23,1.23,0,0,0,.071-2.457Z" transform="translate(-106.191 -239.824)" fill="#fff"/></g><g transform="translate(14.815 57.001)"><path d="M122.835,182.13a1.224,1.224,0,0,0-1.652.515l-.02.039a1.224,1.224,0,1,0,1.672-.555Z" transform="translate(-121.037 -181.989)" fill="#fff"/></g><g transform="translate(16.811 53.914)"><path d="M139.352,157.056a1.224,1.224,0,0,0-1.723.16l-.025.031a1.224,1.224,0,1,0,1.749-.191Z" transform="translate(-137.339 -156.773)" fill="#fff"/></g><g transform="translate(13.248 67.748)"><path d="M110.659,270.8a1.224,1.224,0,0,0-2.409.432l0,.012a1.217,1.217,0,0,0,1.2,1,1.242,1.242,0,0,0,.219-.02A1.229,1.229,0,0,0,110.659,270.8Z" transform="translate(-108.23 -269.791)" fill="#fff"/></g><g transform="translate(21.612 59.465)"><path d="M190.491,202.125a5.668,5.668,0,0,0-4.121,1.766,5.685,5.685,0,1,0-7.758,8.284l.024.02,6.975,5.522a1.224,1.224,0,0,0,1.522,0l7.27-5.791a1.212,1.212,0,0,0,.1-.091,5.683,5.683,0,0,0-4.013-9.707Zm2.329,7.93-6.452,5.139-6.2-4.908a3.236,3.236,0,1,1,5.071-3.715,1.224,1.224,0,0,0,2.261,0,3.236,3.236,0,1,1,5.319,3.483Z" transform="translate(-176.566 -202.125)" fill="#fff"/></g><g transform="translate(0.004 82.804)"><circle cx="1.22" cy="1.22" r="1.22" fill="#fff"/></g><g transform="translate(60.226 46.876)"><circle cx="1.22" cy="1.22" r="1.22" fill="#fff"/></g></g></g></svg>