<svg xmlns="http://www.w3.org/2000/svg" width="85" height="84.473" viewBox="0 0 85 84.473"><g transform="translate(-180 -1359)"><rect width="85" height="84.473" transform="translate(180 1359)" fill="#004f83"/><g transform="translate(32 -464.517)"><g transform="translate(160 1838.517)"><path d="M380.249,437.779a1.336,1.336,0,1,0,1.89,1.89l0,0a1.336,1.336,0,0,0-1.893-1.886Z" transform="translate(-331.788 -393.57)" fill="#fff"/><path d="M74.767,333.749,64.159,339.2a4.927,4.927,0,0,0-3.553-1.512H53.337a2,2,0,0,1-.513-.035,3.924,3.924,0,0,1-.395-.347l-.066-.062c-5.88-5.536-10.848-5.185-16.5-2.955a3.844,3.844,0,0,1-1.849.4H32.373A3.554,3.554,0,0,0,29,332.253H23.66a3.55,3.55,0,0,0-3.544,3.548v14.026a3.548,3.548,0,0,0,3.544,3.544H29a3.554,3.554,0,0,0,3.368-2.432h3.006a1.422,1.422,0,0,1,.574.087c.112.032.249.07.425.118l13.829,3.7c.61.165,1.169.327,1.709.483a17.428,17.428,0,0,0,4.813.945,10.565,10.565,0,0,0,6-2.159l.035-.024,2.64-1.883a1.336,1.336,0,0,0-1.551-2.176l-2.623,1.87c-3.5,2.329-4.988,1.9-8.572.86-.552-.16-1.123-.325-1.759-.5l-13.83-3.7c-.162-.044-.289-.079-.393-.109a3.722,3.722,0,0,0-1.3-.187H32.553V337.361h1.5l.076,0a6.264,6.264,0,0,0,2.717-.585c4.961-1.958,8.791-2.19,13.685,2.417l.066.062a3.235,3.235,0,0,0,2.738,1.106h7.269a2.271,2.271,0,0,1,1.985,1.171l.013.023a2.266,2.266,0,0,1-2,3.342H48.826a1.336,1.336,0,1,0,0,2.672h11.78a4.935,4.935,0,0,0,4.822-6.016l10.56-5.423a2.15,2.15,0,1,1,2.277,3.643l-4.632,3.3a1.336,1.336,0,1,0,1.55,2.177l4.633-3.3a4.815,4.815,0,0,0-5.049-8.2ZM29.881,349.828A.886.886,0,0,1,29,350.7H23.66a.884.884,0,0,1-.872-.872V335.8a.875.875,0,0,1,.872-.876H29a.887.887,0,0,1,.876.876Z" transform="translate(-20.116 -302.485)" fill="#fff"/><g transform="translate(20.192 0)"><g transform="translate(24.334 21.336)"><path d="M336.971,341.465a.725.725,0,0,0-1.025.01l-.021.021a.725.725,0,0,0,1.036,1.015l.021-.021A.725.725,0,0,0,336.971,341.465Z" transform="translate(-335.718 -341.258)" fill="#fff" stroke="#fff" stroke-width="1"/></g><g transform="translate(27.358 11.293)"><path d="M383.453,205.353h-1.926v-1.926a.725.725,0,1,0-1.45,0v1.926h-1.926a.725.725,0,1,0,0,1.45h1.926v1.926a.725.725,0,1,0,1.45,0V206.8h1.926a.725.725,0,1,0,0-1.45Z" transform="translate(-377.426 -202.702)" fill="#fff" stroke="#fff" stroke-width="1"/></g><path d="M33.1,55.646A9.99,9.99,0,0,0,23.278,46.9,9.688,9.688,0,0,0,16.6,49.546,9.688,9.688,0,0,0,9.92,46.9,10.051,10.051,0,0,0,0,57.055,8.889,8.889,0,0,0,.965,60.77H.725a.725.725,0,0,0,0,1.45H1.737a41.062,41.062,0,0,0,6.414,7.8,93.428,93.428,0,0,0,8.008,7.042.725.725,0,0,0,.881,0c.031-.023,3.1-2.376,6.5-5.582a.725.725,0,1,0-.994-1.055c-2.593,2.445-4.987,4.383-5.945,5.141a92.915,92.915,0,0,1-7.436-6.584A43.115,43.115,0,0,1,3.44,62.22H9.929a.725.725,0,0,0,.7-.525l1.266-4.414L15.4,68.517a.725.725,0,0,0,1.384,0l1.942-6.224h3.236a.725.725,0,0,0,0-1.45H18.192a.725.725,0,0,0-.692.509l-1.409,4.516-3.536-11.33a.725.725,0,0,0-1.389.016L9.383,60.77h-6.8A8.243,8.243,0,0,1,1.45,57.055a8.6,8.6,0,0,1,8.47-8.706,8.288,8.288,0,0,1,6.147,2.717.725.725,0,0,0,1.066,0,8.288,8.288,0,0,1,6.147-2.717,8.522,8.522,0,0,1,8.287,6.9,6.381,6.381,0,1,0,1.538.4ZM30.733,66.5a4.929,4.929,0,1,1,4.929-4.929A4.935,4.935,0,0,1,30.733,66.5Z" transform="translate(0 -46.899)" fill="#fff" stroke="#fff" stroke-width="1"/></g></g></g></g></svg>