<svg xmlns="http://www.w3.org/2000/svg" width="37.873" height="48.93" viewBox="0 0 37.873 48.93"><g transform="translate(-57.847 0)"><path d="M95.653,6.618a1.413,1.413,0,0,0-1.024-.957c-1.343-.322-2.068-2.311-2.949-3.344-1.489-1.748-4.168-1.94-6.236.156A15.112,15.112,0,0,0,76.784,0a18.2,18.2,0,0,0-2.968.238.717.717,0,1,0,.234,1.414,16.763,16.763,0,0,1,2.733-.219c6.708,0,11.847,3.661,11.847,10.4a9.871,9.871,0,0,1-1.08,4.714,3.3,3.3,0,0,0-1.918-.5v-2.5a1.354,1.354,0,0,0-1.627-1.328A16.827,16.827,0,0,1,71,9.637a1.962,1.962,0,0,0-2.025-.067,2,2,0,0,0-1.037,1.75v4.72a3.3,3.3,0,0,0-1.918.505,9.881,9.881,0,0,1-1.079-4.715A9.551,9.551,0,0,1,71,2.519.717.717,0,1,0,70.441,1.2a12.432,12.432,0,0,0-2.319,1.274c-2.06-2.088-4.74-1.91-6.234-.155-.879,1.031-1.607,3.022-2.95,3.344A1.43,1.43,0,0,0,58.206,8a7.62,7.62,0,0,0,5.365,2.433,11.741,11.741,0,0,0,1.407,7.192,3.191,3.191,0,0,0-.179,2.889H63.615a2.441,2.441,0,0,0-2.439,2.438V33.235H61.11a2.415,2.415,0,0,0-1.715,4.115,2.411,2.411,0,0,0,0,3.4,2.409,2.409,0,0,0,.485,3.774,2.467,2.467,0,0,0-.089.656v2.556a1.2,1.2,0,0,0,1.195,1.195h31.3a1.2,1.2,0,0,0,1.195-1.195V45.179a2.472,2.472,0,0,0-.055-.516,2.414,2.414,0,0,0,.751-3.914,2.411,2.411,0,0,0,0-3.4,2.415,2.415,0,0,0-1.716-4.115h-.066V22.949a2.441,2.441,0,0,0-2.439-2.438H88.768a3.191,3.191,0,0,0-.179-2.89A11.72,11.72,0,0,0,90,10.431,7.621,7.621,0,0,0,95.361,8a1.422,1.422,0,0,0,.291-1.379Zm-36.366.434c2.031-.5,2.876-2.848,3.693-3.805C63.9,2.163,65.551,2,67,3.375A10.59,10.59,0,0,0,63.8,9,6.185,6.185,0,0,1,59.287,7.052ZM85.829,17.474a1.768,1.768,0,0,1,0,3.536h-.445a8.91,8.91,0,0,0,.249-2.094V17.474Zm-15.6-6.629a18.437,18.437,0,0,0,13.975,2.8c0,6.231.048,6.452-.456,7.842a7.426,7.426,0,0,1-6.96,4.849h-.025a7.438,7.438,0,0,1-6.905-4.861c0-.01-.007-.019-.011-.029a7.6,7.6,0,0,1-.475-2.647V11.321a.56.56,0,0,1,.858-.475Zm2.886,19.068a3.742,3.742,0,0,0,7.345,0h2.911a4.083,4.083,0,0,1,4,3.322H66.2a4.083,4.083,0,0,1,4-3.322Zm5.981-.717a2.309,2.309,0,1,1-4.617,0V27.455a8.7,8.7,0,0,0,2.279.311h.03a8.9,8.9,0,0,0,2.308-.3ZM67.934,17.474V18.8a9.056,9.056,0,0,0,.274,2.215h-.47a1.768,1.768,0,0,1,0-3.536ZM62.61,22.949a1.006,1.006,0,0,1,1.005-1h2.411a3.181,3.181,0,0,0,1.713.5H68.7a8.982,8.982,0,0,0,4.34,4.478V28.48H70.2a5.52,5.52,0,0,0-5.452,4.755H62.61V22.949ZM92.458,38.067a.982.982,0,1,1,0,1.965H61.11a.982.982,0,1,1,0-1.965ZM65.412,47.5H61.224V45.179a1.04,1.04,0,0,1,1.039-1.039h2.162a1.04,1.04,0,0,1,1.039,1.039V47.5Zm22.392,0V45.179a1.04,1.04,0,0,1,1.039-1.039H91a1.04,1.04,0,0,1,1.039,1.039V47.5Zm4.912-4.1A2.463,2.463,0,0,0,91,42.706H88.842a2.465,2.465,0,0,0-1.746.724H82.05a.717.717,0,1,0,0,1.433h4.34c-.037.293-.014.317-.021,2.633H66.9c-.007-2.387.016-2.346-.021-2.633H78.671a.717.717,0,1,0,0-1.433h-12.5a2.465,2.465,0,0,0-1.746-.724H62.263a2.462,2.462,0,0,0-1.619.606.982.982,0,0,1,.465-1.847H92.458a.983.983,0,0,1,.257,1.931Zm.725-7.745a.984.984,0,0,1-.983.983H61.11a.983.983,0,1,1,0-1.965H92.458A.984.984,0,0,1,93.44,35.651Zm-2.482-12.7V33.235H88.819a5.52,5.52,0,0,0-5.452-4.755H80.526V26.94a8.9,8.9,0,0,0,4.377-4.5h.927a3.182,3.182,0,0,0,1.713-.5h2.411a1.006,1.006,0,0,1,1.005,1ZM89.769,9a10.554,10.554,0,0,0-3.2-5.627c1.446-1.38,3.1-1.213,4.019-.129.817.958,1.662,3.31,3.695,3.806A6.2,6.2,0,0,1,89.769,9Z" fill="#13c6cc"/></g></svg>