<svg xmlns="http://www.w3.org/2000/svg" width="97.804" height="100" viewBox="0 0 97.804 100"><g transform="translate(-5.5)"><path d="M103.3,59.939A48.729,48.729,0,0,1,99.085,79.8a5.376,5.376,0,0,1-4.912,3.181H21.153A14.552,14.552,0,0,1,7.036,72.109,49.108,49.108,0,0,1,10.313,38.72l4.562-.986a43.475,43.475,0,0,0,31.041-26A48.945,48.945,0,0,1,103.3,59.939Z" transform="translate(0 -8.804)" fill="#4aa3dc"/><path d="M80.815,38.319a25.709,25.709,0,0,1-51.2,3.342A49.115,49.115,0,0,1,46.371,22.287c.219-.148.925.7,1.147.558a48.728,48.728,0,0,1,9.12-4.662c.245-.094.006-1.184.253-1.275a48.537,48.537,0,0,1,8.327-2.233A25.715,25.715,0,0,1,80.815,38.319Z" transform="translate(-19.302 -11.746)" fill="#3c94cd"/><path d="M92.147,49.785A7.346,7.346,0,1,1,84.8,42.439a7.346,7.346,0,0,1,7.346,7.346ZM65.865,42.439a7.346,7.346,0,1,0,7.346,7.346,7.346,7.346,0,0,0-7.346-7.346Zm18.258-9.985a7.346,7.346,0,0,0-4.1-6.59,48.74,48.74,0,0,0-10.492,5.36,7.347,7.347,0,1,0,14.589,1.23Z" transform="translate(-42.436 -20.701)" fill="#c0dfeb"/><path d="M69.9,65a7.326,7.326,0,0,0,2.774-.542,7.347,7.347,0,1,1-9.578-9.578A7.35,7.35,0,0,0,69.9,65ZM83.581,47.123a7.35,7.35,0,0,1-10.109-6.4q-2.029,1.106-3.939,2.394a7.348,7.348,0,0,0,14.048,4ZM88.831,65a7.35,7.35,0,0,1-6.8-10.12,7.347,7.347,0,1,0,9.578,9.578A7.325,7.325,0,0,1,88.831,65Z" transform="translate(-42.436 -32.596)" fill="#a6d2e3"/><path d="M244.074,248.051v29.626H216.13V256.194A13.972,13.972,0,0,1,230.1,242.222h8.143A5.829,5.829,0,0,1,244.074,248.051Z" transform="translate(-168.588 -193.874)" fill="#c0dfeb"/><path d="M274.627,269.722H253.881a13.528,13.528,0,0,1-13.529-13.528,13.972,13.972,0,0,1,13.972-13.972h18.792a13.972,13.972,0,0,1,13.972,13.972v8.617c-1.709,3.845-3.9,2.177-6.493,3.453A13.539,13.539,0,0,1,274.627,269.722Z" transform="translate(-187.975 -193.874)" fill="#ececf1"/><path d="M284.519,357.958a49.034,49.034,0,0,1-27.372,21.808c-4.66,1.475-16.8-27.4-16.8-27.4h37.426A7.341,7.341,0,0,1,284.167,356C284.6,356.756,284.808,357.468,284.519,357.958Z" transform="translate(-187.975 -282.037)" fill="#c0dfeb"/><path d="M411.519,329.377a1.612,1.612,0,0,1-1.612-1.612V308.427a1.612,1.612,0,1,1,3.223,0v19.339A1.611,1.611,0,0,1,411.519,329.377Z" transform="translate(-323.687 -245.575)" fill="#b9d3fd"/><path d="M413.131,352.37v14.875q-1.542,1.584-3.223,3.026v-17.9Z" transform="translate(-323.688 -282.037)" fill="#8cc5db"/><path d="M352.509,341.976h-6.038A1.971,1.971,0,0,1,344.5,340v-8.034A1.971,1.971,0,0,1,346.471,330h6.038a1.971,1.971,0,0,1,1.971,1.971V340A1.971,1.971,0,0,1,352.509,341.976Z" transform="translate(-271.335 -264.132)" fill="#8cc5db"/><path d="M354.48,323.992H344.5V321a1,1,0,0,1,1-1h7.984a1,1,0,0,1,1,1Z" transform="translate(-271.335 -256.128)" fill="#c0dfeb"/><path d="M312.647,252.2a8.147,8.147,0,0,1-8.147-8.147v-1.833h16.293v1.833A8.147,8.147,0,0,1,312.647,252.2Z" transform="translate(-239.319 -193.874)" fill="#c0dfeb"/><path d="M280.54,17.727V19.6a17.728,17.728,0,0,1-17.727,17.727h-7.585A17.728,17.728,0,0,1,237.5,19.6v-1.87A17.728,17.728,0,0,1,255.228,0h7.585A17.728,17.728,0,0,1,280.54,17.727Z" transform="translate(-185.693)" fill="#c1924d"/><path d="M310.955,17.727V19.6a17.727,17.727,0,1,1-35.455,0v-1.87a17.727,17.727,0,1,1,35.455,0Z" transform="translate(-216.108)" fill="#cc9f56"/><path d="M240.344,130.781a4.029,4.029,0,0,1-4.029-4.029v-1.612a4.029,4.029,0,0,1,8.058,0v1.612A4.029,4.029,0,0,1,240.344,130.781Z" transform="translate(-184.744 -96.938)" fill="#f2bb88"/><path d="M238.732,40.322v3.223a4.023,4.023,0,0,0,1.611,3.223,4.029,4.029,0,0,1-4.029-4.029V41.128a4.029,4.029,0,0,1,4.029-4.029,4.023,4.023,0,0,0-1.611,3.223ZM275.8,37.1V33.875a17.728,17.728,0,0,0-35.455,0v6.446a17.735,17.735,0,0,0,12.893,17.06v5.5a4.835,4.835,0,0,0,9.669,0v-5.5A17.77,17.77,0,0,0,274.654,46.6a4.032,4.032,0,0,0,5.174-3.864V41.128A4.029,4.029,0,0,0,275.8,37.1Z" transform="translate(-184.744 -12.925)" fill="#e3a76f"/><path d="M311.343,34.531v6.446a17.735,17.735,0,0,1-13.089,17.114,8.514,8.514,0,0,1-4.443,0,17.735,17.735,0,0,1-13.089-17.114V34.531a17.731,17.731,0,0,1,15.31-17.564A17.731,17.731,0,0,1,311.343,34.531Z" transform="translate(-220.288 -13.58)" fill="#f2bb88"/><path d="M285.316,92.769H263.567A7.077,7.077,0,0,1,256.5,85.7a2.722,2.722,0,0,1,2.719-2.719h30.449a2.722,2.722,0,0,1,2.719,2.719A7.077,7.077,0,0,1,285.316,92.769Z" transform="translate(-200.899 -66.419)" fill="#5596fb"/><path d="M280.722,92.409V87.37a17.757,17.757,0,0,1,.547-4.387h27.786a2.722,2.722,0,0,1,2.719,2.719A7.077,7.077,0,0,1,304.7,92.77H282.955A7.044,7.044,0,0,1,280.722,92.409Z" transform="translate(-220.288 -66.42)" fill="#97bffd"/><path d="M299.687,101.325a2.417,2.417,0,1,1-2.417-2.417A2.417,2.417,0,0,1,299.687,101.325Zm12.893-2.418A2.417,2.417,0,1,0,315,101.324,2.417,2.417,0,0,0,312.58,98.907Z" transform="translate(-231.597 -79.165)" fill="#0a3575"/><path d="M311.4,100.116a1.209,1.209,0,1,1-1.209-1.209A1.209,1.209,0,0,1,311.4,100.116Zm14.1-1.209a1.209,1.209,0,1,0,1.209,1.209A1.209,1.209,0,0,0,325.5,98.907Z" transform="translate(-242.906 -79.165)" fill="#fff5f5"/><path d="M325.928,169.543a4.835,4.835,0,0,1-4.835-4.835A1.209,1.209,0,0,1,322.3,163.5h7.252a1.209,1.209,0,0,1,1.209,1.209,4.835,4.835,0,0,1-4.835,4.835Z" transform="translate(-252.601 -130.865)" fill="#fff5f5"/><path d="M327.135,169.391a4.839,4.839,0,0,1-6.044-4.682A1.209,1.209,0,0,1,322.3,163.5h2.417a1.209,1.209,0,0,0-1.209,1.209A4.837,4.837,0,0,0,327.135,169.391Z" transform="translate(-252.6 -130.865)" fill="#ececf1"/><path d="M263.883,6.446A17.691,17.691,0,0,1,277.558,0h5.157a17.861,17.861,0,0,1,2.57.185c7.149,1.038,7.149,11.485,0,12.523a17.861,17.861,0,0,1-2.57.185h-5.157a17.691,17.691,0,0,1-13.675-6.446Z" transform="translate(-206.81 0)" fill="#c1924d"/><path d="M308.839,0c6.92.25,11.727,3.859,12.574,6.446a17.691,17.691,0,0,1-13.675,6.446h-5.157a17.661,17.661,0,0,1-7.435-1.63A18.439,18.439,0,0,1,308.839,0Z" transform="translate(-231.833 0)" fill="#cc9f56"/><path d="M74.9,321.312v10.43a48.662,48.662,0,0,1-9.98,2.039,35.679,35.679,0,0,0-33.426-23.2H18.371a48.614,48.614,0,0,1-5.72-13.692A9.971,9.971,0,0,1,21,292.37H56.932a9.98,9.98,0,0,1,9.98,9.98v3.519a9.987,9.987,0,0,1-.356,2.652A13.975,13.975,0,0,1,74.9,321.312Z" transform="translate(-5.724 -234.013)" fill="#2b3894"/><path d="M104.873,142.875v21.4a17.727,17.727,0,0,1-35.455,0v-21.4a17.727,17.727,0,1,1,35.455,0Z" transform="translate(-51.16 -100.168)" fill="#fcf2b6"/><path d="M71.618,181.244a17.728,17.728,0,0,1-5.151.76H61.309a17.728,17.728,0,0,1-17.727-17.727v-21.4a17.728,17.728,0,0,1,17.727-17.728h5.157a17.727,17.727,0,0,1,5.151.76,17.735,17.735,0,0,0-12.576,16.967v21.4a17.735,17.735,0,0,0,12.576,16.967Z" transform="translate(-30.481 -100.168)" fill="#ffde91"/><path d="M40.344,255.929a4.029,4.029,0,0,1-4.029-4.029v-1.612a4.029,4.029,0,1,1,8.058,0V251.9A4.029,4.029,0,0,1,40.344,255.929Z" transform="translate(-24.664 -197.106)" fill="#f2bb88"/><path d="M38.732,165.47v3.223a4.023,4.023,0,0,0,1.611,3.223,4.029,4.029,0,0,1-4.029-4.029v-1.612a4.029,4.029,0,0,1,4.029-4.029,4.023,4.023,0,0,0-1.611,3.223ZM75.8,162.247v-3.223a17.727,17.727,0,1,0-35.455,0v6.446a17.735,17.735,0,0,0,12.893,17.06v10.337h9.669V182.53a17.771,17.771,0,0,0,11.748-10.779,4.032,4.032,0,0,0,5.174-3.864v-1.612A4.029,4.029,0,0,0,75.8,162.247Z" transform="translate(-24.664 -113.093)" fill="#e3a76f"/><path d="M111.343,159.679v6.446A17.735,17.735,0,0,1,98.254,183.24a8.514,8.514,0,0,1-4.443,0,17.735,17.735,0,0,1-13.089-17.114v-6.446a17.731,17.731,0,0,1,15.31-17.564A17.731,17.731,0,0,1,111.343,159.679Z" transform="translate(-60.208 -113.749)" fill="#f2bb88"/><path d="M132.188,259.567a1.209,1.209,0,0,1,1.709-1.71.886.886,0,0,0,1.255,0,1.209,1.209,0,0,1,1.709,1.71,3.3,3.3,0,0,1-4.673,0Z" transform="translate(-101.118 -206.106)" fill="#e3a76f"/><g transform="translate(23.335 44.721)"><path d="M99.687,226.473a2.417,2.417,0,1,1-2.417-2.417,2.417,2.417,0,0,1,2.417,2.417Zm12.893-2.417A2.417,2.417,0,1,0,115,226.473,2.417,2.417,0,0,0,112.579,224.056Z" transform="translate(-94.852 -224.056)" fill="#0a3575"/><path d="M111.4,225.264a1.209,1.209,0,1,1-1.209-1.209A1.209,1.209,0,0,1,111.4,225.264Zm14.1-1.209a1.209,1.209,0,1,0,1.209,1.209A1.209,1.209,0,0,0,125.5,224.055Z" transform="translate(-106.161 -224.055)" fill="#fff5f5"/></g><path d="M125.928,294.691a4.835,4.835,0,0,1-4.835-4.835,1.209,1.209,0,0,1,1.209-1.209h7.252a1.209,1.209,0,0,1,1.209,1.209,4.835,4.835,0,0,1-4.835,4.835Z" transform="translate(-92.521 -231.034)" fill="#fff5f5"/><path d="M127.135,294.539a4.839,4.839,0,0,1-6.043-4.682,1.209,1.209,0,0,1,1.209-1.209h2.417a1.209,1.209,0,0,0-1.209,1.209,4.837,4.837,0,0,0,3.626,4.682Z" transform="translate(-92.52 -231.034)" fill="#ececf1"/><path d="M63.883,131.594a17.691,17.691,0,0,1,13.675-6.446h5.157a17.647,17.647,0,0,1,10.195,3.223c1.3.915-.949,7.382-3.815,8.488a17.685,17.685,0,0,1-6.379,1.182H77.558A17.691,17.691,0,0,1,63.883,131.594Z" transform="translate(-46.73 -100.168)" fill="#ffde91"/><path d="M107.738,150.966h-5.157a17.661,17.661,0,0,1-7.435-1.63,17.712,17.712,0,0,1,14.848-8.04h7.939a17.827,17.827,0,0,1,3.48,3.223A17.691,17.691,0,0,1,107.738,150.966Z" transform="translate(-71.753 -113.094)" fill="#fcf2b6"/><path d="M43.466,373.842q-1.14-1.57-2.157-3.233a13.915,13.915,0,0,1,8.946-3.239h9.018a13.961,13.961,0,0,0-11.736,6.387,2.469,2.469,0,0,1-4.071.085Z" transform="translate(-28.662 -294.043)" fill="#ff2ea6"/><path d="M96.15,381.343v12.469q-2.364.23-4.79.232a48.838,48.838,0,0,1-39.686-20.322,13.96,13.96,0,0,1,11.712-6.35H82.178A13.972,13.972,0,0,1,96.15,381.343Z" transform="translate(-36.958 -294.044)" fill="#ff72c3"/><path d="M103.323,428.716v2.575q-1.66-1.089-3.223-2.307v-.268a1.612,1.612,0,0,1,3.223,0Zm20.306-3.216a1.612,1.612,0,0,0-1.612,1.612v11.5q1.595.266,3.223.428V427.112A1.612,1.612,0,0,0,123.629,425.5Zm-14.5-1.612a1.612,1.612,0,0,0-1.612,1.612v8.252q1.579.825,3.223,1.536V425.5A1.612,1.612,0,0,0,109.125,423.889Zm7.091,8.058a1.612,1.612,0,0,0-1.612,1.612v3.209q1.588.531,3.223.955v-4.164A1.612,1.612,0,0,0,116.216,431.947Z" transform="translate(-75.718 -339.281)" fill="#ff2ea6"/><path d="M280.433,70H252.489A5.5,5.5,0,0,0,247,75.489a9.492,9.492,0,0,0,9.481,9.481h19.96a9.492,9.492,0,0,0,9.481-9.481A5.5,5.5,0,0,0,280.433,70Zm-3.992,11.976h-19.96a6.494,6.494,0,0,1-6.487-6.487,2.5,2.5,0,0,1,2.495-2.5h27.944a2.5,2.5,0,0,1,2.495,2.5A6.494,6.494,0,0,1,276.441,81.976Z" transform="translate(-193.297 -56.028)" fill="#fff5f5"/><path d="M280.433,70H252.489A5.5,5.5,0,0,0,247,75.489a9.492,9.492,0,0,0,9.481,9.481h19.96a9.492,9.492,0,0,0,9.481-9.481A5.5,5.5,0,0,0,280.433,70Zm-3.992,11.976h-19.96a6.494,6.494,0,0,1-6.487-6.487,2.5,2.5,0,0,1,2.495-2.5h27.944a2.5,2.5,0,0,1,2.495,2.5A6.494,6.494,0,0,1,276.441,81.976Z" transform="translate(-193.297 -56.028)" fill="#ececf1"/><path d="M303.432,84.97h-19.96a9.454,9.454,0,0,1-2.713-.4q-.036-.57-.037-1.149V81.364a6.447,6.447,0,0,0,2.75.612h19.96a6.494,6.494,0,0,0,6.487-6.487,2.5,2.5,0,0,0-2.495-2.5H281.172A17.6,17.6,0,0,1,282.149,70h25.276a5.5,5.5,0,0,1,5.489,5.489A9.492,9.492,0,0,1,303.432,84.97Z" transform="translate(-220.288 -56.028)" fill="#fff5f5"/><path d="M332.188,139.42a1.209,1.209,0,0,1,1.709-1.709.886.886,0,0,0,1.255,0,1.209,1.209,0,0,1,1.709,1.709,3.3,3.3,0,0,1-4.673,0Z" transform="translate(-261.198 -109.941)" fill="#e3a76f"/><path d="M212.222,302.722a5.988,5.988,0,1,1,0-8.468A5.988,5.988,0,0,1,212.222,302.722Z" transform="translate(-157.279 -234.117)" fill="#5766ce"/><path d="M223.426,298.842V308.1a5.012,5.012,0,0,1-1.178.35v-9.957A4.992,4.992,0,0,1,223.426,298.842Zm-4.964,8.729a5.021,5.021,0,0,0,2.524.93V298.439a5.022,5.022,0,0,0-2.524.93Z" transform="translate(-170.455 -238.871)" fill="#717ed6"/><path d="M220.284,309.644l-12.47-12.47a7.478,7.478,0,1,0-2.316,1.918l12.669,12.669a1.437,1.437,0,0,0,2.033,0l.085-.085a1.437,1.437,0,0,0,0-2.033Zm-22.791-17.159a4.491,4.491,0,1,1,4.491,4.491A4.5,4.5,0,0,1,197.493,292.485Z" transform="translate(-151.275 -228.114)" fill="#b9d3fd"/><path d="M285.209,380.6a2.363,2.363,0,0,1-3.342,0l-10.359-10.359a2.363,2.363,0,0,1,3.342-3.342l10.359,10.359A2.364,2.364,0,0,1,285.209,380.6Z" transform="translate(-212.359 -293.11)" fill="#ececf1"/><path d="M308.587,355.911l-22.306,8.725a4.991,4.991,0,0,1-4.424-8.9,1.5,1.5,0,0,1,.945-2.542l6.745-.548,15.4-6.025a4.99,4.99,0,0,1,3.636,9.295Z" transform="translate(-219.287 -277.156)" fill="#f2bb88"/><path d="M312.773,362.111l0,.013a4.99,4.99,0,0,1-2.83,6.465l-22.306,8.725a4.99,4.99,0,0,1-6.465-2.83l0-.013a4.968,4.968,0,0,0,3.152-.161l26.024-10.179A4.968,4.968,0,0,0,312.773,362.111Z" transform="translate(-220.648 -289.834)" fill="#e3a76f"/><path d="M384.463,333.367l-15.609,6.105-3.635-9.294,21.813-8.532v6.736A48.75,48.75,0,0,1,384.463,333.367Z" transform="translate(-287.919 -257.445)" fill="#fff5f5"/><path d="M393.21,359.15,377.6,365.255l-1.454-3.718,19.631-7.679v.306A48.778,48.778,0,0,1,393.21,359.15Z" transform="translate(-296.666 -283.229)" fill="#ececf1"/><path d="M365.149,366.7a1.5,1.5,0,0,1-1.94-.849l-4-10.224A1.5,1.5,0,1,1,362,354.537l4,10.224A1.5,1.5,0,0,1,365.149,366.7Z" transform="translate(-283.027 -283.009)" fill="#ececf1"/><path d="M231.9,81.936a1.5,1.5,0,0,1-1.5,1.5h-1v1a1.5,1.5,0,1,1-2.994,0v-1h-1a1.5,1.5,0,1,1,0-2.994h1v-1a1.5,1.5,0,1,1,2.994,0v1h1A1.5,1.5,0,0,1,231.9,81.936ZM178.228,52.5h-1v-1a1.5,1.5,0,1,0-2.994,0v1h-1a1.5,1.5,0,1,0,0,2.994h1v1a1.5,1.5,0,1,0,2.994,0v-1h1a1.5,1.5,0,1,0,0-2.994Z" transform="translate(-133.059 -40.02)" fill="#fff5f5"/></g></svg>