<svg xmlns="http://www.w3.org/2000/svg" width="100" height="100" viewBox="0 0 100 100"><g transform="translate(8003.808 8978)"><g transform="translate(-8003.808 -8978)"><path d="M.649,58.077A50,50,0,1,1,100,50a50.351,50.351,0,0,1-.648,8.072,2.03,2.03,0,0,1-2,1.711H2.647a2.027,2.027,0,0,1-2-1.706Z" transform="translate(0 0)" fill="#4aa3dc"/><path d="M101.993,297.025a50.008,50.008,0,0,1-81.057,30.659c-.373-.306.066-1.424-.3-1.74a49.227,49.227,0,0,1-8.154-9.484c-.331-.48-1.726-.107-2.04-.6A49.693,49.693,0,0,1,3.27,297.025Z" transform="translate(-2.631 -239.012)" fill="#4aa3dc"/><path d="M180.359,1.953V41.016a1.953,1.953,0,0,1-1.953,1.953H163.953A1.953,1.953,0,0,1,162,41.016V1.953A1.953,1.953,0,0,1,163.953,0h14.453A1.953,1.953,0,0,1,180.359,1.953Z" transform="translate(-130.359 0)" fill="#ffb52d"/><path d="M277.109,1.953V41.016a1.953,1.953,0,0,1-1.953,1.953h-33.2A1.953,1.953,0,0,1,240,41.016V0h17.383l1.463.91,7,.075,1.3-.985h8.008A1.953,1.953,0,0,1,277.109,1.953Z" transform="translate(-193.125)" fill="#ffc14f"/><path d="M288.875,240.672H243.953A1.953,1.953,0,0,1,242,238.719V203.953A1.953,1.953,0,0,1,243.953,202h44.922a1.953,1.953,0,0,1,1.953,1.953v34.766A1.953,1.953,0,0,1,288.875,240.672Z" transform="translate(-194.734 -162.547)" fill="#76b6fa"/><path d="M376.621,240.672H353a1.953,1.953,0,0,1-1.953-1.953V203.953A1.953,1.953,0,0,1,353,202h23.624a1.953,1.953,0,0,1,1.953,1.953v34.766A1.953,1.953,0,0,1,376.621,240.672Z" transform="translate(-282.48 -162.547)" fill="#86befb"/><path d="M348.851,231.787a4.425,4.425,0,1,1-4.425-4.425A4.425,4.425,0,0,1,348.851,231.787Zm11.064,4.425a4.425,4.425,0,1,0-4.425-4.425A4.425,4.425,0,0,0,359.914,236.212Zm-15.489,11.064a4.425,4.425,0,1,0,4.425,4.425A4.425,4.425,0,0,0,344.425,247.275Zm15.489,0a4.425,4.425,0,1,0,4.425,4.425A4.425,4.425,0,0,0,359.914,247.275Z" transform="translate(-273.594 -182.955)" fill="#fff5f5"/><path d="M303.016,296.977a.977.977,0,0,1-.977.977H262.977a.977.977,0,1,1,0-1.953h39.062A.977.977,0,0,1,303.016,296.977Z" transform="translate(-210.828 -238.187)" fill="#55a4f9"/><path d="M338.766,0V20.809a.977.977,0,0,1-.977.977h-7.813a.977.977,0,0,1-.977-.977V0Z" transform="translate(-264.742 0)" fill="#ffe7c0"/><path d="M342.828,16.208a.977.977,0,0,1-.977.977h-1.627v1.628a.977.977,0,0,1-1.953,0V17.184h-1.628a.977.977,0,0,1,0-1.953h1.628V13.6a.977.977,0,0,1,1.953,0v1.628h1.627A.977.977,0,0,1,342.828,16.208Z" transform="translate(-270.106 -10.161)" fill="#f44545"/><path d="M342.828,63.664a.977.977,0,0,1-.977.977h-5.208a.977.977,0,1,1,0-1.953h5.208A.977.977,0,0,1,342.828,63.664ZM341.378,66h-4.261a1,1,0,0,0,0,1.953h4.261a1,1,0,0,0,0-1.953Z" transform="translate(-270.106 -50.443)" fill="#ff9d60"/><path d="M185.752,234.578h-23.8A1.953,1.953,0,0,1,160,232.625V193.953A1.953,1.953,0,0,1,161.953,192h23.8a1.953,1.953,0,0,1,1.953,1.953v38.672A1.953,1.953,0,0,1,185.752,234.578Z" transform="translate(-128.75 -154.5)" fill="#169b62"/><path d="M283.372,234.578h-4.51a1.953,1.953,0,0,1-1.953-1.953V193.953A1.953,1.953,0,0,1,278.862,192h4.51a1.953,1.953,0,0,1,1.953,1.953v38.672A1.953,1.953,0,0,1,283.372,234.578Z" transform="translate(-222.825 -154.5)" fill="#1ab975"/><path d="M221.016,393.053a4.883,4.883,0,0,1-4.883,4.883h-31.25a4.883,4.883,0,0,1,0-9.766h31.25A4.883,4.883,0,0,1,221.016,393.053Z" transform="translate(-144.844 -312.356)" fill="#ffcd71"/><path d="M85.731,111.719H73.906A3.906,3.906,0,0,1,70,107.813v-3.906A3.906,3.906,0,0,1,73.906,100H85.731a3.906,3.906,0,0,1,3.906,3.906v3.906A3.906,3.906,0,0,1,85.731,111.719Z" transform="translate(-56.328 -80.469)" fill="#d63030"/><path d="M136.5,111.719H124.991a3.906,3.906,0,0,1-3.906-3.906v-3.906A3.906,3.906,0,0,1,124.991,100H136.5a3.906,3.906,0,0,1,3.906,3.906v3.906A3.906,3.906,0,0,1,136.5,111.719Z" transform="translate(-97.436 -80.469)" fill="#f44545"/><path d="M81.016,157.813v43.75a7.813,7.813,0,0,1-7.813,7.813H50.492A50.266,50.266,0,0,1,40,197.552v-4.583l.91-1.218.3-28.574L40,161.719v-3.906A7.813,7.813,0,0,1,47.813,150H73.2A7.813,7.813,0,0,1,81.016,157.813Z" transform="translate(-32.188 -120.703)" fill="#c8e2fd"/><path d="M103.878,200a15.814,15.814,0,0,1-15.814-15.814V157.813A7.813,7.813,0,0,1,95.876,150h16a7.813,7.813,0,0,1,7.813,7.812v26.373A15.814,15.814,0,0,1,103.878,200Z" transform="translate(-70.864 -120.703)" fill="#e9f3fe"/><path d="M271.719,399.146v3.906a.977.977,0,0,1-.977.977h-9.766a.977.977,0,0,1-.977-.977v-3.906a.977.977,0,0,1,.977-.976h9.766A.977.977,0,0,1,271.719,399.146Z" transform="translate(-209.219 -320.402)" fill="#f29500"/><path d="M52.22,241.25H40V210h9.556a4.087,4.087,0,0,1,4.087,4.087v25.74A1.424,1.424,0,0,1,52.22,241.25Z" transform="translate(-32.188 -168.984)" fill="#ffc14f"/><path d="M102.114,210.977v29.3a.977.977,0,0,1-.977.977H90.725a15.741,15.741,0,0,1-2.661-8.783V210h13.073A.977.977,0,0,1,102.114,210.977Z" transform="translate(-70.864 -168.984)" fill="#ffcd71"/><path d="M70,240.977a.977.977,0,0,1,.977-.977H82.7a.977.977,0,1,1,0,1.953H70.977A.977.977,0,0,1,70,240.977Zm2.93,8.789H82.7a.977.977,0,1,0,0-1.953H72.93a.977.977,0,1,0,0,1.953Zm5.859,11.719H82.7a.977.977,0,1,0,0-1.953H78.789a.977.977,0,1,0,0,1.953Zm-1.953-15.625H82.7a.977.977,0,1,0,0-1.953H76.836a.977.977,0,0,0,0,1.953Z" transform="translate(-56.328 -193.125)" fill="#ffa90b"/><path d="M292.813,464.029H287.93a2.93,2.93,0,0,1,0-5.859h4.883a2.93,2.93,0,0,1,0,5.859Z" transform="translate(-229.336 -368.684)" fill="#fff5f5"/><path d="M268.617,464.029H263.93a2.93,2.93,0,0,1,0-5.859h4.688Z" transform="translate(-210.024 -368.684)" fill="#f44545"/></g></g></svg>