<svg xmlns="http://www.w3.org/2000/svg" width="100" height="100" viewBox="0 0 100 100"><path d="M10.382,80.506a50,50,0,1,1,79.237,0Z" transform="translate(0)" fill="#4aa3dc"/><path d="M92.607,60.255h11.67V73.13a3.577,3.577,0,0,1-3.577,3.577H96.183a3.577,3.577,0,0,1-3.577-3.577ZM103.88,89.071h11.67v12.875a3.577,3.577,0,0,1-3.577,3.577h-4.517a3.577,3.577,0,0,1-3.577-3.577ZM166.062,105.5a3.577,3.577,0,0,0,3.159-3.552V89.071H162.9v12.875A3.577,3.577,0,0,0,166.062,105.5Zm-10.644,0a3.577,3.577,0,0,0,3.159-3.552V89.071H152.26v12.875A3.577,3.577,0,0,0,155.418,105.5Zm-59.66,0a3.577,3.577,0,0,0,3.159-3.552V89.071H92.6v12.875A3.577,3.577,0,0,0,95.759,105.5Z" transform="translate(-74.514 -48.486)" fill="#83afe4"/><path d="M99.088,56.563A1.192,1.192,0,0,1,97.9,57.755H86.212a1.192,1.192,0,0,1,0-2.384H97.9A1.192,1.192,0,0,1,99.088,56.563ZM94.312,72.777H93.6c-1.975,0-3.577-1.248-3.577-2.788V61.906a1.953,1.953,0,0,1,1.953-1.953h5.914V69.989C97.889,71.529,96.287,72.777,94.312,72.777Zm14.856,11.411H97.485a1.192,1.192,0,1,0,0,2.384h11.683a1.192,1.192,0,1,0,0-2.384Zm53.665,13.829V88.769h-2.579a1.914,1.914,0,0,0-1.873,1.953v8.083a2.861,2.861,0,0,0,2.154,2.588A3.57,3.57,0,0,0,162.833,98.017Zm.007-11.445h-6.682a1.192,1.192,0,0,1,0-2.384h6.682a1.192,1.192,0,0,1,0,2.384ZM152.233,98.017V88.769h-2.591a1.918,1.918,0,0,0-1.881,1.953v8.083a2.864,2.864,0,0,0,2.163,2.588,3.571,3.571,0,0,0,2.308-3.377Zm.007-11.445H145.8a1.193,1.193,0,0,1,0-2.384h6.436a1.193,1.193,0,0,1,0,2.384Zm-59.7,0H85.854a1.192,1.192,0,1,1,0-2.384h6.682a1.192,1.192,0,1,1,0,2.384ZM90.28,101.394a2.847,2.847,0,0,1-2.108-2.588V90.722a1.9,1.9,0,0,1,1.833-1.953H92.53v9.247A3.57,3.57,0,0,1,90.28,101.394Zm18.881-2.589V88.769h-5.914a1.953,1.953,0,0,0-1.953,1.953v8.083c0,1.54,1.6,2.788,3.577,2.788h.715C107.561,101.593,109.162,100.345,109.162,98.805Z" transform="translate(-68.126 -44.556)" fill="#b3cbed"/><path d="M137.238,122.941q-.22,1.977-.592,3.906H50.566v21.012H47.928q-.652-.846-1.268-1.72V88.566A50.216,50.216,0,0,1,50.566,83.7V95.4h81.915q.935,1.909,1.709,3.906H50.566v23.637Z" transform="translate(-37.547 -67.353)" fill="#0573cf"/><path d="M102.633,110.657v-.908a1.953,1.953,0,0,1,1.953-1.953h3.778a1.953,1.953,0,0,1,1.953,1.953v.908a1.953,1.953,0,0,1-1.953,1.953h-3.778A1.953,1.953,0,0,1,102.633,110.657Z" transform="translate(-82.587 -86.742)" fill="#fff5f5"/><path d="M168.035,243.791v4.466a1.953,1.953,0,0,1-1.953,1.953H162.3a1.953,1.953,0,0,1-1.953-1.953v-4.466a1.953,1.953,0,0,1,1.953-1.953h3.778A1.953,1.953,0,0,1,168.035,243.791Zm52.546-1.953a1.459,1.459,0,0,0-1.459,1.459v4.533a1.459,1.459,0,0,0,2.918,0V243.3A1.459,1.459,0,0,0,220.581,241.838Z" transform="translate(-129.032 -194.604)" fill="#005aaf"/><path d="M406.76,247.829V243.3a1.459,1.459,0,0,1,2.918,0v4.533a1.459,1.459,0,1,1-2.918,0Z" transform="translate(-327.315 -194.604)" fill="#ff7a7a"/><path d="M104.221,243.3v4.533a1.459,1.459,0,1,1-2.918,0V243.3a1.459,1.459,0,0,1,2.918,0Z" transform="translate(-81.517 -194.604)" fill="#00c53b"/><path d="M196.8,261.942a10.742,10.742,0,0,0-10.742,10.742v23.629h-5.832V272.684a10.742,10.742,0,0,1,10.742-10.742Z" transform="translate(-145.026 -210.781)" fill="#d5f3f7"/><path d="M249.219,272.683v7.774l-2.759,2.485v8.606H204.116V272.682a10.745,10.745,0,0,1,9.1-10.617c.536-.082,1.084.7,1.643.7l19.068-.033,1.645-.788h2.905A10.743,10.743,0,0,1,249.219,272.683Z" transform="translate(-164.25 -210.78)" fill="#fff5f5"/><path d="M260.5,269.554v16.388l-11.327-24H253.9Z" transform="translate(-200.509 -210.781)" fill="#afeaf2"/><path d="M318.5,261.926l-11.327,24,.09-21.615,6.515-2.388Z" transform="translate(-247.177 -210.765)" fill="#d5f3f7"/><path d="M402.853,356.745v10.829h-6.592a1.221,1.221,0,0,1-1.221-1.221v-8.388a1.221,1.221,0,0,1,1.221-1.221Z" transform="translate(-317.885 -287.068)" fill="#bb5d4c"/><path d="M248.378,23.447v29.9a10.109,10.109,0,0,1-10.109,10.109h-1.374V23.447a5.055,5.055,0,0,1,5.055-5.055h1.374A5.055,5.055,0,0,1,248.378,23.447Z" transform="translate(-190.626 -14.8)" fill="#002c5d"/><path d="M204.022,151.829a3.888,3.888,0,0,1-3.888-3.888v-1.555a3.888,3.888,0,0,1,7.776,0v1.555A3.888,3.888,0,0,1,204.022,151.829Z" transform="translate(-161.045 -114.666)" fill="#d78878"/><path d="M202.466,62.308v3.111a3.882,3.882,0,0,0,1.555,3.111,3.888,3.888,0,0,1-3.888-3.888V63.086a3.888,3.888,0,0,1,3.888-3.888A3.882,3.882,0,0,0,202.466,62.308ZM238.237,59.2V56.087a17.108,17.108,0,1,0-34.216,0v6.221a17.115,17.115,0,0,0,12.442,16.464v3.754h-2.03l.9,2.026a.6.6,0,0,0,.548.356h.65a4.667,4.667,0,0,0,9.186,0h.469a.6.6,0,0,0,.548-.356l.9-2.026H225.8V78.772a17.15,17.15,0,0,0,11.337-10.4,3.892,3.892,0,0,0,4.993-3.729V63.086A3.888,3.888,0,0,0,238.237,59.2Z" transform="translate(-161.045 -31.366)" fill="#c96e59"/><path d="M273.481,56.737v6.221A17.115,17.115,0,0,1,260.85,79.474a8.216,8.216,0,0,1-4.288,0,17.115,17.115,0,0,1-12.631-16.516V56.737a17.111,17.111,0,0,1,14.775-16.95A17.111,17.111,0,0,1,273.481,56.737Z" transform="translate(-196.288 -32.016)" fill="#d78878"/><path d="M288.411,190.135a4.666,4.666,0,0,1-4.666-4.666,1.166,1.166,0,0,1,1.166-1.166h7a1.166,1.166,0,0,1,1.166,1.166A4.666,4.666,0,0,1,288.411,190.135Z" transform="translate(-228.326 -148.306)" fill="#fff5f5"/><path d="M289.577,189.989a4.67,4.67,0,0,1-5.832-4.519,1.166,1.166,0,0,1,1.166-1.166h2.333a1.166,1.166,0,0,0-1.166,1.166A4.668,4.668,0,0,0,289.577,189.989Z" transform="translate(-228.326 -148.307)" fill="#d5f3f7"/><path d="M228.72,29.89c-2.622,6.8-9.005,12.328-16.446,12.9.793-8.182,7.5-13.412,14.88-14.78A1.4,1.4,0,0,1,228.72,29.89Z" transform="translate(-170.814 -22.52)" fill="#002c5d"/><path d="M283.625,284.963l-5.715-12.809h11.43Z" transform="translate(-223.631 -218.999)" fill="#2dd2e3"/><path d="M285.229,281.368l-1.6,3.6-5.715-12.809h3.209Z" transform="translate(-223.631 -219)" fill="#00c8de"/><path d="M93.44,410c12.858,0,13.435,19.2.595,19.855q-1.3.066-2.607.067A49.923,49.923,0,0,1,51.483,410Z" transform="translate(-41.428 -329.922)" fill="#ffb509"/><path d="M246.7,410a49.923,49.923,0,0,1-39.945,19.922q-1.312,0-2.607-.067C191.31,429.2,191.888,410,204.745,410Z" transform="translate(-156.758 -329.922)" fill="#ffc143"/><path d="M381.764,328.6V343.43a3.2,3.2,0,0,1-6.4,0V328.6Z" transform="translate(-302.054 -264.421)" fill="#87e0ec"/><path d="M380.023,346.278a3.2,3.2,0,0,1-4.656-2.848V328.6h2.915v14.829A3.2,3.2,0,0,0,380.023,346.278Z" transform="translate(-302.053 -264.422)" fill="#2dd2e3"/><path d="M387.173,340.092V351.64a1.465,1.465,0,0,1-2.93,0V340.092Z" transform="translate(-309.196 -273.668)" fill="#00c53b"/><path d="M376.371,325.1a.85.85,0,0,1-.85.85h-8.155a.85.85,0,0,1,0-1.7h8.155A.85.85,0,0,1,376.371,325.1Z" transform="translate(-294.932 -260.92)" fill="#afeaf2"/><path d="M125.522,282.179v1.51a1.184,1.184,0,0,1-1.221,1.143H118.93a1.184,1.184,0,0,1-1.221-1.143v-1.51a1.184,1.184,0,0,1,1.221-1.143H124.3A1.184,1.184,0,0,1,125.522,282.179Z" transform="translate(-94.719 -226.146)" fill="#bb5d4c"/><path d="M299.795,41.894l-8.933-1.234a19.03,19.03,0,0,1-15.675-8.22,3.744,3.744,0,0,1,2.375-5.831,19.159,19.159,0,0,1,3.417-.306C289.88,26.3,298.682,32.274,299.795,41.894Z" transform="translate(-220.894 -21.166)" fill="#003c79"/><path d="M251.291,97.379V102.8c0,2.053-2.142,3.717-4.784,3.717h-8.543a3.909,3.909,0,0,1-1.917-.5,5.925,5.925,0,0,0-5.632,0,3.909,3.909,0,0,1-1.917.5h-8.543c-2.642,0-4.784-1.664-4.784-3.717V97.379c0-2.053,2.142-3.717,4.784-3.717h26.55C249.149,93.662,251.291,95.326,251.291,97.379Z" transform="translate(-173.147 -75.369)" fill="#87e0ec"/><path d="M220.6,106.517h-.645c-2.642,0-4.784-1.664-4.784-3.717V97.379c0-2.053,2.142-3.717,4.784-3.717h.645a5.241,5.241,0,0,0-.763,2.74v7.375A5.241,5.241,0,0,0,220.6,106.517Z" transform="translate(-173.146 -75.369)" fill="#2dd2e3"/><path d="M277.306,122.933a2.333,2.333,0,1,1-2.333-2.333A2.333,2.333,0,0,1,277.306,122.933ZM260.2,120.6a2.333,2.333,0,1,0,2.333,2.333A2.333,2.333,0,0,0,260.2,120.6Z" transform="translate(-207.501 -97.045)" fill="#002c5d"/><path d="M274.134,121.766a1.166,1.166,0,1,1-1.166-1.166A1.167,1.167,0,0,1,274.134,121.766Zm13.609-1.166a1.166,1.166,0,1,0,1.166,1.166A1.166,1.166,0,0,0,287.742,120.6Z" transform="translate(-218.715 -97.045)" fill="#fff5f5"/><path d="M210.776,102.493a.977.977,0,0,1-.977.977h-1.945a5.951,5.951,0,0,1-5.246-2.756,1.565,1.565,0,0,1-1.031.282,1.6,1.6,0,0,1-1.444-1.615V95.56a1.605,1.605,0,0,1,1.415-1.615,1.584,1.584,0,0,1,.546.042v-.632c0-2.588,2.584-4.693,5.76-4.693H209.8a.977.977,0,0,1,0,1.953h-1.945c-2.064,0-3.807,1.255-3.807,2.74v5.422c0,1.485,1.743,2.74,3.807,2.74H209.8A.977.977,0,0,1,210.776,102.493Z" transform="translate(-161.045 -71.344)" fill="#ffb509"/><path d="M271.93,95.56V99.38A1.605,1.605,0,0,1,270.512,101a1.566,1.566,0,0,1-1.213-.405,5.907,5.907,0,0,1-5.314,2.881h-8.542a4.867,4.867,0,0,1-2.4-.625,4.952,4.952,0,0,0-4.669,0,4.869,4.869,0,0,1-2.4.624h-8.107a.977.977,0,0,1,0-1.953h8.107a2.957,2.957,0,0,0,1.435-.371,6.9,6.9,0,0,1,6.595,0,2.913,2.913,0,0,0,1.435.371h8.542c2.064,0,3.807-1.255,3.807-2.74V93.356c0-1.485-1.744-2.74-3.807-2.74H237.871a.977.977,0,1,1,0-1.953h26.115c3.176,0,5.76,2.105,5.76,4.693v.708a1.573,1.573,0,0,1,.783-.116A1.6,1.6,0,0,1,271.93,95.56Z" transform="translate(-190.626 -71.346)" fill="#ffc143"/><path d="M294.68,155.58a1.167,1.167,0,1,1,1.65-1.65.855.855,0,0,0,1.211,0,1.167,1.167,0,1,1,1.65,1.65,3.188,3.188,0,0,1-4.51,0Z" transform="translate(-236.85 -123.591)" fill="#bb5d4c"/><path d="M219.183,368.36a1.953,1.953,0,0,1-1.953,1.953H197.251a1.953,1.953,0,0,1,0-3.906h3.406v-1.049a1.953,1.953,0,0,1,1.953-1.953h9.26a1.953,1.953,0,0,1,1.953,1.953v1.049h3.406A1.953,1.953,0,0,1,219.183,368.36Z" transform="translate(-157.154 -292.427)" fill="#00c53b"/><path d="M228.531,395.074v3.906a1.953,1.953,0,0,1-1.953,1.953h-20.51a1.953,1.953,0,0,1-1.953-1.953v-3.906Z" transform="translate(-164.249 -317.911)" fill="#2dd2e3"/><path d="M275.138,395.074v3.906a1.953,1.953,0,0,1-1.953,1.953h-4.611a1.953,1.953,0,0,1-1.953-1.953v-3.906Z" transform="translate(-214.546 -317.911)" fill="#87e0ec"/><path d="M102.338,315.831H71.166a2.262,2.262,0,0,1-1.887-3.508l11.914-18.041V282.271H92.312v12.011l11.914,18.041A2.262,2.262,0,0,1,102.338,315.831Z" transform="translate(-55.444 -227.14)" fill="#2dd2e3"/><path d="M123.911,315.831H97.975a2.262,2.262,0,0,1-1.887-3.508L108,294.282V282.271h5.883v12.011L125.8,312.323A2.262,2.262,0,0,1,123.911,315.831Z" transform="translate(-77.016 -227.14)" fill="#87e0ec"/><path d="M139.485,276.236a1.465,1.465,0,0,1-1.465,1.465H127.607a1.465,1.465,0,0,1,0-2.93H138.02A1.465,1.465,0,0,1,139.485,276.236Z" transform="translate(-101.505 -221.105)" fill="#afeaf2"/><path d="M118.936,374.976l5.737,8.687a1.437,1.437,0,0,1-1.2,2.229H103.669a1.437,1.437,0,0,1-1.2-2.229l5.737-8.687a1.953,1.953,0,0,1,1.63-.877h7.47A1.953,1.953,0,0,1,118.936,374.976Z" transform="translate(-82.263 -301.033)" fill="#ff5757"/><path d="M137.786,344.343a2.975,2.975,0,1,1-2.975-2.975A2.975,2.975,0,0,1,137.786,344.343Zm.315-7.893a1.953,1.953,0,1,0,1.953,1.953A1.953,1.953,0,0,0,138.1,336.45Z" transform="translate(-106.086 -270.737)" fill="#ff7a7a"/><path d="M233.255,303.758A1.953,1.953,0,1,1,231.3,301.8,1.953,1.953,0,0,1,233.255,303.758Zm-12.126-6.192a1.953,1.953,0,1,0,1.953,1.953A1.953,1.953,0,0,0,221.129,297.566Zm6.882,9.156a2.975,2.975,0,1,0,2.975,2.975A2.975,2.975,0,0,0,228.011,306.722Z" transform="translate(-176.368 -239.448)" fill="#74d579"/><path d="M300.165,445.186a1.953,1.953,0,1,1-1.953-1.953A1.953,1.953,0,0,1,300.165,445.186Zm-20.125-2.74a1.953,1.953,0,1,0,1.953,1.953A1.953,1.953,0,0,0,280.04,442.446Zm11.561,5.577A2.975,2.975,0,1,0,294.576,451,2.975,2.975,0,0,0,291.6,448.023Z" transform="translate(-223.773 -356.031)" fill="#ffd98f"/><path d="M176.359,305.212v6.409a1.221,1.221,0,0,1-1.221,1.221h-5.026a6.469,6.469,0,0,0-1.221-3.357,1.221,1.221,0,0,0,0-2.136,1.221,1.221,0,0,0,0-2.136,1.221,1.221,0,0,1,1.221-1.221h5.026A1.221,1.221,0,0,1,176.359,305.212ZM123.6,292.618a1.221,1.221,0,0,1,0-2.136,1.221,1.221,0,0,0-1.221-1.221h-3.446a1.221,1.221,0,0,0-1.221,1.221v6.409a1.221,1.221,0,0,0,1.221,1.221h3.446a6.468,6.468,0,0,1,1.221-3.357,1.221,1.221,0,0,1,0-2.136Z" transform="translate(-94.72 -232.765)" fill="#c96e59"/><path d="M172.164,22.873V20.48a1.172,1.172,0,0,1,2.344,0v2.394a1.172,1.172,0,0,1-2.344,0Zm3.407,8.178H173.22a1.172,1.172,0,0,0,0,2.344h2.351a1.172,1.172,0,0,0,0-2.344Zm3.906-4.687H173.22a1.172,1.172,0,0,0,0,2.344h6.258a1.172,1.172,0,1,0,0-2.344Z" transform="translate(-138.445 -15.537)" fill="#fff5f5"/></svg>