<svg xmlns="http://www.w3.org/2000/svg" width="73.322" height="77.911" viewBox="0 0 73.322 77.911"><g transform="translate(-203.164 -2696)"><g transform="translate(188.086 2696)"><g transform="translate(30.483 1.141)"><path d="M165.535,7.5H117.076a.761.761,0,0,0-.761.761v21.1h4.99a3.729,3.729,0,0,1,.26,7.449v4.626h0a1.521,1.521,0,0,1,1.29,1.5v9.446a1.521,1.521,0,0,1-1.29,1.5h0v4.626a3.729,3.729,0,0,1-.26,7.449h-4.99V72.2h10.5a1.522,1.522,0,0,1,1.522,1.522V76.75s0,0,0,0H129.5a1.522,1.522,0,0,1,1.522,1.522v4.853H166.3V8.261A.761.761,0,0,0,165.535,7.5Z" transform="translate(-116.315 -7.5)" fill="#fff3de"/></g><g transform="translate(30.483 1.141)"><path d="M121.305,29.356c.045,0,.091,0,.136,0V8.261A.761.761,0,0,1,122.2,7.5h-5.126a.761.761,0,0,0-.761.761v21.1Z" transform="translate(-116.315 -7.5)" fill="#ffe5c2"/><path d="M121.305,391.63h-4.99v6.245h5.126v-6.248C121.4,391.629,121.351,391.63,121.305,391.63Z" transform="translate(-116.315 -333.174)" fill="#ffe5c2"/></g><g transform="translate(16.219 22.997)"><g transform="translate(20.804 15.698)"><path d="M159.3,254.29h7.044v5.2H159.3Z" transform="translate(-159.296 -254.29)" fill="#883f2e"/><path d="M237.5,254.29h10.061v5.2H237.5Z" transform="translate(-225.601 -254.29)" fill="#883f2e"/></g><g transform="translate(20.804 18.393)"><path d="M159.3,272h7.044v2.509H159.3Z" transform="translate(-159.296 -272)" fill="#6d3326"/><path d="M237.5,272h10.061v2.509H237.5Z" transform="translate(-225.601 -272)" fill="#6d3326"/></g><g transform="translate(42.766 14.484)"><path d="M331.89,250.126a3.816,3.816,0,0,1-3.816,3.816H304.483a.867.867,0,0,1-.867-.867v-5.9a.867.867,0,0,1,.867-.867h23.591A3.816,3.816,0,0,1,331.89,250.126Z" transform="translate(-303.616 -246.31)" fill="#ca6e59"/></g><g transform="translate(42.766 14.484)"><path d="M308.8,250.676a.867.867,0,0,1-.867-.867v-3.5h-3.452a.867.867,0,0,0-.867.867v5.9a.867.867,0,0,0,.867.867h23.591a3.816,3.816,0,0,0,3.776-3.267Z" transform="translate(-303.616 -246.31)" fill="#bb5d4c"/></g><g transform="translate(27.848 14.484)"><path d="M210.442,247.072v6.111a.761.761,0,0,1-.761.761h-3.335a.761.761,0,0,1-.761-.761v-6.111a.761.761,0,0,1,.761-.761h3.335A.761.761,0,0,1,210.442,247.072Z" transform="translate(-205.585 -246.311)" fill="#ca6e59"/></g><g transform="translate(27.848 14.484)"><path d="M207.791,253.182v-6.111a.761.761,0,0,1,.761-.761h-2.206a.761.761,0,0,0-.761.761v6.111a.761.761,0,0,0,.761.761h2.206A.761.761,0,0,1,207.791,253.182Z" transform="translate(-205.585 -246.311)" fill="#bb5d4c"/></g><g transform="translate(9.454 7.449)"><path d="M94.532,312.316h-9.6a1.533,1.533,0,0,1-.232-.019v4.626c.086-.006.173-.01.26-.01H94.5c.088,0,.174,0,.26.01V312.3A1.509,1.509,0,0,1,94.532,312.316Z" transform="translate(-84.703 -295.221)" fill="#883f2e"/><path d="M84.935,312.316a1.533,1.533,0,0,1-.232-.019v4.626c.086-.006.173-.01.26-.01h3.572v-4.6h-3.6Z" transform="translate(-84.703 -295.221)" fill="#6d3326"/><path d="M84.935,204.686h9.6a1.529,1.529,0,0,1,.232.02v-4.626c-.086.006-.173.01-.26.01h-9.54c-.087,0-.174,0-.26-.01v4.626A1.529,1.529,0,0,1,84.935,204.686Z" transform="translate(-84.703 -200.079)" fill="#883f2e"/><path d="M84.935,204.685h3.6v-4.6H84.963c-.087,0-.174,0-.26-.01V204.7A1.549,1.549,0,0,1,84.935,204.685Z" transform="translate(-84.703 -200.078)" fill="#6d3326"/></g><g transform="translate(8.164 12.056)"><path d="M88.866,231.874v9.446a1.522,1.522,0,0,1-1.522,1.522h-9.6a1.522,1.522,0,0,1-1.522-1.522v-9.446a1.522,1.522,0,0,1,1.522-1.522h9.6A1.522,1.522,0,0,1,88.866,231.874Z" transform="translate(-76.225 -230.352)" fill="#ca6e59"/></g><g transform="translate(8.164 12.056)"><path d="M81.365,241.319v-9.446a1.522,1.522,0,0,1,1.522-1.522h-5.14a1.522,1.522,0,0,0-1.522,1.522v9.446a1.522,1.522,0,0,0,1.522,1.522h5.14A1.522,1.522,0,0,1,81.365,241.319Z" transform="translate(-76.225 -230.352)" fill="#bb5d4c"/></g><g transform="translate(0 42.845)"><path d="M63.793,437.391a1.558,1.558,0,0,0,.008-.156v-3.028a1.522,1.522,0,0,0-1.522-1.522H41.717a1.522,1.522,0,0,0-1.522,1.522v3.028a1.558,1.558,0,0,0,.008.156Z" transform="translate(-37.514 -432.685)" fill="#ca6e59"/><path d="M45.347,437.391a1.558,1.558,0,0,1-.008-.156v-3.028a1.522,1.522,0,0,1,1.522-1.522H41.717a1.522,1.522,0,0,0-1.522,1.522v3.028a1.558,1.558,0,0,0,.008.156Z" transform="translate(-37.514 -432.685)" fill="#bb5d4c"/><g transform="translate(0 4.553)"><path d="M51.546,468.983H23.339a.761.761,0,0,1-.761-.761V464.13a1.522,1.522,0,0,1,1.522-1.522H50.024a1.522,1.522,0,0,1,1.522,1.522Z" transform="translate(-22.578 -462.608)" fill="#883f2e"/></g><g transform="translate(0 4.553)"><path d="M27.664,468.222V464.13a1.522,1.522,0,0,1,1.522-1.522H24.1a1.522,1.522,0,0,0-1.522,1.522v4.092a.761.761,0,0,0,.761.761h5.086A.761.761,0,0,1,27.664,468.222Z" transform="translate(-22.578 -462.608)" fill="#6d3326"/></g></g><g transform="translate(5.984)"><g transform="translate(0 29.141)"><path d="M78.9,346.362a3.73,3.73,0,0,1-3.729,3.729h-9.54a3.729,3.729,0,0,1,0-7.459h9.54A3.73,3.73,0,0,1,78.9,346.362Z" transform="translate(-61.905 -342.633)" fill="#ca6e59"/></g><g transform="translate(0 29.141)"><path d="M66.985,346.362a3.729,3.729,0,0,1,3.729-3.729h-5.08a3.729,3.729,0,0,0,0,7.459h5.08A3.729,3.729,0,0,1,66.985,346.362Z" transform="translate(-61.905 -342.633)" fill="#bb5d4c"/></g><g transform="translate(0)"><path d="M78.9,154.857a3.729,3.729,0,0,1-3.729,3.729h-9.54a3.729,3.729,0,1,1,0-7.459h9.54A3.729,3.729,0,0,1,78.9,154.857Z" transform="translate(-61.905 -151.128)" fill="#ca6e59"/></g><path d="M66.985,154.857a3.729,3.729,0,0,1,3.729-3.729h-5.08a3.729,3.729,0,0,0,0,7.459h5.08A3.729,3.729,0,0,1,66.985,154.857Z" transform="translate(-61.905 -151.128)" fill="#bb5d4c"/></g></g><g transform="translate(44.796 8.234)"><circle cx="10.678" cy="10.678" r="10.678" fill="#4fc123"/><g transform="translate(0)"><path d="M215.489,64.785a10.68,10.68,0,0,1,8.119-10.367,10.678,10.678,0,1,0,0,20.734A10.681,10.681,0,0,1,215.489,64.785Z" transform="translate(-210.372 -54.107)" fill="#47a920"/></g></g><g transform="translate(15.078 0)"><path d="M83.443,36.34H81.606V16.587a1.141,1.141,0,0,0-1.176-1.141,1.173,1.173,0,0,0-1.106,1.189V36.34H71.674a1.141,1.141,0,0,0,0,2.283H83.443a2.675,2.675,0,1,1,0,5.35H60.126v-5.35h6.221a1.141,1.141,0,1,0,0-2.283h-6.5a2.011,2.011,0,0,0-1.844,1.214H49.935a1.9,1.9,0,0,0-1.771-1.214H44.828a1.9,1.9,0,0,0-1.771,1.214H38.165v-.98a2.661,2.661,0,0,0-1.29-2.278V31.391a4.87,4.87,0,0,0-1.4-9.535H31.624V2.283h47.7v8.978A1.141,1.141,0,0,0,80.5,12.4a1.173,1.173,0,0,0,1.106-1.189V1.9A1.9,1.9,0,0,0,79.7,0H31.244a1.9,1.9,0,0,0-1.9,1.9V21.856H25.933a4.87,4.87,0,0,0-1.4,9.535V34.3a2.661,2.661,0,0,0-1.29,2.278V46.02a2.661,2.661,0,0,0,1.29,2.278V51.2a4.87,4.87,0,0,0,1.4,9.535h3.409V64.7h-8.92a2.666,2.666,0,0,0-2.663,2.663v1.89h-.018a2.666,2.666,0,0,0-2.663,2.663v4.092a1.9,1.9,0,0,0,1.9,1.9H79.7a1.9,1.9,0,0,0,1.9-1.9V46.255h1.838a4.957,4.957,0,0,0,0-9.915Zm-33.377,3.5h7.778v2.921H50.066Zm-4.857-1.214h2.574v5.35H45.209Zm-7.044,1.214h4.761v2.921H38.165Zm-14.82-13.11a2.591,2.591,0,0,1,2.588-2.588h9.54a2.588,2.588,0,0,1,0,5.176h-9.54a2.591,2.591,0,0,1-2.588-2.588ZM25.9,46.4a.381.381,0,0,1-.38-.38V36.575a.381.381,0,0,1,.38-.38h9.6a.381.381,0,0,1,.38.38V46.02a.381.381,0,0,1-.38.38Zm8.688,2.283V51H26.814V48.683ZM26.814,33.912V31.6h7.778v2.314Zm-.881,24.545a2.588,2.588,0,0,1,0-5.176h9.54a2.588,2.588,0,0,1,0,5.176ZM44.046,75.629H17.361V71.917a.381.381,0,0,1,.38-.38h7.064a1.141,1.141,0,1,0,0-2.283H20.041v-1.89a.381.381,0,0,1,.38-.38H40.985a.381.381,0,0,1,.38.38v1.89H30.131a1.141,1.141,0,1,0,0,2.283H43.666a.381.381,0,0,1,.38.38Zm35.277,0H46.329V71.917a2.666,2.666,0,0,0-2.663-2.663h-.018v-1.89A2.666,2.666,0,0,0,40.985,64.7h-9.36V60.739h3.849a4.87,4.87,0,0,0,1.4-9.535V48.3a2.661,2.661,0,0,0,1.29-2.278v-.98h4.892a1.9,1.9,0,0,0,1.771,1.214h3.335a1.9,1.9,0,0,0,1.771-1.214h8.073a2.011,2.011,0,0,0,1.844,1.214h19.47V75.629Z" transform="translate(-15.078 0)"/><path d="M202.872,58.426a11.819,11.819,0,1,0,11.819-11.819A11.832,11.832,0,0,0,202.872,58.426Zm21.355,0a9.536,9.536,0,1,1-9.536-9.536A9.547,9.547,0,0,1,224.227,58.426Z" transform="translate(-174.295 -39.515)"/><path d="M248.292,103.424a1.141,1.141,0,0,0-1.614,1.614l3.51,3.51a1.141,1.141,0,0,0,1.614,0l5.441-5.441a1.141,1.141,0,1,0-1.614-1.614L251,106.128Z" transform="translate(-211.151 -85.766)"/><path d="M243.681,328.21a1.141,1.141,0,0,0,1.141,1.141h20.989a1.141,1.141,0,1,0,0-2.283H244.822A1.141,1.141,0,0,0,243.681,328.21Z" transform="translate(-208.894 -277.299)"/><path d="M322.462,363.546H311.641a1.141,1.141,0,0,0,0,2.283h10.821a1.141,1.141,0,1,0,0-2.283Z" transform="translate(-265.545 -308.225)"/><path d="M244.822,365.829h6.211a1.141,1.141,0,1,0,0-2.283h-6.211a1.141,1.141,0,1,0,0,2.283Z" transform="translate(-208.894 -308.225)"/><path d="M265.81,400.023H244.821a1.141,1.141,0,0,0,0,2.283H265.81a1.141,1.141,0,0,0,0-2.283Z" transform="translate(-208.893 -339.151)"/><path d="M352.136,436.5h-5.495a1.141,1.141,0,0,0,0,2.283h5.495a1.141,1.141,0,0,0,0-2.283Z" transform="translate(-295.219 -370.078)"/><path d="M256.816,436.5H244.822a1.141,1.141,0,1,0,0,2.283h11.994a1.141,1.141,0,0,0,0-2.283Z" transform="translate(-208.894 -370.078)"/></g></g></g></svg>