<svg xmlns="http://www.w3.org/2000/svg" width="78.389" height="78.161" viewBox="0 0 78.389 78.161"><g transform="translate(-0.819 -1)"><path d="M65.341,28.735A13.867,13.867,0,1,0,51.474,14.867c0,.426.026.845.064,1.261H43.91V7.3a6.31,6.31,0,0,0-6.3-6.3H14.914a6.31,6.31,0,0,0-6.3,6.3v29L4.244,39.574a8.029,8.029,0,0,0-3.2,6.394,6.726,6.726,0,0,0,.078,1.02L3.552,62.765.819,79.161h18.1l-2.681-16.1.664-1a10.639,10.639,0,0,0,1.391-3.071H37.606a6.31,6.31,0,0,0,6.3-6.3V43.863H55.23L54.2,49a10.68,10.68,0,0,0,1.586,8.014l.681,1.021L53.83,79.161H71.812L69.136,57.749l2.431-15.8a6.756,6.756,0,0,0,.078-1.021,8.025,8.025,0,0,0-3.2-6.393L64.08,31.256V28.672c.416.037.835.063,1.261.063Zm-41.6-5.043H54.652a14,14,0,0,0,2.741,2.521H23.739Zm41.6-20.171A11.346,11.346,0,1,1,54,14.867,11.359,11.359,0,0,1,65.341,3.521ZM53,21.171H23.739V19.91A1.262,1.262,0,0,1,25,18.649H52.011A13.835,13.835,0,0,0,53,21.171ZM14.914,3.521H37.606A3.787,3.787,0,0,1,41.388,7.3v3.782H11.132V7.3A3.787,3.787,0,0,1,14.914,3.521ZM5.757,41.591,8.611,39.45v14.5h2.521V45.373a1.51,1.51,0,0,1,2.992-.3l1.892,9.468a8.043,8.043,0,0,1,.159,1.6,8.125,8.125,0,0,1-1.369,4.522l-.566.85H5.911L3.618,46.6a4.108,4.108,0,0,1-.049-.634,5.5,5.5,0,0,1,2.189-4.377ZM3.8,76.64,5.9,64.033h7.95l2.1,12.607Zm33.81-20.171H18.673c0-.11.024-.218.024-.329a10.558,10.558,0,0,0-.208-2.093l-1.027-5.142H41.388v3.782A3.787,3.787,0,0,1,37.606,56.469Zm3.782-10.085H16.957l-.361-1.8a4.043,4.043,0,0,0-3.953-3.24,3.994,3.994,0,0,0-1.51.3V13.607H41.388v2.521H25a3.787,3.787,0,0,0-3.782,3.782V40.081A3.787,3.787,0,0,0,25,43.863H41.388ZM25,41.341a1.262,1.262,0,0,1-1.261-1.261V28.735h37.82V36.6a4.022,4.022,0,0,0-1.261-.275V36.3H51.474V38.82h4.841a4.021,4.021,0,0,0-.219.719l-.361,1.8Zm31.686,35.3,2.2-17.649h7.859L68.955,76.64Zm10.25-40.092a5.5,5.5,0,0,1,2.187,4.377,4.135,4.135,0,0,1-.049.635L66.781,56.469H58.451l-.566-.85A8.161,8.161,0,0,1,56.674,49.5l1.892-9.466a1.511,1.511,0,0,1,2.993.3v8.575H64.08v-14.5Z" fill="#12263f"/></g></svg>