<svg xmlns="http://www.w3.org/2000/svg" xmlns:xlink="http://www.w3.org/1999/xlink" width="104.373" height="104.373" viewBox="0 0 104.373 104.373"><defs><filter id="a" x="0" y="0" width="104.373" height="104.373" filterUnits="userSpaceOnUse"><feOffset dy="3" input="SourceAlpha"/><feGaussianBlur stdDeviation="3" result="b"/><feFlood flood-opacity="0.161"/><feComposite operator="in" in2="b"/><feComposite in="SourceGraphic"/></filter></defs><g transform="translate(-271.327 -5102.813)"><g transform="translate(-1.187 61.813)"><g transform="matrix(1, 0, 0, 1, 272.51, 5041)" filter="url(#a)"><path d="M43.187,0A43.187,43.187,0,1,1,0,43.187,43.187,43.187,0,0,1,43.187,0Z" transform="translate(9 6)" fill="#004f83"/></g><g transform="translate(293.853 5061.396)"><path d="M180.609,14.662l4.88,4.87a.886.886,0,0,0,1.251-1.254l-4.879-4.869a6.839,6.839,0,1,1,11.214-7.36.886.886,0,0,0,.821.554h0a.886.886,0,0,0,.821-.554,6.84,6.84,0,1,1,11.215,7.359L193.9,25.423l-4.425-4.416a.886.886,0,0,0-1.252,1.254l5.051,5.041c.523.479.759.479,1.252,0l12.664-12.64.01-.01A8.612,8.612,0,1,0,193.9,3.827a8.612,8.612,0,1,0-13.3,10.825l.009.01Z" transform="translate(-159.649 0)" fill="#fff"/><path d="M267.668,62.375H264a.886.886,0,0,0-.886.886v2.783H260.33a.886.886,0,0,0-.886.886V70.6a.886.886,0,0,0,.886.886h2.783v2.783a.886.886,0,0,0,.886.886h3.669a.886.886,0,0,0,.886-.886V71.484h2.783a.886.886,0,0,0,.886-.886V66.93a.886.886,0,0,0-.886-.886h-2.783V63.261A.886.886,0,0,0,267.668,62.375Zm2.783,5.441v1.9h-2.783a.886.886,0,0,0-.886.886v2.783h-1.9V70.6a.886.886,0,0,0-.886-.886h-2.783v-1.9H264a.886.886,0,0,0,.886-.886V64.147h1.9V66.93a.886.886,0,0,0,.886.886Z" transform="translate(-231.407 -55.04)" fill="#fff"/><path d="M75.847,236.061a3.259,3.259,0,0,0-4.431-1.189l-11.324,6.539a3.25,3.25,0,0,0-3.135-2.405H51.552a18.151,18.151,0,0,0-6.946-1.827,11.873,11.873,0,0,0-8.675,4.089,18.3,18.3,0,0,0-2.256,2.963l-1.742-1.742a.886.886,0,0,0-1.253,0l-1.889,1.889-.97-.97a.886.886,0,0,0-1.253,0l-5.29,5.291a.886.886,0,0,0,0,1.252l3.337,3.339a.886.886,0,0,0,1.253-1.252l-2.711-2.713,4.038-4.039L42.8,260.9l-4.039,4.038L28.6,254.769a.886.886,0,1,0-1.253,1.252L38.13,266.816a.886.886,0,0,0,.626.26h0a.886.886,0,0,0,.626-.259l5.292-5.29a.886.886,0,0,0,0-1.253l-1.864-1.866,1.894-1.894a.886.886,0,0,0,0-1.253l-1.731-1.731h5.037a.886.886,0,0,0,0-1.772H41.2l-6.233-6.233c.953-1.66,4.23-6.574,9.637-6.574a17.033,17.033,0,0,1,6.462,1.768.885.885,0,0,0,.319.059h5.571a1.473,1.473,0,1,1,0,2.945h-10.7a.886.886,0,1,0,0,1.772h10.7a3.223,3.223,0,0,0,2.97-1.943L72.3,236.407a1.479,1.479,0,0,1,1.37,2.62L58.74,250.7a5.008,5.008,0,0,1-3.073,1.059h-3.8a.886.886,0,1,0,0,1.772h3.8a6.787,6.787,0,0,0,4.165-1.435l14.887-11.636A3.3,3.3,0,0,0,75.847,236.061ZM41.563,257.15,30.044,245.631l1.263-1.263,11.519,11.519Z" transform="translate(-21.018 -206.868)" fill="#fff"/></g></g></g></svg>