<svg xmlns="http://www.w3.org/2000/svg" xmlns:xlink="http://www.w3.org/1999/xlink" width="104.37" height="104.37" viewBox="0 0 104.37 104.37"><defs><filter id="a" x="0" y="0" width="104.37" height="104.37" filterUnits="userSpaceOnUse"><feOffset dy="3" input="SourceAlpha"/><feGaussianBlur stdDeviation="3" result="b"/><feFlood flood-opacity="0.161"/><feComposite operator="in" in2="b"/><feComposite in="SourceGraphic"/></filter></defs><g transform="translate(-904.3 -5104)"><g transform="matrix(1, 0, 0, 1, 904.3, 5104)" filter="url(#a)"><circle cx="43.185" cy="43.185" r="43.185" transform="translate(9 6)" fill="#d3d9e7"/></g><g transform="translate(929.511 5126.211)"><path d="M15.921,38.4l-.58-.29-.789,1.577.58.29a1.257,1.257,0,0,1,0,2.249l-.58.29.789,1.577.58-.29a3.02,3.02,0,0,0,0-5.4Z" transform="translate(-1.726 -4.519)" fill="#12263f"/><path d="M27.957,36.931l-1.542-.385a7.119,7.119,0,0,0-7.024-6.576V21.154a1.765,1.765,0,0,0,1.763-1.763v-.162a2.615,2.615,0,0,0,.881.162h.881a1.765,1.765,0,0,0,1.763-1.763V15.866a1.743,1.743,0,0,0-.245-.881,1.743,1.743,0,0,0,.245-.881V12.34a1.743,1.743,0,0,0-.245-.881,1.743,1.743,0,0,0,.245-.881V8.814a1.765,1.765,0,0,0-1.763-1.763h-.49a3.489,3.489,0,0,0,.49-1.763V1.763A1.765,1.765,0,0,0,21.154,0H15.866A1.765,1.765,0,0,0,14.1,1.763V3.7A9.752,9.752,0,0,0,8.387,7.051H3.526V17.628H9.345a6.847,6.847,0,0,0,4.607,1.763h1.914a1.765,1.765,0,0,0,1.763,1.763v7.084a2.169,2.169,0,0,0-.365-.033,2.142,2.142,0,0,0-1.5.623l-.881.881a.886.886,0,0,1-.623.258,10.092,10.092,0,0,0-4.325.992,5.292,5.292,0,0,0-4.641-2.755H4.817A4.822,4.822,0,0,0,0,33.022a4,4,0,0,0,1.763,3.313v6.518A11.8,11.8,0,0,0,22.435,50.62l2.2-2.512a12.715,12.715,0,0,0,9.928,4.777h7.747a3.529,3.529,0,0,0,3.526-3.526h8.814v-14.1H32.461a6.962,6.962,0,0,0-4.5,1.673ZM19.391,19.391H17.628V8.814h1.763c.057,0,.111-.014.167-.017a2.568,2.568,0,0,0,.52,2.661,2.6,2.6,0,0,0,0,3.526,2.623,2.623,0,0,0-.688,1.763ZM22.918,14.1h-.882a.881.881,0,1,1,0-1.763h.881Zm-.882,3.526a.881.881,0,1,1,0-1.763h.881v1.763Zm.882-7.051h-.882a.881.881,0,1,1,0-1.763h.881ZM15.866,1.763h5.289V3.526H15.866ZM13.951,17.628a5.1,5.1,0,0,1-3.632-1.5l-.258-.258H5.289V8.814H9.255l.264-.353a7.973,7.973,0,0,1,6.346-3.173h5.289a1.765,1.765,0,0,1-1.763,1.763H16.2l-.337.673A1.96,1.96,0,0,1,14.1,8.814v1.763a3.729,3.729,0,0,0,1.763-.442v7.494Zm7.2,14.431v1.07a3.864,3.864,0,0,0,1.14,2.751l1.246-1.246a2.115,2.115,0,0,1-.623-1.5v0a5.29,5.29,0,0,1,.576,7.282,5.3,5.3,0,0,1-4.1-5.15V31.735A5.3,5.3,0,0,1,21.154,32.059Zm-.047,17.4A10.032,10.032,0,0,1,3.526,42.853V36.992a4.042,4.042,0,0,0,3.3-1.143L7.675,35,6.428,33.752l-.851.851a2.235,2.235,0,0,1-3.815-1.58,3.058,3.058,0,0,1,3.054-3.054h.472a3.529,3.529,0,0,1,3.526,3.526v6.17a4.414,4.414,0,0,0,3.526,4.318v.089a3.526,3.526,0,0,0,7.05.063,6.209,6.209,0,0,1,4.056,2.4l.1.133Zm21.2,1.663H34.561a10.967,10.967,0,0,1-9.045-4.761l-.66-.88a7.968,7.968,0,0,0-6.346-3.174h-.881v1.763a1.763,1.763,0,0,1-3.526,0V42.308h-.881a2.647,2.647,0,0,1-2.644-2.644v-6.17a5.309,5.309,0,0,0-.075-.851,8.346,8.346,0,0,1,3.752-.911,2.628,2.628,0,0,0,1.869-.775l.881-.881a.379.379,0,0,1,.623.258v4.924a7.06,7.06,0,0,0,7.051,7.051h8.449l.608.608a3.914,3.914,0,0,0,2.786,1.155,3.954,3.954,0,0,0,1.245-.2l1.122-.375a2.418,2.418,0,0,0-.763-4.712h-.378a6.959,6.959,0,0,0-4.606,1.763H25.536a7.047,7.047,0,0,0,.792-2.2l2.148.538.353-.353a5.172,5.172,0,0,1,3.632-1.5l9.848,0v8.814H32.1a3.864,3.864,0,0,0-2.751,1.14l1.246,1.246a2.115,2.115,0,0,1,1.5-.623H42.308a1.763,1.763,0,0,1,0,3.526ZM34.8,41.482a5.173,5.173,0,0,1,2.954-.937h.378a.655.655,0,0,1,.206,1.277l-1.12.374a2.191,2.191,0,0,1-2.229-.526Zm18.089-.937H47.962a3.864,3.864,0,0,0-2.751,1.14l1.246,1.246a2.115,2.115,0,0,1,1.5-.623h4.924V47.6H45.344a3.531,3.531,0,0,0-1.273-1.273v-9.3h8.814Z" transform="translate(0)" fill="#12263f"/><path d="M56.443,0H31.763A1.765,1.765,0,0,0,30,1.763v24.68a1.765,1.765,0,0,0,1.763,1.763h7.051v3.526H33.526v1.763H56.443V31.731H51.154V28.205h5.289a1.765,1.765,0,0,0,1.763-1.763V1.763A1.765,1.765,0,0,0,56.443,0Zm0,1.763V21.154H31.763V1.763ZM49.391,31.731H40.577V28.205h8.814ZM31.763,26.443V22.917h24.68v3.526Z" transform="translate(-3.557)" fill="#12263f"/><path d="M38,16.345v.769a2.751,2.751,0,0,0,4.7,1.945,4.334,4.334,0,0,1,2.425-1.229l5.06-.778A6.425,6.425,0,0,0,53.866,6.282V4H52.1V7.009l.4.4a4.662,4.662,0,0,1-2.587,7.9l-5.06.778a6.078,6.078,0,0,0-3.4,1.725,1,1,0,0,1-.7.289.989.989,0,0,1-.988-.988v-.769a3.018,3.018,0,0,1,1.906-2.815,5.8,5.8,0,0,0,3.217-3.216A4,4,0,0,1,47.823,7.87l2.517-.5V4H48.577V5.921l-1.1.22a5.755,5.755,0,0,0-4.228,3.517,4.028,4.028,0,0,1-2.234,2.234A4.772,4.772,0,0,0,38,16.345Z" transform="translate(-4.506 -0.474)" fill="#12263f"/><path d="M50,10h1.763v1.763H50Z" transform="translate(-5.929 -1.186)" fill="#12263f"/><path d="M46,14h5.289v1.763H46Z" transform="translate(-5.455 -1.66)" fill="#12263f"/><path d="M34,4h1.763V5.763H34Z" transform="translate(-4.032 -0.474)" fill="#12263f"/><path d="M38,4h3.526V5.763H38Z" transform="translate(-4.506 -0.474)" fill="#12263f"/><path d="M34,8h5.289V9.763H34Z" transform="translate(-4.032 -0.949)" fill="#12263f"/><path d="M34,12h1.763v1.763H34Z" transform="translate(-4.032 -1.423)" fill="#12263f"/><path d="M52,20h1.763v1.763H52Z" transform="translate(-6.166 -2.372)" fill="#12263f"/><path d="M56,20h1.763v1.763H56Z" transform="translate(-6.641 -2.372)" fill="#12263f"/></g></g></svg>