<svg xmlns="http://www.w3.org/2000/svg" width="46.201" height="52.895" viewBox="0 0 46.201 52.895"><g transform="translate(-134.286 -12.481)"><g transform="translate(134.286 12.481)"><g transform="translate(0.779 0.77)"><path d="M424.868,136.5h-.007l-.307.181V142h4.662l.255-.217V141.1A4.616,4.616,0,0,0,424.868,136.5Z" transform="translate(-384.82 -123.17)" fill="#ffc365"/><path d="M154.185,8.2l-.329-.741h-22.59a1.707,1.707,0,0,0-1.707,1.707V12.11l.71.582h18.938l6.218,6.044v7.7h4.425l.492-.359V13.944l-.768-.339Z" transform="translate(-120.301 -7.457)" fill="#62ddfc"/><g transform="translate(9.258 0)"><path d="M134.853,9.164a1.707,1.707,0,0,1,1.707-1.707h-5.294a1.707,1.707,0,0,0-1.707,1.707V12.11l.71.582h5.294l-.71-.582V9.164Z" transform="translate(-129.559 -7.457)" fill="#00d2fc"/></g><path d="M44.555,136.5H44.46a4.529,4.529,0,0,0-4.515,4.515v.769l.446.123H44.9v-5.117Z" transform="translate(-39.945 -123.17)" fill="#ffc365"/><path d="M364.741,7.457v4.78a1.707,1.707,0,0,0,1.707,1.707h4.78Z" transform="translate(-331.186 -7.457)" fill="#00d2fc"/><path d="M109.258,53.476l-.4-.978H86.271A1.707,1.707,0,0,0,84.564,54.2V66.461l.669.669h28.276l1.838-.669V58.985l-.958-.447Z" transform="translate(-79.954 -47.845)" fill="#dbedff"/><path d="M89.859,54.2A1.707,1.707,0,0,1,91.565,52.5H86.272A1.707,1.707,0,0,0,84.565,54.2V66.46l.669.669h5.294l-.669-.669Z" transform="translate(-79.955 -47.844)" fill="#b5dcff"/><path d="M319.746,52.5v4.78a1.707,1.707,0,0,0,1.707,1.707h4.78Z" transform="translate(-290.84 -47.845)" fill="#b5dcff"/><path d="M367.53,12.237v-1.99l-2.789-2.789v4.78a1.707,1.707,0,0,0,1.707,1.707h2.789A1.707,1.707,0,0,1,367.53,12.237Z" transform="translate(-331.186 -7.457)" fill="#00c2fb"/><path d="M322.535,57.278v-1.99L319.746,52.5v4.78a1.707,1.707,0,0,0,1.707,1.707h2.789A1.707,1.707,0,0,1,322.535,57.278Z" transform="translate(-290.84 -47.845)" fill="#8bcaff"/><path d="M84.6,187.649H39.945v31.358a1.372,1.372,0,0,0,1.372,1.372H83.224a1.372,1.372,0,0,0,1.372-1.372Z" transform="translate(-39.945 -169.033)" fill="#ffd086"/><path d="M46.526,219.007V187.649H39.945v31.358a1.372,1.372,0,0,0,1.372,1.372H47.9A1.372,1.372,0,0,1,46.526,219.007Z" transform="translate(-39.945 -169.033)" fill="#ffc365"/><path d="M273.367,320H256.924a.878.878,0,0,0-.878.878v12.943a.878.878,0,0,0,.878.878h16.443a.878.878,0,0,0,.878-.878V320.88A.878.878,0,0,0,273.367,320Z" transform="translate(-233.721 -287.713)" fill="#dbedff"/><path d="M260.172,333.823V320.88a.878.878,0,0,1,.878-.878h-4.126a.878.878,0,0,0-.878.878v12.943a.878.878,0,0,0,.878.878h4.126A.878.878,0,0,1,260.172,333.823Z" transform="translate(-233.721 -287.713)" fill="#b5dcff"/></g><path d="M37.01,13.377a5.3,5.3,0,0,0-4.61,5.245V50.748A2.149,2.149,0,0,0,34.547,52.9H76.454A2.149,2.149,0,0,0,78.6,50.748V36.724a.775.775,0,0,0-1.55,0V50.748a.6.6,0,0,1-.6.6H34.547a.6.6,0,0,1-.6-.6V20.165h43.1V33.108a.775.775,0,0,0,1.55,0v-14.4a5.385,5.385,0,0,0-4.61-5.322V7.261a.779.779,0,0,0-.227-.548L67.278.227A.782.782,0,0,0,66.73,0H44.14a2.484,2.484,0,0,0-2.482,2.482V4.653H39.491A2.484,2.484,0,0,0,37.01,7.135Zm0,5.239H33.95a3.747,3.747,0,0,1,3.06-3.672Zm36.981-3.657a3.834,3.834,0,0,1,3.059,3.657H73.991ZM67.5,2.645l3.841,3.841H68.436a.933.933,0,0,1-.932-.932Zm-24.3-.164a.933.933,0,0,1,.932-.932H65.955v4a2.484,2.484,0,0,0,2.482,2.482h4v10.58h-3.1v-6.7a.779.779,0,0,0-.227-.548L62.629,4.88a.784.784,0,0,0-.548-.227H43.208ZM66.7,11.14H63.788a.933.933,0,0,1-.932-.932V7.3Zm-28.138-4a.933.933,0,0,1,.932-.932H61.306v4a2.484,2.484,0,0,0,2.482,2.482h4v5.926H38.559Z" transform="translate(-32.4 0)"/><path d="M295.307,425.126H284.356a.775.775,0,0,0,0,1.55h10.951a.775.775,0,0,0,0-1.55Z" transform="translate(-257.631 -381.206)"/><path d="M295.307,397.5H284.356a.775.775,0,1,0,0,1.55h10.951a.775.775,0,1,0,0-1.55Z" transform="translate(-257.631 -356.433)"/><path d="M295.307,369.873H284.356a.775.775,0,1,0,0,1.55h10.951a.775.775,0,1,0,0-1.55Z" transform="translate(-257.631 -331.661)"/><path d="M295.307,342.246H284.356a.775.775,0,0,0,0,1.55h10.951a.775.775,0,0,0,0-1.55Z" transform="translate(-257.631 -306.888)"/><path d="M140.68,149.617H119.365a.775.775,0,1,0,0,1.55H140.68a.775.775,0,0,0,0-1.55Z" transform="translate(-109.686 -134.16)"/><path d="M119.364,123.541H137.3a.775.775,0,1,0,0-1.55h-17.94a.775.775,0,1,0,0,1.55Z" transform="translate(-109.685 -109.388)"/><path d="M256.567,312.545h-6.414A1.655,1.655,0,0,0,248.5,314.2v12.943a1.655,1.655,0,0,0,1.653,1.653H266.6a1.655,1.655,0,0,0,1.653-1.653V314.2a1.655,1.655,0,0,0-1.653-1.653h-6.413a.775.775,0,0,0,0,1.55H266.6a.1.1,0,0,1,.1.1v12.943a.1.1,0,0,1-.1.1H250.153a.1.1,0,0,1-.1-.1V314.2a.1.1,0,0,1,.1-.1h6.414a.775.775,0,0,0,0-1.55Z" transform="translate(-226.175 -280.256)"/></g></g></svg>