<svg xmlns="http://www.w3.org/2000/svg" width="79.761" height="78.161" viewBox="0 0 79.761 78.161"><g transform="translate(-1 -1.622)"><g transform="translate(1 1.622)"><path d="M51.292,22.652v1.055a1.286,1.286,0,1,0,2.573,0V22.654a4.139,4.139,0,0,0,3.582-4.07c0-1.518-.6-4.15-4.677-4.719-2.02-.362-2.348-1.169-2.232-2.29a2.116,2.116,0,0,1,2.4-1.5c.464.033,1.545.227,1.56,1.321a1.328,1.328,0,0,0,1.3,1.269,1.287,1.287,0,0,0,1.269-1.3,3.812,3.812,0,0,0-3.205-3.741v-.93a1.286,1.286,0,1,0-2.573,0V7.7a4.366,4.366,0,0,0-3.3,3.541c-.168,1.605.17,4.41,4.378,5.163,2.209.31,2.511,1.227,2.509,2.175,0,1.579-1.963,1.606-2.341,1.649a2.109,2.109,0,0,1-2.324-2.085,1.286,1.286,0,1,0-2.565.19,4.586,4.586,0,0,0,3.648,4.318Z" transform="translate(12.361 -0.539)" fill="#12263f"/><path d="M15.247,8.521h11a1.286,1.286,0,1,0,0-2.573h-11a1.286,1.286,0,0,0,0,2.573Z" transform="translate(2.713 -0.383)" fill="#12263f"/><path d="M24.308,55.917H16.476a1.286,1.286,0,0,0,0,2.573h7.833a1.286,1.286,0,0,0,0-2.573Z" transform="translate(3.065 13.932)" fill="#12263f"/><path d="M50.556,39.031a1.309,1.309,0,0,0-1.682.739,1.287,1.287,0,1,0,2.389.956l.018-.044a1.267,1.267,0,0,0-.726-1.651Z" transform="translate(12.688 9.069)" fill="#12263f"/><path d="M22.695,20.138a15.532,15.532,0,1,0,15.529,15.53,15.55,15.55,0,0,0-15.529-15.53Zm0,28.491A12.959,12.959,0,1,1,35.651,35.668,12.976,12.976,0,0,1,22.695,48.63Z" transform="translate(0.765 3.682)" fill="#12263f"/><path d="M76.858,33.412H47.919V10.718a8.686,8.686,0,0,0-8.676-8.676H9.676A8.686,8.686,0,0,0,1,10.718V70.986a8.686,8.686,0,0,0,8.676,8.676H39.242a8.686,8.686,0,0,0,8.676-8.676V68.222H76.858a3.908,3.908,0,0,0,3.9-3.9v-27a3.907,3.907,0,0,0-3.9-3.9ZM3.573,15.547H45.346v50.3H3.573Zm44.346,31.48a4.742,4.742,0,1,1,0,7.58Zm0,10.514a7.315,7.315,0,1,0,0-13.449V41.78H66.891a6.423,6.423,0,0,0,4.988,4.988v8.1a6.423,6.423,0,0,0-4.988,4.988H47.919ZM9.676,4.615H39.242a6.11,6.11,0,0,1,6.1,6.1v2.256H3.573V10.718a6.11,6.11,0,0,1,6.1-6.1ZM39.242,77.09H9.676a6.11,6.11,0,0,1-6.1-6.1V68.421H45.346v2.565A6.11,6.11,0,0,1,39.242,77.09ZM78.188,64.318a1.332,1.332,0,0,1-1.33,1.33H47.919V62.426H68.047a1.287,1.287,0,0,0,1.286-1.286,3.836,3.836,0,0,1,3.832-3.832,1.287,1.287,0,0,0,1.286-1.286V45.612a1.287,1.287,0,0,0-1.286-1.286,3.836,3.836,0,0,1-3.832-3.832,1.287,1.287,0,0,0-1.286-1.286H47.919V35.985H76.858a1.332,1.332,0,0,1,1.33,1.33Z" transform="translate(-1 -1.502)" fill="#12263f"/><path d="M54.659,30.951A14.664,14.664,0,1,0,39.993,16.289,14.681,14.681,0,0,0,54.659,30.951Zm0-26.756A12.091,12.091,0,1,1,42.566,16.289,12.107,12.107,0,0,1,54.659,4.2Z" transform="translate(10.17 -1.622)" fill="#12263f"/><path d="M26.671,26.12a3.465,3.465,0,0,0-2.4,1.168l-5.85,6.576-.983-.871a3.632,3.632,0,0,0-5.126.3,3.635,3.635,0,0,0,.3,5.124L16.5,41.874a3.425,3.425,0,0,0,2.181,1.019c.051,0,.1,0,.157-.006a3.829,3.829,0,0,0,2.5-1.749c.158-.186.328-.387.516-.6l7.647-8.6a3.5,3.5,0,0,0-2.83-5.822Zm.906,4.112-7.645,8.6h0c-.2.227-.386.443-.556.645a8.7,8.7,0,0,1-.735.805,2.754,2.754,0,0,1-.434-.329l-3.888-3.459A1.07,1.07,0,0,1,14.23,35a1.051,1.051,0,0,1,.732-.353l.062,0a1.04,1.04,0,0,1,.7.268l1.948,1.727a1.287,1.287,0,0,0,1.814-.108l6.706-7.539a.912.912,0,0,1,.634-.307.931.931,0,0,1,.751,1.545Z" transform="translate(1.977 5.394)" fill="#12263f"/></g></g></svg>