<svg xmlns="http://www.w3.org/2000/svg" xmlns:xlink="http://www.w3.org/1999/xlink" width="610" height="363" viewBox="0 0 610 363"><defs><clipPath id="a"><rect width="610" height="363" transform="translate(179.936 2090)" fill="#fff" opacity="0.39"/></clipPath><clipPath id="b"><rect width="498.738" height="281.345" fill="#0273bc"/></clipPath><clipPath id="c"><rect width="513.232" height="337.353" fill="none"/></clipPath><clipPath id="d"><rect width="204.354" height="376.158" fill="none"/></clipPath><clipPath id="e"><path d="M123.677,54.178s-8.022,10.522-20.339,2.7a10.483,10.483,0,0,1,9.706-6.071c2.789,0,6.289.9,10.633,3.375" transform="translate(-103.338 -50.803)" fill="none"/></clipPath><clipPath id="f"><path d="M123.52,54.152s-7.96,10.44-20.182,2.675a10.4,10.4,0,0,1,9.631-6.024c2.768,0,6.24.889,10.551,3.349" transform="translate(-103.338 -50.803)" fill="none"/></clipPath></defs><g transform="translate(-179.936 -2090)"><g clip-path="url(#a)"><g transform="translate(-0.754)"><g transform="translate(235.936 2167.31)" opacity="0.35"><g transform="translate(0 0)" clip-path="url(#b)"><path d="M.173,178.929q-.057-1.173-.095-2.336C-2.229,106.087,46.852,98.451,126.7,107.147c1.964.214,2.146.841,2.864,1.113,78.347,29.673,112.759,19.61,209.7-50.792,131.3-95.357,238.975,139.061,80.428,231.987H77.383c-4.38-2.192-8.468-4.369-12.259-6.495-38-21.307-62.841-60.515-64.951-104.032" transform="translate(-0.001 -8.111)" fill="#0273bc"/><path d="M272.9,54.276c-3.321-8.643,1.118-16.873,10.8-16.015,9.814.87,35.254,2.17,56.905-21.076,44.958-48.271,74.016,16.928,27.22,51.311-32.032,23.536-81.634,20.356-94.922-14.22" transform="translate(-101.897 0)" fill="#0273bc"/></g></g><g transform="translate(0 570.654)"><g transform="translate(228.689 1546.023)"><g clip-path="url(#c)"><path d="M254.787.547A103.251,103.251,0,0,0,188.6,34.7c-16.619,18.938-27.5,41.71-39.413,63.636s-25.518,43.807-45.89,59.043c-19.423,14.529-44.713,22.846-58.763,42.2-14.47,19.924-12.888,47.936-.037,68.839s35.306,35.225,59.242,43.351S153.254,322.4,178.58,324.34c82.2,6.286,167.03,6.749,244.518-20.159,27.88-9.686,56.18-24.436,69.4-49.776,13.153-25.216,8.265-56.415-6.212-80.969s-37.36-43.528-60.92-60.507-48.437-32.62-69.045-52.794c-14.514-14.212-26.835-30.6-43.145-42.9C296.843,4.926,279.031-2.073,254.787.547" transform="translate(-9.044 0)" fill="#e4efed"/><path d="M472.765,378.673c.147-40.23,11.511-80.328,32.223-113.655s50.66-59.742,87.6-73.255c4.092,41.069-6.116,83.64-28.138,117.291a174.327,174.327,0,0,1-91.685,69.619" transform="translate(-124.805 -50.623)" fill="#70a8c4"/><path d="M589.419,206.643a614.863,614.863,0,0,0-103.424,169.3" transform="translate(-128.297 -54.551)" fill="none" stroke="#eaf8f9" stroke-linecap="round" stroke-miterlimit="10" stroke-width="1"/><path d="M596.244,236.431a67.141,67.141,0,0,1-.626-19.158" transform="translate(-157.128 -57.358)" fill="none" stroke="#eaf8f9" stroke-linecap="round" stroke-miterlimit="10" stroke-width="1"/><path d="M581.165,264.393a122.186,122.186,0,0,0,32.031.559" transform="translate(-153.421 -69.797)" fill="none" stroke="#eaf8f9" stroke-linecap="round" stroke-miterlimit="10" stroke-width="1"/><path d="M546.588,299.693a123.873,123.873,0,0,1-8.943-31.42" transform="translate(-141.932 -70.821)" fill="none" stroke="#eaf8f9" stroke-linecap="round" stroke-miterlimit="10" stroke-width="1"/><path d="M536.985,334.173a200.974,200.974,0,0,0,43.461,5.189" transform="translate(-141.758 -88.218)" fill="none" stroke="#eaf8f9" stroke-linecap="round" stroke-miterlimit="10" stroke-width="1"/><path d="M510.868,363.123a111.357,111.357,0,0,1-11.813-27.88" transform="translate(-131.745 -88.5)" fill="none" stroke="#eaf8f9" stroke-linecap="round" stroke-miterlimit="10" stroke-width="1"/><path d="M479.055,422.837A126.121,126.121,0,0,1,547.3,362.882a118.28,118.28,0,0,1,92.4,4.865c-41.121,40.407-101.621,60.139-160.642,55.09" transform="translate(-126.465 -93.912)" fill="#82ced8"/><path d="M629.555,375.723a329.293,329.293,0,0,0-140.1,47.738" transform="translate(-129.211 -99.187)" fill="none" stroke="#eaf8f9" stroke-linecap="round" stroke-miterlimit="10" stroke-width="1"/><path d="M637.445,376.879a69.754,69.754,0,0,1,8.133-13.756" transform="translate(-168.278 -95.86)" fill="none" stroke="#eaf8f9" stroke-linecap="round" stroke-miterlimit="10" stroke-width="1"/><path d="M620.925,386.183a64.919,64.919,0,0,0,18.547,13.94" transform="translate(-163.917 -101.948)" fill="none" stroke="#eaf8f9" stroke-linecap="round" stroke-miterlimit="10" stroke-width="1"/><path d="M586.485,387.083a60.865,60.865,0,0,1,5.358-24.06" transform="translate(-154.825 -95.834)" fill="none" stroke="#eaf8f9" stroke-linecap="round" stroke-miterlimit="10" stroke-width="1"/><path d="M567.165,402.783a71.4,71.4,0,0,0,16.487,22.066" transform="translate(-149.725 -106.33)" fill="none" stroke="#eaf8f9" stroke-linecap="round" stroke-miterlimit="10" stroke-width="1"/><path d="M539.678,406.57a68.739,68.739,0,0,1,.368-19.077" transform="translate(-142.338 -102.294)" fill="none" stroke="#eaf8f9" stroke-linecap="round" stroke-miterlimit="10" stroke-width="1"/><path d="M519.775,423.743A45.5,45.5,0,0,0,539.2,433.878" transform="translate(-137.215 -111.863)" fill="none" stroke="#eaf8f9" stroke-linecap="round" stroke-miterlimit="10" stroke-width="1"/><path d="M282.128,358.986c2.834-41.084,5.616-82.838-3.548-123.032s-32.112-79.357-71.069-97.772c-15.846,40.459-25.613,84.8-15.986,127.072s42.24,81.594,90.6,93.731" transform="translate(-49.552 -36.479)" fill="#82ced8"/><path d="M223.615,156.673q10.919,41.158,21.83,82.323c10.768,40.628,21.646,81.543,40.024,119.344" transform="translate(-59.032 -41.36)" fill="none" stroke="#eaf8f9" stroke-linecap="round" stroke-miterlimit="10" stroke-width="1"/><path d="M252.4,177.283a149.4,149.4,0,0,1-13.145,28.049" transform="translate(-63.161 -46.801)" fill="none" stroke="#eaf8f9" stroke-linecap="round" stroke-miterlimit="10" stroke-width="1"/><path d="M231.727,239.073a208.04,208.04,0,0,1-38.162,1.6" transform="translate(-51.099 -63.113)" fill="none" stroke="#eaf8f9" stroke-linecap="round" stroke-miterlimit="10" stroke-width="1"/><path d="M261.845,286.41a141.455,141.455,0,0,0,30.567-34.217" transform="translate(-69.124 -66.576)" fill="none" stroke="#eaf8f9" stroke-linecap="round" stroke-miterlimit="10" stroke-width="1"/><path d="M256.265,332.053a87.171,87.171,0,0,1-39.45,1.752" transform="translate(-57.237 -87.658)" fill="none" stroke="#eaf8f9" stroke-linecap="round" stroke-miterlimit="10" stroke-width="1"/><path d="M288.135,376.3a93.075,93.075,0,0,0,19.607-26.828" transform="translate(-76.064 -92.257)" fill="none" stroke="#eaf8f9" stroke-linecap="round" stroke-miterlimit="10" stroke-width="1"/><path d="M222.923,402.256C181.177,335.33,101.68,293.834,22.905,297.838c8.214,39.59,34.7,75.007,70.348,94.07s79.813,21.433,129.67,10.348" transform="translate(-6.047 -78.556)" fill="#70a8c4"/><path d="M40.815,309.373c17.355,17.5,34.916,35.181,55.856,48.179,22.272,13.83,47.576,21.874,72.718,29.293q24.885,7.342,49.953,14.036" transform="translate(-10.775 -81.671)" fill="none" stroke="#eaf8f9" stroke-linecap="round" stroke-miterlimit="10" stroke-width="1"/><path d="M81.4,337.266a122.055,122.055,0,0,0,2.966-30.883" transform="translate(-21.49 -80.882)" fill="none" stroke="#eaf8f9" stroke-linecap="round" stroke-miterlimit="10" stroke-width="1"/><path d="M63.464,337.673A77.07,77.07,0,0,1,47.1,344.415" transform="translate(-12.433 -89.142)" fill="none" stroke="#eaf8f9" stroke-linecap="round" stroke-miterlimit="10" stroke-width="1"/><path d="M92.975,398.559A93.107,93.107,0,0,0,118.353,381.4" transform="translate(-24.544 -100.686)" fill="none" stroke="#eaf8f9" stroke-linecap="round" stroke-miterlimit="10" stroke-width="1"/><path d="M154.235,377.692a246.024,246.024,0,0,0,2.973-44.919" transform="translate(-40.716 -87.848)" fill="none" stroke="#eaf8f9" stroke-linecap="round" stroke-miterlimit="10" stroke-width="1"/><path d="M235.079,378.073a119.941,119.941,0,0,1-3.054,30.353" transform="translate(-61.252 -99.807)" fill="none" stroke="#eaf8f9" stroke-linecap="round" stroke-miterlimit="10" stroke-width="1"/><path d="M214.808,416.923a51.777,51.777,0,0,1-20.233,17.686" transform="translate(-51.366 -110.063)" fill="none" stroke="#eaf8f9" stroke-linecap="round" stroke-miterlimit="10" stroke-width="1"/></g></g></g><g transform="translate(96.443)"><g transform="translate(302.685 2072.497)"><g clip-path="url(#d)"><path d="M122.2,855.5c.648-3.457,1.338-6.914,2.042-10.361,10.611-3.615,20.859-8.38,31.037-13.123q2.5-1.173,5.014-2.339a238.459,238.459,0,0,0,64.1,19.588c.358,2.027.669,4.065.955,6.1a37.738,37.738,0,0,0,12.051-1.185q.843,7.913,1.675,15.825H107.462V855.44c4.9.291,9.876.2,14.742.056" transform="translate(-63.965 -493.846)" fill="#32b38e"/><path d="M184.981,757.038q-2.5,1.172-5.014,2.339c-10.177,4.744-20.426,9.508-31.037,13.123,3.319-16.085,7.2-32.048,11.106-48q7.889-1.7,15.773-3.426,15.686-3.424,31.368-6.914c14.875-3.3,29.724-8.114,44.957-5.995q-.237,12.4-1,24.776-6.2-.475-12.4-.945c-.97.449-1.935.9-2.905,1.353q-25.422,11.841-50.849,23.688" transform="translate(-88.648 -421.21)" fill="#fbc7b2"/><path d="M288.843,771.151a179.739,179.739,0,0,1,13.246,43.276,238.428,238.428,0,0,1-64.095-19.588Q263.416,783,288.843,771.151" transform="translate(-141.661 -459.012)" fill="#fbc7b2"/><path d="M314.114,379.9a29.77,29.77,0,0,1-9.411-4.79,19.775,19.775,0,0,1-7.557-12.015,25.768,25.768,0,0,1-.577-4.489,41.03,41.03,0,0,0,4.678-4.452c6.434-7.179,10.386-16.259,12.4-25.726A216.487,216.487,0,0,0,315,352.082c1,7.935,2.8,15.85,2.426,23.841a34.9,34.9,0,0,1-.536,4.744c-.934-.22-1.859-.475-2.773-.771" transform="translate(-176.526 -195.488)" fill="#001433"/><path d="M-14487.136,9720.66a41.072,41.072,0,0,1-12.392-9.412c-6.914-7.719-10.964-17.641-12.822-27.88-.072-.615-.149-1.245-.229-1.879a155.38,155.38,0,0,1-1.147-21.4c3.981-5.325,9.012-9.823,13.5-14.759,4.674-5.125,8.913-11.059,10.25-17.827a115.666,115.666,0,0,0,58.6,27.5c.474,3.649.791,7.321,1,10.979.353,6.506.4,13.025.51,19.538-2.019,9.467-5.97,18.544-12.4,25.724a41.672,41.672,0,0,1-4.677,4.455c-6.782,5.515-15.327,8.909-23.945,8.694-.263.007-.524.011-.791.011A35.081,35.081,0,0,1-14487.136,9720.66Zm.087-52.215-.008,0Zm-.261-.08-.028-.006Zm-.032-.007c-.053-.011-.1-.021-.158-.026C-14487.446,9668.339-14487.395,9668.348-14487.342,9668.358Zm-.158-.026-.124-.011Zm-.24-.011h0Z" transform="translate(14566.997 -9552.587)" fill="#ffb199" stroke="rgba(0,0,0,0)" stroke-miterlimit="10" stroke-width="1"/><path d="M192.9,445.16a51.447,51.447,0,0,1-17.367-2.374,35.275,35.275,0,0,1-12.945-7.021,22.1,22.1,0,0,1-7-11.489,29.826,29.826,0,0,0,9.411-4.79,19.918,19.918,0,0,0,7.47-11.545,34.886,34.886,0,0,0,16.238,3.737c8.62.215,17.168-3.181,23.944-8.7a25.721,25.721,0,0,0,.577,4.488,19.772,19.772,0,0,0,7.557,12.015,29.763,29.763,0,0,0,9.411,4.79,22.105,22.105,0,0,1-7,11.489,35.342,35.342,0,0,1-12.95,7.021A51.39,51.39,0,0,1,192.9,445.16" transform="translate(-92.612 -239.867)" fill="#ffb199"/><path d="M143.335,376.727c-.791.255-1.593.48-2.4.679A92,92,0,0,1,138,356.087c-.465-11.908-1.6-21.391-3-32.987,1.859,10.238,5.908,20.16,12.822,27.881a41.107,41.107,0,0,0,12.394,9.411,19.925,19.925,0,0,1-7.471,11.546,29.824,29.824,0,0,1-9.411,4.79" transform="translate(-80.357 -192.319)" fill="#001433"/><path d="M112.8,174.736a155.058,155.058,0,0,0,1.149,21.4c.076.633.153,1.261.225,1.879,1.4,11.6,2.538,21.079,3,32.987a91.993,91.993,0,0,0,2.931,21.319,44.035,44.035,0,0,0,6.878,14.451c.266.357.444.608.628.848a11.933,11.933,0,0,1-6.567-1.394c-4.2-2.252-6.848-7.455-8.522-11.724a34.453,34.453,0,0,1-2.038-7.813,39.735,39.735,0,0,0,2.466,16.728,22.07,22.07,0,0,1-7.3-6.582,28.188,28.188,0,0,1-2.9-4.922l.066-.031c-2.671-6.924-3.2-14.522-2.574-21.911a129.535,129.535,0,0,1,3.36-18.888c.756-3.227.6-6.7.878-10.034q.483-5.821.96-11.642.957-11.635,1.92-23.28c.695-8.384,1.409-16.887,4.325-24.781s8.344-15.238,16.085-18.541l.255.327a47.51,47.51,0,0,1,69.9,12.807c2.242,3.707,2.911,8.1,4.264,12.224,6.409,19.578,9.258,40.044,14.814,59.923,2.231,8,4.9,15.937,5.729,24.194.807,8.017-1.46,18.25-6.066,24.975a41.691,41.691,0,0,0-9.952-2.293c-.076.128-.158.25-.235.378A33.529,33.529,0,0,1,191,268.427l-.066-.092c5.02-3.7,7.849-9.676,8.962-15.922a34.819,34.819,0,0,0,.536-4.744c.373-7.991-1.425-15.906-2.425-23.841a216.386,216.386,0,0,1-1.348-23.658c-.107-6.511-.153-13.032-.51-19.537-.2-3.656-.516-7.328-.991-10.979a115.661,115.661,0,0,1-58.6-27.5c-1.338,6.766-5.581,12.7-10.248,17.826-4.494,4.933-9.523,9.432-13.506,14.758" transform="translate(-59.533 -67.234)" fill="#003154"/><path d="M43.5,625.491c-8.854-.531-17.459-2.3-24.75-7.164-8.8-5.878-14.446-15.692-16.933-25.971s-2.089-21.053-.75-31.547S4.97,541.818,6.37,531.334c1.93-14.466,3.866-28.989,7.818-43.036,1.838-6.542,4.172-13.088,8.329-18.465,5.908-7.649,14.844-12.179,23.607-16.335a22.071,22.071,0,0,0,7.3,6.582,39.735,39.735,0,0,1-2.466-16.728A34.455,34.455,0,0,0,53,451.164c1.675,4.269,4.325,9.472,8.522,11.724a11.933,11.933,0,0,0,6.567,1.394c-.184-.24-.362-.49-.628-.848a44.036,44.036,0,0,1-6.878-14.451c.807-.2,1.609-.424,2.4-.679a22.1,22.1,0,0,0,7,11.489,35.273,35.273,0,0,0,12.945,7.021,51.468,51.468,0,0,0,17.367,2.375,51.408,51.408,0,0,0,17.357-2.375,35.333,35.333,0,0,0,12.95-7.021,22.1,22.1,0,0,0,7-11.489q1.372.444,2.773.771c-1.114,6.245-3.942,12.225-8.962,15.922l.066.092A33.532,33.532,0,0,0,146.953,452c.077-.127.158-.25.235-.378a41.7,41.7,0,0,1,9.953,2.293,53.843,53.843,0,0,1,23.688,17.668c8.533,10.953,13.292,24.414,16.121,38.007,4.611,22.167,7.062,40.9,7.384,63.538.138,9.774-.286,19.828-4.187,28.79-4.805,11.03-15.115,19.287-26.711,22.31a37.752,37.752,0,0,1-12.051,1.185c-.286-2.038-.6-4.075-.955-6.1a179.745,179.745,0,0,0-13.246-43.276c.97-.454,1.935-.9,2.905-1.353q6.2.475,12.4.945.758-12.37,1-24.776c-15.232-2.119-30.082,2.691-44.957,6q-15.679,3.484-31.368,6.914v-.005q-7.016-5.285-14.037-10.57L66.109,547.9a56.723,56.723,0,0,0-6.388-4.529,11.664,11.664,0,0,0-1.328-.633l.092-.23-14.129-5.76-2.849-1.164c-2.732-1.108-5.862-2.216-8.563-1.251h-.005a7.683,7.683,0,0,0-3.028,6.884,4.319,4.319,0,0,1-.02.664,5,5,0,0,0-1.4.3,5.838,5.838,0,0,0-2.88,2.737,9.132,9.132,0,0,0-.352,7.894c-.015.021-.026.046-.041.066a7.628,7.628,0,0,0,4.335,11.27c-.015.148-.026.3-.036.439a12.145,12.145,0,0,0,.3,4.55,7.032,7.032,0,0,0,6.25,4.509,9.632,9.632,0,0,0,7.3-3.1l.031-.056a12.811,12.811,0,0,1,2.66,1.91l.046.22q12.646-2.7,25.287-5.433c-3.906,15.952-7.787,31.915-11.107,48-.7,3.447-1.394,6.9-2.042,10.361-4.867.148-9.845.235-14.742-.056" transform="translate(0 -263.896)" fill="#3dc6a6"/><path d="M65.012,697.394a7.628,7.628,0,0,1-4.336-11.27c.015-.021.026-.046.041-.066a9.133,9.133,0,0,1,.353-7.895,5.837,5.837,0,0,1,2.88-2.737,5,5,0,0,1,1.4-.3,4.31,4.31,0,0,0,.021-.664,7.682,7.682,0,0,1,3.028-6.884h0c2.7-.965,5.832.143,8.563,1.251l2.85,1.164,14.129,5.76-.092.229a11.753,11.753,0,0,1,1.328.633,56.662,56.662,0,0,1,6.388,4.529l7.016,5.285q7.016,5.285,14.037,10.57v0q-7.889,1.724-15.773,3.426-12.639,2.735-25.287,5.433l-.046-.22a12.836,12.836,0,0,0-2.661-1.91l-.031.056a9.633,9.633,0,0,1-7.3,3.1,7.033,7.033,0,0,1-6.25-4.509,12.144,12.144,0,0,1-.3-4.55c.01-.143.02-.291.036-.439" transform="translate(-35.465 -397.142)" fill="#fbc7b2"/><path d="M212.089,411.4a29.289,29.289,0,0,1-3.456-.209,37.511,37.511,0,0,1-12.007-3.631.511.511,0,1,1,.448-.918,36.478,36.478,0,0,0,11.68,3.535,26.456,26.456,0,0,0,6.066.053c.593-.067,1.181-.117,1.767-.168a31.023,31.023,0,0,0,3.684-.465,38.418,38.418,0,0,0,16.443-8.011.511.511,0,0,1,.648.789,39.448,39.448,0,0,1-16.883,8.222,32.371,32.371,0,0,1-3.8.483c-.577.049-1.156.1-1.741.165a25.5,25.5,0,0,1-2.844.155" transform="translate(-116.866 -238.968)"/><path d="M132.444,211.634a.511.511,0,0,1-.355-.878A115.384,115.384,0,0,0,146.35,194a.511.511,0,0,1,.837.585,116.464,116.464,0,0,1-14.388,16.9.509.509,0,0,1-.355.144" transform="translate(-78.53 -115.347)" fill="#3c3a73"/><path d="M287.847,206.448a.526.526,0,0,1-.106-.011A59.781,59.781,0,0,1,259.6,191.965a.511.511,0,0,1,.691-.752,58.756,58.756,0,0,0,27.662,14.225.511.511,0,0,1-.1,1.01" transform="translate(-154.422 -113.736)" fill="#3c3a73"/><path d="M341.245,383.883a.526.526,0,0,1-.1-.009.511.511,0,0,1-.406-.6,35.87,35.87,0,0,0,.592-5.049c.271-5.808-.631-11.695-1.5-17.387-.32-2.085-.65-4.24-.919-6.366a203.341,203.341,0,0,1-1.312-21.618.511.511,0,0,1,.5-.521.536.536,0,0,1,.521.5,202.473,202.473,0,0,0,1.3,21.51c.267,2.112.6,4.261.915,6.339.88,5.742,1.79,11.68,1.515,17.589a37,37,0,0,1-.609,5.193.511.511,0,0,1-.5.415" transform="translate(-200.949 -197.816)" fill="#3c3a73"/><path d="M319.645,207.831a.511.511,0,0,1-.506-.443c-1.615-12.112-4.832-21.9-9.833-29.928a.511.511,0,0,1,.867-.54c5.08,8.153,8.344,18.075,9.979,30.334a.511.511,0,0,1-.438.574.559.559,0,0,1-.068,0" transform="translate(-184.062 -105.165)" fill="#3c3a73"/><path d="M362.3,435.6a.511.511,0,0,1-.432-.782,33.043,33.043,0,0,0,4.945-19.342.511.511,0,0,1,1.02-.061,34.074,34.074,0,0,1-5.1,19.944.509.509,0,0,1-.433.24" transform="translate(-215.349 -246.98)" fill="#3c3a73"/><path d="M344.377,232.525a.511.511,0,0,1-.5-.417A73.521,73.521,0,0,0,340,218.617a.511.511,0,1,1,.95-.375,74.546,74.546,0,0,1,3.934,13.68.51.51,0,0,1-.408.6.5.5,0,0,1-.094.009" transform="translate(-202.354 -129.712)" fill="#3c3a73"/><path d="M141.268,386.044a.511.511,0,0,1-.491-.37c-1.7-5.928-2.644-12.783-2.987-21.573-.367-9.427-1.147-17.321-2.285-27a.511.511,0,0,1,1.014-.119c1.141,9.705,1.923,17.621,2.291,27.08.339,8.707,1.276,15.485,2.948,21.332a.511.511,0,0,1-.491.651" transform="translate(-80.655 -200.312)" fill="#3c3a73"/><path d="M130.862,215.424h-.01a.511.511,0,0,1-.5-.52,111.881,111.881,0,0,1,5.583-33.836.511.511,0,0,1,.967.328,110.861,110.861,0,0,0-5.528,33.528.51.51,0,0,1-.51.5" transform="translate(-77.589 -107.57)" fill="#3c3a73"/><path d="M87.348,689.655a.514.514,0,0,1-.132-.017l-9.681-2.572a13.409,13.409,0,0,0-3.221-.57.511.511,0,0,1,0-1.021h0a14.234,14.234,0,0,1,3.474.6l9.681,2.572a.511.511,0,0,1-.131,1" transform="translate(-43.933 -408.014)" fill="#eb6b69"/><path d="M61.534,709.706a.511.511,0,0,1-.436-.776,5.935,5.935,0,0,1,3.527-2.8,8.916,8.916,0,0,1,3.938.179l7.914,1.587a.511.511,0,1,1-.2,1l-7.914-1.587a8.13,8.13,0,0,0-3.487-.19,5,5,0,0,0-2.9,2.34.511.511,0,0,1-.437.246" transform="translate(-36.323 -420.215)" fill="#eb6b69"/><path d="M72.164,737.793h-.032a.51.51,0,0,1-.478-.541,4.09,4.09,0,0,1,1.2-3.171,4.036,4.036,0,0,1,2.678-.6l8.894.188a.511.511,0,0,1,.5.521.5.5,0,0,1-.521.5l-8.894-.188a3.189,3.189,0,0,0-2.031.382,3.257,3.257,0,0,0-.8,2.426.51.51,0,0,1-.509.479" transform="translate(-42.65 -436.589)" fill="#eb6b69"/><path d="M99.568,757.845a.51.51,0,0,1-.332-.123,10.516,10.516,0,0,0-3-2.027,9.658,9.658,0,0,0-2.622-.466c-1.062-.082-2.144-.136-3.217-.161a.511.511,0,0,1,.012-1.021h.012c1.09.025,2.191.081,3.271.164a10.482,10.482,0,0,1,2.9.528,11.451,11.451,0,0,1,3.306,2.207.511.511,0,0,1-.332.9" transform="translate(-53.51 -448.831)" fill="#eb6b69"/><path d="M94.976,541.1a.51.51,0,0,1-.465-.3,131.717,131.717,0,0,0-12.568-21.724.511.511,0,1,1,.831-.593,132.774,132.774,0,0,1,12.666,21.893.511.511,0,0,1-.464.723" transform="translate(-48.719 -308.487)" fill="#3c3a73"/><path d="M108.894,627.907a.56.56,0,0,1-.063,0,.511.511,0,0,1-.445-.569l1.795-14.714c1.039-8.514,1.541-14.222,1.414-16.073a.511.511,0,1,1,1.019-.07c.177,2.582-.813,11.3-1.419,16.267l-1.8,14.713a.511.511,0,0,1-.506.449" transform="translate(-64.512 -354.758)" fill="#3c3a73"/><path d="M119.536,878.5c-.343,0-.684-.031-1-.06s-.619-.054-.883-.051c-4.158.078-7.538.03-10.639-.15a.511.511,0,0,1,.059-1.02c3.075.179,6.431.228,10.561.149a9.527,9.527,0,0,1,.995.056c.824.074,1.676.152,2.117-.309a5.368,5.368,0,0,0,1.05-2.789l.081-.429q.624-3.2,1.281-6.388a.511.511,0,1,1,1,.206q-.656,3.186-1.279,6.378l-.079.418a6.2,6.2,0,0,1-1.316,3.31,2.563,2.563,0,0,1-1.947.679" transform="translate(-63.411 -516.121)" fill="#3c3a73"/><path d="M35.212,780.5a4.032,4.032,0,0,1-1.788-.394,3.073,3.073,0,0,1-1.652-3.63.511.511,0,1,1,.961.346,2.067,2.067,0,0,0,1.143,2.368,3.777,3.777,0,0,0,3.088-.086,12.849,12.849,0,0,0,2.681-1.706l.246-.186a68.938,68.938,0,0,1,15.967-9,.511.511,0,1,1,.378.948,67.923,67.923,0,0,0-15.73,8.863l-.244.184a13.639,13.639,0,0,1-2.9,1.834,5.587,5.587,0,0,1-2.147.454" transform="translate(-18.826 -457.245)" fill="#3c3a73"/><path d="M177.085,744.223a.511.511,0,0,1-.108-1.01q7.063-1.528,14.123-3.069a.511.511,0,0,1,.218,1q-7.061,1.541-14.125,3.07a.523.523,0,0,1-.108.011" transform="translate(-105.102 -440.549)"/><path d="M236.726,790.146a.511.511,0,0,1-.216-.973L294.2,762.287a.51.51,0,1,1,.431.925L236.941,790.1a.509.509,0,0,1-.215.048" transform="translate(-140.602 -453.707)"/><path d="M332.777,52.566a.511.511,0,0,1-.249-.957A35.461,35.461,0,0,0,343.011,42.7a23.5,23.5,0,0,1-4.072-8.119q-.5-.368-.988-.764-1.82-.088-3.64-.262a2.479,2.479,0,0,1-2.081-1,1.917,1.917,0,0,1,.52-2.3,4.574,4.574,0,0,1,1.889-.855h.005a2.974,2.974,0,0,1,.037-1.029c.276-1.28,1.35-2.275,3.286-3.04q.97-.384,1.971-.674l-.11-.112a6.092,6.092,0,0,1-1.5-2.759,4.275,4.275,0,0,1-1.809-.744c-1.94-1.411-2.036-4.242-1.009-6.163a10.5,10.5,0,0,1,4.784-4.092,30.488,30.488,0,0,1,12.224-3.16,40.7,40.7,0,0,1,5.169-4.5C359.434,1.844,362.1.136,365.1.006c2.628-.111,5.855,1.34,6.669,4.257a6.461,6.461,0,0,1-1.148,5.354,10.677,10.677,0,0,1-1.892,2.006,10.184,10.184,0,0,1,1.216,1.064A7.19,7.19,0,0,1,372.1,18.6a8.323,8.323,0,0,1-2.948,4.852,18.646,18.646,0,0,1-7.91,4.116,2.177,2.177,0,0,1,.984,1.441,1.87,1.87,0,0,1,0,.541c1.313,1.181,1.835,2.338,1.553,3.439s-1.354,1.9-2.945,2.213a10.449,10.449,0,0,1-1.045.151q.224.411.446.83a17.981,17.981,0,0,1,2.436,7.05,7.21,7.21,0,0,1-3.131,6.781c-2.858,1.679-6.422.389-8.292-.529a23.552,23.552,0,0,1-7.588-5.968A36.485,36.485,0,0,1,333.025,52.5a.505.505,0,0,1-.248.065m11.533-9.873a22.553,22.553,0,0,0,7.4,5.874c1.686.828,4.879,2,7.325.565a6.192,6.192,0,0,0,2.629-5.833,17.117,17.117,0,0,0-2.319-6.639q-.341-.643-.685-1.265a14.375,14.375,0,0,1-6.96-2.151q-1.869.247-3.747.4a7.744,7.744,0,0,1-.507,3.75,21.632,21.632,0,0,0,6.988.519.511.511,0,0,1,.093,1.018,22.654,22.654,0,0,1-7.477-.582,17.534,17.534,0,0,1-1.211,2.169q-.723,1.115-1.525,2.172m-4.026-7.2a22.594,22.594,0,0,0,3.372,6.373q.692-.927,1.322-1.9a16.889,16.889,0,0,0,1.068-1.884,23.294,23.294,0,0,1-5.762-2.589m-.449-1.524a22.184,22.184,0,0,0,6.616,3.169,6.758,6.758,0,0,0,.476-3.411q-3.547.246-7.112.16c.006.028.013.055.02.082m18.113-1.817q.658,1.075,1.3,2.215a9.369,9.369,0,0,0,1.394-.168c.563-.111,1.9-.477,2.154-1.465.166-.648-.176-1.392-1.018-2.212a4.742,4.742,0,0,1-2.482,1.322q-.673.16-1.349.307M353.4,33a12.885,12.885,0,0,0,4.668,1.347q-.583-1.015-1.177-1.973-1.74.354-3.491.626m-13.783-.141q3.525.094,7.04-.138c-.012-.03-.025-.06-.038-.09A6.053,6.053,0,0,0,341.5,29.4a10.649,10.649,0,0,0-1.814-.006,8.742,8.742,0,0,0-.079,3.46m-1.271-.045.228.01a9.672,9.672,0,0,1,.049-3.3,26.461,26.461,0,0,0-2.691.585,6.419,6.419,0,0,0,1.322,1.713q.529.515,1.091.991m-3.413-2.437-.022.006a3.735,3.735,0,0,0-1.482.637.916.916,0,0,0-.308,1.03c.2.341.763.439,1.292.49q1.152.11,2.305.186l-.177-.171a7.136,7.136,0,0,1-1.609-2.177m5.674-2.034c.332,0,.664.014,1,.045a7.076,7.076,0,0,1,5.953,3.839c.059.136.112.275.159.415q1.316-.106,2.627-.258a27.923,27.923,0,0,1-2.979-2.37,17.224,17.224,0,0,1-2.452-2.658,14.055,14.055,0,0,1-2.557-.983,4.518,4.518,0,0,0-1.378.832,4.054,4.054,0,0,0-.884,1.149q.257-.011.515-.011m5.922-.6a20.124,20.124,0,0,0,1.521,1.517,25.673,25.673,0,0,0,3.864,2.927q2.2-.3,4.392-.735-1.023-1.589-2.081-3.018a41.082,41.082,0,0,1-5.666-.363c-.647-.085-1.331-.189-2.03-.328m8.937.659q.971,1.349,1.912,2.83.845-.18,1.688-.38a3.727,3.727,0,0,0,1.949-1,21.282,21.282,0,0,0-2.457-1.74,30.562,30.562,0,0,1-3.091.291M340.87,25.456a21.085,21.085,0,0,0-2.527.819c-1.594.631-2.465,1.385-2.663,2.306a1.917,1.917,0,0,0-.036.546,25.494,25.494,0,0,1,3.288-.676,5.18,5.18,0,0,1,1.357-2.006,5.251,5.251,0,0,1,.991-.7c-.139-.093-.276-.189-.409-.29m4.667,1.012a25.708,25.708,0,0,0,3.152.588,40.916,40.916,0,0,0,4.755.353q-.5-.645-1.016-1.256a37.827,37.827,0,0,0-6.656-.35c-.2.007-.41.017-.618.03.118.217.246.429.383.635m8.412-.068q.392.492.778,1c.763-.018,1.534-.062,2.31-.137q-.362-.183-.732-.353-1.171-.294-2.356-.512m2.684-.458q1.565.4,3.1.924a18.217,18.217,0,0,0,8.734-4.175,7.349,7.349,0,0,0,2.621-4.241,6.168,6.168,0,0,0-1.881-5.052,9.384,9.384,0,0,0-1.324-1.123c-.441.32-.883.611-1.307.881-5.6,3.551-11.961,5.548-18.631,7.111a37.839,37.839,0,0,1,4.353,4.181,24.372,24.372,0,0,1,4.331,1.495m-12.7.018.162.061-.038-.079-.123.019m-1.69-.81q.092.055.187.108a8.975,8.975,0,0,1,1.237-.291l-.012-.037q-.71.087-1.412.219m2.454-.323,0,.013c.347-.03.692-.047,1.029-.06q.421-.015.841-.021c-.628,0-1.251.019-1.875.067m-5.295-2.957a5.032,5.032,0,0,0,1.156,1.96,7.414,7.414,0,0,0,.551.515,23.337,23.337,0,0,1,2.315-.414,7.316,7.316,0,0,1,.123-2.7l-1.338.279a14.056,14.056,0,0,1-2.8.356Zm7.044,1.872a24.689,24.689,0,0,1,4.132.349,35.312,35.312,0,0,0-3.91-3.534q-1,.225-2.006.441a6.581,6.581,0,0,0-.223,2.813s0,.009,0,.013c.666-.056,1.336-.083,2-.083m-7.238-2.9a12.1,12.1,0,0,0,2.8-.33q.934-.192,1.864-.389c.139-.4.3-.793.477-1.179a6.219,6.219,0,0,0-1.692-.706,3.043,3.043,0,0,0-2.651.49,2.317,2.317,0,0,0-.8,1.728,3.6,3.6,0,0,0,0,.386M351.494,8.711A29.336,29.336,0,0,0,340.753,11.7a9.59,9.59,0,0,0-4.343,3.661c-.8,1.5-.761,3.786.709,4.856a3.14,3.14,0,0,0,1.067.492c0-.1,0-.2,0-.3a3.342,3.342,0,0,1,1.156-2.457,4.064,4.064,0,0,1,3.542-.705,7.106,7.106,0,0,1,1.915.784c.268-.5.555-.994.842-1.463a51.911,51.911,0,0,1,5.848-7.855M345.22,19.5q-.082.184-.159.37l.525-.115-.2-.138-.17-.117m.452-.927q.152.1.3.205.474.33.94.679c6.871-1.57,13.421-3.551,19.119-7.164.3-.191.612-.394.924-.61a18.387,18.387,0,0,0-2.709-1.246A29.357,29.357,0,0,0,352.97,8.626a50.116,50.116,0,0,0-6.454,8.474c-.29.472-.578.965-.845,1.473M354,7.588A30.257,30.257,0,0,1,364.606,9.48a18.458,18.458,0,0,1,3.238,1.543,9.961,9.961,0,0,0,1.941-2,5.437,5.437,0,0,0,1-4.488c-.672-2.409-3.4-3.6-5.641-3.511-2.719.117-5.213,1.721-6.852,2.916A39.156,39.156,0,0,0,354,7.588Z" transform="translate(-182.537 20.585)" fill="#3c3a73"/><g transform="translate(-965.619 -2760.761)"><path d="M103.337,56.874s4.685-11.63,20.341-2.7c0,0-8.023,10.522-20.341,2.7" transform="translate(930.787 2827.999)" fill="#fff"/><g transform="translate(1034.124 2878.803)"><g transform="translate(0)" clip-path="url(#e)"><path d="M108.494,54.291a5.525,5.525,0,1,0,6.225-4.917,5.612,5.612,0,0,0-6.225,4.917" transform="translate(-104.691 -50.928)"/></g></g><path d="M103.581,38.552s-1.165,3.192,3.628,3.866a75.668,75.668,0,0,1,11.412,2.824,2.811,2.811,0,0,0,3.153-.782,1.831,1.831,0,0,0-.059-2.321c-1.17-1.434-7.056-4.955-11.477-5.628-5.678-.864-6.657,2.041-6.657,2.041" transform="translate(932.174 2826.779)"/><path d="M123.963,53.976a17,17,0,0,0-11.114-3.882,12.2,12.2,0,0,0-5.938,1.28,7.723,7.723,0,0,0-3.871,4.926.716.716,0,1,0,1.391.337l.005-.024.016-.082a6.464,6.464,0,0,1,3.06-4.1,11.023,11.023,0,0,1,5.353-1.331,16.166,16.166,0,0,1,10.641,3.4.346.346,0,0,0,.489-.037.352.352,0,0,0-.035-.487" transform="translate(930.728 2827.94)"/><g transform="translate(32.082 0.096)"><path d="M103.337,56.827s4.649-11.54,20.183-2.675c0,0-7.961,10.44-20.183,2.675" transform="translate(930.784 2827.877)" fill="#fff"/><g transform="translate(1034.121 2878.681)"><g transform="translate(0)" clip-path="url(#f)"><path d="M108.494,54.252a5.482,5.482,0,1,0,6.177-4.879,5.568,5.568,0,0,0-6.177,4.879" transform="translate(-104.72 -50.915)"/></g></g><path d="M103.58,43.168s-1.156-3.167,3.6-3.836a75.079,75.079,0,0,0,11.324-2.8,2.789,2.789,0,0,1,3.128.776,1.817,1.817,0,0,1-.058,2.3c-1.161,1.423-7,4.917-11.388,5.585-5.634.858-6.605-2.025-6.605-2.025" transform="translate(932.159 2826.779)"/><path d="M123.8,53.946a16.866,16.866,0,0,0-11.028-3.852,12.106,12.106,0,0,0-5.892,1.27,7.664,7.664,0,0,0-3.841,4.888.71.71,0,1,0,1.381.335l.005-.024.016-.082a6.414,6.414,0,0,1,3.037-4.068,10.938,10.938,0,0,1,5.312-1.32,16.04,16.04,0,0,1,10.559,3.374.343.343,0,0,0,.485-.037.35.35,0,0,0-.034-.483" transform="translate(930.728 2827.824)"/></g></g><path d="M117.29,78.992l15.823.383s-.015-6.438-7.517-6.6c-8.029-.17-8.306,6.214-8.306,6.214" transform="translate(-28.103 71.814)" fill="#fff"/><path d="M133.495,69.534l-3.632-2.943,4.2-5.834" transform="translate(-37.632 69.791)" fill="none" stroke="#000" stroke-linecap="round" stroke-linejoin="round" stroke-width="0.809"/></g></g></g></g></g></g></svg>