<svg xmlns="http://www.w3.org/2000/svg" xmlns:xlink="http://www.w3.org/1999/xlink" width="610" height="363" viewBox="0 0 610 363"><defs><clipPath id="a"><rect width="610" height="363" transform="translate(809.936 2090)" fill="#fff" opacity="0.39"/></clipPath><clipPath id="b"><rect width="498.738" height="281.345" fill="none"/></clipPath><clipPath id="c"><rect width="513.232" height="330.338" fill="none"/></clipPath><clipPath id="d"><rect width="378.631" height="389.376" fill="none"/></clipPath><clipPath id="e"><rect width="378.631" height="422.278" fill="none"/></clipPath><clipPath id="f"><rect width="231.813" height="389.376" fill="none"/></clipPath><clipPath id="g"><rect width="61.318" height="88.132" fill="none"/></clipPath><clipPath id="h"><rect width="84.51" height="40.043" fill="none"/></clipPath></defs><g transform="translate(-809.936 -2090)"><g clip-path="url(#a)"><g transform="translate(-0.385)"><g transform="translate(865.566 2171.801)"><g transform="translate(0 0)" clip-path="url(#b)"><path d="M.173,178.929q-.057-1.173-.095-2.336C-2.229,106.087,46.852,98.451,126.7,107.147c1.964.214,2.146.841,2.864,1.113,78.347,29.673,112.759,19.61,209.7-50.792,131.3-95.357,238.975,139.061,80.428,231.987H77.383c-4.38-2.192-8.468-4.369-12.259-6.495-38-21.307-62.841-60.515-64.951-104.032" transform="translate(-0.001 -8.111)" fill="#b8dcf1"/><path d="M272.9,54.276c-3.321-8.643,1.118-16.873,10.8-16.015,9.814.87,35.254,2.17,56.905-21.076,44.958-48.271,74.016,16.928,27.22,51.311-32.032,23.536-81.634,20.356-94.922-14.22" transform="translate(-101.897 0)" fill="#b8dcf1"/></g></g><g transform="translate(629.631 575.146)"><g transform="translate(228.689 1546.023)"><g clip-path="url(#c)"><path d="M254.787.547A103.251,103.251,0,0,0,188.6,34.7c-16.619,18.938-27.5,41.71-39.413,63.636s-25.518,43.807-45.89,59.043c-19.423,14.529-44.713,22.846-58.763,42.2-14.47,19.924-12.888,47.936-.037,68.839s35.306,35.225,59.242,43.351S153.254,322.4,178.58,324.34c82.2,6.286,167.03,6.749,244.518-20.159,27.88-9.686,56.18-24.436,69.4-49.776,13.153-25.216,8.265-56.415-6.212-80.969s-37.36-43.528-60.92-60.507-48.437-32.62-69.045-52.794c-14.514-14.212-26.835-30.6-43.145-42.9C296.843,4.926,279.031-2.073,254.787.547" transform="translate(-9.044 0)" fill="#e4efed"/><path d="M472.765,378.673c.147-40.23,11.511-80.328,32.223-113.655s50.66-59.742,87.6-73.255c4.092,41.069-6.116,83.64-28.138,117.291a174.327,174.327,0,0,1-91.685,69.619" transform="translate(-124.805 -50.623)" fill="#70a8c4"/><path d="M589.419,206.643a614.863,614.863,0,0,0-103.424,169.3" transform="translate(-128.297 -54.551)" fill="none" stroke="#eaf8f9" stroke-linecap="round" stroke-miterlimit="10" stroke-width="1"/><path d="M596.244,236.431a67.141,67.141,0,0,1-.626-19.158" transform="translate(-157.128 -57.358)" fill="none" stroke="#eaf8f9" stroke-linecap="round" stroke-miterlimit="10" stroke-width="1"/><path d="M581.165,264.393a122.186,122.186,0,0,0,32.031.559" transform="translate(-153.421 -69.797)" fill="none" stroke="#eaf8f9" stroke-linecap="round" stroke-miterlimit="10" stroke-width="1"/><path d="M546.588,299.693a123.873,123.873,0,0,1-8.943-31.42" transform="translate(-141.932 -70.821)" fill="none" stroke="#eaf8f9" stroke-linecap="round" stroke-miterlimit="10" stroke-width="1"/><path d="M536.985,334.173a200.974,200.974,0,0,0,43.461,5.189" transform="translate(-141.758 -88.218)" fill="none" stroke="#eaf8f9" stroke-linecap="round" stroke-miterlimit="10" stroke-width="1"/><path d="M510.868,363.123a111.357,111.357,0,0,1-11.813-27.88" transform="translate(-131.745 -88.5)" fill="none" stroke="#eaf8f9" stroke-linecap="round" stroke-miterlimit="10" stroke-width="1"/><path d="M479.055,422.837A126.121,126.121,0,0,1,547.3,362.882a118.28,118.28,0,0,1,92.4,4.865c-41.121,40.407-101.621,60.139-160.642,55.09" transform="translate(-126.465 -93.912)" fill="#82ced8"/><path d="M629.555,375.723a329.293,329.293,0,0,0-140.1,47.738" transform="translate(-129.211 -99.187)" fill="none" stroke="#eaf8f9" stroke-linecap="round" stroke-miterlimit="10" stroke-width="1"/><path d="M637.445,376.879a69.754,69.754,0,0,1,8.133-13.756" transform="translate(-168.278 -95.86)" fill="none" stroke="#eaf8f9" stroke-linecap="round" stroke-miterlimit="10" stroke-width="1"/><path d="M620.925,386.183a64.919,64.919,0,0,0,18.547,13.94" transform="translate(-163.917 -101.948)" fill="none" stroke="#eaf8f9" stroke-linecap="round" stroke-miterlimit="10" stroke-width="1"/><path d="M586.485,387.083a60.865,60.865,0,0,1,5.358-24.06" transform="translate(-154.825 -95.834)" fill="none" stroke="#eaf8f9" stroke-linecap="round" stroke-miterlimit="10" stroke-width="1"/><path d="M567.165,402.783a71.4,71.4,0,0,0,16.487,22.066" transform="translate(-149.725 -106.33)" fill="none" stroke="#eaf8f9" stroke-linecap="round" stroke-miterlimit="10" stroke-width="1"/><path d="M539.678,406.57a68.739,68.739,0,0,1,.368-19.077" transform="translate(-142.338 -102.294)" fill="none" stroke="#eaf8f9" stroke-linecap="round" stroke-miterlimit="10" stroke-width="1"/><path d="M519.775,423.743A45.5,45.5,0,0,0,539.2,433.878" transform="translate(-137.215 -111.863)" fill="none" stroke="#eaf8f9" stroke-linecap="round" stroke-miterlimit="10" stroke-width="1"/><path d="M282.128,358.986c2.834-41.084,5.616-82.838-3.548-123.032s-32.112-79.357-71.069-97.772c-15.846,40.459-25.613,84.8-15.986,127.072s42.24,81.594,90.6,93.731" transform="translate(-49.552 -36.479)" fill="#82ced8"/><path d="M223.615,156.673q10.919,41.158,21.83,82.323c10.768,40.628,21.646,81.543,40.024,119.344" transform="translate(-59.032 -41.36)" fill="none" stroke="#eaf8f9" stroke-linecap="round" stroke-miterlimit="10" stroke-width="1"/><path d="M252.4,177.283a149.4,149.4,0,0,1-13.145,28.049" transform="translate(-63.161 -46.801)" fill="none" stroke="#eaf8f9" stroke-linecap="round" stroke-miterlimit="10" stroke-width="1"/><path d="M231.727,239.073a208.04,208.04,0,0,1-38.162,1.6" transform="translate(-51.099 -63.113)" fill="none" stroke="#eaf8f9" stroke-linecap="round" stroke-miterlimit="10" stroke-width="1"/><path d="M261.845,286.41a141.455,141.455,0,0,0,30.567-34.217" transform="translate(-69.124 -66.576)" fill="none" stroke="#eaf8f9" stroke-linecap="round" stroke-miterlimit="10" stroke-width="1"/><path d="M256.265,332.053a87.171,87.171,0,0,1-39.45,1.752" transform="translate(-57.237 -87.658)" fill="none" stroke="#eaf8f9" stroke-linecap="round" stroke-miterlimit="10" stroke-width="1"/><path d="M288.135,376.3a93.075,93.075,0,0,0,19.607-26.828" transform="translate(-76.064 -92.257)" fill="none" stroke="#eaf8f9" stroke-linecap="round" stroke-miterlimit="10" stroke-width="1"/><path d="M222.923,402.256C181.177,335.33,101.68,293.834,22.905,297.838c8.214,39.59,34.7,75.007,70.348,94.07s79.813,21.433,129.67,10.348" transform="translate(-6.047 -78.556)" fill="#70a8c4"/><path d="M40.815,309.373c17.355,17.5,34.916,35.181,55.856,48.179,22.272,13.83,47.576,21.874,72.718,29.293q24.885,7.342,49.953,14.036" transform="translate(-10.775 -81.671)" fill="none" stroke="#eaf8f9" stroke-linecap="round" stroke-miterlimit="10" stroke-width="1"/><path d="M81.4,337.266a122.055,122.055,0,0,0,2.966-30.883" transform="translate(-21.49 -80.882)" fill="none" stroke="#eaf8f9" stroke-linecap="round" stroke-miterlimit="10" stroke-width="1"/><path d="M63.464,337.673A77.07,77.07,0,0,1,47.1,344.415" transform="translate(-12.433 -89.142)" fill="none" stroke="#eaf8f9" stroke-linecap="round" stroke-miterlimit="10" stroke-width="1"/><path d="M92.975,398.559A93.107,93.107,0,0,0,118.353,381.4" transform="translate(-24.544 -100.686)" fill="none" stroke="#eaf8f9" stroke-linecap="round" stroke-miterlimit="10" stroke-width="1"/><path d="M154.235,377.692a246.024,246.024,0,0,0,2.973-44.919" transform="translate(-40.716 -87.848)" fill="none" stroke="#eaf8f9" stroke-linecap="round" stroke-miterlimit="10" stroke-width="1"/><path d="M235.079,378.073a119.941,119.941,0,0,1-3.054,30.353" transform="translate(-61.252 -99.807)" fill="none" stroke="#eaf8f9" stroke-linecap="round" stroke-miterlimit="10" stroke-width="1"/><path d="M214.808,416.923a51.777,51.777,0,0,1-20.233,17.686" transform="translate(-51.366 -110.063)" fill="none" stroke="#eaf8f9" stroke-linecap="round" stroke-miterlimit="10" stroke-width="1"/></g></g><g transform="translate(-13213.695 11705)"><path d="M477.834,120.163a26.349,26.349,0,1,1-26.349,26.349,26.349,26.349,0,0,1,26.349-26.349" transform="translate(13357.198 -10185.698)" fill="#82ced8"/><path d="M463.852,144.48c6.241-10.172,16.914,3.15,16.914,3.15s11.276-11.923,16.914-3.15c6.815,10.613-17.2,23.788-17.2,23.788s-23.125-13.2-16.626-23.788" transform="translate(13354.237 -10191.107)" fill="#ba2f54"/><path d="M454.935,155h13.741l2.12-8.442,4.262,16.972,3.687-20.7,3.091,18.548,4.821-11.629,2.1,5.285h11.209" transform="translate(13356.287 -10191.683)" fill="none" stroke="#fff0f4" stroke-miterlimit="10" stroke-width="1"/></g><g transform="translate(-13336.695 11774.633)"><path d="M239.114,46.693a26.349,26.349,0,1,1-26.349,26.349,26.349,26.349,0,0,1,26.349-26.349" transform="translate(13420.217 -10166.303)" fill="#82ced8"/><path d="M245.856,55.711a7.385,7.385,0,0,1,9.472,4.394l6.955,19a7.384,7.384,0,0,1-13.866,5.078l-6.955-19a7.379,7.379,0,0,1,4.394-9.472" transform="translate(13412.761 -10168.564)" fill="#941b3f"/><path d="M245.856,55.711a7.385,7.385,0,0,1,9.472,4.394l3.481,9.5-13.866,5.078-3.481-9.5a7.379,7.379,0,0,1,4.394-9.472" transform="translate(13412.761 -10168.564)" fill="#ebe1e2"/><path d="M223.421,72.4a7.374,7.374,0,0,1,10.437,0L248.166,86.7a7.38,7.38,0,0,1-10.437,10.437L223.421,82.834a7.387,7.387,0,0,1,0-10.437" transform="translate(13417.974 -10172.518)" fill="#ba2f54"/><path d="M223.421,72.4a7.374,7.374,0,0,1,10.437,0l7.154,7.154L230.575,89.988l-7.154-7.154a7.387,7.387,0,0,1,0-10.437" transform="translate(13417.974 -10172.518)" fill="#fff"/></g><g transform="translate(253.719 1487.814)"><g clip-path="url(#d)"><g clip-path="url(#e)"><path d="M14.716,0H197.125a14.717,14.717,0,0,1,14.717,14.717V47.038a14.717,14.717,0,0,1-14.717,14.717H14.717A14.717,14.717,0,0,1,0,47.038V14.716A14.716,14.716,0,0,1,14.716,0Z" transform="translate(0 69.13)" fill="#32b38e"/><path d="M314.673,158.969l9.38,72.7-32.832-74.262Z" transform="translate(-177.453 -31.992)" fill="#32b38e"/><path d="M220.331,116.6a1.118,1.118,0,0,1,1.052-.771l10.579-.091,3.356-10.033a1.116,1.116,0,0,1,2.116,0l3.356,10.033,10.579.091a1.116,1.116,0,0,1,.654,2.013l-8.505,6.291,3.182,10.09a1.116,1.116,0,0,1-1.712,1.244l-8.612-6.145-8.611,6.145a1.116,1.116,0,0,1-1.713-1.244l3.182-10.09-8.505-6.291a1.116,1.116,0,0,1-.4-1.242" transform="translate(-49.35 -21.329)" fill="#23896c"/><path d="M223.132,115.2a1.117,1.117,0,0,1,1.052-.771l10.579-.091,3.356-10.033a1.116,1.116,0,0,1,2.116,0l3.356,10.033,10.579.091a1.116,1.116,0,0,1,.654,2.013l-8.505,6.291,3.182,10.09a1.116,1.116,0,0,1-1.713,1.244l-8.611-6.145-8.611,6.145a1.116,1.116,0,0,1-1.713-1.244l3.182-10.09-8.505-6.291a1.116,1.116,0,0,1-.4-1.242" transform="translate(-54.383 -21.044)" fill="#f6f6f6"/><path d="M270.705,116.6a1.118,1.118,0,0,1,1.052-.771l10.579-.091,3.356-10.033a1.116,1.116,0,0,1,2.116,0l3.356,10.033,10.579.091a1.116,1.116,0,0,1,.654,2.013l-8.505,6.291,3.182,10.09a1.116,1.116,0,0,1-1.712,1.244l-8.612-6.145-8.611,6.145a1.116,1.116,0,0,1-1.713-1.244l3.182-10.09-8.505-6.291a1.116,1.116,0,0,1-.4-1.242" transform="translate(-139.859 -21.329)" fill="#23896c"/><path d="M273.507,115.2a1.117,1.117,0,0,1,1.052-.771l10.579-.091,3.356-10.033a1.116,1.116,0,0,1,2.116,0l3.356,10.033,10.579.091a1.116,1.116,0,0,1,.654,2.013l-8.505,6.291,3.182,10.09a1.116,1.116,0,0,1-1.713,1.244l-8.611-6.145-8.611,6.145a1.116,1.116,0,0,1-1.713-1.244l3.182-10.09-8.505-6.291a1.116,1.116,0,0,1-.4-1.242" transform="translate(-144.894 -21.044)" fill="#f6f6f6"/><path d="M321.08,116.6a1.118,1.118,0,0,1,1.052-.771l10.579-.091,3.356-10.033a1.116,1.116,0,0,1,2.116,0l3.356,10.033,10.579.091a1.116,1.116,0,0,1,.654,2.013l-8.505,6.291,3.182,10.09a1.116,1.116,0,0,1-1.712,1.244l-8.612-6.145-8.611,6.145a1.116,1.116,0,0,1-1.713-1.244l3.182-10.09-8.505-6.291a1.116,1.116,0,0,1-.4-1.242" transform="translate(-230.371 -21.329)" fill="#23896c"/><path d="M323.881,115.2a1.118,1.118,0,0,1,1.052-.771l10.58-.091,3.356-10.033a1.115,1.115,0,0,1,2.115,0l3.357,10.033,10.579.091a1.116,1.116,0,0,1,.653,2.013l-8.5,6.291,3.181,10.09a1.115,1.115,0,0,1-1.712,1.244l-8.612-6.145-8.61,6.145a1.116,1.116,0,0,1-1.713-1.244l3.182-10.09-8.505-6.291a1.118,1.118,0,0,1-.4-1.242" transform="translate(-235.405 -21.044)" fill="#f6f6f6"/><path d="M371.454,116.6a1.119,1.119,0,0,1,1.052-.771l10.579-.091,3.356-10.033a1.115,1.115,0,0,1,2.115,0l3.357,10.033,10.579.091a1.117,1.117,0,0,1,.654,2.013l-8.505,6.291,3.182,10.09a1.116,1.116,0,0,1-1.713,1.244l-8.612-6.145-8.611,6.145a1.116,1.116,0,0,1-1.713-1.244l3.182-10.09-8.505-6.291a1.118,1.118,0,0,1-.4-1.242" transform="translate(-320.881 -21.329)" fill="#23896c"/><path d="M374.256,115.2a1.117,1.117,0,0,1,1.052-.771l10.579-.091,3.356-10.033a1.116,1.116,0,0,1,2.116,0l3.356,10.033,10.579.091a1.116,1.116,0,0,1,.654,2.013l-8.505,6.291,3.182,10.09a1.116,1.116,0,0,1-1.713,1.244l-8.611-6.145-8.611,6.145a1.116,1.116,0,0,1-1.713-1.244l3.182-10.09-8.505-6.291a1.116,1.116,0,0,1-.4-1.242" transform="translate(-325.915 -21.044)" fill="#f6f6f6"/><path d="M421.829,116.6a1.118,1.118,0,0,1,1.052-.771l10.579-.091,3.356-10.033a1.116,1.116,0,0,1,2.116,0l3.356,10.033,10.579.091a1.116,1.116,0,0,1,.654,2.013l-8.505,6.291,3.182,10.09a1.116,1.116,0,0,1-1.712,1.244l-8.612-6.145-8.611,6.145a1.116,1.116,0,0,1-1.713-1.244l3.182-10.09-8.505-6.291a1.116,1.116,0,0,1-.4-1.242" transform="translate(-411.392 -21.329)" fill="#23896c"/><path d="M424.631,115.2a1.117,1.117,0,0,1,1.052-.771l10.579-.091,3.356-10.033a1.116,1.116,0,0,1,2.116,0l3.356,10.033,10.579.091a1.116,1.116,0,0,1,.654,2.013l-8.505,6.291L451,132.819a1.116,1.116,0,0,1-1.713,1.244l-8.611-6.145-8.611,6.145a1.116,1.116,0,0,1-1.713-1.244l3.182-10.09-8.505-6.291a1.117,1.117,0,0,1-.4-1.242" transform="translate(-416.426 -21.044)" fill="#f6f6f6"/></g><text transform="translate(31.381 55.936)" fill="#32b38e" font-size="30" font-family="Nunito-Black, Nunito" font-weight="800" letter-spacing="0.1em"><tspan x="0" y="0">CALIDAD</tspan></text><g transform="translate(146.818)"><g clip-path="url(#f)"><path d="M158.484,336.166s40.453,35.914,42.187,73.972-6.356,76.652-6.356,76.652H63.129s-9.247-68.611,4.623-102.382,32.363-67,32.363-67Z" transform="translate(-16.994 -64.512)" fill="#22689e"/><g transform="translate(43.116 334.146)" opacity="0.5"><g clip-path="url(#g)"><path d="M163.3,419.386c10.105,14.732,32.8,31.841,52.1,39.01.137,19.282,1.927,30.169,5.792,49.122h-58.3s-7.058-52.379.411-88.132" transform="translate(-159.873 -419.386)" fill="#003154"/></g></g><g transform="translate(62.726 252.893)" opacity="0.5"><g clip-path="url(#h)"><path d="M178.056,347.506c-15.668,5.886-33.456,8.012-50.174,9.226q-10.859.789-21.729.711c10.649-22.521,20.4-40.038,20.4-40.038l58.369,18.761s2.266,2.012,5.745,5.584a111.9,111.9,0,0,1-12.607,5.756" transform="translate(-106.153 -317.405)" fill="#003154"/></g></g><path d="M108.485,352.837s.939,1.675,2.472,4.589" transform="translate(34.42 -71.714)" fill="none" stroke="#3387c1" stroke-miterlimit="10" stroke-width="1.091"/><path d="M76.334,370.3c7.445,15.232,18.251,40.01,20.168,58.927,2.019,19.929-.622,44.021-2.527,57.443" transform="translate(73.767 -75.262)" fill="none" stroke="#3387c1" stroke-miterlimit="10" stroke-width="1.091" stroke-dasharray="13.115 13.115"/><path d="M198.173,448.848c-3.739.855-7.45,1.809-11.176,2.713l-5.571,1.416-5.563,1.448c-3.709.962-7.406,1.966-11.105,2.964s-7.387,2.036-11.081,3.052l.473,0c-.954-.3-1.954-.678-2.926-1.05s-1.95-.775-2.908-1.208-1.921-.858-2.866-1.323c-.955-.444-1.888-.935-2.824-1.418s-1.864-.985-2.789-1.492-1.844-1.025-2.75-1.566-1.826-1.06-2.711-1.638l-2.683-1.688-2.631-1.77c-.888-.576-1.735-1.209-2.594-1.826s-1.731-1.22-2.575-1.858l-2.517-1.938-1.266-.962-1.233-1-2.467-2.011c-.827-.666-1.6-1.392-2.405-2.085l-2.418-2.081,2.232,2.28c.759.745,1.489,1.523,2.274,2.241l2.342,2.173,1.173,1.088,1.211,1.043,2.442,2.067c.82.682,1.671,1.325,2.506,1.99s1.679,1.319,2.553,1.932l2.6,1.876L133.579,452c.883.6,1.8,1.15,2.711,1.713s1.821,1.123,2.756,1.644,1.849,1.078,2.805,1.562,1.892,1,2.862,1.461q1.438.718,2.912,1.367c.974.449,1.97.854,2.969,1.257s2,.763,3.076,1.093l.232.072.241-.069c3.683-1.055,7.375-2.079,11.051-3.16s7.357-2.138,11.025-3.246l5.5-1.659,5.494-1.689c3.652-1.166,7.317-2.282,10.955-3.5" transform="translate(-55.268 -88.113)" fill="#003154"/><path d="M182.453,370.41c-.762,6.162-1.111,12.369-1.344,18.577-.056,1.552-.08,3.106-.095,4.659s-.022,3.107-.006,4.662q.03,4.662.232,9.324c.057,1.554.155,3.107.241,4.659.1,1.552.2,3.106.354,4.655q.414,4.649,1.047,9.28c.2,1.544.441,3.083.684,4.622s.517,3.073.809,4.6.6,3.06.941,4.581c.316,1.527.713,3.037,1.072,4.555l1.186-.986c-4.009-1.912-8.046-3.766-12.075-5.638l.448.523c-.386-1.356-.737-2.763-1.066-4.158s-.637-2.805-.928-4.215q-.869-4.231-1.53-8.5c-.225-1.423-.428-2.85-.618-4.278l-.53-4.29c-.161-1.432-.324-2.864-.457-4.3s-.253-2.872-.364-4.31-.2-2.877-.262-4.318c-.082-1.44-.117-2.882-.167-4.323-.073-2.884-.063-5.77-.029-8.657.055-2.886.157-5.773.366-8.655.086-1.443.225-2.881.35-4.322s.3-2.876.441-4.317c-.222,1.429-.482,2.855-.674,4.29s-.385,2.871-.533,4.311c-.326,2.879-.544,5.771-.717,8.665-.073,1.448-.152,2.9-.171,4.346-.045,1.45-.042,2.9-.052,4.351.014,1.45.013,2.9.06,4.351.032,1.451.09,2.9.157,4.35s.149,2.9.261,4.346.226,2.895.352,4.341c.285,2.89.653,5.771,1.075,8.645s.911,5.738,1.473,8.59q.424,2.138.9,4.267c.324,1.423.661,2.827,1.055,4.256l.1.359.349.165c4.017,1.9,8.026,3.811,12.062,5.667l1.609.739-.422-1.725c-.366-1.5-.77-2.985-1.095-4.494-.353-1.5-.664-3.013-.967-4.526s-.575-3.032-.837-4.554-.5-3.047-.715-4.577q-.669-4.586-1.113-9.2c-.308-3.076-.586-6.157-.788-9.245s-.361-6.18-.456-9.274-.131-6.191-.148-9.289.018-6.2.108-9.3.217-6.2.429-9.293" transform="translate(-91.3 -75.17)" fill="#003154"/><path d="M159.917,468.351s-.006.194-.016.558-.03.9-.025,1.578c0,1.364-.018,3.31.074,5.638.029,1.166.088,2.427.167,3.76s.143,2.74.245,4.193c.135,1.451.274,2.95.416,4.473.166,1.521.279,3.071.508,4.61s.436,3.077.65,4.592q.165,1.137.328,2.25.208,1.105.411,2.181c.267,1.433.552,2.813.818,4.122s.493,2.547.81,3.673c.571,2.26,1.114,4.126,1.462,5.437l.582,2.051s-.116-.768-.32-2.112c-.227-1.337-.506-3.255-.92-5.534-.229-1.135-.359-2.389-.531-3.706s-.338-2.707-.543-4.14c-.1-.716-.2-1.445-.3-2.182q-.115-1.113-.231-2.248c-.162-1.511-.327-3.045-.491-4.58-.2-1.529-.286-3.074-.424-4.585s-.265-3-.393-4.443c-.087-1.445-.2-2.839-.3-4.161s-.2-2.573-.251-3.73-.134-2.215-.2-3.154c-.051-.939-.095-1.755-.131-2.428-.074-1.351-.117-2.124-.117-2.124Z" transform="translate(-61.914 -95.189)" fill="#003154"/><path d="M197.134,81.446s-14.91-15.209-41.154-3.578S146.14,139.3,133.316,155.7c-9.9,12.664-29.523,31.312-5.964,56.66s59.046-12.227,57.854-53.977,11.928-76.939,11.928-76.939" transform="translate(-57.916 -14.936)" fill="#001433"/><path d="M199.446,82.6s-16.56-17.581-42.372-3.55c-31.883,17.332-7.292,59.45-21.446,75.782-11.63,13.419-32.505,27.435-8.03,57.622,22,27.137,60.795-12.128,59.566-53.539S199.446,82.6,199.446,82.6Z" transform="translate(-60.227 -14.963)" fill="none" stroke="#001433" stroke-miterlimit="10" stroke-width="1.123"/><path d="M142.089,158.894s-13.867,43.39,5.368,42.049,38.47.447,27.286,33.549S60.229,238.517,60.229,217.94,74.1,194.232,95.12,202.284s13.42-32.655,13.42-32.655Z" transform="translate(5.778 -32.295)" fill="#ffb199"/><path d="M136.686,187.625c-5.517,4.809-11.363,9.069-18.876,11.136a57,57,0,0,1-12.449,1.962c6.91-7.915,2.583-31.093,2.583-31.093l33.549-10.735s-5.242,16.407-4.807,28.731" transform="translate(6.374 -32.295)" fill="#f2957c"/><path d="M107.927,125.77l1.342,38.47s-27.286,14.314-27.286,12.973-5.815-35.786-5.815-35.786Z" transform="translate(61.858 -25.563)" fill="#003154"/><path d="M91.376,145.439s15.717,1.052,8.052,14.761c-8.079,14.451-16.56,4.932-16.56,4.932Z" transform="translate(64.254 -29.56)" fill="#f2957c"/><path d="M103.938,147.086A16.9,16.9,0,0,1,93.2,162.891c-11.332,4.772,5.368-20.278,5.368-20.278Z" transform="translate(56.751 -28.986)" fill="#003154"/><path d="M138.842,101.522s-45.245-17.6-46.67,38.47c-1.342,52.784,51.889,38.47,61.731.895,9.039-34.515-15.06-39.364-15.06-39.364" transform="translate(2.464 -20.102)" fill="#ffb199"/><path d="M149.637,217.427s-10.735,17.3-32.207,16.7-26.839-25.05-26.839-25.05-21.471-8.052-27.733,7.455.894,99.9.894,99.9,30.418,12.824,68.589,3.28c0,0,50.7-65.01,47.714-92.744s-30.418-9.543-30.418-9.543" transform="translate(3.597 -42.07)" fill="#ffa94d"/><path d="M61.782,269.857c17.191-.892,34.129-1.763,50.873-6.138a167.115,167.115,0,0,0,46.4-20.128c6.929-4.317,13.668-8.918,20.4-13.538.079.519.151,1.049.211,1.6,2.982,27.734-47.714,92.744-47.714,92.744-38.171,9.543-68.589-3.28-68.589-3.28s-2.17-25.6-3.075-51.191l1.494-.074" transform="translate(3.986 -46.758)" fill="#ef8e35"/><path d="M66.785,224.529s38.369-4.275,33.966-33.14-34.4-28.429-30.269-64.523-8.35-42.523-8.35-42.523-11.092-13.232-37.46-4.5" transform="translate(111.053 -15.622)" fill="none" stroke="#003154" stroke-miterlimit="10" stroke-width="1.123"/><path d="M125.591,146.389S93.384,140.723,93.384,99.57" transform="translate(31.818 -20.237)" fill="none" stroke="#003154" stroke-miterlimit="10" stroke-width="1.123"/><path d="M222.862,169.138c1.79-.895,4.921,3.578,4.921,3.578s-4.026-8.051-1.79-8.946,4.473,5.368,4.473,5.368-2.236-7.6.448-8.052,6.262,9.841,6.262,9.841-7.6-23.261-4.473-23.261c.953,0,4.475,6.634,8.914,15.855,1.274-1.774,3.918-3.471,7.636,4.275,2.668,5.558,1.8,9.789.251,12.64,8.586,18.84,17.195,38.8,17.195,38.8s-17,21.024-24.6,6.71-21.025-55.915-19.235-56.81" transform="translate(-212.323 -30.013)" fill="#ffb199"/><path d="M247.908,212.554c4.984,11.254,8.7,19.872,8.7,19.872s-17,21.024-24.6,6.709c-2.685-5.055-6.1-13.513-9.305-22.379,8.457-1.162,16.92-2.421,25.208-4.2" transform="translate(-202.231 -43.201)" fill="#f2957c"/><path d="M258.661,167.852a5.082,5.082,0,0,0-2.276-1.911,3.184,3.184,0,0,0-1.535-.181c-.13.019-.262.033-.392.057l-.37.134a2.577,2.577,0,0,0-.7.355,2.955,2.955,0,0,0-.623.461c-.186.176-.4.335-.564.527a10.671,10.671,0,0,0-.942,1.2c-.582.842-1.058,1.7-1.555,2.56s-.953,1.746-1.387,2.652c-.215.454-.423.913-.6,1.394a5.6,5.6,0,0,0-.381,1.565,1.351,1.351,0,0,0,.292,1.014,1.264,1.264,0,0,0,1.052.338,5.189,5.189,0,0,0,1.553-.488,23.317,23.317,0,0,0,2.626-1.5l-.408-.762a6.969,6.969,0,0,0-.981.578,9.59,9.59,0,0,0-.872.69,9.474,9.474,0,0,0-.767.8,6.536,6.536,0,0,0-.658.9l-.295.472-.233.506-.221.51-.15.535-.148.534c-.033.182-.048.366-.072.547a5.622,5.622,0,0,0-.079,1.095c.014.364.014.73.041,1.091l.187,1.069a5.77,5.77,0,0,0,.273,1.043l.339,1.021.455.969c.158.319.291.651.468.958.364.61.742,1.211,1.115,1.809-.309-.638-.614-1.274-.932-1.9-.151-.317-.256-.655-.386-.98l-.37-.982-.252-1.014a5.369,5.369,0,0,1-.214-1.014l-.13-1.025c-.008-.342.01-.684.012-1.025a5.066,5.066,0,0,1,.123-1.009c.03-.167.052-.335.088-.5l.16-.48.158-.479.222-.451.22-.452.278-.418a5.785,5.785,0,0,1,.613-.794,8.793,8.793,0,0,1,.711-.71c.264-.209.521-.424.8-.606a6.231,6.231,0,0,1,.845-.493l-.408-.762a22.457,22.457,0,0,1-2.53,1.424,4.769,4.769,0,0,1-1.26.416.468.468,0,0,1-.324-.05.559.559,0,0,1-.067-.382,4.848,4.848,0,0,1,.317-1.308c.164-.448.351-.895.548-1.34.4-.888.841-1.767,1.3-2.639l.684-1.31c.225-.447.476-.853.723-1.268a10.063,10.063,0,0,1,.832-1.174c.148-.188.331-.337.5-.509a2.568,2.568,0,0,1,.544-.445,2.248,2.248,0,0,1,.6-.347l.317-.145.337-.076a2.858,2.858,0,0,1,1.387.055,5.318,5.318,0,0,1,2.362,1.656" transform="translate(-223.914 -33.684)" fill="#e5826c"/><path d="M272.01,182.153a3.95,3.95,0,0,1-.845.754,2.905,2.905,0,0,1-.493.257,1.828,1.828,0,0,1-.525.142,2.375,2.375,0,0,1-.532-.006,2.938,2.938,0,0,1-.5-.175,3.261,3.261,0,0,1-.448-.291l-.4-.369-.335-.436a2.527,2.527,0,0,1-.308-.457l-.281-.479a4.73,4.73,0,0,1-.244-.5,11.021,11.021,0,0,1-.438-1.033l-.379-1.061-.6.251a36.928,36.928,0,0,1,1.329,3.472,12.668,12.668,0,0,1,.437,1.768,5.017,5.017,0,0,1,.073.856,1.167,1.167,0,0,1-.155.633c-.015.016-.066.064-.046.046l-.1.054c0-.012.007-.019.014-.018a.422.422,0,0,1-.193-.051,2.215,2.215,0,0,1-.606-.48,11.051,11.051,0,0,1-1.095-1.425,30.5,30.5,0,0,1-1.82-3.228l-.789.312a31.013,31.013,0,0,1,.937,3.5,13.321,13.321,0,0,1,.267,1.769,4.894,4.894,0,0,1,0,.864,1.627,1.627,0,0,1-.211.727.443.443,0,0,1-.224.176s-.085.025-.028.018l-.115,0-.229.006c-.1-.052-.193-.053-.312-.118a2.123,2.123,0,0,1-.343-.223,6.012,6.012,0,0,1-1.165-1.323,20.729,20.729,0,0,1-1.722-3.223,17.183,17.183,0,0,0,1.433,3.4,9.3,9.3,0,0,0,.505.794,4.411,4.411,0,0,0,.647.716,2.673,2.673,0,0,0,.412.3,2.215,2.215,0,0,0,.547.2l.23.006.115,0a.741.741,0,0,0,.194-.039,1,1,0,0,0,.507-.351,2.146,2.146,0,0,0,.369-.994,5.64,5.64,0,0,0,.051-.97,14.025,14.025,0,0,0-.186-1.876,31.58,31.58,0,0,0-.869-3.624l-.789.312a29.957,29.957,0,0,0,1.848,3.351,10.117,10.117,0,0,0,1.2,1.557,3.016,3.016,0,0,0,.878.663,1.218,1.218,0,0,0,.719.11,1.548,1.548,0,0,0,.241-.076l.108-.06a1.133,1.133,0,0,0,.3-.267,1.939,1.939,0,0,0,.334-1.154,5.273,5.273,0,0,0-.1-1.017,13.565,13.565,0,0,0-.514-1.875,27.01,27.01,0,0,0-1.5-3.508l-.6.251.446,1.073a11.15,11.15,0,0,0,.509,1.049,4.728,4.728,0,0,0,.281.512l.323.492a6.265,6.265,0,0,0,.752.915l.474.374a3.558,3.558,0,0,0,.536.288,3.237,3.237,0,0,0,.591.152,2.591,2.591,0,0,0,.605-.042,2.041,2.041,0,0,0,.561-.2,2.717,2.717,0,0,0,.495-.316,4,4,0,0,0,.77-.856" transform="translate(-247.024 -36.272)" fill="#e5826c"/><path d="M123.193,245.7S93.371,330.99,66.831,341.129L53.709,316.675s31.909-74.255,43.539-82.9S123.193,245.7,123.193,245.7" transform="translate(65.828 -47.082)" fill="#ffb199"/><path d="M70.818,280.8A50.766,50.766,0,0,1,53.71,267.08c7.865-15.657,15.855-29.82,20.545-33.307C85.885,225.124,100.2,245.7,100.2,245.7s-6.431,18.387-15.974,39.1a47.341,47.341,0,0,1-13.408-4" transform="translate(88.82 -47.082)" fill="#f2957c"/><path d="M69,218.284s15.209-16.7,26.839,1.193-8.947,54.871-8.947,54.871-19.682-2.385-37.277-19.384c0,0,11.631-28.33,19.384-36.68" transform="translate(92.884 -42.927)" fill="#ffa94d"/><path d="M167.455,322.406a4.473,4.473,0,0,0,3.7,5.128l63,10.154a4.474,4.474,0,0,0,5.128-3.7l15.278-94.8a4.473,4.473,0,0,0-3.7-5.128l-63-10.154a4.474,4.474,0,0,0-5.128,3.7Z" transform="translate(-156.189 -45.495)" fill="#ddd3d3"/><path d="M167.927,325.73l63,10.154a4.473,4.473,0,0,0,5.128-3.7l15.279-94.8a4.307,4.307,0,0,0,.032-.543,4.458,4.458,0,0,1,3.178,4.988l-15.278,94.8a4.474,4.474,0,0,1-5.128,3.7l-63-10.154a4.457,4.457,0,0,1-3.737-4.584,4.386,4.386,0,0,0,.526.14" transform="translate(-156.167 -48.136)" fill="#a39d9c"/><g transform="translate(90.698 94.676)"><path d="M133.381,69.259l-3.518-2.851,4.07-5.65" transform="translate(-114.049 -34.718)" fill="none" stroke="#000" stroke-linecap="round" stroke-linejoin="round" stroke-width="0.809"/><path d="M103.337,56.776s4.609-11.442,20.01-2.652c0,0-7.893,10.351-20.01,2.652" transform="translate(-75.164 -35.383)" fill="#fff"/><path d="M108.493,54.21a5.436,5.436,0,1,0,6.124-4.837,5.521,5.521,0,0,0-6.124,4.837" transform="translate(-76.577 -35.48)"/><path d="M123.347,54.123s-7.892,10.351-20.009,2.652a10.313,10.313,0,0,1,9.549-5.973c2.744,0,6.187.881,10.461,3.32" transform="translate(-75.165 -35.383)" fill="none"/><path d="M123.623,53.914a16.722,16.722,0,0,0-10.933-3.82,12,12,0,0,0-5.841,1.259,7.6,7.6,0,0,0-3.808,4.846.7.7,0,1,0,1.369.332l.005-.023.016-.081a6.359,6.359,0,0,1,3.011-4.033,10.844,10.844,0,0,1,5.266-1.309,15.9,15.9,0,0,1,10.468,3.345.34.34,0,0,0,.481-.036.347.347,0,0,0-.034-.479" transform="translate(-75.216 -35.431)"/><path d="M147.431,56.57s-4.456-11.748-13.078-3.79c0,0,4.808,11.145,13.078,3.79" transform="translate(-132.338 -35.435)" fill="#fff"/><path d="M145.059,53.715c.4,2.672-.982,5.1-3.1,5.418s-4.159-1.585-4.563-4.257.981-5.1,3.1-5.418,4.158,1.585,4.563,4.257" transform="translate(-133.21 -35.476)"/><path d="M147.431,56.57c-8.271,7.356-13.078-3.79-13.078-3.79,2.182-2.013,4.1-2.765,5.74-2.765,4.851,0,7.338,6.555,7.338,6.555" transform="translate(-132.338 -35.435)" fill="none"/><path d="M134.572,52.966a5.384,5.384,0,0,1,5.683-2.307l.057.013a8.647,8.647,0,0,1,6.264,5.6l.016.041a.595.595,0,1,0,1.111-.425l-.007-.019a9.648,9.648,0,0,0-7.253-6.038l.055.012a6.088,6.088,0,0,0-6.4,2.79.289.289,0,0,0,.067.4.3.3,0,0,0,.407-.074" transform="translate(-132.32 -35.454)"/><path d="M149.148,40.8a2.845,2.845,0,0,1-2.455,3.662c-2.508.427-5.457.652-6.867,1.329a1.665,1.665,0,0,1-2.19-.812,2.325,2.325,0,0,1,.009-2.236c.789-1.361,3.825-3.465,6.873-4.033,3.913-.73,4.63,2.09,4.63,2.09" transform="translate(-137.354 -36.199)"/><path d="M103.579,38.516s-1.146,3.14,3.569,3.8A74.442,74.442,0,0,1,118.375,45.1a2.765,2.765,0,0,0,3.1-.769,1.8,1.8,0,0,0-.058-2.283c-1.151-1.41-6.941-4.875-11.291-5.537-5.586-.85-6.549,2.008-6.549,2.008" transform="translate(-73.802 -36.35)"/><path d="M117.29,73.187l17-.412s-.016,6.917-8.074,7.088c-8.625.182-8.922-6.676-8.922-6.676" transform="translate(-100.989 -33.912)" fill="#fff"/></g><path d="M80.923,83.674s-10.288-13.867-37.128-6.71-11.182,55.02,17,61.284,7,21.179-7.311,14.022c0,0-21.406,21.554-4.767,38.314,14.042,14.142,18.042-8.5,30.12-4.473s11.481,19.234,4.324,38.022c0,0,32.655-2.236,29.971-31.312s-32.654-30.418-26.392-66.2-5.815-42.943-5.815-42.943" transform="translate(94.678 -15.226)" fill="#003154"/><g transform="matrix(0.174, -0.985, 0.985, 0.174, 7628.64, 15604.237)"><path d="M460.489,10.893a19.564,19.564,0,1,1-19.564,19.564,19.564,19.564,0,0,1,19.564-19.564" transform="translate(13359.985 -10156.853)" fill="#82ced8"/><path d="M478.526,25.843V40.171a9.116,9.116,0,0,1-3.995,7.547L469.542,51.1a2.48,2.48,0,0,1-2.732.038l-5.372-3.448a9.126,9.126,0,0,1-4.2-7.678V25.843Z" transform="translate(13352.588 -10163.633)" fill="#fff"/><path d="M487.36,25.843V40.171a9.116,9.116,0,0,1-3.995,7.547L478.376,51.1a2.448,2.448,0,0,1-1.661.415V25.843Z" transform="translate(13343.754 -10163.633)" fill="#ebe1e2"/><rect width="12.962" height="4.006" transform="translate(13813.993 -10127.894)" fill="#ba2f54"/><rect width="4.006" height="12.962" transform="translate(13818.475 -10132.371)" fill="#ba2f54"/></g><path d="M123.88,264.235s-37.277,6.262-2.087-5.07c0,0,9.543-4.175,22.068,5.666,11.277,8.86,40.1,44.635,46.1,67.819-7.083,9.148-14.482,15.526-21.049,14.785-14.523-1.637-38.768-66.8-38.768-66.8s-35.487,14.91-2.385-5.368c0,0-50.7,16.7-3.28-5.666,0,0-45.627,10.736-.6-5.368" transform="translate(-41.024 -52.496)" fill="#ffb199"/></g></g></g></g></g></g></g></g></svg>