<svg xmlns="http://www.w3.org/2000/svg" xmlns:xlink="http://www.w3.org/1999/xlink" width="610" height="363" viewBox="0 0 610 363"><defs><clipPath id="a"><rect width="610" height="363" transform="translate(179.936 1515)" fill="#fff" opacity="0.39"/></clipPath><clipPath id="b"><rect width="498.738" height="281.345" fill="none"/></clipPath><clipPath id="c"><rect width="513.232" height="337.353" fill="none"/></clipPath><clipPath id="d"><rect width="257.726" height="331" fill="none"/></clipPath><clipPath id="e"><path d="M122.428,119.273l13.233,3.692c-18.485,26.641-47.3,50.639-47.3,50.639,6.356-36.255,15.314-54.331,15.314-54.331Z" transform="translate(-88.366 -119.273)" fill="none"/></clipPath><clipPath id="g"><path d="M119.94,53.558s-6.548,8.588-16.6,2.2a8.557,8.557,0,0,1,7.923-4.955c2.277,0,5.133.731,8.68,2.755" transform="translate(-103.338 -50.803)" fill="none"/></clipPath><clipPath id="i"><path d="M145.2,55.454c-6.862,6.1-10.851-3.144-10.851-3.144,1.81-1.67,3.4-2.294,4.762-2.294,4.025,0,6.089,5.439,6.089,5.439" transform="translate(-134.353 -50.015)" fill="none"/></clipPath><clipPath id="k"><rect width="22.505" height="22.504" fill="none"/></clipPath><clipPath id="l"><rect width="20.349" height="22.504" fill="none"/></clipPath></defs><g transform="translate(-179.936 -1515)"><g clip-path="url(#a)"><g transform="translate(235.936 1596.655)"><g transform="translate(0 0)" clip-path="url(#b)"><path d="M.173,178.929q-.057-1.173-.095-2.336C-2.229,106.087,46.852,98.451,126.7,107.147c1.964.214,2.146.841,2.864,1.113,78.347,29.673,112.759,19.61,209.7-50.792,131.3-95.357,238.975,139.061,80.428,231.987H77.383c-4.38-2.192-8.468-4.369-12.259-6.495-38-21.307-62.841-60.515-64.951-104.032" transform="translate(-0.001 -8.111)" fill="#b8dcf1"/><path d="M272.9,54.276c-3.321-8.643,1.118-16.873,10.8-16.015,9.814.87,35.254,2.17,56.905-21.076,44.958-48.271,74.016,16.928,27.22,51.311-32.032,23.536-81.634,20.356-94.922-14.22" transform="translate(-101.897 0)" fill="#b8dcf1"/></g></g><g transform="translate(-0.754)"><g transform="translate(228.689 1546.023)"><g clip-path="url(#c)"><path d="M254.787.547A103.251,103.251,0,0,0,188.6,34.7c-16.619,18.938-27.5,41.71-39.413,63.636s-25.518,43.807-45.89,59.043c-19.423,14.529-44.713,22.846-58.763,42.2-14.47,19.924-12.888,47.936-.037,68.839s35.306,35.225,59.242,43.351S153.254,322.4,178.58,324.34c82.2,6.286,167.03,6.749,244.518-20.159,27.88-9.686,56.18-24.436,69.4-49.776,13.153-25.216,8.265-56.415-6.212-80.969s-37.36-43.528-60.92-60.507-48.437-32.62-69.045-52.794c-14.514-14.212-26.835-30.6-43.145-42.9C296.843,4.926,279.031-2.073,254.787.547" transform="translate(-9.044 0)" fill="#e4efed"/><path d="M472.765,378.673c.147-40.23,11.511-80.328,32.223-113.655s50.66-59.742,87.6-73.255c4.092,41.069-6.116,83.64-28.138,117.291a174.327,174.327,0,0,1-91.685,69.619" transform="translate(-124.805 -50.623)" fill="#70a8c4"/><path d="M589.419,206.643a614.863,614.863,0,0,0-103.424,169.3" transform="translate(-128.297 -54.551)" fill="none" stroke="#eaf8f9" stroke-linecap="round" stroke-miterlimit="10" stroke-width="1"/><path d="M596.244,236.431a67.141,67.141,0,0,1-.626-19.158" transform="translate(-157.128 -57.358)" fill="none" stroke="#eaf8f9" stroke-linecap="round" stroke-miterlimit="10" stroke-width="1"/><path d="M581.165,264.393a122.186,122.186,0,0,0,32.031.559" transform="translate(-153.421 -69.797)" fill="none" stroke="#eaf8f9" stroke-linecap="round" stroke-miterlimit="10" stroke-width="1"/><path d="M546.588,299.693a123.873,123.873,0,0,1-8.943-31.42" transform="translate(-141.932 -70.821)" fill="none" stroke="#eaf8f9" stroke-linecap="round" stroke-miterlimit="10" stroke-width="1"/><path d="M536.985,334.173a200.974,200.974,0,0,0,43.461,5.189" transform="translate(-141.758 -88.218)" fill="none" stroke="#eaf8f9" stroke-linecap="round" stroke-miterlimit="10" stroke-width="1"/><path d="M510.868,363.123a111.357,111.357,0,0,1-11.813-27.88" transform="translate(-131.745 -88.5)" fill="none" stroke="#eaf8f9" stroke-linecap="round" stroke-miterlimit="10" stroke-width="1"/><path d="M479.055,422.837A126.121,126.121,0,0,1,547.3,362.882a118.28,118.28,0,0,1,92.4,4.865c-41.121,40.407-101.621,60.139-160.642,55.09" transform="translate(-126.465 -93.912)" fill="#82ced8"/><path d="M629.555,375.723a329.293,329.293,0,0,0-140.1,47.738" transform="translate(-129.211 -99.187)" fill="none" stroke="#eaf8f9" stroke-linecap="round" stroke-miterlimit="10" stroke-width="1"/><path d="M637.445,376.879a69.754,69.754,0,0,1,8.133-13.756" transform="translate(-168.278 -95.86)" fill="none" stroke="#eaf8f9" stroke-linecap="round" stroke-miterlimit="10" stroke-width="1"/><path d="M620.925,386.183a64.919,64.919,0,0,0,18.547,13.94" transform="translate(-163.917 -101.948)" fill="none" stroke="#eaf8f9" stroke-linecap="round" stroke-miterlimit="10" stroke-width="1"/><path d="M586.485,387.083a60.865,60.865,0,0,1,5.358-24.06" transform="translate(-154.825 -95.834)" fill="none" stroke="#eaf8f9" stroke-linecap="round" stroke-miterlimit="10" stroke-width="1"/><path d="M567.165,402.783a71.4,71.4,0,0,0,16.487,22.066" transform="translate(-149.725 -106.33)" fill="none" stroke="#eaf8f9" stroke-linecap="round" stroke-miterlimit="10" stroke-width="1"/><path d="M539.678,406.57a68.739,68.739,0,0,1,.368-19.077" transform="translate(-142.338 -102.294)" fill="none" stroke="#eaf8f9" stroke-linecap="round" stroke-miterlimit="10" stroke-width="1"/><path d="M519.775,423.743A45.5,45.5,0,0,0,539.2,433.878" transform="translate(-137.215 -111.863)" fill="none" stroke="#eaf8f9" stroke-linecap="round" stroke-miterlimit="10" stroke-width="1"/><path d="M282.128,358.986c2.834-41.084,5.616-82.838-3.548-123.032s-32.112-79.357-71.069-97.772c-15.846,40.459-25.613,84.8-15.986,127.072s42.24,81.594,90.6,93.731" transform="translate(-49.552 -36.479)" fill="#82ced8"/><path d="M223.615,156.673q10.919,41.158,21.83,82.323c10.768,40.628,21.646,81.543,40.024,119.344" transform="translate(-59.032 -41.36)" fill="none" stroke="#eaf8f9" stroke-linecap="round" stroke-miterlimit="10" stroke-width="1"/><path d="M252.4,177.283a149.4,149.4,0,0,1-13.145,28.049" transform="translate(-63.161 -46.801)" fill="none" stroke="#eaf8f9" stroke-linecap="round" stroke-miterlimit="10" stroke-width="1"/><path d="M231.727,239.073a208.04,208.04,0,0,1-38.162,1.6" transform="translate(-51.099 -63.113)" fill="none" stroke="#eaf8f9" stroke-linecap="round" stroke-miterlimit="10" stroke-width="1"/><path d="M261.845,286.41a141.455,141.455,0,0,0,30.567-34.217" transform="translate(-69.124 -66.576)" fill="none" stroke="#eaf8f9" stroke-linecap="round" stroke-miterlimit="10" stroke-width="1"/><path d="M256.265,332.053a87.171,87.171,0,0,1-39.45,1.752" transform="translate(-57.237 -87.658)" fill="none" stroke="#eaf8f9" stroke-linecap="round" stroke-miterlimit="10" stroke-width="1"/><path d="M288.135,376.3a93.075,93.075,0,0,0,19.607-26.828" transform="translate(-76.064 -92.257)" fill="none" stroke="#eaf8f9" stroke-linecap="round" stroke-miterlimit="10" stroke-width="1"/><path d="M222.923,402.256C181.177,335.33,101.68,293.834,22.905,297.838c8.214,39.59,34.7,75.007,70.348,94.07s79.813,21.433,129.67,10.348" transform="translate(-6.047 -78.556)" fill="#70a8c4"/><path d="M40.815,309.373c17.355,17.5,34.916,35.181,55.856,48.179,22.272,13.83,47.576,21.874,72.718,29.293q24.885,7.342,49.953,14.036" transform="translate(-10.775 -81.671)" fill="none" stroke="#eaf8f9" stroke-linecap="round" stroke-miterlimit="10" stroke-width="1"/><path d="M81.4,337.266a122.055,122.055,0,0,0,2.966-30.883" transform="translate(-21.49 -80.882)" fill="none" stroke="#eaf8f9" stroke-linecap="round" stroke-miterlimit="10" stroke-width="1"/><path d="M63.464,337.673A77.07,77.07,0,0,1,47.1,344.415" transform="translate(-12.433 -89.142)" fill="none" stroke="#eaf8f9" stroke-linecap="round" stroke-miterlimit="10" stroke-width="1"/><path d="M92.975,398.559A93.107,93.107,0,0,0,118.353,381.4" transform="translate(-24.544 -100.686)" fill="none" stroke="#eaf8f9" stroke-linecap="round" stroke-miterlimit="10" stroke-width="1"/><path d="M154.235,377.692a246.024,246.024,0,0,0,2.973-44.919" transform="translate(-40.716 -87.848)" fill="none" stroke="#eaf8f9" stroke-linecap="round" stroke-miterlimit="10" stroke-width="1"/><path d="M235.079,378.073a119.941,119.941,0,0,1-3.054,30.353" transform="translate(-61.252 -99.807)" fill="none" stroke="#eaf8f9" stroke-linecap="round" stroke-miterlimit="10" stroke-width="1"/><path d="M214.808,416.923a51.777,51.777,0,0,1-20.233,17.686" transform="translate(-51.366 -110.063)" fill="none" stroke="#eaf8f9" stroke-linecap="round" stroke-miterlimit="10" stroke-width="1"/></g></g><g transform="translate(-13213.695 11705)"><path d="M477.834,120.163a26.349,26.349,0,1,1-26.349,26.349,26.349,26.349,0,0,1,26.349-26.349" transform="translate(13357.198 -10185.698)" fill="#82ced8"/><path d="M463.852,144.48c6.241-10.172,16.914,3.15,16.914,3.15s11.276-11.923,16.914-3.15c6.815,10.613-17.2,23.788-17.2,23.788s-23.125-13.2-16.626-23.788" transform="translate(13354.237 -10191.107)" fill="#ba2f54"/><path d="M454.935,155h13.741l2.12-8.442,4.262,16.972,3.687-20.7,3.091,18.548,4.821-11.629,2.1,5.285h11.209" transform="translate(13356.287 -10191.683)" fill="none" stroke="#fff0f4" stroke-miterlimit="10" stroke-width="1"/></g><g transform="translate(-13232.271 11683)"><path d="M467.274,10.893a26.349,26.349,0,1,1-26.349,26.349,26.349,26.349,0,0,1,26.349-26.349" transform="translate(13359.985 -10156.853)" fill="#82ced8"/><path d="M485.91,25.843v19.3a12.278,12.278,0,0,1-5.38,10.164l-6.72,4.556a3.34,3.34,0,0,1-3.68.052l-7.235-4.644a12.291,12.291,0,0,1-5.66-10.341V25.843Z" transform="translate(13355.68 -10160.799)" fill="#fff"/><path d="M491.052,25.843v19.3a12.278,12.278,0,0,1-5.38,10.164l-6.72,4.556a3.3,3.3,0,0,1-2.237.559V25.843Z" transform="translate(13350.537 -10160.799)" fill="#ebe1e2"/><rect width="17.458" height="5.395" transform="translate(13818.53 -10121.627)" fill="#ba2f54"/><rect width="5.395" height="17.458" transform="translate(13824.567 -10127.657)" fill="#ba2f54"/></g><g transform="translate(-13226.695 11693)"><path d="M239.114,46.693a26.349,26.349,0,1,1-26.349,26.349,26.349,26.349,0,0,1,26.349-26.349" transform="translate(13420.217 -10166.303)" fill="#82ced8"/><path d="M245.856,55.711a7.385,7.385,0,0,1,9.472,4.394l6.955,19a7.384,7.384,0,0,1-13.866,5.078l-6.955-19a7.379,7.379,0,0,1,4.394-9.472" transform="translate(13412.761 -10168.564)" fill="#941b3f"/><path d="M245.856,55.711a7.385,7.385,0,0,1,9.472,4.394l3.481,9.5-13.866,5.078-3.481-9.5a7.379,7.379,0,0,1,4.394-9.472" transform="translate(13412.761 -10168.564)" fill="#ebe1e2"/><path d="M223.421,72.4a7.374,7.374,0,0,1,10.437,0L248.166,86.7a7.38,7.38,0,0,1-10.437,10.437L223.421,82.834a7.387,7.387,0,0,1,0-10.437" transform="translate(13417.974 -10172.518)" fill="#ba2f54"/><path d="M223.421,72.4a7.374,7.374,0,0,1,10.437,0l7.154,7.154L230.575,89.988l-7.154-7.154a7.387,7.387,0,0,1,0-10.437" transform="translate(13417.974 -10172.518)" fill="#fff"/></g><g transform="translate(355.936 1546.023)"><g clip-path="url(#d)"><path d="M61.234,9.9s0-17.555,33.756-5.907c29.247,10.091,20.478,31.167,31.57,65.184,13.72,42.074-19.271,56.487-34.972,52.664l-31.9-1.3L51.156,80.629Z" transform="translate(82.618 0)"/><path d="M142.274,14.517s-6.226-10.809-16.1-5.829c-10.11,5.1-12.287,15.7-10.659,31.646,2.032,19.908-30.647,54.04,13.34,79.931l27.591,1.124Z" transform="translate(7.677 -0.847)"/><path d="M223.641,143.65s-12.178,26.9-97.75,69.959L102.46,187.64l83.77-56.889Z" transform="translate(-56.615 -15.008)" fill="#fff"/><path d="M234.254,179.133,220.5,115.712l12.875-1.1,17.742,49.7q-8.171,7.77-16.863,14.82" transform="translate(-188.581 -13.156)" fill="#af6f3b"/><path d="M285.149,108.364l-.132-3.356a28.787,28.787,0,0,0-3.6-12.858l-3.859-6.945a3.052,3.052,0,0,0-4.572-.9,3.906,3.906,0,0,0-1.3,4.175l2.423,8.076L252.994,76.577a2.364,2.364,0,0,0-3.54.232l-.582.757a2.363,2.363,0,0,0,.088,2.992l13.716,13.948L244.7,80.663a2.364,2.364,0,0,0-3.511.452l-.394.582a2.362,2.362,0,0,0,.4,3.105l15.2,13.131L242.67,90.5a2.364,2.364,0,0,0-3.439,1.321l-.093.289a2.364,2.364,0,0,0,.892,2.657l13.709,8.74-8.085-2.869a2.363,2.363,0,0,0-2.384,4.075l34.834,21.581,4.621-8.057a18.4,18.4,0,0,0,2.423-9.871" transform="translate(-239.026 -8.711)" fill="#af6f3b"/><path d="M253.3,99.235s-3.52,5.515-.662,13.187" transform="translate(-218.222 -11.391)" fill="none" stroke="#000" stroke-linecap="round" stroke-linejoin="round" stroke-width="0.99"/><path d="M249.074,188.686,229.3,130l-25.407,9.678,11.9,63.01a18.05,18.05,0,0,0,24.38,12.3c9.163-3.773,13.571-14.225,8.906-26.3" transform="translate(-173.717 -14.922)" fill="#fff"/><line x2="4.566" y2="14.05" transform="translate(69.749 156.398)" fill="none" stroke="#cfdbf7" stroke-linecap="round" stroke-linejoin="round" stroke-width="1.406"/><path d="M135.8,122.965s20.841,7.756,27.711,13.156,8.3,17.306,2.8,33.792-24.705,72.813-24.705,72.813l24.655,101.342H50.087L65.8,244.181l-1.66-29.389s-10.848-30.254-.447-54.5c14.393-33.543,40.129-41.023,40.129-41.023Z" transform="translate(43.704 -13.691)" fill="#fff"/><path d="M103.679,119.274S94.722,137.35,88.365,173.6c0,0,28.81-24,47.3-50.639l-13.233-3.691Z" transform="translate(43.843 -13.691)" fill="#af6f3b"/></g><g transform="translate(132.208 105.582)"><g transform="translate(0)" clip-path="url(#e)"><path d="M152.616,146.831s-47.216-11.576-70.54-5.825l-2.194,44.255,31.937,8.358,24.43-39" transform="translate(-97.81 -121.584)" fill="#90b2f9"/></g></g><g clip-path="url(#d)"><path d="M155.083,180.649l-10.586,26.2-2.7,144.269" transform="translate(-22.876 -20.736)" fill="none" stroke="#cfdbf7" stroke-linecap="round" stroke-linejoin="round" stroke-width="1.406"/><path d="M136.545,124.454l10.113,19.411-16.593,3.069,2.74,12.878L78.275,200.293l-1.77-49,9.849-8.009-3.709-6.428,13.934-13.274" transform="translate(43.345 -14.186)" fill="none" stroke="#cfdbf7" stroke-linecap="round" stroke-linejoin="round" stroke-width="1.406"/><path d="M165.225,198.557s-.48-24.878,8.572-40.67" transform="translate(-62.328 -18.123)" fill="none" stroke="#cfdbf7" stroke-linecap="round" stroke-linejoin="round" stroke-width="1.406"/><path d="M98.24,179.316l.829-5.964a6.743,6.743,0,0,0-13.21-2.605l-1.048,6.7" transform="translate(83.516 -19.018)" fill="none" stroke="#000" stroke-miterlimit="10" stroke-width="1.572"/><path d="M87.623,160.613s11.785-37.781-1.645-39.646" transform="translate(89.211 -13.885)" fill="none" stroke="#000" stroke-miterlimit="10" stroke-width="1.572"/><path d="M84.838,178.977s-7.661,46.165,15.381,30.171" transform="translate(83.488 -20.544)" fill="none" stroke="#cfdbf7" stroke-miterlimit="10" stroke-width="1.406"/><path d="M85.271,212.644a1.993,1.993,0,1,1-1.7-2.248,1.993,1.993,0,0,1,1.7,2.248" transform="translate(100.464 -24.148)"/><path d="M108.858,181.082s-5.211,46.5-23.022,24.836" transform="translate(72.885 -20.786)" fill="none" stroke="#cfdbf7" stroke-miterlimit="10" stroke-width="1.406"/><path d="M109.551,208.175a1.993,1.993,0,1,0,2.248-1.7,1.993,1.993,0,0,0-2.248,1.7" transform="translate(47.248 -23.698)"/><path d="M123.895,159.637s7.453-39.658,23.168-41.157" transform="translate(0.989 -13.6)" fill="none" stroke="#000" stroke-miterlimit="10" stroke-width="1.572"/><path d="M155.288,171.6c-.368,3.765-2.988,6.59-5.849,6.31s-4.885-3.559-4.516-7.324,2.988-6.59,5.85-6.309,4.884,3.559,4.515,7.323" transform="translate(-25.855 -18.854)"/><path d="M154.166,171.57c-.237,2.42-1.641,4.262-3.137,4.116s-2.516-2.226-2.279-4.647,1.641-4.262,3.136-4.116,2.517,2.226,2.279,4.646" transform="translate(-28.121 -19.16)" fill="#cfdbf7"/><path d="M14.935,136.358s31,10.033,52.79,116.906L34.737,264.969.269,174.872Z" transform="translate(189.763 -15.652)" fill="#fff"/><line x1="7.978" y1="22.106" transform="translate(193.426 168.985)" fill="none" stroke="#cfdbf7" stroke-linecap="round" stroke-linejoin="round" stroke-width="1.406"/><path d="M121.418,254.749l-59.668.265-4.172,14.143,59.326,8.188Z" transform="translate(85.339 -29.242)" fill="#af6f3b"/><path d="M64.366,246.943,0,250.237l2.408,30.58,64.755,4.633c11.8-.05,19.96-7.842,18.205-19.51-1.579-10.5-10.484-20.487-21-19" transform="translate(172.12 -28.329)" fill="#fff"/><path d="M89.073,247.329,30.2,250.3l.283,3.6" transform="translate(141.916 -28.39)" fill="none" stroke="#cfdbf7" stroke-linecap="round" stroke-linejoin="round" stroke-width="1.406"/><path d="M69.128,276.7l.595,7.553,22,2.279" transform="translate(104.805 -31.761)" fill="none" stroke="#cfdbf7" stroke-linecap="round" stroke-linejoin="round" stroke-width="1.406"/><path d="M189.915,205.724l23.523,83.468a4.84,4.84,0,0,1-4.659,6.153H154.113a4.84,4.84,0,0,1-4.629-3.423l-25.546-83.468a4.841,4.841,0,0,1,4.629-6.258h56.689a4.84,4.84,0,0,1,4.659,3.528" transform="translate(-65.417 -23.209)"/><path d="M202.334,198.529s-3.888-5.566-12.988-4.882c-10.136.762-8.483,9.768-8.483,9.768Z" transform="translate(-104.622 -22.221)"/><path d="M193.617,202.112l19.615,69.6a4.037,4.037,0,0,1-3.885,5.132H163.762a4.036,4.036,0,0,1-3.86-2.855l-21.3-69.605a4.036,4.036,0,0,1,3.86-5.217h47.274a4.037,4.037,0,0,1,3.885,2.942" transform="translate(-78.192 -22.862)"/><path d="M193.425,205.724l23.523,83.468a4.84,4.84,0,0,1-4.659,6.153H157.622a4.839,4.839,0,0,1-4.628-3.423l-25.546-83.468a4.841,4.841,0,0,1,4.629-6.258h56.689a4.841,4.841,0,0,1,4.659,3.528" transform="translate(-72.035 -23.209)" fill="#eab65b"/><path d="M160.268,255.607s-2.171-8.815-20.382-17.633l2.683,9.776s-8.713-1.3-20.732-6.975a2.4,2.4,0,0,0-2.045,4.331l4.214,2.068-7.072-1.768a2.3,2.3,0,0,0-1.506,4.327,73.317,73.317,0,0,0,7.7,2.795h0s-3.379-.391-6.839-1.014a2.253,2.253,0,0,0-2.67,1.761,2.212,2.212,0,0,0,1.286,2.44,87.774,87.774,0,0,0,9.5,3.457c-3.19-.187-6.724-.812-7.217.366s-.408,2.347,8.57,4.9,21.088,6.63,28.944,4.693l9.91-4.1V254.076Z" transform="translate(-7.429 -27.316)" fill="#af6f3b"/><path d="M131.977,57.968c-1.068,4.593,2.125,9.642,7.133,11.274s9.933-.767,11-5.362-2.125-9.641-7.133-11.274-9.933.767-11,5.362" transform="translate(-9.237 -5.98)" fill="#965726"/><path d="M67.905,38.515c-.264,18.63,12.509,33.9,32.571,34.181s36.539-14.588,36.8-33.219S121.494,5.514,101.432,5.229,68.169,19.885,67.905,38.515" transform="translate(60.336 -0.6)"/><path d="M115.982,74.159l5.094,44.9-24.369,2.831,2.1-42.457Z" transform="translate(51.044 -8.512)" fill="#af6f3b"/><path d="M99.773,110.13,120.83,84.58l-19.655-.691Z" transform="translate(48.575 -9.629)" fill="#965726"/><path d="M121.109,16.4a40.18,40.18,0,0,0-18.133-1.038C94.858,16.857,84.425,21.578,83,35.86c-2.38,23.8,1.57,41.7,13.717,47.331,9.326,4.322,15.033,2.855,25.864-3,4.03-2.179,10.7-10.216,10.841-14.973l4.124-11.725s11.68-29.111-16.435-37.088" transform="translate(44.89 -1.695)" fill="#af6f3b"/><path d="M132.782,67.811l-2.919-2.365,3.377-4.688" transform="translate(9.529 -6.974)" fill="none" stroke="#000" stroke-linecap="round" stroke-linejoin="round" stroke-width="0.809"/><path d="M103.337,55.758s3.824-9.493,16.6-2.2c0,0-6.549,8.588-16.6,2.2" transform="translate(46.31 -5.831)" fill="#fff"/></g><g transform="translate(149.647 44.972)"><g transform="translate(0)" clip-path="url(#g)"><path d="M108.485,53.379a4.51,4.51,0,1,0,5.081-4.014,4.58,4.58,0,0,0-5.081,4.014" transform="translate(-105.38 -50.634)"/></g></g><g clip-path="url(#d)"><path d="M120.115,53.263a13.875,13.875,0,0,0-9.072-3.169,9.959,9.959,0,0,0-4.847,1.045,6.3,6.3,0,0,0-3.159,4.021.584.584,0,1,0,1.136.275l0-.019.013-.067a5.276,5.276,0,0,1,2.5-3.346,9,9,0,0,1,4.369-1.086,13.2,13.2,0,0,1,8.686,2.775.282.282,0,0,0,.4-.03.288.288,0,0,0-.028-.4" transform="translate(46.32 -5.75)"/><path d="M145.2,55.454s-3.7-9.747-10.851-3.144c0,0,3.99,9.247,10.851,3.144" transform="translate(-6.409 -5.741)" fill="#fff"/></g><g transform="translate(127.944 44.274)"><g transform="translate(0)" clip-path="url(#i)"><path d="M143.743,52.984c.335,2.217-.814,4.23-2.57,4.5s-3.451-1.315-3.786-3.532.814-4.23,2.57-4.5,3.45,1.315,3.786,3.532" transform="translate(-135.584 -49.947)"/></g></g><g clip-path="url(#d)"><path d="M134.483,52.41A4.467,4.467,0,0,1,139.2,50.5l.047.011a7.174,7.174,0,0,1,5.2,4.65l.013.034a.493.493,0,1,0,.921-.352l-.006-.016a8,8,0,0,0-6.018-5.009l.046.01a5.051,5.051,0,0,0-5.309,2.315.24.24,0,0,0,.056.334.252.252,0,0,0,.337-.061" transform="translate(-6.343 -5.705)"/><path d="M147.14,40.428a2.36,2.36,0,0,1-2.037,3.038c-2.081.354-4.528.541-5.7,1.1a1.381,1.381,0,0,1-1.817-.674,1.929,1.929,0,0,1,.007-1.855c.655-1.13,3.173-2.875,5.7-3.346,3.247-.605,3.842,1.734,3.842,1.734" transform="translate(-11.083 -4.43)"/><path d="M103.558,38.147s-.951,2.605,2.961,3.156a61.764,61.764,0,0,1,9.315,2.305,2.3,2.3,0,0,0,2.573-.638,1.494,1.494,0,0,0-.048-1.894c-.955-1.17-5.759-4.045-9.368-4.594-4.635-.706-5.433,1.666-5.433,1.666" transform="translate(47.421 -4.172)"/><path d="M117.29,73.117l14.1-.342s-.013,5.739-6.7,5.88c-7.156.151-7.4-5.539-7.4-5.539" transform="translate(22.507 -8.354)" fill="#fff"/><g transform="translate(145.528 37.865)" opacity="0.3"><g clip-path="url(#k)"><path d="M123.824,53.754A11.252,11.252,0,1,1,112.3,42.778a11.252,11.252,0,0,1,11.521,10.977" transform="translate(-101.323 -42.775)" fill="#fff"/></g></g><g transform="translate(119.102 38.556)" opacity="0.3"><g transform="translate(0)"><g transform="translate(0)" clip-path="url(#l)"><path d="M153.958,54.536c.136,6.212-4.307,11.371-9.925,11.521s-10.282-4.764-10.418-10.977,4.307-11.371,9.925-11.521,10.282,4.764,10.418,10.977" transform="translate(-133.612 -43.556)" fill="#fff"/></g></g></g><path d="M123.824,53.754A11.252,11.252,0,1,1,112.3,42.778,11.252,11.252,0,0,1,123.824,53.754Z" transform="translate(44.205 -4.91)" fill="none" stroke="#eab65b" stroke-miterlimit="10" stroke-width="1.01"/><path d="M153.958,54.536c.136,6.212-4.307,11.371-9.925,11.521s-10.282-4.764-10.418-10.977,4.307-11.371,9.925-11.521S153.821,48.324,153.958,54.536Z" transform="translate(-14.51 -5)" fill="none" stroke="#eab65b" stroke-miterlimit="10" stroke-width="1.01"/><path d="M126.742,55.845a6.136,6.136,0,0,1,6.084-.147" transform="translate(12.706 -6.308)" fill="none" stroke="#eab65b" stroke-miterlimit="10" stroke-width="1.01"/><line x2="8.47" y2="4.773" transform="translate(168.018 48.554)" fill="none" stroke="#eab65b" stroke-miterlimit="10" stroke-width="1.01"/><path d="M115.785,46.979s-44.24-13.4-39.141-38.663c0,0,16.075-4.285,28.924,10.05s10.216,28.613,10.216,28.613" transform="translate(74.233 -0.886)"/><path d="M79.677,43.337v23.07l10.669-17.1Z" transform="translate(96.847 -4.975)"/><path d="M92.288,62.271c1.068,4.594-2.125,9.642-7.133,11.274s-9.933-.767-11-5.362,2.125-9.641,7.133-11.274,9.933.768,11,5.362" transform="translate(99.771 -6.474)" fill="#af6f3b"/><path d="M88,63.5s-5.455-1.29-8.317,4.594" transform="translate(99.198 -7.275)" fill="none" stroke="#000" stroke-linecap="round" stroke-linejoin="round" stroke-width="0.961"/><path d="M137.183,17.849s-8-2.7-12.126,2.375c-5.523,6.8-8.119,13.379-14.544,15.1,0,0-2.121-23.111,23.825-25.2l11.587,4.108Z" transform="translate(14.01 -1.163)"/></g></g></g></g></g></svg>