<svg xmlns="http://www.w3.org/2000/svg" xmlns:xlink="http://www.w3.org/1999/xlink" width="126" height="126" viewBox="0 0 126 126"><defs><filter id="a" x="0" y="0" width="126" height="126" filterUnits="userSpaceOnUse"><feOffset dy="3" input="SourceAlpha"/><feGaussianBlur stdDeviation="3" result="b"/><feFlood flood-opacity="0.161"/><feComposite operator="in" in2="b"/><feComposite in="SourceGraphic"/></filter></defs><g transform="translate(-317.936 -2912)"><g transform="matrix(1, 0, 0, 1, 317.94, 2912)" filter="url(#a)"><circle cx="54" cy="54" r="54" transform="translate(9 6)" fill="#1b3f5e"/></g><g transform="translate(284.391 2933.376)"><g transform="translate(79.467 9.239)"><path d="M181.077,51.072A16.6,16.6,0,0,0,164.529,67.62v3.169c8.03.564,11.466-1.292,19.768-4.41,5.251-1.5,7.917,1.349,13.327,4.518V67.62a16.6,16.6,0,0,0-16.548-16.548Z" transform="translate(-164.529 -51.072)" fill="#9ea6bf" fill-rule="evenodd"/></g><g transform="translate(79.467 24.134)"><path d="M164.529,138.226v7a16.218,16.218,0,0,0,.118,1.943,16.613,16.613,0,0,0,8.517,12.574,16.429,16.429,0,0,0,15.824,0,16.675,16.675,0,0,0,5.825-5.323,16.4,16.4,0,0,0,2.7-7.251,16.221,16.221,0,0,0,.113-1.943v-6.892c-5.41-3.169-8.076-6.02-13.327-4.518C175.995,136.934,172.559,138.79,164.529,138.226Z" transform="translate(-164.529 -133.403)" fill="#f5c6af" fill-rule="evenodd"/></g><g transform="translate(71.806 26.495)"><path d="M122.181,151.2v1.913a4.76,4.76,0,0,0,4.743,4.748h3.036a16.218,16.218,0,0,1-.118-1.944v-9.461h-2.918A4.756,4.756,0,0,0,122.181,151.2Z" transform="translate(-122.181 -146.456)" fill="#cfd3df" fill-rule="evenodd"/></g><g transform="translate(112.449 26.495)"><path d="M346.958,149.024v6.892a16.18,16.18,0,0,1-.113,1.943h3.031a4.761,4.761,0,0,0,4.215-2.574,4.7,4.7,0,0,0,.528-2.174V151.2a4.756,4.756,0,0,0-4.743-4.743h-2.918v2.569Z" transform="translate(-346.845 -146.455)" fill="#cfd3df" fill-rule="evenodd"/></g><g transform="translate(88.102 50.473)"><path d="M212.262,279v7.564l7.912,5.338,7.912-5.338V279a16.43,16.43,0,0,1-15.824,0Z" transform="translate(-212.262 -279.001)" fill="#f2b394" fill-rule="evenodd"/></g><g transform="translate(89.461 76.401)"><path d="M223.061,422.318l-3.287,14.415h13.112l-3.292-14.415Z" transform="translate(-219.774 -422.318)" fill="#f7c46b" fill-rule="evenodd"/></g><g transform="translate(90.307 63.375)"><path d="M224.451,354.17l2.441,9.174h6.533l2.441-9.174-5.707-3.851Z" transform="translate(-224.451 -350.319)" fill="#f1c77f" fill-rule="evenodd"/></g><g transform="translate(81.19 58.037)"><path d="M174.053,322.872l5.061,9.861L183.17,330l5.707-3.851-7.912-5.338C178.909,321.488,176.525,322.134,174.053,322.872Z" transform="translate(-174.053 -320.811)" fill="#fff" fill-rule="evenodd"/></g><g transform="translate(96.015 58.037)"><path d="M263.911,320.811,256,326.149,261.706,330l4.061,2.733,5.056-9.861C268.352,322.134,265.967,321.488,263.911,320.811Z" transform="translate(-255.999 -320.811)" fill="#fff" fill-rule="evenodd"/></g><g transform="translate(99.281 60.099)"><path d="M285.613,332.206l-5.056,9.861-4.061-2.733-2.441,9.174,3.292,14.415h26.967V348.8C304.145,338.529,294.335,334.8,285.613,332.206Z" transform="translate(-274.055 -332.206)" fill="#d0f0ff" fill-rule="evenodd"/></g><g transform="translate(62.489 60.099)"><path d="M89.38,332.206c-8.722,2.595-18.532,6.323-18.7,16.594v14.122H97.651l3.287-14.415L98.5,339.334l-4.056,2.733Z" transform="translate(-70.679 -332.206)" fill="#d0f0ff" fill-rule="evenodd"/></g><g transform="translate(60.68 0)"><path d="M131.349,76.663c-.206-12.588-13.076-16.307-22.474-19.023-1.1-.317-2.151-.622-3.139-.926V51.522A18.505,18.505,0,0,0,110.7,46.96h5.725a5.087,5.087,0,0,0,5.081-5.081v-6.15a6.524,6.524,0,0,0,.528-2.578V31.238a6.515,6.515,0,0,0-.528-2.576V25.49a25.487,25.487,0,1,0-50.974,0v3.082c0,.024,0,.048,0,.072A6.514,6.514,0,0,0,70,31.239v1.913a6.562,6.562,0,0,0,6.552,6.558h1.5a18.411,18.411,0,0,0,8.249,11.812v5.194c-.988.3-2.043.609-3.139.926-9.4,2.716-22.268,6.435-22.474,19.023,0,.01,0,.02,0,.03V90.815a1.809,1.809,0,0,0,1.809,1.809h5.364a1.809,1.809,0,1,0,0-3.618H64.3v-12.3c.076-4.392,2.094-7.684,6.349-10.361a41.46,41.46,0,0,1,9.624-4.077l4.371,8.516a1.827,1.827,0,0,0,2.621.674l1.949-1.315,1.673,6.289L88.018,89.006H84.1a1.809,1.809,0,0,0,0,3.618H129.54a1.809,1.809,0,0,0,1.809-1.809V76.693c0-.01,0-.02,0-.029ZM107.871,61.116l.361.1-3.127,6.1-5.853-3.947,4.959-3.345c1.152.363,2.377.717,3.66,1.088ZM96.016,65.556,99.644,68l-1.753,6.59H94.139L92.386,68Zm0-4.364-6.1-4.116V53.267a18.332,18.332,0,0,0,12.206,0v3.807Zm14.737-35.371-.074-.047c-3.712-2.363-6.918-4.4-11.942-2.967-.047.013-.093.029-.138.046-1.065.4-2.033.773-2.97,1.133-5.721,2.2-8.844,3.4-14.353,3.25V25.787a14.738,14.738,0,1,1,29.477,0v.033Zm7.133,16.058a1.464,1.464,0,0,1-1.462,1.462h-3.605a18.2,18.2,0,0,0,1.167-3.633h1.5a6.508,6.508,0,0,0,2.406-.46v2.63Zm.528-8.728a2.94,2.94,0,0,1-2.934,2.939h-1.11c0-.045,0-7.786,0-7.786h1.109a2.938,2.938,0,0,1,2.934,2.934v1.913Zm-41.865,2.94a2.94,2.94,0,0,1-2.934-2.939V31.239A2.937,2.937,0,0,1,76.549,28.3h1.109s0,7.742,0,7.786Zm1.143-11.4H76.549a6.514,6.514,0,0,0-2.4.456,21.867,21.867,0,0,1,43.729,0,6.514,6.514,0,0,0-2.4-.458h-1.143a18.356,18.356,0,0,0-36.645,0Zm3.693,13.03v-.005a14.821,14.821,0,0,1-.108-1.754v-5.1c6.189.151,9.882-1.27,15.652-3.491.909-.35,1.848-.712,2.872-1.1,3.417-.954,5.384.3,8.936,2.559.616.392,1.292.822,2.017,1.264v5.866a14.644,14.644,0,0,1-1.992,7.385H96.015a1.809,1.809,0,0,0,0,3.618h9.791a14.724,14.724,0,0,1-24.421-9.244Zm5.545,29.6L83.8,61.22l.36-.1c1.283-.371,2.508-.725,3.661-1.088l4.961,3.345Zm4.8,21.686,2.462-10.8h3.647l2.466,10.8Zm36,0H104.016l-2.871-12.573,1.674-6.291,1.954,1.317a1.827,1.827,0,0,0,2.621-.674l4.366-8.515a41.462,41.462,0,0,1,9.624,4.077c4.255,2.676,6.273,5.969,6.349,10.361v12.3Z" transform="translate(-60.68 0)"/><path d="M342.357,441.995H333.24a1.809,1.809,0,1,0,0,3.618h9.117a1.809,1.809,0,1,0,0-3.618Z" transform="translate(-282.45 -362.035)"/><path d="M137.036,492a1.809,1.809,0,1,0,0,3.618h.005a1.809,1.809,0,0,0-.005-3.618Z" transform="translate(-121.741 -402.992)"/></g></g></g></svg>