<svg xmlns="http://www.w3.org/2000/svg" xmlns:xlink="http://www.w3.org/1999/xlink" width="137" height="137" viewBox="0 0 137 137"><defs><filter id="a" x="0" y="0" width="137" height="137" filterUnits="userSpaceOnUse"><feOffset dy="3" input="SourceAlpha"/><feGaussianBlur stdDeviation="3" result="b"/><feFlood flood-opacity="0.161"/><feComposite operator="in" in2="b"/><feComposite in="SourceGraphic"/></filter></defs><g transform="translate(-382.051 -856)"><g transform="matrix(1, 0, 0, 1, 382.05, 856)" filter="url(#a)"><circle cx="59.5" cy="59.5" r="59.5" transform="translate(9 6)" fill="#e8e8e8"/></g><g transform="translate(394.468 856.56)"><g transform="translate(33.779 38.055)"><path d="M177.157,136.7l15.393-15.253,2.094-2.076a14.169,14.169,0,0,0,0-19.484c-4.7-4.868-12.289-3.649-17.31.876-.924.833-1.249,1.249-1.5,1.249s-.576-.416-1.506-1.249c-5.015-4.525-12.607-5.744-17.3-.876a14.169,14.169,0,0,0,0,19.484l2.094,2.076L174.506,136.7c.667.527,1,.814,1.329.827C176.165,137.518,176.5,137.23,177.157,136.7Z" transform="translate(-153.144 -96.763)" fill="#ff8086" fill-rule="evenodd"/></g><g transform="translate(6.329 49.095)"><path d="M36.475,174.651,28.7,162.79c-.006-.043,3.668-10.36,3.656-10.4l-.288-1.567a3.353,3.353,0,1,1,6.588-1.249l1.555,8.444,2.823,15.3A4.291,4.291,0,0,1,36.475,174.651Z" transform="translate(-28.699 -146.809)" fill="#f1d0a5" fill-rule="evenodd"/></g><g transform="translate(26.486 69.208)"><path d="M122.24,251.108l-2.161-6.086.416-3.38a3.134,3.134,0,0,1,6.178-1.059l3.153,16.912-4.568-1.751Z" transform="translate(-120.078 -237.991)" fill="#f1d0a5" fill-rule="evenodd"/></g><g transform="translate(17.295 57.024)"><path d="M81.782,201.335l-3.368-7.691.545-7.605a3.354,3.354,0,0,1,6.656-.508l2.406,13.061c.006.037.012.067.018.1l1.727,9.362-4.555-.619Z" transform="translate(-78.414 -182.758)" fill="#f1d0a5" fill-rule="evenodd"/></g><g transform="translate(26.86 69.208)"><path d="M123.561,251.108l-1.727-9.362-.018-.1a3.146,3.146,0,0,1,2.474-3.588,3.094,3.094,0,0,1,2.149.343,3.151,3.151,0,0,0-1.708,3.331l.018.1,1.831,11.824Z" transform="translate(-121.774 -237.991)" fill="#e5c093" fill-rule="evenodd"/></g><g transform="translate(17.84 57.024)"><path d="M83.707,201.335l-2.823-15.3a3.365,3.365,0,0,1,2.694-3.215,3.328,3.328,0,0,1,3.527,1.58,3.531,3.531,0,0,0-.71.067c-1.561.312-1.923.949-1.953,2.48L87.7,204.7Z" transform="translate(-80.884 -182.757)" fill="#e5c093" fill-rule="evenodd"/></g><g transform="translate(9.63 49.094)"><path d="M48.138,174.65c-1.372-7.415-2.688-14.861-4.121-22.258l-.288-1.567a3.358,3.358,0,0,1,2.627-3.95,3.311,3.311,0,0,1,2.859.772,2.961,2.961,0,0,0-2.045,3.747c1.292,7,2.48,14.089,3.778,21.094-.092.031-.184.055-.276.086a4.6,4.6,0,0,0-1.892,1.2A4.291,4.291,0,0,0,48.138,174.65Z" transform="translate(-43.663 -146.809)" fill="#e5c093" fill-rule="evenodd"/></g><g transform="translate(49.294 38.054)"><path d="M249.465,119.37a14.169,14.169,0,0,0,0-19.484,10.431,10.431,0,0,0-9.1-3.025,14.194,14.194,0,0,1-1.016,18.308l-2.094,2.082L223.479,130.9l5.847,5.8c.667.527,1,.814,1.329.827.331-.012.661-.3,1.323-.827l15.393-15.253Z" transform="translate(-223.479 -96.757)" fill="#e5646e" fill-rule="evenodd"/></g><g transform="translate(1.666 50.588)"><path d="M25.214,205.424l-6.49-5.939a22.7,22.7,0,0,1-5.6-9.454c-1.072-4.409-2.357-11.7-2.774-14.42L7.592,157.675c-.343-2.259,1.929-4.127,4.213-4.1,2.241.031,3.643,1.892,4.072,4.09l.024.122L20,179.927c1.243-2.253,4.519-3.172,6.558-1.335L42.126,191.7c3.839,3.233,6.5,3.343,8.364,13.483l-.239.147-4.807,9.895-11.9.1a38.677,38.677,0,0,0-8.333-9.9Z" transform="translate(-7.558 -153.578)" fill="#ffe4c1" fill-rule="evenodd"/></g><g transform="translate(13.677 74.622)"><path d="M89.115,292.393c-1.849-9.032-4.451-9.252-8.143-12.357L65.4,266.927a3.93,3.93,0,0,0-3.386-.906h-.006c.012-.037.018-.08.031-.116a4.355,4.355,0,0,1,.7-1.525,4.659,4.659,0,0,1,2.235-1.6,4.013,4.013,0,0,1,4.023.741l2.976,2.51,5.009,4.213L80,272.787l4.568,3.839c3.839,3.233,6.5,3.343,8.364,13.483Z" transform="translate(-62.009 -262.538)" fill="#f1d0a5" fill-rule="evenodd"/></g><g transform="translate(26.095 101.214)"><path d="M120.775,393.666l15.8-9.448,1.323-.8a2.356,2.356,0,0,1,3.221.808l3.778,6.313a2.354,2.354,0,0,1-.808,3.215L125.631,404.8a2.35,2.35,0,0,1-3.215-.808l-3.778-6.313a2.356,2.356,0,0,1,.808-3.215Z" transform="translate(-118.309 -383.091)" fill="#eceaed" fill-rule="evenodd"/></g><g transform="translate(40.783 101.215)"><path d="M184.894,386.356h.006Zm11.089,7.4a2.354,2.354,0,0,0,.808-3.215l-3.778-6.313a2.356,2.356,0,0,0-3.221-.808q-2.443,1.469-4.892,2.933a2.35,2.35,0,0,1,3.215.808l3.772,6.313a2.35,2.35,0,0,1-.8,3.209Z" transform="translate(-184.894 -383.093)" fill="#dad8db" fill-rule="evenodd"/></g><g transform="translate(92.277 49.095)"><path d="M424.9,174.651l7.77-11.861c.012-.043-3.661-10.36-3.649-10.4l.288-1.567a3.353,3.353,0,1,0-6.588-1.249l-1.555,8.444-2.823,15.3A4.29,4.29,0,0,0,424.9,174.651Z" transform="translate(-418.34 -146.809)" fill="#f1d0a5" fill-rule="evenodd"/></g><g transform="translate(76.707 69.208)"><path d="M355.338,251.108l2.155-6.086-.41-3.38a3.137,3.137,0,0,0-6.184-1.059l-3.147,16.912,4.562-1.751Z" transform="translate(-347.752 -237.991)" fill="#f1d0a5" fill-rule="evenodd"/></g><g transform="translate(84.293 57.024)"><path d="M390.128,201.335l3.361-7.691-.539-7.605a3.354,3.354,0,0,0-6.656-.508l-2.406,13.061c-.006.037-.012.067-.018.1l-1.727,9.362,4.556-.619Z" transform="translate(-382.143 -182.758)" fill="#f1d0a5" fill-rule="evenodd"/></g><g transform="translate(81.269 69.208)"><path d="M371.457,251.108l1.727-9.362.018-.1a3.146,3.146,0,0,0-2.474-3.588,3.088,3.088,0,0,0-2.149.343,3.151,3.151,0,0,1,1.708,3.331l-.018.1-1.837,11.824Z" transform="translate(-368.433 -237.991)" fill="#e5c093" fill-rule="evenodd"/></g><g transform="translate(88.285 57.024)"><path d="M404.235,201.335l2.823-15.3a3.347,3.347,0,0,0-6.227-1.635,3.49,3.49,0,0,1,.71.067c1.567.312,1.923.949,1.959,2.48L400.243,204.7Z" transform="translate(-400.243 -182.757)" fill="#e5c093" fill-rule="evenodd"/></g><g transform="translate(96.025 49.094)"><path d="M438.139,174.65c1.372-7.415,2.688-14.861,4.121-22.258l.288-1.567a3.367,3.367,0,0,0-2.627-3.95,3.305,3.305,0,0,0-2.859.772,2.961,2.961,0,0,1,2.045,3.747c-1.3,7-2.48,14.089-3.778,21.094.092.031.184.055.276.086a4.6,4.6,0,0,1,1.892,1.2A4.3,4.3,0,0,1,438.139,174.65Z" transform="translate(-435.329 -146.809)" fill="#e5c093" fill-rule="evenodd"/></g><g transform="translate(68.343 50.588)"><path d="M335.11,205.425l6.49-5.939a22.763,22.763,0,0,0,5.6-9.454c1.072-4.409,2.357-11.7,2.774-14.42l2.755-17.935c.349-2.259-1.929-4.127-4.213-4.1-2.241.031-3.643,1.892-4.066,4.09l-.024.122-4.1,22.135c-1.243-2.253-4.519-3.172-6.558-1.335L318.2,191.7c-3.839,3.233-6.5,3.343-8.364,13.483l.239.147,4.807,9.895,11.891.1a38.818,38.818,0,0,1,8.34-9.9Z" transform="translate(-309.834 -153.579)" fill="#ffe4c1" fill-rule="evenodd"/></g><g transform="translate(59.931 101.214)"><path d="M296.148,393.666l-15.8-9.448-1.329-.8a2.35,2.35,0,0,0-3.215.808l-3.778,6.313a2.354,2.354,0,0,0,.808,3.215l18.449,11.04a2.356,2.356,0,0,0,3.221-.808l3.772-6.313a2.345,2.345,0,0,0-.808-3.215Z" transform="translate(-271.7 -383.091)" fill="#eceaed" fill-rule="evenodd"/></g><g transform="translate(81.066 50.588)"><path d="M371.728,215.325a38.818,38.818,0,0,1,8.34-9.9l6.49-5.939a22.763,22.763,0,0,0,5.6-9.454c1.072-4.409,2.357-11.7,2.774-14.42l.545-3.533,2.21-14.4a3.56,3.56,0,0,0-2.21-3.643,4.439,4.439,0,0,0-2-.453l-1.672,10.9-1.084,7.036c-.006.055-.018.11-.025.165-.441,2.835-1.7,9.932-2.749,14.255a22.764,22.764,0,0,1-5.6,9.454l-6.49,5.946c-4.1,3.747-5.652,7.14-8.34,11.469l3.313,1.978Z" transform="translate(-367.515 -153.578)" fill="#f1d0a5" fill-rule="evenodd"/></g><g transform="translate(74.894 109.812)"><path d="M347.378,434.367l3.772-6.313a2.345,2.345,0,0,0-.808-3.215l-4.635-2.774a2.34,2.34,0,0,1,1.09,2.492,2.14,2.14,0,0,1-.282.723l-3.772,6.313a2.36,2.36,0,0,1-3.208.814l4.623,2.768c.006.006.012.006.018.012A2.361,2.361,0,0,0,347.378,434.367Z" transform="translate(-339.535 -422.066)" fill="#dad8db" fill-rule="evenodd"/></g><g transform="translate(-0.002 21.44)"><path d="M369.873,47.547a1.667,1.667,0,0,0,2.333-.343l3.68-4.947a1.667,1.667,0,1,0-2.675-1.99l-3.68,4.947A1.667,1.667,0,0,0,369.873,47.547Z" transform="translate(-287.761 -35.591)"/><path d="M396.312,103.471a1.665,1.665,0,0,0,2.015,1.224l5.9-1.439a1.667,1.667,0,1,0-.791-3.239l-5.9,1.439A1.667,1.667,0,0,0,396.312,103.471Z" transform="translate(-308.854 -82.647)"/><path d="M317.676,29.259a1.667,1.667,0,0,0,1.663,1.578l.091,0A1.667,1.667,0,0,0,321,29.08l-.324-6.062a1.667,1.667,0,1,0-3.329.178Z" transform="translate(-247.347 -21.44)"/><path d="M115.032,47.2a1.667,1.667,0,0,0,2.675-1.99l-3.68-4.947a1.667,1.667,0,0,0-2.675,1.99Z" transform="translate(-86.532 -35.591)"/><path d="M75.18,103.257l5.9,1.439a1.667,1.667,0,0,0,.79-3.239l-5.9-1.439a1.667,1.667,0,0,0-.79,3.239Z" transform="translate(-57.605 -82.648)"/><path d="M179.664,30.835l.09,0a1.667,1.667,0,0,0,1.663-1.578l.324-6.062a1.667,1.667,0,0,0-3.329-.178l-.324,6.062A1.667,1.667,0,0,0,179.664,30.835Z" transform="translate(-138.803 -21.442)"/><path d="M50.334,193.319a4.016,4.016,0,0,0-4.544-1.8c-1.531-6.749-3.587-8.581-6.656-10.85-.446-.33-.9-.668-1.373-1.044L34.715,163.3a4.865,4.865,0,0,0-2.081-3.132,4.783,4.783,0,0,0-4.912-.232l-1.588-8.616-.005-.026a5.106,5.106,0,0,0-2.185-3.279,4.96,4.96,0,0,0-5.2-.186l-.82-4.445-.005-.027a5.1,5.1,0,0,0-2.184-3.272A5,5,0,0,0,8.8,141.491c-.019.029-.034.059-.052.088a5.308,5.308,0,0,0-2.818-.837,6.163,6.163,0,0,0-4.683,2.082,4.822,4.822,0,0,0-1.2,3.935l2.761,17.933c.422,2.761,1.718,10.1,2.8,14.562a24.117,24.117,0,0,0,6.091,10.29l6.49,5.939a36.571,36.571,0,0,1,7.238,8.276,4.014,4.014,0,0,0-.44,4.718l3.777,6.311a3.976,3.976,0,0,0,2.465,1.83,4.05,4.05,0,0,0,.988.123,3.977,3.977,0,0,0,2.044-.566l6.209-3.686a1.667,1.667,0,0,0-1.7-2.867l-6.212,3.688a.68.68,0,0,1-.515.074.671.671,0,0,1-.415-.307l-3.779-6.315a.685.685,0,0,1,.235-.926L46.535,194.8a.685.685,0,0,1,.519-.074.674.674,0,0,1,.417.307l3.777,6.311a.7.7,0,0,1-.252.942l-5.835,3.6a1.667,1.667,0,0,0,1.751,2.837l5.833-3.6a4.043,4.043,0,0,0,1.366-5.491Zm-20.626-30.6a1.423,1.423,0,0,1,1.079.215,1.543,1.543,0,0,1,.655.986l2.3,12.328-3.562-3-1.629-8.838A1.489,1.489,0,0,1,29.707,162.723Zm-8.841-12.179a1.631,1.631,0,0,1,1.235.243,1.794,1.794,0,0,1,.758,1.147l2.409,13.074c.006.033.011.066.017.1,0,.006,0,.011,0,.016l.875,4.75-3.972-3.344-2.677-14.516A1.7,1.7,0,0,1,20.866,150.544Zm-9.285-7.208a1.672,1.672,0,0,1,1.074-.722,1.634,1.634,0,0,1,1.236.244A1.788,1.788,0,0,1,14.648,144l3.834,20.79a6.068,6.068,0,0,0-2.348.3,6.4,6.4,0,0,0-.938.4l-3.861-20.865-.006-.029A1.667,1.667,0,0,1,11.581,143.336Zm16.613,58.55a39.715,39.715,0,0,0-7.747-8.864l-6.49-5.939a21.247,21.247,0,0,1-5.1-8.618c-1.06-4.362-2.331-11.566-2.746-14.28L3.348,146.254a1.5,1.5,0,0,1,.417-1.241,2.867,2.867,0,0,1,2.125-.939c1.884.025,2.394,2.367,2.477,2.837l0,.01,4,21.616a5.6,5.6,0,0,0-.318,1.044c-.29,1.462-.229,4.388,3.444,7.563l9.442,8.162a1.667,1.667,0,0,0,2.18-2.522l-9.442-8.162c-1.775-1.535-2.612-3.095-2.354-4.391a2.732,2.732,0,0,1,1.864-1.975,2.379,2.379,0,0,1,2.361.4l15.625,13.156.006,0c.706.593,1.38,1.092,1.975,1.532,2.508,1.854,4.208,3.116,5.585,9.832Z" transform="translate(0.002 -113.26)"/><path d="M317.592,142.831a6.174,6.174,0,0,0-4.613-2.09H312.9a5.3,5.3,0,0,0-2.81.835,5,5,0,0,0-6.984-1.5,5.1,5.1,0,0,0-2.184,3.273l-.005.027-.819,4.444a4.965,4.965,0,0,0-5.2.187,5.107,5.107,0,0,0-2.185,3.279c0,.009,0,.017,0,.026l-1.588,8.615a4.793,4.793,0,0,0-4.908.23,4.881,4.881,0,0,0-2.09,3.13c0,.008,0,.016,0,.024l-3.036,16.314c-.47.376-.928.714-1.373,1.044-3.069,2.269-5.125,4.1-6.656,10.851a4.013,4.013,0,0,0-4.542,1.795l-3.779,6.315a4.041,4.041,0,0,0,1.364,5.488l5.835,3.6a1.667,1.667,0,0,0,1.751-2.837l-5.838-3.6a.7.7,0,0,1-.25-.939l3.779-6.315a.683.683,0,0,1,.927-.232l18.45,11.041a.677.677,0,0,1,.308.42.662.662,0,0,1-.077.508l-3.773,6.314a.684.684,0,0,1-.938.229l-6.209-3.686a1.667,1.667,0,0,0-1.7,2.867l6.209,3.686a4.024,4.024,0,0,0,5.5-1.387l3.767-6.3a4.014,4.014,0,0,0-.434-4.725,36.716,36.716,0,0,1,7.242-8.276l6.49-5.939a24.194,24.194,0,0,0,6.091-10.29c1.085-4.462,2.38-11.8,2.8-14.561l2.755-17.933a4.81,4.81,0,0,0-1.191-3.929ZM302.625,152.5c.009-.042.017-.084.023-.126L304.192,144a1.788,1.788,0,0,1,.757-1.141,1.633,1.633,0,0,1,1.242-.242,1.71,1.71,0,0,1,1.319,1.988l0,.023-3.861,20.864a6.432,6.432,0,0,0-.938-.4,6.069,6.069,0,0,0-2.348-.3Zm-9.074,12.626c0-.006,0-.011,0-.017s0-.021,0-.032l2.422-13.142a1.8,1.8,0,0,1,.758-1.147,1.637,1.637,0,0,1,1.241-.242,1.7,1.7,0,0,1,1.343,1.47l-2.677,14.516-3.972,3.344Zm-6.16-1.187a1.569,1.569,0,0,1,.664-1,1.43,1.43,0,0,1,1.085-.213,1.445,1.445,0,0,1,.925.626,1.468,1.468,0,0,1,.227,1.066l-1.628,8.837-3.564,3Zm28.1-17.686-2.756,17.936c-.414,2.711-1.685,9.914-2.745,14.275a21.323,21.323,0,0,1-5.1,8.621l-6.491,5.94a39.849,39.849,0,0,0-7.751,8.864l-14.539-8.7c1.378-6.719,3.078-7.98,5.586-9.835.595-.44,17.563-14.656,17.563-14.656l.042-.037a2.381,2.381,0,0,1,2.362-.4,2.732,2.732,0,0,1,1.864,1.975c.258,1.3-.578,2.856-2.354,4.391l-9.442,8.162a1.667,1.667,0,1,0,2.18,2.522l9.442-8.162c3.673-3.175,3.734-6.1,3.444-7.563a5.6,5.6,0,0,0-.318-1.044l4-21.617s0-.006,0-.009c.083-.469.593-2.811,2.471-2.837a2.868,2.868,0,0,1,2.131.942,1.494,1.494,0,0,1,.411,1.234Z" transform="translate(-205.898 -113.261)"/><path d="M189.912,114.668l.026-.026a15.823,15.823,0,0,0,0-21.8,12.036,12.036,0,0,0-9.872-3.588,16.871,16.871,0,0,0-9.753,4.383c-.142.128-.27.246-.386.355q-.175-.163-.388-.354a16.848,16.848,0,0,0-9.748-4.384,12.031,12.031,0,0,0-9.871,3.588,15.823,15.823,0,0,0,0,21.8l.025.026,2.97,2.945a1.667,1.667,0,0,0,2.348-2.367l-2.956-2.932a12.461,12.461,0,0,1,.012-17.156c4.21-4.364,10.864-2.765,14.992.96.277.248.5.458.678.628a2.324,2.324,0,0,0,3.888-.01c.178-.169.4-.377.668-.622,4.128-3.72,10.785-5.319,14.995-.956a12.462,12.462,0,0,1,.012,17.155l-17.41,17.252s-.174.169-.215.2c-.038-.03-.219-.2-.219-.2l-9-8.917a1.667,1.667,0,1,0-2.347,2.368L167.426,132a7.1,7.1,0,0,0,1.043.81,2.378,2.378,0,0,0,2.9.012,7.06,7.06,0,0,0,1.056-.823Z" transform="translate(-113.456 -74.258)"/></g></g></g></svg>