<svg xmlns="http://www.w3.org/2000/svg" xmlns:xlink="http://www.w3.org/1999/xlink" width="137" height="137" viewBox="0 0 137 137"><defs><filter id="a" x="0" y="0" width="137" height="137" filterUnits="userSpaceOnUse"><feOffset dy="3" input="SourceAlpha"/><feGaussianBlur stdDeviation="3" result="b"/><feFlood flood-opacity="0.161"/><feComposite operator="in" in2="b"/><feComposite in="SourceGraphic"/></filter></defs><g transform="translate(-731.051 -856)"><g transform="matrix(1, 0, 0, 1, 731.05, 856)" filter="url(#a)"><circle cx="59.5" cy="59.5" r="59.5" transform="translate(9 6)" fill="#1b3f5e"/></g><g transform="translate(732.962 862)"><path d="M30.9,187.449v29.319H55.044a3.449,3.449,0,1,1,0,6.9H27.449A3.449,3.449,0,0,1,24,220.218V187.449a3.449,3.449,0,0,1,6.9,0Z" transform="translate(-6.296 -131.782)" fill="#8fd0d9"/><path d="M361.87,187.449v29.319H339.449a3.449,3.449,0,1,0,0,6.9h25.87a3.449,3.449,0,0,0,3.449-3.449V187.449a3.449,3.449,0,0,0-6.9,0Z" transform="translate(-251.034 -131.782)" fill="#8fd0d9"/><path d="M56,288H85.382a8.177,8.177,0,0,1,8.127,9.08l-3.015,27.138h-6.9v-25.87H62.9a6.9,6.9,0,0,1-6.9-6.9Z" transform="translate(-31.397 -213.361)" fill="#fec9a3"/><path d="M194.892,462.9H184V456h6.9l4.7,1.174a2.905,2.905,0,0,1-.7,5.724Z" transform="translate(-131.802 -345.143)" fill="#92563a"/><path d="M56,288H80.145v10.348H62.9a6.9,6.9,0,0,1-6.9-6.9Z" transform="translate(-31.397 -213.361)" fill="#92563a"/><circle cx="5.174" cy="5.174" r="5.174" transform="translate(30.075 19.449)" fill="#fcac1f"/><path d="M399.522,187.595H384v-15.1A17.665,17.665,0,0,1,389.174,160h10.348Z" transform="translate(-288.686 -112.956)" fill="#ffb531"/><path d="M371.449,56,368,66.348h3.449v6.9h5.174v5.174h10.348V56Z" transform="translate(-276.135 -31.377)" fill="#fec9a3"/><path d="M368,24h12.073a6.9,6.9,0,0,1,6.9,6.9v6.9L381.8,30.9H371.449A3.449,3.449,0,0,1,368,27.449Z" transform="translate(-276.135 -6.275)" fill="#92563a"/><g transform="translate(17.704 91.886)"><path d="M0,0H6.9V17.247H0Z" transform="translate(17.247 17.247) rotate(180)" fill="#cfcfcd"/><path d="M27.448,449.725l6.9-1.725h6.9l6.9,1.725A3.449,3.449,0,1,1,45.16,454.9H30.432a3.448,3.448,0,1,1-2.984-5.174Z" transform="translate(-23.998 -430.753)" fill="#cfcfcd"/><path d="M408,368h6.9v17.247H408Z" transform="translate(-325.215 -368)" fill="#cfcfcd"/><path d="M384.133,449.725l-6.9-1.725h-6.9l-6.9,1.725a3.449,3.449,0,1,0,2.984,5.174h14.728a3.448,3.448,0,1,0,2.984-5.174Z" transform="translate(-287.551 -430.753)" fill="#cfcfcd"/></g><path d="M320.578,288H290.957a7.6,7.6,0,0,0-7.416,9.245l5.993,26.973h8.623l-5.174-25.87h20.7a6.9,6.9,0,0,0,6.9-6.9Z" transform="translate(-209.742 -213.361)" fill="#92563a"/><path d="M283.449,456h12.073v6.9H283.449a3.449,3.449,0,0,1,0-6.9Z" transform="translate(-207.106 -345.143)" fill="#34507b"/><path d="M315.595,208v10.348l-20.7,1.725-6.9,3.449V228.7h3.449l5.174-1.725h22.421a5.174,5.174,0,0,0,5.174-5.174V208Z" transform="translate(-213.382 -150.608)" fill="#fec9a3"/><path d="M424.623,170.348H416v-6.036a4.312,4.312,0,1,1,8.623,0Z" transform="translate(-313.787 -112.956)" fill="#ffb531"/><path d="M73.247,203.74H56V181.319L69.8,152H80.145l3.632,7.263a6.9,6.9,0,0,1-6.17,9.984H76.7l-3.449,5.174Z" transform="translate(-31.397 -106.681)" fill="#e0e0de"/><path d="M80,296h6.9v3.449H80Z" transform="translate(-50.223 -219.637)" fill="#bfbfbd"/><path d="M130.348,57.868l2.022-5.174h6.224V46.711l2.1-2.1-2.1-4.2V39.355A7.354,7.354,0,0,0,131.333,32a7.5,7.5,0,0,0-7.451,7.522l-1.859,13.174L120,57.868Z" transform="translate(-81.6 -12.549)" fill="#fec9a3"/><path d="M121.215,45.444l-1.593-1.593a2.581,2.581,0,0,1,3-4.122l.561.288,5.613-7.483A7.323,7.323,0,0,0,126.046,32H122.7q-.2,0-.393.008a9.437,9.437,0,0,0-8.853,10.657l.048.287a31.078,31.078,0,0,0,3.327,9.744Z" transform="translate(-76.408 -12.551)" fill="#ffb531"/><path d="M326.9,170.348l-6.9-1.725v-6.9L326.9,160Z" transform="translate(-238.483 -112.956)" fill="#348fd9"/><path d="M183.569,184.145A15.587,15.587,0,0,1,168,168.576V160h3.449v8.576a12.12,12.12,0,0,0,23.728,3.483l2.214-7.381a1.725,1.725,0,0,1,1.652-1.229h1.725V166.9h-.442l-1.845,6.151a15.569,15.569,0,0,1-14.913,11.1Z" transform="translate(-119.252 -112.956)" fill="#348fd9"/><path d="M150.9,98.971a6.906,6.906,0,0,1-6.9-6.9V80h3.449V92.073a3.449,3.449,0,1,0,6.9,0V90.348H157.8v1.725A6.906,6.906,0,0,1,150.9,98.971Z" transform="translate(-100.426 -50.203)" fill="#348fd9"/><path d="M128.3,153.4l14.124,14.124,13.8-12.073h6.9v6.9h-5.174l-10.348,12.073a9.327,9.327,0,0,1-10.348,0l-15.667-14.1A4.774,4.774,0,0,1,124.773,152h.148a4.773,4.773,0,0,1,3.375,1.4Z" transform="translate(-81.6 -106.681)" fill="#fec9a3"/><path d="M128.3,153.4a4.773,4.773,0,0,0-3.375-1.4h-.149a4.773,4.773,0,0,0-3.193,8.32l5.319,4.787,6.9-6.209Z" transform="translate(-81.6 -106.681)" fill="#e0e0de"/><path d="M64.212,116.631l-3.235-.809L62.1,105.678l-3.428-.381L57.553,115.4h-3.63V91.259A1.725,1.725,0,0,0,52.2,89.534H50.473v-6.9h3.512a6.5,6.5,0,0,1,4.562,1.89,6.409,6.409,0,0,1,1.89,4.562,6.214,6.214,0,0,1-.039.713L59.065,101.8l3.428.381,1.332-11.989a9.547,9.547,0,0,0,.061-1.1,9.838,9.838,0,0,0-2.9-7,9.971,9.971,0,0,0-7-2.9H43.574V74.534l2.648-3.971a8.546,8.546,0,0,0,2.572-.4l5.7,5.13a1.727,1.727,0,0,0,.2.153,11.038,11.038,0,0,0,6.131,1.862c.34,0,.679-.017,1.017-.049a15.55,15.55,0,0,0,17.392-10.9l.81-2.7h1.264L88,65.337a1.8,1.8,0,0,0,1.48-.314,1.725,1.725,0,0,0,.663-1.359V53.316A1.725,1.725,0,0,0,88,51.643l-6.692,1.673H74.618a1.725,1.725,0,0,0-1.136.427L60.9,64.753l-7.287-7.287L52.279,54.8a6.91,6.91,0,0,0,5.092-6.657V48.1a1.725,1.725,0,0,0,1.347-1.682V41.149l1.6-1.6a1.725,1.725,0,0,0,.323-1.991l-1.92-3.84v-.645a9.029,9.029,0,0,0-2.661-6.421A9.3,9.3,0,0,0,49.638,24c-3.422,0-6.654-.1-9.588,1.951a6.9,6.9,0,1,0-6.887,11.526l1.042-3.288a3.449,3.449,0,1,1,3.36-5.844,11.236,11.236,0,0,0-2.23,8.259c.369,3.457,2.048,7.1,3.516,10.048L26.327,73.2V61.94a5.174,5.174,0,1,0-10.348,0v3.449h3.449V61.94a1.725,1.725,0,1,1,3.449,0V96.433H21.153a1.727,1.727,0,0,1-1.725-1.725V68.838H15.979v25.87a5.18,5.18,0,0,0,5.174,5.174h1.725v3.449a1.725,1.725,0,0,0,1.725,1.725h1.725v9L20.92,115.41A5.174,5.174,0,1,0,25,124.028H38a5.173,5.173,0,1,0,4.084-8.618l-5.407-1.352v-9H41.85a1.725,1.725,0,0,0,1.725-1.725V99.882h5.174a5.177,5.177,0,0,0,1.725-.294v24.439a1.725,1.725,0,0,0,1.725,1.725H63.089a4.63,4.63,0,0,0,1.123-9.122Zm-17.189-27.1H43.574v-6.9h3.449Zm-3.449-44.46v3.068a6.886,6.886,0,0,0,.218,1.725H41.137Zm-3.449,11.29a3.052,3.052,0,0,1,3.048-3.048h.149a3.028,3.028,0,0,1,2.156.893l4.215,4.216L45.3,62.379,41.134,58.63a3.052,3.052,0,0,1-1.009-2.266ZM69.094,73.047l6.97-8.132-.138.459A12.049,12.049,0,0,1,69.094,73.047Zm17.6-11.591-3.449-.862V56.387l3.449-.862ZM61.957,68.412l13.31-11.646h4.526v3.449H76.343a1.725,1.725,0,0,0-1.309.6L64.848,72.7a7.582,7.582,0,0,1-8.145-.058L47.877,64.7l4.258-3.832L59.6,68.333a1.725,1.725,0,0,0,2.355.078ZM50.671,51.581l-.038-.075,1.315-3.363h1.974a3.451,3.451,0,0,1-3.251,3.439ZM55.453,34.9,57,37.993l-1.223,1.223a1.725,1.725,0,0,0-.505,1.22v4.258h-4.5a1.725,1.725,0,0,0-1.606,1.1L47.57,49.867h-.08a3.424,3.424,0,0,1-.467-1.725V36.07H44.246a.859.859,0,0,1-.038-.535.844.844,0,0,1,.478-.569c.46-.207.905.1,1.3.307a1.725,1.725,0,0,0,2.167-.5l4.723-6.3a5.713,5.713,0,0,1,.738.62,5.6,5.6,0,0,1,1.649,3.981v1.052a1.723,1.723,0,0,0,.183.771Zm-16.7,1.239a8.809,8.809,0,0,1,1.809-6.024c2.256-2.663,5.563-2.669,8.777-2.669l-3.119,4.159a4.307,4.307,0,0,0-4.229,7.186l.685.685-1.824,3.375a29.184,29.184,0,0,1-2.1-6.712Zm3.093,82.715a1.725,1.725,0,1,1-1.492,2.585,1.725,1.725,0,0,0-1.492-.86H24.138a1.725,1.725,0,0,0-1.492.86,1.724,1.724,0,1,1-1.492-2.585c.141,0,7.111-1.725,7.111-1.725h6.474S41.709,118.854,41.85,118.854Zm-8.623-5.174H29.777v-8.623h3.449Zm6.9-12.073h-13.8V81.3L37.046,58.519a6.5,6.5,0,0,0,1.78,2.675l5.318,4.786L45.4,67.114h-.1a1.725,1.725,0,0,0-1.435.768l-3.449,5.174a1.726,1.726,0,0,0-.29.957Zm9.847-5.68a1.723,1.723,0,0,1-1.223.506H43.574V92.984h5.174a1.727,1.727,0,0,1,1.223,2.943ZM63.089,122.3H53.922v-3.449h4.962l4.492,1.123a1.181,1.181,0,0,1-.287,2.326Z" transform="translate(0 -6.272)"/><path d="M80,296h6.9v3.449H80Z" transform="translate(-50.223 -219.637)"/><path d="M320.291,78.088V55.667a5.172,5.172,0,0,0-6.9-4.877V24.623A8.633,8.633,0,0,0,304.769,16H292.7a1.725,1.725,0,0,0-1.725,1.725v3.449a5.181,5.181,0,0,0,2.949,4.67l-2.861,8.582A1.725,1.725,0,0,0,292.7,36.7h1.725V41.87a1.725,1.725,0,0,0,1.725,1.725h3.449v2.759a19.25,19.25,0,0,0-5.174,13.18v7.193L282.2,67.746a1.729,1.729,0,0,0-.628.176l-6.9,3.449a1.725,1.725,0,0,0-.953,1.543v5.174a1.725,1.725,0,0,0,1.725,1.725H278.9a1.731,1.731,0,0,0,.545-.088l4.909-1.636h22.14a6.854,6.854,0,0,0,3.449-.928v.928a5.18,5.18,0,0,1-5.174,5.174h-20.7a1.725,1.725,0,0,0-1.691,2.063l4.761,23.807h-5.136l-5.694-25.627a5.8,5.8,0,0,1-.139-1.272h-3.449a9.248,9.248,0,0,0,.222,2.023l5.527,24.876h-1.3a5.174,5.174,0,1,0,0,10.348h12.073a1.725,1.725,0,0,0,1.685-1.358,5.163,5.163,0,0,0,7.341-.367h12.993a5.173,5.173,0,1,0,4.084-8.618l-5.407-1.352V96.844h-3.449v10.564h-3.449V93.61h12.073a5.18,5.18,0,0,0,5.174-5.174V81.753h-3.449v6.683a1.727,1.727,0,0,1-1.725,1.725h-25.87a1.725,1.725,0,0,1,0-3.449h22.421a1.725,1.725,0,0,0,1.725-1.725V55.667a1.725,1.725,0,0,1,3.449,0V78.088Zm-32.769,37.943H277.174a1.725,1.725,0,1,1,0-3.449h10.348Zm20.484-5.174,6.693,1.673a1.719,1.719,0,0,0,.418.052,1.725,1.725,0,1,1-1.492,2.585,1.725,1.725,0,0,0-1.492-.86H297.4a1.725,1.725,0,0,0-1.492.86,1.724,1.724,0,1,1-1.492-2.585,1.72,1.72,0,0,0,.418-.052l6.693-1.673ZM289.247,93.61h10.348v14.176l-5.407,1.352a5.152,5.152,0,0,0-3.255,1.353L287.5,93.3a5.151,5.151,0,0,0,1.751.306Zm15.522-42.254a2.587,2.587,0,0,1,5.174,0v4.312h-5.174ZM294.421,19.449h10.348a5.18,5.18,0,0,1,5.174,5.174v1.725l-2.07-2.759a1.725,1.725,0,0,0-1.38-.69H296.145a1.727,1.727,0,0,1-1.725-1.725Zm3.449,20.7V34.971a1.725,1.725,0,0,0-1.725-1.725h-1.056l2.3-6.9h8.242l4.312,5.749V45.319h-6.9V41.87a1.725,1.725,0,0,0-1.725-1.725Zm0,19.39a15.819,15.819,0,0,1,3.883-10.421,6,6,0,0,0-.434,2.242v14.8l-3.449.287Zm8.623,15.1H284.073a1.73,1.73,0,0,0-.545.088l-4.909,1.636h-1.444V73.98l5.648-2.824,20.365-1.7a1.725,1.725,0,0,0,1.581-1.719V59.117h5.174V71.189a3.453,3.453,0,0,1-3.449,3.449Z" transform="translate(-200.831)"/></g></g></svg>