<svg xmlns="http://www.w3.org/2000/svg" xmlns:xlink="http://www.w3.org/1999/xlink" width="137" height="137" viewBox="0 0 137 137"><defs><filter id="a" x="0" y="0" width="137" height="137" filterUnits="userSpaceOnUse"><feOffset dy="3" input="SourceAlpha"/><feGaussianBlur stdDeviation="3" result="b"/><feFlood flood-opacity="0.161"/><feComposite operator="in" in2="b"/><feComposite in="SourceGraphic"/></filter></defs><g transform="translate(-1082.051 -856)"><g transform="matrix(1, 0, 0, 1, 1082.05, 856)" filter="url(#a)"><circle cx="59.5" cy="59.5" r="59.5" transform="translate(9 6)" fill="#e8e8e8"/></g><g transform="translate(-7.689 -4.182)"><g transform="translate(1173.712 882.182)"><g transform="translate(0.586 1.142)"><circle cx="17.705" cy="17.705" r="17.705" transform="translate(0.557)" fill="#ffb531"/><path d="M26.155,264.5A18.154,18.154,0,0,1,8.013,247c-.008.219-.013.438-.013.659a18.155,18.155,0,0,0,36.309,0c0-.221-.005-.44-.013-.659A18.154,18.154,0,0,1,26.155,264.5Z" transform="translate(-8 -230.061)" fill="#d5921b"/><circle cx="15.149" cy="15.149" r="15.149" transform="translate(3.006 2.449)" fill="#e4eef9"/><path d="M64.206,261.49A15.149,15.149,0,0,1,49.072,247c-.009.219-.015.438-.015.659a15.149,15.149,0,0,0,30.3,0c0-.221-.006-.44-.015-.659A15.149,15.149,0,0,1,64.206,261.49Z" transform="translate(-46.051 -230.061)" fill="#d5e0f2"/><path d="M267.849,179.388a1.1,1.1,0,0,0-1.553.011l-3.449,3.5a1.877,1.877,0,0,1,1.373,1.735l3.639-3.689A1.1,1.1,0,0,0,267.849,179.388Z" transform="translate(-244.192 -167.106)" fill="#405b6c"/><path d="M137.312,153.728a1.877,1.877,0,0,1,1.247-1.768l-6.769-6.032a1.1,1.1,0,0,0-1.461,1.64l6.984,6.224C137.313,153.771,137.312,153.75,137.312,153.728Z" transform="translate(-121.033 -136.13)" fill="#405b6c"/><circle cx="1.876" cy="1.876" r="1.876" transform="translate(16.278 15.722)" fill="#ff5876"/><path d="M216.381,222.331l1.025.914c0-.021,0-.042,0-.064a1.877,1.877,0,0,1,1.247-1.768l-.925-.824A3.028,3.028,0,0,0,216.381,222.331Z" transform="translate(-201.127 -205.583)" fill="#2d4456"/><path d="M263.72,219.224l-.872.884a1.877,1.877,0,0,1,1.373,1.735l.961-.974A3.032,3.032,0,0,0,263.72,219.224Z" transform="translate(-244.192 -204.318)" fill="#2d4456"/><path d="M232.243,248.218A1.877,1.877,0,0,1,230.485,247,1.876,1.876,0,1,0,234,247,1.877,1.877,0,0,1,232.243,248.218Z" transform="translate(-214.088 -230.061)" fill="#e6485d"/></g><g transform="translate(0)"><path d="M31.992,5.489A18.74,18.74,0,0,0,5.118,31.61a.55.55,0,0,0,.8-.756,17.629,17.629,0,1,1,1.561,1.464.55.55,0,1,0-.7.846A18.741,18.741,0,0,0,31.992,5.489Z" transform="translate(0)"/><path d="M67.626,46.146a.55.55,0,0,0-.027-.778,15.719,15.719,0,1,0,1.554,1.677.55.55,0,1,0-.859.687,14.47,14.47,0,0,1,3.2,9.133,14.629,14.629,0,1,1-4.647-10.694.55.55,0,0,0,.778-.027Z" transform="translate(-38.127 -38.127)"/><path d="M249.585,70.111v-1.7a.55.55,0,1,0-1.1,0v1.7a.55.55,0,0,0,1.1,0Z" transform="translate(-230.295 -62.89)"/><path d="M248.485,406.386v1.7a.55.55,0,1,0,1.1,0v-1.7a.55.55,0,1,0-1.1,0Z" transform="translate(-230.295 -376.127)"/><path d="M408.09,249.585a.55.55,0,1,0,0-1.1h-1.7a.55.55,0,1,0,0,1.1Z" transform="translate(-376.127 -230.295)"/><path d="M68.408,248.485a.55.55,0,1,0,0,1.1h1.7a.55.55,0,1,0,0-1.1Z" transform="translate(-62.891 -230.295)"/><path d="M139.439,153.566a.55.55,0,0,0,.708-.842l-5.979-5.022a2.411,2.411,0,0,0,.259-.945l3.491-3.539a1.65,1.65,0,1,0-2.35-2.318l-3.248,3.293a2.426,2.426,0,0,0-.806.028l-6.559-5.845a1.65,1.65,0,1,0-2.2,2.464l3.174,2.828a.55.55,0,1,0,.732-.821l-3.174-2.828a.55.55,0,1,1,.732-.821l6.219,5.542a2.443,2.443,0,0,0-.664.882l-1.471-1.311a.55.55,0,0,0-.732.821l2.019,1.8a2.428,2.428,0,0,0,3.865,1.614Zm-3.087-11.894a.55.55,0,0,1,.783.773l-2.983,3.024a2.448,2.448,0,0,0-.723-.834ZM132,147.931a1.33,1.33,0,1,1,1.33-1.33A1.332,1.332,0,0,1,132,147.931Z" transform="translate(-113.262 -127.86)"/></g></g><g transform="translate(1105.626 882.182)"><path d="M103.813,143.522l-9.136,5.873-15.009,9.65-5.174-5.174v20.7H45.174L40,159.044v-25.87L52.073,128H69.319l12.073,3.449v15.522l10.348-3.449,1.725-5.174,3.449,1.725,3.449-1.725Z" transform="translate(-34.826 -103.855)" fill="#d4e4f0"/><path d="M113.247,121.725l-8.623,13.8L96,121.725,99.449,120H109.8Z" transform="translate(-78.753 -97.579)" fill="#4384c3"/><path d="M99.449,120,96,121.725l4.729,7.566,3.895-5.842Z" transform="translate(-78.753 -97.579)" fill="#529ddf"/><path d="M141.174,120l3.449,1.725-4.729,7.566L136,123.449Z" transform="translate(-110.13 -97.579)" fill="#529ddf"/><path d="M292.073,181.174l-9.136,5.873L280,181.174,281.725,176l3.449,1.725L288.623,176Z" transform="translate(-223.086 -141.507)" fill="#fdc5ca"/><path d="M129.247,56.623l-1.725,1.725L125.8,61.8h-3.449v1.725l-1.893,1.261-3.281,2.188L112,63.522V48h13.8l1.725,5.174Z" transform="translate(-91.304 -41.101)" fill="#fdc5ca"/><path d="M124.073,30.9h-3.449l-5.174,8.623H112V24h18.971A6.9,6.9,0,0,1,124.073,30.9Z" transform="translate(-91.304 -22.275)" fill="#ba8b5d"/><path d="M56,456h86.234v6.9H56Z" transform="translate(-47.377 -361.143)" fill="#68737f"/><path d="M27.449,328a3.449,3.449,0,0,1,3.449,3.449v31.044H24V331.449A3.449,3.449,0,0,1,27.449,328Z" transform="translate(-22.275 -260.738)" fill="#ba8b5d"/><path d="M462.9,319.252H456V276.329a3.45,3.45,0,0,1,.326-1.464h0a3.449,3.449,0,0,1,6.573,1.464Z" transform="translate(-361.143 -217.496)" fill="#ba8b5d"/><path d="M56,244.841h63.813l21.333-42.666a3.935,3.935,0,0,1,7.083,3.43l-23.242,49.584H56Z" transform="translate(-47.377 -160.333)" fill="#d4e4f0"/><path d="M56,344H97.392v13.8H56Z" transform="translate(-47.377 -273.289)" fill="#529ddf"/><path d="M248,320h10.348v18.971H248Z" transform="translate(-197.985 -254.463)" fill="#d4e4f0"/><path d="M326.613,214.876l-18.54,37.08H296V232.985l5.174-6.9h6.9l3.449-1.725-1.725-3.449v-3.449l-1.725-3.449,6.9-1.725,3.219-3.219Z" transform="translate(-235.637 -167.447)" fill="#7ab355"/><path d="M370.54,214.876l-9.917,19.834-.091-.091-6.638-6.638L352,226.086l3.449-1.725-1.725-3.449v-3.449L352,214.013l6.9-1.725,3.219-3.219Z" transform="translate(-279.564 -167.447)" fill="#fdc5ca"/><path d="M278.361,310.428l-3.43,6.858-4.51,9.022H248a6.9,6.9,0,0,1,6.9-6.9h8.623l3.546-6.84,3.238-6.243a4.52,4.52,0,1,1,8.054,4.1Z" transform="translate(-197.985 -241.799)" fill="#fdc5ca"/><path d="M347.742,310.428l-3.43,6.858-7.862-4.717,3.238-6.243a4.52,4.52,0,1,1,8.054,4.1Z" transform="translate(-267.366 -241.799)" fill="#7ab355"/><path d="M393.316,191.949l-1.725-13.8-1.9-1.453a6.631,6.631,0,0,1-1.492-8.949l12.656,9.128Z" transform="translate(-307.083 -135.035)" fill="#ba8b5d"/><path d="M115.432,182.542a5.52,5.52,0,0,0-.617-.1l3.6-7.68a5.662,5.662,0,0,0-8.992-6.539l-11.3-8.15a1.725,1.725,0,0,0-2.444.442,8.38,8.38,0,0,0,.436,9.865l-1.661,1.661-6.435,1.609a1.725,1.725,0,0,0-1.124,2.444l1.543,3.085v3.042a1.724,1.724,0,0,0,.182.771l.953,1.907-1.543.771H81.538a1.724,1.724,0,0,0-1.38.69L75.5,192.573H66.016a1.725,1.725,0,0,0-1.725,1.725v3.449H26.052A5.174,5.174,0,0,0,16,199.472v31.044a1.725,1.725,0,0,0,1.725,1.725H117.756a1.725,1.725,0,0,0,1.725-1.725V187.592a5.081,5.081,0,0,0-4.049-5.05ZM22.9,228.791H19.45V199.472a1.725,1.725,0,0,1,3.449,0Zm86.234-3.449v3.449H26.348v-3.449Zm-12.809-3.449,12.809-27.326v27.326Zm16.966-51.74a2.211,2.211,0,0,1,2,3.149L92.514,221.893H26.348v-6.9H88.437a1.725,1.725,0,0,0,1.543-.953l21.333-42.666a2.2,2.2,0,0,1,1.977-1.222ZM81.538,208.1a1.725,1.725,0,0,0,1.531-.931l2.7-5.211,4.919,2.952-3.32,6.639H68.037a5.182,5.182,0,0,1,4.877-3.449Zm10.8-15.522a2.8,2.8,0,0,1,2.5,4.045h0l-2.6,5.193-4.876-2.925,2.491-4.8a2.786,2.786,0,0,1,2.481-1.508Zm5.5-28.451,9.735,7.022-4.332,8.665-1.018-8.145a1.724,1.724,0,0,0-.664-1.157l-1.9-1.453a4.919,4.919,0,0,1-1.818-4.931Zm-2.082,11.153a1.724,1.724,0,0,0,.8-.454l2.151-2.151.182.139,1.57,12.562-3.128,6.256a6.191,6.191,0,0,0-4.721-2.494l-1.261-1.261.945-.472h1.318a1.725,1.725,0,0,0,0-3.449h-.659l-1.066-2.132v-3.042A1.724,1.724,0,0,0,91.7,178l-.763-1.526ZM82.4,189.124h5.322l1.088,1.088a6.239,6.239,0,0,0-2.02,2.282l-6.3,12.152h-2.4v-9.773Zm-7.761,6.9v8.623H72.915a8.578,8.578,0,0,0-5.174,1.729V196.022ZM64.291,211.544H26.348V201.2H64.291Zm51.74,17.247h-3.449v-41.2a1.738,1.738,0,0,1,.163-.732h0a1.725,1.725,0,0,1,3.286.732Z" transform="translate(-16.001 -128.76)"/><path d="M72,232v5.174a1.726,1.726,0,0,0,.061.454l3.763,13.8,3.328-.908-3.7-13.575V232Z" transform="translate(-59.927 -185.434)"/><path d="M34.388,78.634l3.272-1.091L35.449,70.91V46.457l6.9-2.957v5.565A5.182,5.182,0,0,0,38.9,53.943v5.174h3.449V53.943a1.725,1.725,0,0,1,3.449,0v5.174h3.449V53.943A5.182,5.182,0,0,0,45.8,49.066V43.4l6.9,11.038v27.1h3.449v-27.1l6.9-11.038v7.559a3.449,3.449,0,1,0,3.449,0V42.925l6.9,1.971V59.117a1.725,1.725,0,0,0,2.27,1.636l8.929-2.976,1.575,3.151-12.538,8.06L69.943,65.3v-4.46H66.493v20.7h3.449V70.18l2.23,2.23a1.725,1.725,0,0,0,2.152.231L98.47,57.119a1.725,1.725,0,0,0,.5-2.407l-3.449-5.174a1.725,1.725,0,0,0-2.206-.586L90.639,50.29l-2.678-1.339a1.725,1.725,0,0,0-2.407,1L84.1,54.3l-7.26,2.42V43.6a1.725,1.725,0,0,0-1.251-1.658l-9.9-2.828a5.215,5.215,0,0,0-1.271-1.377,1.716,1.716,0,0,0,.167-.263l1.6-3.2,1.527-1.527a1.724,1.724,0,0,0,.323-1.991l-1.67-3.34-.74-2.22a8.626,8.626,0,0,0,4.317-7.466A1.725,1.725,0,0,0,68.218,16H49.247a1.725,1.725,0,0,0-1.725,1.725V36.7a5.178,5.178,0,0,0-4.6,2.8l-9.88,4.234A1.725,1.725,0,0,0,32,45.32V71.19a1.725,1.725,0,0,0,.089.545ZM88.2,52.926l1.671.835a1.725,1.725,0,0,0,1.543,0L93.5,52.717l1.632,2.448-6.045,3.886-1.758-3.516ZM54.421,44.98l1.842,2.763-1.842,2.947-1.842-2.947Zm2.392-2.631,2.906-1.938.858.429-2.308,3.693Zm-6.239,2.184L48.265,40.84l.858-.429,2.906,1.938Zm12.56-15.914a1.712,1.712,0,0,0,.094.226l1.169,2.338-.846.846a1.723,1.723,0,0,0-.323.448l-1.248,2.5H60.309l-1.22-1.22a1.725,1.725,0,1,0-2.439,2.439l1.22,1.22V37.5l-3.449,2.3-3.449-2.3V34.972H52.7a1.725,1.725,0,0,0,1.479-.837l4.672-7.786h2.473a8.66,8.66,0,0,0,1.035-.064ZM50.971,19.45H66.2A5.183,5.183,0,0,1,61.319,22.9H57.87a1.725,1.725,0,0,0-1.479.837L51.72,31.522h-.748Z" transform="translate(-28.551 -16)"/></g></g></g></svg>