<svg xmlns="http://www.w3.org/2000/svg" xmlns:xlink="http://www.w3.org/1999/xlink" width="137" height="137" viewBox="0 0 137 137"><defs><filter id="a" x="0" y="0" width="137" height="137" filterUnits="userSpaceOnUse"><feOffset dy="3" input="SourceAlpha"/><feGaussianBlur stdDeviation="3" result="b"/><feFlood flood-opacity="0.161"/><feComposite operator="in" in2="b"/><feComposite in="SourceGraphic"/></filter></defs><g transform="translate(-13781 10844)"><g transform="matrix(1, 0, 0, 1, 13781, -10844)" filter="url(#a)"><circle cx="59.5" cy="59.5" r="59.5" transform="translate(9 6)" fill="#e8e8e8"/></g><g transform="translate(13774 -10822)"><path d="M131.114,190.357h-3.9a5.25,5.25,0,0,1-5.247,5.081h-2.985a15.17,15.17,0,0,1-27.985,0H88.012a5.25,5.25,0,0,1-5.247-5.081h-3.9a12.127,12.127,0,0,0-12.127,12.127V231.6a12.062,12.062,0,0,0,2.379,7.209,10.882,10.882,0,0,1,4.153-.212V226.653a10.3,10.3,0,0,1,7.724-9.972,16.426,16.426,0,0,1,15.462-10.939h.814a2.836,2.836,0,0,1,2.3,1.182l5.42,7.568,5.42-7.568a2.836,2.836,0,0,1,2.3-1.182h.814a16.426,16.426,0,0,1,15.462,10.939,10.3,10.3,0,0,1,7.724,9.972V238.6a10.883,10.883,0,0,1,4.153.212,12.061,12.061,0,0,0,2.379-7.209V202.484A12.127,12.127,0,0,0,131.114,190.357Z" transform="translate(-29.312 -151.884)" fill="#ffe177"/><path d="M82.766,190.357h-3.9a12.127,12.127,0,0,0-12.127,12.127V231.6a12.07,12.07,0,0,0,2.376,7.209,10.941,10.941,0,0,1,4.156-.214V226.653a10.274,10.274,0,0,1,3.723-7.924V202.484a12.119,12.119,0,0,1,6.081-10.51A5.222,5.222,0,0,1,82.766,190.357Z" transform="translate(-29.313 -151.884)" fill="#ffd15b"/><path d="M375.666,346.255a10.894,10.894,0,0,1,6.785-3.737V330.574a10.3,10.3,0,0,0-7.724-9.972,16.322,16.322,0,0,1,.939,5.462Z" transform="translate(-275.054 -255.805)" fill="#99e6fc"/><path d="M105.841,346.255V326.064a16.322,16.322,0,0,1,.939-5.462,10.3,10.3,0,0,0-7.724,9.972v11.943A10.893,10.893,0,0,1,105.841,346.255Z" transform="translate(-55.098 -255.805)" fill="#99e6fc"/><g transform="translate(31.516 86.604)"><path d="M48.414,428.5A10.914,10.914,0,0,0,37.5,439.414v1.415a3.032,3.032,0,0,0,3.032,3.032H56.524V432.112A10.885,10.885,0,0,0,48.414,428.5Z" transform="translate(-37.5 -428.5)" fill="#ffe177"/><g transform="translate(0)"><path d="M44.069,440.829v-1.415A10.918,10.918,0,0,1,51.7,429a10.92,10.92,0,0,0-14.2,10.41v1.415a3.032,3.032,0,0,0,3.032,3.032H47.1A3.032,3.032,0,0,1,44.069,440.829Z" transform="translate(-37.5 -428.5)" fill="#ffd15b"/></g><path d="M388.481,428.5a10.885,10.885,0,0,0-8.11,3.612V443.86h15.993a3.032,3.032,0,0,0,3.032-3.032v-1.415A10.914,10.914,0,0,0,388.481,428.5Z" transform="translate(-311.073 -428.5)" fill="#ffe177"/><path d="M388.481,428.5a10.885,10.885,0,0,0-8.11,3.612V443.86h4.776v-4.446a10.917,10.917,0,0,1,7.124-10.237A10.89,10.89,0,0,0,388.481,428.5Z" transform="translate(-311.073 -428.5)" fill="#ffd15b"/></g><g transform="translate(66.751 1.516)"><path d="M214.127,17.5a17.85,17.85,0,0,1,4.74-.638h3.8a17.85,17.85,0,0,1,4.74.638,5.524,5.524,0,0,0-3.237-10h-6.8a5.524,5.524,0,0,0-3.237,10Z" transform="translate(-211.839 -7.5)" fill="#596c76"/></g><g transform="translate(55.942 10.879)"><path d="M161.112,75.285h1.812v-.778a3.307,3.307,0,0,1,2.23-3.127l15.379-5.3a11.025,11.025,0,0,1,3.59-.6h2.465a6.665,6.665,0,0,1,6.665,6.665v3.137h1.812a5.227,5.227,0,0,1,2.758.783v-4.4a17.838,17.838,0,0,0-17.838-17.838h-3.8a17.838,17.838,0,0,0-17.838,17.838v4.4A5.226,5.226,0,0,1,161.112,75.285Z" transform="translate(-158.354 -53.829)" fill="#596c76"/></g><g transform="translate(55.942 10.879)"><path d="M182.369,53.988a17.989,17.989,0,0,0-2.382-.159h-3.8a17.838,17.838,0,0,0-17.838,17.838v4.4a5.224,5.224,0,0,1,2.758-.783h1.812v-.778a3.307,3.307,0,0,1,2.23-3.127l1.782-.614a17.842,17.842,0,0,1,15.433-16.779Z" transform="translate(-158.354 -53.829)" fill="#465a61"/></g><path d="M226.807,258.628l5.256,7.338,5.256-7.338a3.029,3.029,0,0,1,.807-.771V255.3a15.172,15.172,0,0,1-12.127,0v2.552A3.023,3.023,0,0,1,226.807,258.628Z" transform="translate(-156.387 -203.705)" fill="#f89580"/><path d="M165.3,265.481h-.814a3.032,3.032,0,0,0-2.465,1.266l-5.256,7.338-5.256-7.338a3.032,3.032,0,0,0-2.465-1.266h-.814a16.6,16.6,0,0,0-16.6,16.6v31.706H181.9V282.083A16.6,16.6,0,0,0,165.3,265.481Z" transform="translate(-81.089 -211.825)" fill="#7ab355"/><g transform="translate(53.449 32.336)"><path d="M153.082,165.354v-5.363H151.27a5.251,5.251,0,0,0-5.251,5.251v.716a5.251,5.251,0,0,0,5.251,5.251h2.985A15.12,15.12,0,0,1,153.082,165.354Z" transform="translate(-146.019 -159.991)" fill="#f89580"/><g transform="translate(36.22)"><path d="M328.216,159.991H326.4v5.363a15.114,15.114,0,0,1-1.173,5.855h2.985a5.251,5.251,0,0,0,5.251-5.251v-.716A5.251,5.251,0,0,0,328.216,159.991Z" transform="translate(-325.231 -159.991)" fill="#ffb09e"/></g></g><g transform="translate(60.512 22.534)"><path d="M180.966,120.517v6.141a15.165,15.165,0,0,0,30.33,0v-8.5a6.665,6.665,0,0,0-6.665-6.665h-2.465a11.026,11.026,0,0,0-3.59.6l-15.379,5.3A3.307,3.307,0,0,0,180.966,120.517Z" transform="translate(-180.966 -111.493)" fill="#ffcebf"/></g><g transform="translate(60.512 26.662)"><path d="M187.832,142.956v-8.5a6.643,6.643,0,0,1,.5-2.537l-5.135,1.769a3.307,3.307,0,0,0-2.23,3.127v6.141a15.16,15.16,0,0,0,18.6,14.77A15.168,15.168,0,0,1,187.832,142.956Z" transform="translate(-180.967 -131.92)" fill="#ffb09e"/></g><path d="M223.159,346.8a2.16,2.16,0,0,1,2.178,2.059,2.123,2.123,0,0,1-1.109,1.931,2.124,2.124,0,0,1,0,3.733,2.132,2.132,0,0,1,.92.991h6.33a2.132,2.132,0,0,1,.92-.991,2.124,2.124,0,0,1,0-3.733,2.123,2.123,0,0,1-1.109-1.931,2.16,2.16,0,0,1,2.178-2.059h1.859v-8.075a1.062,1.062,0,0,0-1.062-1.062h-11.9a1.062,1.062,0,0,0-1.062,1.063V346.8Z" transform="translate(-152.636 -269.417)" fill="#fff"/><path d="M227.478,337.662h-5.114a1.062,1.062,0,0,0-1.062,1.063V346.8h1.859a2.16,2.16,0,0,1,2.178,2.058,2.123,2.123,0,0,1-1.109,1.931,2.124,2.124,0,0,1,0,3.733,2.131,2.131,0,0,1,.92.991h2.329a1.062,1.062,0,0,1-1.062-1.062V338.725A1.063,1.063,0,0,1,227.478,337.662Z" transform="translate(-152.638 -269.417)" fill="#f5f8f9"/><g transform="translate(63.564 77.382)"><path d="M205.2,388.727a2.18,2.18,0,0,1,0-3.8,2.16,2.16,0,0,0-2.178-2.058h-3.4a3.554,3.554,0,0,0-3.555,3.555v8.336a3.554,3.554,0,0,0,3.555,3.555h3.4a2.16,2.16,0,0,0,2.178-2.059,2.18,2.18,0,0,1,0-3.8,2.124,2.124,0,0,1,0-3.732Z" transform="translate(-196.067 -382.871)" fill="#ffcebf"/></g><g transform="translate(78.652 77.382)"><path d="M270.721,388.727a2.18,2.18,0,0,0,0-3.8,2.16,2.16,0,0,1,2.178-2.058h3.4a3.554,3.554,0,0,1,3.555,3.555v8.336a3.554,3.554,0,0,1-3.555,3.555h-3.4a2.16,2.16,0,0,1-2.178-2.059,2.18,2.18,0,0,0,0-3.8,2.124,2.124,0,0,0,0-3.732Z" transform="translate(-270.721 -382.871)" fill="#ffcebf"/></g><g transform="translate(30 0)"><path d="M236.567,169.891l2.493,2.7a1.516,1.516,0,0,0,2.228-2.056l-1.684-1.824,1.831-2.747a1.516,1.516,0,0,0-2.522-1.682l-2.493,3.739a1.516,1.516,0,0,0,.147,1.869Z" transform="translate(-194.497 -130.541)"/><path d="M209.228,159.259a1.516,1.516,0,1,0-2.144-2.144,2.172,2.172,0,0,1-3.072,0,1.516,1.516,0,1,0-2.144,2.144,5.2,5.2,0,0,0,7.359,0Z" transform="translate(-166.779 -125.006)"/><path d="M273.893,160.784a5.169,5.169,0,0,0,3.68-1.524,1.516,1.516,0,0,0-2.144-2.144,2.172,2.172,0,0,1-3.072,0,1.516,1.516,0,0,0-2.144,2.144A5.17,5.17,0,0,0,273.893,160.784Z" transform="translate(-221.31 -125.007)"/><path d="M233.023,214.276a6.123,6.123,0,0,1-8.659,0,1.516,1.516,0,0,0-2.144,2.144,9.154,9.154,0,0,0,12.946,0,1.516,1.516,0,0,0-2.144-2.144Z" transform="translate(-183.016 -170.615)"/><path d="M196.24,299.324a1.516,1.516,0,0,0,3.032,0,4.922,4.922,0,0,0-4.916-4.916h-3.4a1.516,1.516,0,0,0,0,3.032h3.4A1.887,1.887,0,0,1,196.24,299.324Z" transform="translate(-157.216 -234.905)"/><path d="M113.849,86.108a13.55,13.55,0,0,0,1.6-6.393V63.867a1.516,1.516,0,1,0-3.032,0V79.716a10.531,10.531,0,0,1-1.559,5.523,12.455,12.455,0,0,0-1.93-.151h-.011V74.769a11.827,11.827,0,0,0-7.83-11.115A18.148,18.148,0,0,0,84.211,52.14h-.2a16.8,16.8,0,0,0,6.623-7.071h2.018a6.779,6.779,0,0,0,6.554-5.081H101.8A10.623,10.623,0,0,1,112.413,50.6v6.193a1.516,1.516,0,1,0,3.032,0V50.6A13.658,13.658,0,0,0,101.8,36.957H99.389a6.761,6.761,0,0,0-2.461-4.612V28.717a19.343,19.343,0,0,0-2.635-9.753,1.516,1.516,0,0,0-2.617,1.53A16.308,16.308,0,0,1,93.9,28.717v2.219a6.765,6.765,0,0,0-1.242-.116h-.3V29.2a8.191,8.191,0,0,0-8.181-8.181H81.712a12.516,12.516,0,0,0-4.083.683L62.249,27a4.826,4.826,0,0,0-3.2,3.822H58.7a6.782,6.782,0,0,0-1.242.116V28.717A16.34,16.34,0,0,1,73.779,12.4h3.8a16.18,16.18,0,0,1,9.785,3.258,1.516,1.516,0,0,0,1.819-2.425A19.352,19.352,0,0,0,85,10.837,7.03,7.03,0,0,0,79.077,0h-6.8A7.03,7.03,0,0,0,66.36,10.843,19.383,19.383,0,0,0,54.426,28.717v3.628a6.761,6.761,0,0,0-2.461,4.612H49.552A13.658,13.658,0,0,0,35.909,50.6V79.716a13.55,13.55,0,0,0,1.6,6.393A12.446,12.446,0,0,0,30,97.518v1.415a4.552,4.552,0,0,0,4.547,4.547h82.259a4.552,4.552,0,0,0,4.547-4.547V97.518A12.447,12.447,0,0,0,113.849,86.108ZM92.358,37.7V33.852h.3a3.74,3.74,0,0,1,3.735,3.735V38.3a3.74,3.74,0,0,1-3.735,3.735h-.872A16.633,16.633,0,0,0,92.358,37.7ZM72.277,3.032h6.8a4.006,4.006,0,0,1,2.851,6.824,19.472,19.472,0,0,0-4.354-.492h-3.8a19.346,19.346,0,0,0-4.352.494,4.006,4.006,0,0,1,2.85-6.826ZM62.028,31.558a1.792,1.792,0,0,1,1.208-1.694l15.379-5.3a9.49,9.49,0,0,1,3.1-.518h2.465a5.155,5.155,0,0,1,5.15,5.15v8.5a13.649,13.649,0,0,1-27.3,0v-6.14ZM79.843,53.852c-.049.061-.1.123-.143.188l-4.023,5.618L71.653,54.04c-.046-.064-.094-.126-.143-.188a16.724,16.724,0,0,0,8.333,0ZM54.964,37.587A3.74,3.74,0,0,1,58.7,33.852H59V37.7a16.634,16.634,0,0,0,.576,4.339H58.7A3.74,3.74,0,0,1,54.964,38.3ZM38.941,50.6A10.623,10.623,0,0,1,49.551,39.989h2.594A6.779,6.779,0,0,0,58.7,45.07h2.018A16.8,16.8,0,0,0,67.34,52.14h-.2A18.1,18.1,0,0,0,52.572,59.5H47.8a2.947,2.947,0,0,1,0-5.894h4.463a1.516,1.516,0,0,0,0-3.032H47.8a5.979,5.979,0,1,0,0,11.957h2.955c-.174.367-.337.74-.486,1.119a11.827,11.827,0,0,0-7.83,11.115V85.089H42.43a12.481,12.481,0,0,0-1.93.151,10.533,10.533,0,0,1-1.559-5.523V50.6Zm10.084,49.849H34.547a1.517,1.517,0,0,1-1.516-1.516V97.518a9.39,9.39,0,0,1,15.993-6.684ZM62.28,79.421H57.188a1.516,1.516,0,0,0,0,3.032h4.86v18H52.056V79.227a1.516,1.516,0,0,0-3.032,0V87a12.383,12.383,0,0,0-3.552-1.527v-10.7a8.773,8.773,0,0,1,3.75-7.19,18.2,18.2,0,0,0-.2,2.68v1.895a1.516,1.516,0,0,0,3.032,0V70.259a14.993,14.993,0,0,1,2.134-7.724h4.45a1.516,1.516,0,1,0,0-3.032H56.577a15.035,15.035,0,0,1,10.565-4.331h.814a1.519,1.519,0,0,1,1.232.633l7.824,10.924H69.726a2.581,2.581,0,0,0-2.578,2.578v6.559h-.03a5.079,5.079,0,0,0-4.839,3.555Zm15.37,1.954a3.631,3.631,0,0,0-.255,3.206H73.959a3.631,3.631,0,0,0-.255-3.206,3.634,3.634,0,0,0,.512-1.979,3.694,3.694,0,0,0-3.693-3.529H70.18V69.761H81.174v6.106h-.343A3.694,3.694,0,0,0,77.138,79.4a3.636,3.636,0,0,0,.512,1.979Zm-6.782,5.061a.608.608,0,0,1,0,1.07,1.516,1.516,0,0,0,0,2.662.609.609,0,0,1,.319.555.65.65,0,0,1-.663.588h-3.4a2.041,2.041,0,0,1-2.038-2.038V80.936A2.041,2.041,0,0,1,67.118,78.9h3.4a.65.65,0,0,1,.663.588.609.609,0,0,1-.318.555,1.516,1.516,0,0,0,0,2.662.608.608,0,0,1,0,1.07,1.516,1.516,0,0,0,0,2.663Zm15.407,14.013H65.08V93.912a5.037,5.037,0,0,0,2.038.43h3.4a3.7,3.7,0,0,0,3.693-3.529,3.637,3.637,0,0,0-.512-1.979,3.634,3.634,0,0,0,.454-1.223H77.2a3.638,3.638,0,0,0,.454,1.223,3.634,3.634,0,0,0-.512,1.979,3.694,3.694,0,0,0,3.693,3.529h3.4a5.035,5.035,0,0,0,2.038-.43Zm0-11.176a2.041,2.041,0,0,1-2.038,2.038h-3.4a.65.65,0,0,1-.663-.588.609.609,0,0,1,.318-.555,1.516,1.516,0,0,0,0-2.662.608.608,0,0,1,0-1.07,1.516,1.516,0,0,0,0-2.663.608.608,0,0,1,0-1.07,1.516,1.516,0,0,0,0-2.662.609.609,0,0,1-.318-.555.65.65,0,0,1,.663-.588h3.4a2.041,2.041,0,0,1,2.038,2.039ZM87.428,77a5.045,5.045,0,0,0-3.192-1.135h-.03V71.248h.773A2.452,2.452,0,0,1,87.428,73.7V77ZM99.3,100.448H89.306v-18h5.072a1.516,1.516,0,0,0,0-3.032H90.006a5.444,5.444,0,0,0,.453-2.178V73.7a5.487,5.487,0,0,0-5.481-5.481H83.96a2.579,2.579,0,0,0-2.333-1.488h-.886l-3.2-4.468,4.624-6.456a1.519,1.519,0,0,1,1.232-.633h.814A15.1,15.1,0,0,1,99.3,70.259v30.19Zm6.583-25.679v10.7A12.386,12.386,0,0,0,102.329,87V70.259a18.2,18.2,0,0,0-.2-2.68A8.772,8.772,0,0,1,105.881,74.769Zm12.441,24.164a1.517,1.517,0,0,1-1.516,1.516H102.329V90.834a9.39,9.39,0,0,1,15.993,6.684Z" transform="translate(-30 0)"/></g></g></g></svg>