<svg xmlns="http://www.w3.org/2000/svg" xmlns:xlink="http://www.w3.org/1999/xlink" width="137" height="137" viewBox="0 0 137 137"><defs><filter id="a" x="0" y="0" width="137" height="137" filterUnits="userSpaceOnUse"><feOffset dy="3" input="SourceAlpha"/><feGaussianBlur stdDeviation="3" result="b"/><feFlood flood-opacity="0.161"/><feComposite operator="in" in2="b"/><feComposite in="SourceGraphic"/></filter></defs><g transform="translate(-14149 10844)"><g transform="matrix(1, 0, 0, 1, 14149, -10844)" filter="url(#a)"><circle cx="59.5" cy="59.5" r="59.5" transform="translate(9 6)" fill="#1b3f5e"/></g><g transform="translate(14165.977 -10822)"><g transform="translate(1.516 1.516)"><path d="M28.05,328.6a1.62,1.62,0,0,1-1.108-1.537v-6.933H17.221v6.933a1.62,1.62,0,0,1-1.108,1.537l-6.4,2.132A3.24,3.24,0,0,0,7.5,333.805v9.005Z" transform="translate(-7.5 -256.943)" fill="#e29a6c"/><path d="M12.36,346.051V334.973l5.292-1.763a6.475,6.475,0,0,0,4.039-3.926,1.634,1.634,0,0,1,1.425-1.078,14.2,14.2,0,0,0,3.873-.847,1.567,1.567,0,0,1-.047-.3v-6.933h-9.72v6.933a1.62,1.62,0,0,1-1.108,1.537l-6.4,2.132A3.24,3.24,0,0,0,7.5,333.805v9.005a3.24,3.24,0,0,0,3.24,3.24h1.62Z" transform="translate(-7.5 -256.943)" fill="#d48c64"/><path d="M12.36,379.507h24.3V367.261a3.241,3.241,0,0,0-2.216-3.074l-6.383-2.128-5.01,3.757a1.62,1.62,0,0,1-1.944,0l-5.01-3.757-6.383,2.128A3.24,3.24,0,0,0,7.5,367.261Z" transform="translate(-7.5 -290.399)" fill="#e0e0de"/><path d="M17.651,366.666a6.456,6.456,0,0,0,2.509-1.56L16.1,362.06l-6.383,2.128A3.24,3.24,0,0,0,7.5,367.262v12.246h4.86v-9.913a1.617,1.617,0,0,1,1.106-1.534Z" transform="translate(-7.5 -290.4)" fill="#d2d2d0"/><path d="M41.269,253.014a9.721,9.721,0,0,1-9.721-9.721v-6.48a4.86,4.86,0,0,1,4.86-4.86h9.721a4.86,4.86,0,0,1,4.86,4.86v6.481A9.72,9.72,0,0,1,41.269,253.014Z" transform="translate(-26.688 -186.588)" fill="#f4aa73"/><path d="M36.409,243.293V231.952a4.86,4.86,0,0,0-4.86,4.86v5.807a10.4,10.4,0,0,0,6.4,9.758,9.135,9.135,0,0,0,5.747.317A9.716,9.716,0,0,1,36.409,243.293Z" transform="translate(-26.688 -186.588)" fill="#e29a6c"/><path d="M414.259,330.732l-6.4-2.132a1.62,1.62,0,0,1-1.108-1.537v-6.933h-9.721v6.933l-2.856,9.284,22.3-2.541A3.241,3.241,0,0,0,414.259,330.732Z" transform="translate(-316.026 -256.943)" fill="#e29a6c"/><path d="M365.069,346.051V334.973l5.292-1.763a6.475,6.475,0,0,0,4.039-3.926,1.634,1.634,0,0,1,1.425-1.078,14.2,14.2,0,0,0,3.873-.847,1.57,1.57,0,0,1-.047-.3v-6.933h-9.721v6.933a1.62,1.62,0,0,1-1.108,1.537l-6.4,2.132a3.24,3.24,0,0,0-2.216,3.074v9.005a3.24,3.24,0,0,0,3.24,3.24Z" transform="translate(-288.922 -256.943)" fill="#d48c64"/><path d="M387.157,364.188l-6.383-2.128-5.01,3.757a1.621,1.621,0,0,1-1.944,0l-5.01-3.757-8.6,5.2v12.246h29.162V367.262A3.24,3.24,0,0,0,387.157,364.188Z" transform="translate(-288.924 -290.4)" fill="#e0e0de"/><path d="M370.362,366.666a6.456,6.456,0,0,0,2.509-1.56l-4.061-3.046-6.383,2.128a3.24,3.24,0,0,0-2.216,3.074v9.006a3.24,3.24,0,0,0,3.24,3.24h1.62V368.429Z" transform="translate(-288.924 -290.4)" fill="#d2d2d0"/><circle cx="4.86" cy="4.86" r="4.86" transform="translate(59.945 90.728)" fill="#736572"/><path d="M393.979,253.014a9.721,9.721,0,0,1-9.721-9.721v-4.86a6.481,6.481,0,0,1,6.481-6.48h6.481a6.481,6.481,0,0,1,6.481,6.48v4.86A9.721,9.721,0,0,1,393.979,253.014Z" transform="translate(-308.111 -186.588)" fill="#f4aa73"/><circle cx="3.24" cy="3.24" r="3.24" transform="translate(89.108 82.627)" fill="#736572"/><path d="M50.991,241.672a19.8,19.8,0,0,1-12.036-4.07,1.608,1.608,0,0,0-1.96-.014l-5.446,4.084v-4.86a4.86,4.86,0,0,1,4.86-4.86H46.13a4.86,4.86,0,0,1,4.86,4.86Z" transform="translate(-26.688 -186.587)" fill="#dbd8db"/><path d="M389.118,244.2V233.086a6.466,6.466,0,0,0-4.86,6.251v4.86a9.687,9.687,0,0,0,12.151,9.4A9.716,9.716,0,0,1,389.118,244.2Z" transform="translate(-308.111 -187.493)" fill="#e29a6c"/><path d="M31.548,236.812v4.86l4.86-3.645v-6.075A4.86,4.86,0,0,0,31.548,236.812Z" transform="translate(-26.688 -186.588)" fill="#c9c5c9"/><g transform="translate(19.442)"><path d="M160.348,316.659l-14.824-6.349a4.861,4.861,0,0,1-2.947-4.468v-9.762h-16.2v9.762a4.861,4.861,0,0,1-2.947,4.468l-14.824,6.348a8.1,8.1,0,0,0-4.911,7.447v10.858h61.565V324.106A8.1,8.1,0,0,0,160.348,316.659Z" transform="translate(-103.694 -237.756)" fill="#fbbd80"/><path d="M145.765,296.079v9.762a4.861,4.861,0,0,1-2.947,4.468l-14.824,6.348,1.912,4.468,14.825-6.349a9.683,9.683,0,0,0,5.5-6.244,3.634,3.634,0,0,1,3.514-2.731,22.233,22.233,0,0,0,8.224-1.508v-8.214h-16.2Z" transform="translate(-123.083 -237.754)" fill="#f4aa73"/><path d="M166.456,55.6a22.682,22.682,0,0,0-22.682,22.682v8.1h22.682Z" transform="translate(-135.673 -45.876)" fill="#ff744d"/><path d="M256,55.6a22.682,22.682,0,0,1,22.682,22.682v8.1H256Z" transform="translate(-225.217 -45.876)" fill="#ffaa5a"/><path d="M139.809,147.1h2.43a3.24,3.24,0,0,0,3.24-3.24v-1.62a6.481,6.481,0,0,1,6.481-6.481h16.2a6.481,6.481,0,0,1,6.481,6.481v1.62a3.24,3.24,0,0,0,3.24,3.24h2.2a4.21,4.21,0,0,1,4.261,3.633,4.051,4.051,0,0,1-4.029,4.468h-2.43a17.821,17.821,0,1,1-35.643,0h-2.2a4.209,4.209,0,0,1-4.26-3.633A4.051,4.051,0,0,1,139.809,147.1Z" transform="translate(-129.278 -109.836)" fill="#ffd18d"/><path d="M153.007,146.083a58.122,58.122,0,0,0,19.81-7.688l.355-.219a6.44,6.44,0,0,0-5.012-2.418h-16.2a6.481,6.481,0,0,0-6.481,6.481v1.62a3.24,3.24,0,0,1-3.24,3.24h-2.43a4.051,4.051,0,0,0-4.029,4.468,4.21,4.21,0,0,0,4.261,3.633h2.2a17.809,17.809,0,0,0,24.532,16.5l-3.177-.584A16.183,16.183,0,0,1,150.34,155.2v-5.941a3.251,3.251,0,0,1,2.667-3.176Z" transform="translate(-129.278 -109.836)" fill="#fbbd80"/><circle cx="12.961" cy="12.961" r="12.961" transform="translate(17.822)" fill="#ffaa5a"/><path d="M166.5,55.6a22.621,22.621,0,0,1,17.992,8.909,53.264,53.264,0,0,1-35.814,13.773c-1.635,0-3.251-.085-4.849-.229A22.675,22.675,0,0,1,166.5,55.6Z" transform="translate(-135.719 -45.876)" fill="#ff8b57"/><path d="M108.554,401.062h56.7v-14.1a8.1,8.1,0,0,0-4.911-7.447l-10.871-4.656-13.2,8.8a3.241,3.241,0,0,1-3.595,0l-13.2-8.8L108.6,379.517a8.1,8.1,0,0,0-4.911,7.447Z" transform="translate(-103.693 -300.614)" fill="#e0e0de"/><path d="M119.422,374.258,108.6,379.036a8.1,8.1,0,0,0-4.911,7.447v14.1h4.86v-14.1a3.234,3.234,0,0,1,1.964-2.977l13.948-6.145Z" transform="translate(-103.693 -300.132)" fill="#d2d2d0"/></g></g><g transform="translate(0 0)"><path d="M154.959,79.026l-14.824-6.348a3.34,3.34,0,0,1-2.028-3.075V63.652A19.365,19.365,0,0,0,147.77,48.4h.973a5.567,5.567,0,0,0,5.538-6.135,5.387,5.387,0,0,0-1.6-3.291,1.517,1.517,0,0,0,.013-.19V33.919a24.177,24.177,0,0,0-9.721-19.378,14.477,14.477,0,1,0-28.954-.013,24.361,24.361,0,0,0-2.053,1.719,24.1,24.1,0,0,0-7.607,15.945,1.516,1.516,0,0,0,3.024.214,21.167,21.167,0,0,1,42.279,1.513v3.457a5.93,5.93,0,0,0-1.146-.113h-2.2a1.726,1.726,0,0,1-1.724-1.724V34.47a8.554,8.554,0,0,0-4.568-7.562c1.4-.827,2.2-1.393,2.313-1.476a1.516,1.516,0,0,0-1.761-2.468,61.472,61.472,0,0,1-25.248,9.268,3.35,3.35,0,0,0-2.93,3.307,1.726,1.726,0,0,1-1.724,1.724h-2.43A5.567,5.567,0,0,0,102.7,43.4a5.743,5.743,0,0,0,5.769,5h.741a19.193,19.193,0,0,0,5.606,12.158,19.447,19.447,0,0,0,4.057,3.111V69.6a3.34,3.34,0,0,1-2.028,3.075l-14.823,6.348a9.606,9.606,0,0,0-5.831,8.84v14.1a1.516,1.516,0,0,0,3.032,0v-14.1a6.577,6.577,0,0,1,3.993-6.053l9.177-3.93v9.605h-4.964a4.761,4.761,0,0,0-4.756,4.756v6.48a4.761,4.761,0,0,0,4.756,4.756,1.516,1.516,0,1,0,0-3.032,1.726,1.726,0,0,1-1.724-1.724v-6.48a1.726,1.726,0,0,1,1.724-1.724H120.39a1.726,1.726,0,0,1,1.724,1.724v6.48a1.726,1.726,0,0,1-1.724,1.724,1.516,1.516,0,0,0,0,3.032,4.761,4.761,0,0,0,4.756-4.756v-6.48a4.761,4.761,0,0,0-4.756-4.756h-4.965V78.875l10.427,6.952a4.744,4.744,0,0,0,5.277,0l10.427-6.952V90.911a6.376,6.376,0,1,0,3.032,0V77.882l9.177,3.93a6.577,6.577,0,0,1,3.992,6.053v14.1a1.516,1.516,0,0,0,3.032,0v-14.1a9.606,9.606,0,0,0-5.831-8.84ZM117.22,12.5a11.442,11.442,0,0,1,22.544.012A24.195,24.195,0,0,0,117.22,12.5ZM112.185,46.88a1.516,1.516,0,0,0-1.516-1.516h-2.2a2.689,2.689,0,0,1-2.752-2.268,2.535,2.535,0,0,1,2.521-2.8h2.43a4.763,4.763,0,0,0,4.756-4.763.307.307,0,0,1,.284-.293,65.333,65.333,0,0,0,20.53-6.281,5.522,5.522,0,0,1,5.317,5.512v1.069a4.761,4.761,0,0,0,4.756,4.756h2.2a2.689,2.689,0,0,1,2.752,2.268,2.535,2.535,0,0,1-2.521,2.8h-2.43A1.516,1.516,0,0,0,144.8,46.88a16.306,16.306,0,1,1-32.611,0ZM129.447,83.3a1.72,1.72,0,0,1-1.913,0l-10.873-7.249,1.379-.591a6.369,6.369,0,0,0,3.866-5.861V65.072a19.416,19.416,0,0,0,13.17-.01V69.6a6.369,6.369,0,0,0,3.866,5.861l1.379.591Zm16.969,13.8a3.345,3.345,0,1,1-3.345-3.345A3.348,3.348,0,0,1,146.417,97.1Z" transform="translate(-76.751 0)"/><path d="M400.841,252.954l-6.4-2.132a.1.1,0,0,1-.072-.1v-4.168a11.231,11.231,0,0,0,4.86-9.245v-4.86a8.006,8.006,0,0,0-8-8h-6.48a8.006,8.006,0,0,0-8,8v4.86a11.231,11.231,0,0,0,4.861,9.245v4.168a.1.1,0,0,1-.071.1l-2.132.711a1.516,1.516,0,1,0,.958,2.876l1.365-.455,4.375,3.281a3.153,3.153,0,0,0,3.763,0l3.083-2.312v7.043a4.756,4.756,0,1,0,3.032,0v-7.431l3.89,1.3a1.722,1.722,0,0,1,1.179,1.636v12.246a1.516,1.516,0,1,0,3.032,0V257.466A4.751,4.751,0,0,0,400.841,252.954Zm-21.05-15.645v-4.86a4.97,4.97,0,0,1,4.965-4.965h6.48a4.97,4.97,0,0,1,4.965,4.965v4.86a8.2,8.2,0,1,1-16.41,0Zm8.267,17.5a.1.1,0,0,1-.125,0l-3.6-2.7a3.13,3.13,0,0,0,.322-1.383v-2.685a11.258,11.258,0,0,0,6.689,0v2.685a3.133,3.133,0,0,0,.322,1.383Zm6.418,13.387a1.724,1.724,0,1,1,1.724-1.724A1.726,1.726,0,0,1,394.477,268.2Z" transform="translate(-300.613 -179.088)"/><path d="M14.215,257.233a3.153,3.153,0,0,0,3.763,0l4.375-3.281,1.365.455a1.516,1.516,0,1,0,.958-2.876l-2.132-.711a.1.1,0,0,1-.072-.1v-4.168a11.231,11.231,0,0,0,4.861-9.245v-6.48a6.384,6.384,0,0,0-6.376-6.376H11.237a6.383,6.383,0,0,0-6.376,6.376v6.48a11.231,11.231,0,0,0,4.86,9.245v4.168a.1.1,0,0,1-.072.1l-6.4,2.132A4.75,4.75,0,0,0,0,257.465v12.246a1.516,1.516,0,0,0,3.032,0V257.465a1.722,1.722,0,0,1,1.179-1.636l5.51-1.837v7.722H8a3.14,3.14,0,0,0-3.136,3.136v3.24A3.139,3.139,0,0,0,8,271.227a1.516,1.516,0,1,0,0-3.032.1.1,0,0,1-.1-.1v-3.24a.1.1,0,0,1,.1-.1h6.48a.1.1,0,0,1,.1.1v3.24a.1.1,0,0,1-.1.1,1.516,1.516,0,1,0,0,3.032,3.14,3.14,0,0,0,3.136-3.136v-3.24a3.14,3.14,0,0,0-3.136-3.136H12.753v-5.578Zm-2.979-29.75h9.721a3.349,3.349,0,0,1,3.345,3.345v3.281a18.437,18.437,0,0,1-9.589-3.688,3.138,3.138,0,0,0-3.8-.03l-3.021,2.266v-1.829A3.348,3.348,0,0,1,11.237,227.483Zm-3.345,9.825v-.862l4.84-3.63a.094.094,0,0,1,.12,0,21.181,21.181,0,0,0,11.45,4.335v.158a8.2,8.2,0,0,1-16.41,0ZM16.1,248.545a11.2,11.2,0,0,0,3.345-.508v2.685a3.13,3.13,0,0,0,.322,1.383l-3.6,2.7a.1.1,0,0,1-.125,0l-3.6-2.7a3.13,3.13,0,0,0,.322-1.383v-2.685A11.191,11.191,0,0,0,16.1,248.545Z" transform="translate(0 -179.087)"/></g></g></g></svg>