<svg xmlns="http://www.w3.org/2000/svg" xmlns:xlink="http://www.w3.org/1999/xlink" width="137" height="137" viewBox="0 0 137 137"><defs><filter id="a" x="0" y="0" width="137" height="137" filterUnits="userSpaceOnUse"><feOffset dy="3" input="SourceAlpha"/><feGaussianBlur stdDeviation="3" result="b"/><feFlood flood-opacity="0.161"/><feComposite operator="in" in2="b"/><feComposite in="SourceGraphic"/></filter></defs><g transform="translate(-14545 10844)"><g transform="matrix(1, 0, 0, 1, 14545, -10844)" filter="url(#a)"><circle cx="59.5" cy="59.5" r="59.5" transform="translate(9 6)" fill="#e8e8e8"/></g><g transform="translate(14562.727 -10822)"><g transform="translate(1.529 1.516)"><path d="M211.013,102.047v9.095h4.547v4.547h9.095v-4.547H229.2v-9.095h-4.547V97.5h-9.095v4.547Z" transform="translate(-169.884 -79.31)" fill="#ffe177" fill-rule="evenodd"/><path d="M170.8,25.691v4.547h4.547v9.095H170.8v4.547H161.7V39.333h-4.547V30.238H161.7V25.691ZM166.25,57.523c21.343-3.638,22.737-25.769,22.737-40.927A58.246,58.246,0,0,1,167.766,7.5h-3.032A58.238,58.238,0,0,1,143.513,16.6C143.513,31.754,144.908,53.885,166.25,57.523Z" transform="translate(-116.026 -7.501)" fill="#53d8f6" fill-rule="evenodd"/><path d="M166.251,88.891c.793-.135,1.556-.3,2.295-.484-18.535-4.784-20.376-26.926-20.479-41.592-1.61.477-3.144.86-4.553,1.149C143.514,63.122,144.908,85.253,166.251,88.891Z" transform="translate(-116.027 -38.869)" fill="#2d93f4" fill-rule="evenodd"/><path d="M69.75,270.467l-.439-3.928L29.73,269.169,7.513,287.4v7.524l23.362,8.728,9.72-5.8,46.587-5.627,18.731-21.754c6.085-7.067-2.744-14.68-8.834-7.617L83.318,278.821,62.527,280.36c4.29-.318,7.693-5.683,7.223-9.893Z" transform="translate(-7.513 -209.003)" fill="#7ab355" fill-rule="evenodd"/><path d="M346.217,266.814,332.178,283.1l10.187-.754,13.762-15.961A6.827,6.827,0,0,0,346.217,266.814Z" transform="translate(-266.56 -212.525)" fill="#629740" fill-rule="evenodd"/><path d="M7.513,432.632v14.525H21.155l9.72-5.8Z" transform="translate(-7.513 -346.709)" fill="#ffdaaa" fill-rule="evenodd"/><path d="M7.513,469.017v4.547H21.155l9.72-5.8-5.459-2.039L19.9,469.017Z" transform="translate(-7.513 -373.116)" fill="#ffb680" fill-rule="evenodd"/><path d="M101.556,312.653l9.72-5.8,46.587-5.626,18.731-21.754c2.593-3.012,2.477-6.121,1.019-8.153l-22.046,25.6-51.917,6.228,2.02,1.75L96.1,310.613Z" transform="translate(-78.193 -218.001)" fill="#629740" fill-rule="evenodd"/><g transform="translate(50.77 6.488)"><path d="M267.806,45.664h-3.032V42.633h3.032Zm-6.063-3.032h-3.032V39.6h3.032Z" transform="translate(-258.711 -39.601)" fill="#fff"/></g><g transform="translate(10.813 8.445)"><path d="M137.758,79.386l-7.579-3.031L131.3,73.54l7.579,3.031Zm-74.665,0-1.126-2.815,7.579-3.031,1.126,2.815Zm76.744-13.534h-9.1V62.821h9.1Zm-69.728,0H61.014V62.821h9.095Zm61.2-10.719-1.126-2.815,7.579-3.032,1.126,2.815Zm-61.758,0L61.967,52.1l1.126-2.815,7.579,3.032Z" transform="translate(-61.014 -49.287)" fill="#1b3f5e"/></g></g><g transform="translate(0.013 0)"><path d="M208.06,90v4.547h-4.547v12.127h4.547v4.547h12.127v-4.547h4.547V94.547h-4.547V90ZM221.7,97.579v6.063h-4.547v4.547h-6.063v-4.547h-4.547V97.579h4.547V93.032h6.063v4.547Z" transform="translate(-162.384 -71.81)"/><path d="M101.066,254.263c-2.512-2.164-6.628-2.525-10.1.6a8.344,8.344,0,0,0-10.933,1.481l-13.63,15.808-3.708.274a11.445,11.445,0,0,0,2.571-8.086l-.6-5.369L23.16,261.732l-23.147,19V305.01H15.589l19.523-11.643,18.46-2.229-.364-3.01L34.8,290.352l-8.245-3.082-1.062,2.84,5.635,2.106-6.384,3.808L3.045,287.918v-5.755l21.287-17.47,37.65-2.5.278,2.488a8.475,8.475,0,0,1-2.014,5.964,5.692,5.692,0,0,1-3.815,2.249l-18.119,1.341.224,3.023,39.536-2.926,14.172-16.437c2.471-2.866,5.217-2.735,6.844-1.334s2.164,4.1-.306,6.971L80.433,284.84l-18.2,2.2.364,3.01,19.362-2.338,19.114-22.2c3.646-4.235,2.754-8.863-.012-11.246ZM21.4,298.013l-6.65,3.966H3.045V291.154ZM76.6,271.4l-5.911.437,11.65-13.512a5.238,5.238,0,0,1,3.777-1.824c.081,0,.162-.005.242-.005a5.255,5.255,0,0,1,2.537.644Z" transform="translate(-0.013 -201.53)"/><path d="M0,0H3.032V3.031H0Z" transform="translate(56.223 86.249) rotate(-6.891)"/><path d="M160.013,53.033l.255.043.255-.043c9.932-1.693,16.84-7.445,20.533-17.1,3.053-7.979,3.465-17.28,3.465-25.326V9.375l-1.211-.249A57.255,57.255,0,0,1,162.671.287l-.4-.287h-4.012l-.4.287a49.1,49.1,0,0,1-8.5,4.853L150.615,7.9a52.6,52.6,0,0,0,8.622-4.87H161.3a60.383,60.383,0,0,0,20.188,8.8c-.044,7.476-.534,15.9-3.262,23.025-3.3,8.618-9.173,13.575-17.957,15.147-8.784-1.572-14.658-6.529-17.956-15.147-2.728-7.128-3.218-15.547-3.261-23.022a62.365,62.365,0,0,0,8.648-2.7L146.59,6.31a58.21,58.21,0,0,1-9.364,2.816l-1.211.249v1.236c0,8.046.412,17.347,3.465,25.326C143.173,45.588,150.082,51.34,160.013,53.033Z" transform="translate(-108.528 0)"/></g></g></g></svg>