<svg xmlns="http://www.w3.org/2000/svg" xmlns:xlink="http://www.w3.org/1999/xlink" width="126" height="126" viewBox="0 0 126 126"><defs><filter id="a" x="0" y="0" width="126" height="126" filterUnits="userSpaceOnUse"><feOffset dy="3" input="SourceAlpha"/><feGaussianBlur stdDeviation="3" result="b"/><feFlood flood-opacity="0.161"/><feComposite operator="in" in2="b"/><feComposite in="SourceGraphic"/></filter></defs><g transform="translate(-527 -535.8)"><g transform="matrix(1, 0, 0, 1, 527, 535.8)" filter="url(#a)"><circle cx="54" cy="54" r="54" transform="translate(9 6)" fill="#13c6cc"/></g><g transform="translate(533.076 559.934)"><g transform="translate(26.59 1.316)"><path d="M126.373,13.174H66.091v-3.9A1.773,1.773,0,0,1,67.864,7.5H124.6a1.773,1.773,0,0,1,1.773,1.773v3.9Z" transform="translate(-66.091 -7.5)" fill="#f9edb6"/></g><g transform="translate(24.817 6.99)"><path d="M119.818,45.5H55.989V41.6a1.773,1.773,0,0,1,1.773-1.773h60.282a1.773,1.773,0,0,1,1.773,1.773Z" transform="translate(-55.989 -39.825)" fill="#f9edb6"/></g><g transform="translate(19.498 65.5)"><path d="M100.151,396.228H25.88l-.2-23.049h74.467Z" transform="translate(-25.684 -373.179)" fill="#9c9c9c"/></g><g transform="translate(37.511 65.5)"><path d="M184.769,384.83,174.03,374.091q.2-.453.386-.912h-46.1a24.835,24.835,0,0,0,33.175,13.448l9.6,9.6h13.677v-11.4Z" transform="translate(-128.316 -373.179)" fill="#9c9c9c"/></g><g transform="translate(23.044 12.664)"><path d="M113.262,124.986H45.887V73.923A1.773,1.773,0,0,1,47.66,72.15h63.829a1.773,1.773,0,0,1,1.773,1.773v51.063Z" transform="translate(-45.887 -72.15)" fill="#fff9df"/></g><g transform="translate(28.717 18.337)"><path d="M0,0H21.985V17.73H0Z" transform="translate(17.73 0) rotate(90)" fill="#6fd7a3"/><g transform="translate(-11.369 -9.688)"><path d="M97.8,106.4l-6.293,6.293-4.972-4.972,2.265-2.264,2.707,2.707,4.029-4.028Z" transform="translate(-71.879 -86.354)" fill="#e8e8e8"/><path d="M79.2,101.211l4.972,4.972a.58.58,0,0,0,.82,0l3.105-3.105a.58.58,0,0,0-.82-.82l-2.7,2.7L80.434,100.8l1.445-1.444,2.3,2.3a.58.58,0,0,0,.82,0l3.618-3.618,1.444,1.445-.812.812a.58.58,0,1,0,.82.82l1.222-1.222a.58.58,0,0,0,0-.82L89.025,96.8a.58.58,0,0,0-.82,0l-3.618,3.618-2.3-2.3a.58.58,0,0,0-.82,0L79.2,100.391a.58.58,0,0,0,0,.82Z" transform="translate(-64.959 -79.435)"/></g></g><g transform="translate(83.972 12.664)"><path d="M397.7,72.15h-4.673a1.773,1.773,0,0,1,1.773,1.773v51.063h4.673V73.923A1.773,1.773,0,0,0,397.7,72.15Z" transform="translate(-393.023 -72.15)" fill="#e4f6ff"/></g><g transform="translate(39.28 35.004)"><g transform="translate(32.045 32.058)"><path d="M0,0H10.638V6.383H0Z" transform="translate(0 7.521) rotate(-45)" fill="#cd9c1f"/></g><g transform="translate(38.061 38.075)"><path d="M0,0H6.383V6.383H0Z" transform="translate(0 4.513) rotate(-45)" fill="#ffd15b"/></g><g transform="translate(41.085 41.085)"><path d="M392.454,445.971H377.409l-4.937-4.937,7.522-7.522Z" transform="translate(-372.472 -433.511)" fill="#ffd15b"/></g><g transform="translate(46.1 41.085)"><path d="M403.551,433.511l-2.507,2.507L411,445.971h5.015Z" transform="translate(-401.044 -433.511)" fill="#cd9c1f"/></g><circle cx="21.276" cy="21.276" r="21.276" fill="#ffd15b"/><g transform="translate(4.331 4.332)"><path d="M192.883,224.113a21.276,21.276,0,0,1-29.811,29.811,21.276,21.276,0,1,0,29.811-29.811Z" transform="translate(-163.072 -224.113)" fill="#cd9c1f"/></g><g transform="translate(5.674 5.674)"><circle cx="15.602" cy="15.602" r="15.602" fill="#e4f6ff"/></g><g transform="translate(8.84 8.84)"><path d="M210.618,249.8a15.6,15.6,0,0,1-21.858,21.858A15.6,15.6,0,1,0,210.618,249.8Z" transform="translate(-188.76 -249.798)" fill="#d3effb"/></g></g><g transform="translate(18.181 0)"><path d="M39.707,49.173a1.316,1.316,0,0,0,1.316-1.316V14.436a.457.457,0,0,1,.456-.456h63.83a.457.457,0,0,1,.456.456V30.3a1.316,1.316,0,1,0,2.633,0V14.436a3.09,3.09,0,0,0-1.773-2.791V8.763a3.09,3.09,0,0,0-1.773-2.791V3.089A3.093,3.093,0,0,0,101.761,0H45.025a3.093,3.093,0,0,0-3.089,3.089V5.972a3.09,3.09,0,0,0-1.773,2.791v2.883a3.09,3.09,0,0,0-1.772,2.79v33.42A1.317,1.317,0,0,0,39.707,49.173ZM42.8,8.763a.457.457,0,0,1,.457-.457h60.283a.457.457,0,0,1,.457.457v2.584H42.8Zm1.773-5.674a.457.457,0,0,1,.457-.457h56.736a.457.457,0,0,1,.457.457V5.674H44.568Z" transform="translate(-34.843 0)"/><path d="M192.1,229.214a16.919,16.919,0,1,0,4.955,11.963A16.808,16.808,0,0,0,192.1,229.214Zm-1.862,22.065a14.286,14.286,0,1,1,4.184-10.1A14.193,14.193,0,0,1,190.241,251.28Z" transform="translate(-137.763 -184.898)"/><path d="M101.278,167.573l-6-6V145.455a1.316,1.316,0,0,0-1.316-1.316H91.735V116.4a1.316,1.316,0,0,0-2.633,0v27.735H81.72a22.592,22.592,0,0,0-33.956-26.526V98.292a1.316,1.316,0,0,0-1.316-1.316H28.717A1.316,1.316,0,0,0,27.4,98.292v21.985a1.316,1.316,0,0,0,1.316,1.316H43.35a22.639,22.639,0,0,0-3.957,22.544H24.361V133.955a1.316,1.316,0,1,0-2.633,0v10.184H19.5a1.316,1.316,0,0,0-1.316,1.328l.2,23.049a1.316,1.316,0,0,0,1.316,1.305h7.821a1.316,1.316,0,1,0,0-2.633H21l-.174-20.416H40.569A22.629,22.629,0,0,0,71.136,156.2l3.785,3.785a1.316,1.316,0,0,0,1.862,0l.574-.574,2.652,2.652-.574.574a1.316,1.316,0,0,0,0,1.862l2.691,2.691H33.658a1.316,1.316,0,1,0,0,2.633H85.305a1.316,1.316,0,0,0,.928-2.247l-4.007-4.007,5.661-5.661,11.529,11.529a1.316,1.316,0,1,0,1.862-1.862ZM30.034,99.609h15.1v19.353h-15.1Zm16.409,50.74a19.96,19.96,0,1,1,28.227,0A19.983,19.983,0,0,1,46.443,150.349ZM73.45,154.79a22.737,22.737,0,0,0,5.661-5.661l2.4,2.4-5.661,5.661Zm5.767,2.759,2.652-2.652,2.652,2.652L81.869,160.2Zm7.739-2.435-.574.574-2.652-2.652.574-.574a1.316,1.316,0,0,0,0-1.862l-3.785-3.785.024-.044h12.1v12.172l-3.83-3.83a1.316,1.316,0,0,0-1.862,0Z" transform="translate(-18.181 -79.955)"/><path d="M239.659,96.976H207.39a1.316,1.316,0,0,0,0,2.633h32.269a1.316,1.316,0,0,0,0-2.633Z" transform="translate(-173.095 -79.955)"/><path d="M240.976,130.617a1.316,1.316,0,0,0-1.316-1.316H207.39a1.316,1.316,0,0,0,0,2.633h32.269A1.316,1.316,0,0,0,240.976,130.617Z" transform="translate(-173.095 -106.606)"/><path d="M207.391,161.626a1.316,1.316,0,0,0,0,2.633h21.631a1.316,1.316,0,0,0,0-2.633Z" transform="translate(-173.096 -133.258)"/></g></g></g></svg>