<svg xmlns="http://www.w3.org/2000/svg" xmlns:xlink="http://www.w3.org/1999/xlink" width="126" height="126" viewBox="0 0 126 126"><defs><filter id="a" x="0" y="0" width="126" height="126" filterUnits="userSpaceOnUse"><feOffset dy="3" input="SourceAlpha"/><feGaussianBlur stdDeviation="3" result="b"/><feFlood flood-opacity="0.161"/><feComposite operator="in" in2="b"/><feComposite in="SourceGraphic"/></filter></defs><g transform="translate(-947 -535.8)"><g transform="matrix(1, 0, 0, 1, 947, 535.8)" filter="url(#a)"><circle cx="54" cy="54" r="54" transform="translate(9 6)" fill="#1b3f5e"/></g><g transform="translate(974.346 544.352)"><g transform="translate(1.5 17.078)"><g transform="translate(0 0)"><path d="M9.754,23.582H63.446a1.692,1.692,0,0,1,1.239.513l9.834,9.834a1.692,1.692,0,0,1,.513,1.239V108.7a1.755,1.755,0,0,1-1.752,1.752H9.754A1.755,1.755,0,0,1,8,108.7V25.333a1.755,1.755,0,0,1,1.751-1.751Z" transform="translate(-8.003 -23.582)" fill="#eceff1" fill-rule="evenodd"/><path d="M187.326,23.582h21.929a1.692,1.692,0,0,1,1.239.513l9.834,9.834a1.692,1.692,0,0,1,.513,1.239V108.7a1.755,1.755,0,0,1-1.752,1.752H187.326Z" transform="translate(-153.812 -23.582)" fill="#d1d1d6" fill-rule="evenodd"/><path d="M308.541,24.4a1.757,1.757,0,0,1,.513.361l9.834,9.834a1.755,1.755,0,0,1,.361.513h-9.832a.877.877,0,0,1-.876-.876V24.4Z" transform="translate(-252.373 -24.243)" fill="#a79ba7" fill-rule="evenodd"/></g><g transform="translate(41.358 29.775)"><path d="M254.966,198.313a10.254,10.254,0,1,1-10.254,10.254A10.254,10.254,0,0,1,254.966,198.313Zm4.666-7.943-1.2-7.474H251.5l-1.2,7.474a18.664,18.664,0,0,0-4.9,2.031l-6.132-4.44-4.907,4.907L238.8,199a18.669,18.669,0,0,0-2.031,4.9l-7.474,1.2v6.94l7.474,1.2a18.685,18.685,0,0,0,2.031,4.9l-4.44,6.133,4.907,4.907,6.133-4.44a18.667,18.667,0,0,0,4.9,2.032l1.2,7.474h6.94l1.2-7.474a18.682,18.682,0,0,0,4.9-2.031l6.133,4.44,4.907-4.907-4.44-6.133a18.667,18.667,0,0,0,2.032-4.9l7.474-1.2V205.1l-7.474-1.2a18.684,18.684,0,0,0-2.031-4.9l4.44-6.133-4.907-4.907-6.133,4.44a18.649,18.649,0,0,0-4.9-2.032Z" transform="translate(-229.296 -182.897)" fill="#ffe177" fill-rule="evenodd"/><path d="M366.65,198.314a10.254,10.254,0,0,1,0,20.508v15.416h3.47l1.2-7.474a18.681,18.681,0,0,0,4.9-2.031l6.133,4.44,4.907-4.907-4.44-6.133a18.669,18.669,0,0,0,2.032-4.9l7.474-1.2V205.1l-7.474-1.2a18.684,18.684,0,0,0-2.031-4.9l4.44-6.133-4.907-4.907-6.133,4.44a18.669,18.669,0,0,0-4.9-2.032l-1.2-7.474h-3.47Z" transform="translate(-340.98 -182.898)" fill="#ffd064" fill-rule="evenodd"/></g></g><path d="M77.285,72.523a8.759,8.759,0,1,0-8.754,8.758,8.77,8.77,0,0,0,8.754-8.758Zm2.989,0a11.747,11.747,0,1,1-11.743-11.75,11.761,11.761,0,0,1,11.743,11.75Zm12.43-2.2v4.39l-6.215,1a1.5,1.5,0,0,0-1.216,1.1A16.871,16.871,0,0,1,83.4,81.325a1.5,1.5,0,0,0,.079,1.639l3.694,5.1-3.1,3.1-5.1-3.693a1.493,1.493,0,0,0-1.64-.075,17.233,17.233,0,0,1-4.5,1.869,1.5,1.5,0,0,0-1.111,1.213L70.726,96.7h-4.39l-1-6.214a1.5,1.5,0,0,0-1.111-1.213,17.237,17.237,0,0,1-4.5-1.869,1.5,1.5,0,0,0-1.64.075l-5.1,3.693-3.1-3.1,3.685-5.1a1.5,1.5,0,0,0,.079-1.639,17.137,17.137,0,0,1-1.869-4.508,1.5,1.5,0,0,0-1.217-1.1l-6.215-1v-4.39l6.215-.994a1.5,1.5,0,0,0,1.217-1.106A17.138,17.138,0,0,1,53.65,63.72a1.5,1.5,0,0,0-.079-1.639l-3.685-5.1,3.1-3.105,5.1,3.691a1.493,1.493,0,0,0,1.64.075,17.228,17.228,0,0,1,4.5-1.867,1.5,1.5,0,0,0,1.111-1.212l1-6.214h4.39l.987,6.214a1.5,1.5,0,0,0,1.111,1.212,17.173,17.173,0,0,1,4.5,1.869,1.493,1.493,0,0,0,1.64-.077l5.1-3.691,3.1,3.105-3.694,5.1A1.5,1.5,0,0,0,83.4,63.72a17.151,17.151,0,0,1,1.869,4.506,1.5,1.5,0,0,0,1.216,1.106ZM67.032,99.687v2.77H2.994V18.573H56.171v9.365a1.5,1.5,0,0,0,1.5,1.5h9.362V45.358H65.057a1.491,1.491,0,0,0-1.472,1.257l-1.049,6.533a19.962,19.962,0,0,0-3.474,1.439l-5.36-3.88a1.489,1.489,0,0,0-1.931.153l-4.91,4.908a1.5,1.5,0,0,0-.15,1.934l3.879,5.358a20.57,20.57,0,0,0-1.437,3.471l-6.533,1.044a1.5,1.5,0,0,0-1.261,1.477v6.94a1.5,1.5,0,0,0,1.261,1.477l6.533,1.046a20.541,20.541,0,0,0,1.437,3.47l-3.879,5.358a1.5,1.5,0,0,0,.15,1.934l4.91,4.908a1.489,1.489,0,0,0,1.931.153l5.36-3.88a20.179,20.179,0,0,0,3.474,1.44l1.049,6.532a1.491,1.491,0,0,0,1.472,1.257h1.975ZM59.159,26.443h5.757l-5.757-5.757ZM95.692,69.052v6.94a1.491,1.491,0,0,1-1.261,1.477L87.9,78.515a19.9,19.9,0,0,1-1.437,3.47l3.879,5.358a1.492,1.492,0,0,1-.15,1.934l-4.91,4.908a1.489,1.489,0,0,1-1.931.153l-5.36-3.88a20.184,20.184,0,0,1-3.473,1.44l-1.04,6.532A1.507,1.507,0,0,1,72,99.687H70.021v4.265a1.494,1.494,0,0,1-1.49,1.5H1.5a1.5,1.5,0,0,1-1.5-1.5V17.078a1.5,1.5,0,0,1,1.5-1.5H57.669a1.5,1.5,0,0,1,1.058.437L69.58,26.881a1.492,1.492,0,0,1,.441,1.058v17.42H72a1.507,1.507,0,0,1,1.481,1.257l1.04,6.533a19.954,19.954,0,0,1,3.473,1.439l5.36-3.88a1.489,1.489,0,0,1,1.931.153l4.91,4.908a1.492,1.492,0,0,1,.15,1.934l-3.879,5.358A19.855,19.855,0,0,1,87.9,66.532l6.533,1.044A1.491,1.491,0,0,1,95.692,69.052ZM15.177,33.767H43.652a1.5,1.5,0,1,0,0-2.99H15.177a1.5,1.5,0,0,0,0,2.99Zm19.7,55.465h-19.7a1.5,1.5,0,0,0,0,2.99h19.7a1.5,1.5,0,1,0,0-2.99Zm0-11.692h-19.7a1.5,1.5,0,0,0,0,2.99h19.7a1.5,1.5,0,1,0,0-2.99Zm0-11.692h-19.7a1.5,1.5,0,0,0,0,2.99h19.7a1.5,1.5,0,1,0,0-2.99Zm0-11.691h-19.7a1.5,1.5,0,0,0,0,2.991h19.7a1.5,1.5,0,1,0,0-2.991Zm-21.193-10.2a1.489,1.489,0,0,0,1.49,1.5H54.849a1.5,1.5,0,1,0,0-2.99H15.177a1.489,1.489,0,0,0-1.49,1.5Z" transform="translate(0 0)" fill-rule="evenodd"/></g></g></svg>