<svg xmlns="http://www.w3.org/2000/svg" width="50.453" height="50.451" viewBox="0 0 50.453 50.451"><g transform="translate(-360.936 -1078.804)"><g transform="translate(360.936 1078.794)"><g transform="translate(0 0.01)"><path d="M37.255,14.005H52.231l3.121,3.121a1.122,1.122,0,0,0,1.915-.793V13.847A2.922,2.922,0,0,0,59.23,11.1V2.917A2.91,2.91,0,0,0,56.323.01H37.255a2.91,2.91,0,0,0-2.907,2.907v.6a.739.739,0,1,0,1.478,0v-.6a1.431,1.431,0,0,1,1.429-1.429H56.323a1.431,1.431,0,0,1,1.429,1.429V11.1a1.434,1.434,0,0,1-1.132,1.4,1.056,1.056,0,0,0-.831,1.031v1.946l-2.636-2.636a1.048,1.048,0,0,0-.746-.31H37.255A1.431,1.431,0,0,1,35.826,11.1V6.976a.739.739,0,1,0-1.478,0V11.1a2.91,2.91,0,0,0,2.907,2.907Z" transform="translate(-30.963 -0.01)" fill="#13c6cc"/><path d="M49.714,113.712a.739.739,0,0,0,.739-.739V112.4a5.178,5.178,0,0,0-3.7-4.941l-4.007-1.176a1.471,1.471,0,0,0-.4-.259l-.836-.372a1.757,1.757,0,0,0-.693-.152v-1.759a6.1,6.1,0,0,0,2.437-4.149,1.58,1.58,0,0,0,1.149-1.518V92.787a2.334,2.334,0,0,0-2.192-2.327,2.334,2.334,0,0,0-2.323-2.134H34.406a4.409,4.409,0,0,0-4.4,4.4v5.347a1.58,1.58,0,0,0,1.149,1.518,6.1,6.1,0,0,0,2.437,4.149V105.5a1.755,1.755,0,0,0-.686.154l-.82.368a1.47,1.47,0,0,0-.393.259l-4.031,1.183a5.178,5.178,0,0,0-3.7,4.941v4.013a5.023,5.023,0,0,0-1.765-.93c-.065-.019.314.057-5.754-1.1v-.016a19.274,19.274,0,0,0,2.832-.747c2.052-.712,3.387-2.823,2.342-6.311a12.381,12.381,0,0,1-.522-3.555A8.2,8.2,0,0,0,12.9,95.572h0a8.2,8.2,0,0,0-8.189,8.189,12.377,12.377,0,0,1-.521,3.552c-1.035,3.453.259,5.588,2.342,6.311a19.274,19.274,0,0,0,2.829.747c-6.042,1.17-5.688,1.1-5.751,1.116A5.056,5.056,0,0,0,0,120.312v6.978a2.784,2.784,0,0,0,2.785,2.785h.006l44.878-.045a2.788,2.788,0,0,0,2.785-2.785V116.428a.739.739,0,0,0-1.478,0v1.709H40.336l-1.308-5.83.707-1.268a1.532,1.532,0,0,0,.772-.4l2.271-2.212a1.472,1.472,0,0,0,.333-.492l3.225.947a3.692,3.692,0,0,1,2.637,3.523v.569a.739.739,0,0,0,.739.739ZM31.48,92.73A2.929,2.929,0,0,1,34.406,89.8h5.487a.854.854,0,0,1,.853.853,1.278,1.278,0,0,0,1.277,1.277h.054a.854.854,0,0,1,.853.853v2.738h-.361a.369.369,0,0,1-.369-.369V94.55a1.911,1.911,0,0,0-2.508-1.812,7.979,7.979,0,0,1-4.974,0,1.907,1.907,0,0,0-2.507,1.812v.607a.369.369,0,0,1-.369.369H31.48v-2.8Zm1.111,6.4a1.017,1.017,0,0,0-1.012-.952.1.1,0,0,1-.1-.1V97h.361a1.849,1.849,0,0,0,1.847-1.847V94.55a.43.43,0,0,1,.568-.408,9.464,9.464,0,0,0,5.9,0,.43.43,0,0,1,.566.409v.606A1.849,1.849,0,0,0,42.569,97h.361v1.073a.1.1,0,0,1-.1.1,1.017,1.017,0,0,0-1.012.953,4.623,4.623,0,0,1-9.227,0Zm5.22,12.326H36.586l-.476-.817,1.151-.962,1.045.893Zm1.009,6.683H35.585l1.167-5.2h.9Zm-1.563-10.358-2.192-1.638v-1.594a6.091,6.091,0,0,0,4.278,0v1.617ZM33.508,107a.279.279,0,0,1,.282.031l2.286,1.708-1.062.887a.046.046,0,0,1-.018.009h-.009a.045.045,0,0,1-.032-.011L32.7,107.365ZM7.019,112.228c-1.868-.649-1.976-2.6-1.411-4.49a13.86,13.86,0,0,0,.584-3.979,6.711,6.711,0,0,1,13.421,0,13.854,13.854,0,0,0,.584,3.976c.566,1.887.458,3.842-1.411,4.49a18.015,18.015,0,0,1-11.768,0Zm7.943,2.357v.261a2.274,2.274,0,0,1-4.12-.016v-.246A19.585,19.585,0,0,0,14.962,114.586Zm9.366,13.776a.19.19,0,0,1-.183.19h-.026L2.788,128.6h0a1.306,1.306,0,0,1-1.307-1.307v-6.978A3.57,3.57,0,0,1,4,116.915l5.693-1.1a3.757,3.757,0,0,0,6.422.016l5.7,1.085a3.552,3.552,0,0,1,2.517,3.4Zm1.11-15.958a3.692,3.692,0,0,1,2.638-3.523l3.251-.954a1.469,1.469,0,0,0,.318.477l2.27,2.273.007.007a1.521,1.521,0,0,0,.737.4l.718,1.233-1.306,5.823H25.437Zm23.538,7.211v7.629a1.308,1.308,0,0,1-1.307,1.307H25.8a1.7,1.7,0,0,0,.011-.19v-8.05a5.021,5.021,0,0,0-.048-.7ZM39.48,109.575a.045.045,0,0,1-.031.013l-.017,0-.012-.007-.983-.84,2.192-1.7a.279.279,0,0,1,.285-.034l.827.369Z" transform="translate(0 -79.623)" fill="#13c6cc"/></g></g></g></svg>