<svg xmlns="http://www.w3.org/2000/svg" width="50.049" height="50.007" viewBox="0 0 50.049 50.007"><g transform="translate(-21176.113 10609.539)"><g transform="translate(20983.152 -10658.539)"><g transform="translate(219.052 75.091)"><circle cx="1.087" cy="1.087" r="1.087" transform="translate(0 0)" fill="#13c6cc"/></g><g transform="translate(208.181 59.872)"><path d="M63.318,137.03l2.174,2.174a1.086,1.086,0,0,0,1.537,0l4.348-4.348a1.087,1.087,0,0,0-1.537-1.537l-3.58,3.58-1.406-1.406a1.087,1.087,0,1,0-1.537,1.537Z" transform="translate(-63 -133.001)" fill="#13c6cc" fill-rule="evenodd"/></g><g transform="translate(208.181 70.743)"><path d="M63.318,137.03l2.174,2.174a1.086,1.086,0,0,0,1.537,0l4.348-4.348a1.087,1.087,0,0,0-1.537-1.537l-3.58,3.58-1.406-1.406a1.087,1.087,0,1,0-1.537,1.537Z" transform="translate(-63 -133.001)" fill="#13c6cc" fill-rule="evenodd"/></g><g transform="translate(219.052 59.871)"><path d="M74.087,137.174H84.958a1.087,1.087,0,1,0,0-2.174H74.087a1.087,1.087,0,1,0,0,2.174Z" transform="translate(-73 -135)" fill="#13c6cc" fill-rule="evenodd"/></g><g transform="translate(219.052 70.742)"><path d="M74.087,137.174h4.391a1.087,1.087,0,1,0,0-2.174H74.087a1.087,1.087,0,1,0,0,2.174Z" transform="translate(-73 -135)" fill="#13c6cc" fill-rule="evenodd"/></g><g transform="translate(219.052 64.219)"><path d="M74.087,141.174H80.61a1.087,1.087,0,0,0,0-2.174H74.087a1.087,1.087,0,0,0,0,2.174Z" transform="translate(-73 -139)" fill="#13c6cc" fill-rule="evenodd"/></g><g transform="translate(201.658 53.348)"><path d="M59.174,143.481V127.718a.542.542,0,0,1,.544-.544h2.76a1.087,1.087,0,1,0,0-2.174h-2.76A2.717,2.717,0,0,0,57,127.718v15.763a1.087,1.087,0,1,0,2.174,0Z" transform="translate(-57 -125)" fill="#13c6cc" fill-rule="evenodd"/></g><path d="M222,53.348V52.261a3.261,3.261,0,1,0-6.523,0v1.087h-5.393a1.087,1.087,0,1,0,0,2.174H234.5a.544.544,0,0,1,.544.544l.042,4.9a1.087,1.087,0,1,0,2.174-.02l-.042-4.892a2.719,2.719,0,0,0-2.718-2.708Zm-2.174-1.087a1.087,1.087,0,1,0-2.174,0v1.087h2.174Z" transform="translate(1.397 0)" fill="#13c6cc" fill-rule="evenodd"/><g transform="translate(214.745 88.136)"><path d="M90.781,158.081l-.042,7.073a.542.542,0,0,1-.544.544H70.126a1.087,1.087,0,1,0,0,2.174H90.2a2.717,2.717,0,0,0,2.718-2.718c0,.007.042-7.06.042-7.06a1.087,1.087,0,0,0-2.174-.013Z" transform="translate(-69.039 -157)" fill="#13c6cc" fill-rule="evenodd"/></g><path d="M197.5,86.119a5.437,5.437,0,0,0-4.536,5.362V94.2a2.717,2.717,0,0,0,2.718,2.718h14.132a2.718,2.718,0,0,0,2.718-2.718V91.481a5.438,5.438,0,0,0-4.538-5.362,7.609,7.609,0,1,0-10.494,0Zm10.683,8.623h1.631a.544.544,0,0,0,.544-.544V91.481a3.261,3.261,0,0,0-3.261-3.261h-8.7a3.261,3.261,0,0,0-3.261,3.261V94.2a.544.544,0,0,0,.544.544h1.631V91.481a1.087,1.087,0,0,1,2.174,0v3.261h6.523V91.481a1.087,1.087,0,1,1,2.174,0Zm-5.436-19.568a5.436,5.436,0,1,1-5.436,5.436A5.438,5.438,0,0,1,202.745,75.174Z" transform="translate(0 2.091)" fill="#13c6cc" fill-rule="evenodd"/><path d="M234.578,63.8c-1.253,1.253-21.2,21.311-21.2,21.311a1.085,1.085,0,0,0-.315.765V90.22a1.086,1.086,0,0,0,1.087,1.087H218.5a1.087,1.087,0,0,0,.771-.321s9.97-10.035,16.575-16.67l.3.3a.545.545,0,0,1,0,.769L231.926,79.6a2.718,2.718,0,0,0,0,3.843l1.022,1.021a1.087,1.087,0,1,0,1.537-1.537l-1.022-1.021a.545.545,0,0,1,0-.769l4.217-4.217a2.718,2.718,0,0,0,0-3.843l-.3-.3c1.273-1.278,2.346-2.354,3.086-3.095a2.718,2.718,0,0,0,0-3.843L238.421,63.8A2.718,2.718,0,0,0,234.578,63.8ZM229.369,72.1l2.811,2.811c-5.666,5.694-12.584,12.657-14.136,14.218h-2.809V86.321C216.78,84.765,223.7,77.8,229.369,72.1Zm4.345,1.27-2.811-2.81c2.2-2.21,4.089-4.106,5.213-5.23a.544.544,0,0,1,.769,0l2.043,2.043a.544.544,0,0,1,0,.769C237.8,69.268,235.913,71.164,233.714,73.373Z" transform="translate(1.751 1.219)" fill="#13c6cc" fill-rule="evenodd"/></g></g></svg>