<svg xmlns="http://www.w3.org/2000/svg" xmlns:xlink="http://www.w3.org/1999/xlink" width="118" height="118" viewBox="0 0 118 118"><defs><filter id="a" x="0" y="0" width="118" height="118" filterUnits="userSpaceOnUse"><feOffset dy="3" input="SourceAlpha"/><feGaussianBlur stdDeviation="3" result="b"/><feFlood flood-opacity="0.161"/><feComposite operator="in" in2="b"/><feComposite in="SourceGraphic"/></filter></defs><g transform="translate(-4291.252 9938.5)"><g transform="matrix(1, 0, 0, 1, 4291.25, -9938.5)" filter="url(#a)"><circle cx="50" cy="50" r="50" transform="translate(9 6)" fill="#13c6cc"/></g><g transform="translate(4315.253 -9915.348)"><g transform="translate(1.334 1.378)"><path d="M389.29,346.831l14.171,11.264c3.164,2.374,2.908,5.494.494,7.914s-5.525,2.677-7.894-.5l-11.616-14.806Z" transform="translate(-317.396 -286.479)" fill="#c7865b"/><path d="M393.511,350.187l-5.308,5.306-3.753-4.785,4.844-3.874Z" transform="translate(-317.399 -286.482)" fill="#bf7d51"/><path d="M7.5,14.654a7.154,7.154,0,0,1,7.2-7.111H46.2a5.43,5.43,0,0,1,3.821,1.566L70.493,29.384a5.3,5.3,0,0,1,1.577,3.768v44.39l-1.779.681,1.779.755v6.659a7.157,7.157,0,0,1-7.253,7.11l-31.364-.22H14.7a7.154,7.154,0,0,1-7.2-7.111Z" transform="translate(-7.5 -7.543)" fill="#e1ebf0"/><path d="M11.058,14.656v70.76a7.154,7.154,0,0,0,7.2,7.112H14.7a7.154,7.154,0,0,1-7.2-7.112V14.656a7.154,7.154,0,0,1,7.2-7.112h3.558a7.154,7.154,0,0,0-7.2,7.112Z" transform="translate(-7.5 -7.544)" fill="#d2e4e7"/><path d="M185.37,485.5c-.2.016-.4.023-.6.021L153.4,485.3h3.558Z" transform="translate(-127.448 -400.321)" fill="#b4d2d7"/><path d="M260.805,33.175H242.525a4.843,4.843,0,0,1-4.865-4.819v-18.1a5.34,5.34,0,0,1,1.581,1.083l20.47,20.276A5.286,5.286,0,0,1,260.805,33.175Z" transform="translate(-196.72 -9.772)" fill="#d2e4e7"/><g transform="translate(10.808 22.21)"><path d="M90.068,135.072H69.6a1.334,1.334,0,1,1,0-2.668H90.068a1.334,1.334,0,1,1,0,2.668Z" transform="translate(-68.261 -132.404)" fill="#b4d2d7"/></g><g transform="translate(10.808 54.228)"><path d="M91.847,315.072H69.6a1.334,1.334,0,1,1,0-2.668H91.847a1.334,1.334,0,1,1,0,2.668Z" transform="translate(-68.261 -312.404)" fill="#b4d2d7"/></g><g transform="translate(10.448 43.555)"><path d="M98.872,255.072h-31.3a1.334,1.334,0,0,1,0-2.668h31.3a1.334,1.334,0,1,1,0,2.668Z" transform="translate(-66.238 -252.404)" fill="#b4d2d7"/></g><g transform="translate(10.448 64.901)"><path d="M93.535,375.072H67.572a1.334,1.334,0,1,1,0-2.668H93.535a1.334,1.334,0,1,1,0,2.668Z" transform="translate(-66.238 -372.404)" fill="#b4d2d7"/></g><path d="M319.965,266.119l-13.624,13.617-7.73-5.95-5.641-7.418,13.661-13.654,8.757,7.015Z" transform="translate(-242.191 -209.103)" fill="#f5de46"/><path d="M0,0H3.773V18.907H0Z" transform="translate(50.768 57.264) rotate(-45)" fill="#f3d332"/><path d="M280.114,343.582v0c-1.325,1.322-3.255,1.539-4.315.482L262.171,330.44c-1.058-1.057-.845-2.988.48-4.312l0,0c1.323-1.323,3.255-1.539,4.314-.482l.13.13,13.371,13.368.126.126C281.654,340.327,281.439,342.259,280.114,343.582Z" transform="translate(-216.318 -268.51)" fill="#c7865b"/><path d="M281.124,342.59a3.971,3.971,0,0,1-1.01,1.658v0c-1.325,1.322-3.255,1.539-4.315.482l-13.627-13.625c-1.058-1.057-.845-2.988.48-4.312l0,0a3.985,3.985,0,0,1,1.658-1.009,2.61,2.61,0,0,0,.528,2.654l13.627,13.625A2.622,2.622,0,0,0,281.124,342.59Z" transform="translate(-216.318 -269.176)" fill="#bf7d51"/><path d="M383.727,239.7v0c-1.322,1.327-3.248,1.544-4.3.48l-.1-.1-13.334-13.4-.149-.151c-1.055-1.062-.84-3,.48-4.326h0c1.32-1.329,3.246-1.544,4.3-.482l13.59,13.663C385.264,236.441,385.049,238.377,383.727,239.7Z" transform="translate(-301.546 -183.065)" fill="#c7865b"/><path d="M384.732,238.7a4,4,0,0,1-1.005,1.652v0c-1.322,1.327-3.248,1.544-4.3.48l-.1-.1-13.334-13.4-.149-.151c-1.055-1.062-.84-3,.48-4.326h0a3.976,3.976,0,0,1,1.663-1.016,2.637,2.637,0,0,0,.523,2.674l.149.151,13.334,13.4.1.1A2.592,2.592,0,0,0,384.732,238.7Z" transform="translate(-301.546 -183.716)" fill="#bf7d51"/><path d="M153.154,445.114v-3.2a3.557,3.557,0,0,1,3.558-3.558h16.426a3.557,3.557,0,0,1,3.558,3.558v3.2Z" transform="translate(-127.245 -361.723)" fill="#c7865b"/><path d="M176.673,441.538H157.149a.357.357,0,0,1-.347-.44,3.56,3.56,0,0,1,3.463-2.744h-3.558a3.559,3.559,0,0,0-3.538,3.184h0v0c0,.007,0,.014,0,.02-.011.115-.018.231-.018.349v3.2h23.542v-3.2A3.7,3.7,0,0,0,176.673,441.538Z" transform="translate(-127.243 -361.722)" fill="#bf7d51"/><path d="M162.7,477.161h-29a.889.889,0,0,1-.889-.889v-1.459a3.557,3.557,0,0,1,3.558-3.558h23.665a3.557,3.557,0,0,1,3.558,3.558v1.459A.889.889,0,0,1,162.7,477.161Z" transform="translate(-110.517 -388.771)" fill="#c7865b"/><path d="M139.925,468.788a3.561,3.561,0,0,0-3.558,3.558V473.8a.889.889,0,0,0,.889.889H133.7a.889.889,0,0,1-.889-.889v-1.459a3.558,3.558,0,0,1,3.558-3.558h.06l1.631-.534Z" transform="translate(-110.52 -386.304)" fill="#bf7d51"/></g><g transform="translate(0 0.044)"><path d="M69.6,135.072H90.068a1.334,1.334,0,1,0,0-2.668H69.6a1.334,1.334,0,1,0,0,2.668Z" transform="translate(-56.119 -108.86)"/><path d="M69.6,312.4a1.334,1.334,0,1,0,0,2.668H91.847a1.334,1.334,0,1,0,0-2.668Z" transform="translate(-56.119 -256.842)"/><path d="M226.467,195.072a1.334,1.334,0,1,0,0-2.668H211.834a1.334,1.334,0,0,0,0,2.668Z" transform="translate(-173.057 -158.187)"/><path d="M67.572,195.072H87.007a1.334,1.334,0,1,0,0-2.668H67.572a1.334,1.334,0,1,0,0,2.668Z" transform="translate(-54.456 -158.187)"/><path d="M67.572,255.072h31.3a1.334,1.334,0,1,0,0-2.668h-31.3a1.334,1.334,0,0,0,0,2.668Z" transform="translate(-54.456 -207.515)"/><path d="M67.572,375.072H93.535a1.334,1.334,0,1,0,0-2.668H67.572a1.334,1.334,0,1,0,0,2.668Z" transform="translate(-54.456 -306.169)"/><path d="M91.06,76.634a6.425,6.425,0,0,0-2.845-4.7l-11.6-9.168,2.637-2.635a3.869,3.869,0,0,0,1.673.374h0a5.066,5.066,0,0,0,3.532-1.549l.009-.009c1.826-1.843,2.039-4.621.473-6.2L71.354,39.09a4.113,4.113,0,0,0-4.828-.523V26.987a6.594,6.594,0,0,0-1.972-4.716L44.083,2A6.72,6.72,0,0,0,39.323.044H8.529A8.5,8.5,0,0,0,0,8.489v4.946a1.334,1.334,0,1,0,2.668,0V8.489A5.826,5.826,0,0,1,8.529,2.712l31.7.106V19.963a6.183,6.183,0,0,0,6.2,6.152H63.758l.1,15.574a4.242,4.242,0,0,0,.163,3.166L51.975,56.9a4.7,4.7,0,0,0-5.24,1.147c-1.706,1.64-2.193,4.514-.49,6.21L59.873,77.877a3.967,3.967,0,0,0,3.986.853,6.014,6.014,0,0,1-1.7,4.809,5.835,5.835,0,0,1-4.209,1.709l-2.732-.02a4.912,4.912,0,0,0-3.1-2.531V81.568a4.9,4.9,0,0,0-4.892-4.892H30.8a4.9,4.9,0,0,0-4.892,4.892V82.7a4.911,4.911,0,0,0-2.992,2.33H8.529A5.826,5.826,0,0,1,2.668,79.25V19.656a1.334,1.334,0,1,0-2.668,0V79.25A8.5,8.5,0,0,0,8.529,87.7h13.76v1.183A2.226,2.226,0,0,0,24.513,91.1H30.6a1.334,1.334,0,1,0,0-2.668H24.957V87.42A2.226,2.226,0,0,1,27.181,85.2H50.846A2.226,2.226,0,0,1,53.07,87.42v1.014H36.821a1.334,1.334,0,1,0,0,2.668H53.514a2.226,2.226,0,0,0,2.223-2.223V87.9l2.256.016a8.517,8.517,0,0,0,6.044-2.484,8.344,8.344,0,0,0,2.489-5.96V76.879a4.539,4.539,0,0,0,.7-4.728l2.561-2.56,9.15,11.633c3.281,3.987,6.62,3.586,9.9.625a6.793,6.793,0,0,0,2.221-5.215ZM30.8,79.344H47.227a2.226,2.226,0,0,1,2.223,2.223v.961H28.577v-.961A2.226,2.226,0,0,1,30.8,79.344ZM67.052,41.452c.7-.642,1.625-1.1,2.41-.481L83.051,54.631c.519.523.295,1.665-.48,2.445-.718.676-1.773,1.147-2.519.374l-5.033-5.06a1.334,1.334,0,1,0-1.892,1.882l4.1,4.119c-3.532,3.526-8.209,8.2-11.74,11.734L54,58.643,65.772,46.878,68.7,49.822a1.334,1.334,0,0,0,1.892-1.882l-3.874-3.894c-.708-.558-.5-1.731.334-2.595ZM42.9,19.963V4.577L61.95,23.447H46.428a3.511,3.511,0,0,1-3.53-3.484ZM61.758,75.989,48.131,62.364c-.612-.786-.165-1.718.474-2.418.847-.831,2.017-1.049,2.566-.36l13.5,13.495c.615.789.161,1.727-.482,2.426-.775.775-1.91,1-2.428.483ZM86.95,79.965c-2.02,2.02-4.205,1.965-5.9-.378l-9.356-11.9,3.025-3.023L86.572,74.04C88.912,75.741,88.966,77.94,86.95,79.965Z" transform="translate(0 -0.044)"/></g></g></g></svg>