<svg xmlns="http://www.w3.org/2000/svg" xmlns:xlink="http://www.w3.org/1999/xlink" width="157.334" height="157.333" viewBox="0 0 157.334 157.333"><defs><filter id="a" x="0" y="0" width="157.334" height="157.333" filterUnits="userSpaceOnUse"><feOffset dy="15" input="SourceAlpha"/><feGaussianBlur stdDeviation="7.5" result="b"/><feFlood flood-opacity="0.161"/><feComposite operator="in" in2="b"/><feComposite in="SourceGraphic"/></filter></defs><g transform="translate(-18180.73 8762.977)"><g transform="translate(18193.91 -8755.477)"><g transform="translate(0 0)"><g transform="matrix(1, 0, 0, 1, -13.18, -7.5)" filter="url(#a)"><path d="M0,56.167A56.167,56.167,0,1,0,56.167,0,56.167,56.167,0,0,0,0,56.167" transform="translate(22.5 7.5)" fill="#f9f9f9"/></g><path d="M0,2.336A2.336,2.336,0,0,0,1.622,4.56,64.025,64.025,0,0,0,65.532,66.284,63.744,63.744,0,0,0,99.865,56.3l-.81-1.27a62.239,62.239,0,0,1-33.524,9.752A62.515,62.515,0,0,1,3.132,4.53,2.335,2.335,0,1,0,0,2.336" transform="translate(0 54.716)" fill="#13c6cc"/><path d="M50.949,0A50.949,50.949,0,1,1,0,50.949,50.949,50.949,0,0,1,50.949,0Z" transform="translate(14.383 5)" fill="#13c6cc"/></g><g transform="translate(-895.436 -2889.61)"><g transform="translate(929.617 2912.693)"><g transform="translate(0 0)"><path d="M52.99,42.563l-6.651-1.535-6.363-3.636V32.5a10.944,10.944,0,0,0,2.947-6.522h1.05a3.99,3.99,0,0,0,2.3-7.253c.7-3.554,1.8-12.334-3.163-16.507-3.692-3.1-9.822-2.95-18.228.457a7.392,7.392,0,0,0-5.629,1.129c-1.5,1.179-2.266,3.075-2.266,5.636v9.925a3.977,3.977,0,0,0,3,6.613h1.05A10.944,10.944,0,0,0,23.986,32.5v4.89l-6.363,3.636-6.652,1.535A8.952,8.952,0,0,0,4,51.327V62.955a1,1,0,0,0,1,1H58.963a1,1,0,0,0,1-1V51.327a8.953,8.953,0,0,0-6.972-8.764ZM30.632,54.96h2.7l3.109,7H27.523Zm2.671-2H30.659L29,48.819l2.979-1.7,2.979,1.7ZM31.981,35.973a11.049,11.049,0,0,0,6-1.775v3.4l-6,6.853-6-6.853V34.2a11.123,11.123,0,0,0,6,1.775ZM33.537,45.7l5.652-6.46,5.225,2.985-5.652,6.46ZM43.973,23.981h-1v-4h1a2,2,0,1,1,0,4ZM18.99,9.441c0-1.911.5-3.275,1.492-4.057a4.6,4.6,0,0,1,2.845-.841,6.965,6.965,0,0,1,1.42.142,1,1,0,0,0,.619-.046C33.171,1.428,38.709,1.13,41.827,3.75,45.84,7.123,45.015,14.6,44.381,18.007c-.3-.032-1.083-.021-1.408-.021v-5a.934.934,0,0,0-.687-.933.979.979,0,0,0-.52-.045l-7.783,1.645A17.707,17.707,0,0,1,23.8,12.726q-.687-.282-1.352-.625a1,1,0,0,0-1.457.888v5h-1a4.773,4.773,0,0,0-1,.127Zm-1,12.541a2.021,2.021,0,0,1,2-2h1v4h-1a2,2,0,0,1-2-2Zm5-3V14.553A19.479,19.479,0,0,0,34.4,15.616l6.579-1.394V24.981a8.994,8.994,0,1,1-17.988,0Zm1.785,20.261,5.652,6.46L25.2,48.69l-5.652-6.46ZM6,51.327a6.961,6.961,0,0,1,5.423-6.815l6.212-1.434,6.6,7.544a1,1,0,0,0,1.248.21l1.769-1.011,1.648,4.12-3.562,8.015H14.993v-5a1,1,0,0,0-2,0v5H6ZM57.963,61.956h-7v-5a1,1,0,1,0-2,0v5H38.626l-3.563-8.015,1.648-4.12,1.769,1.011a1,1,0,0,0,1.248-.21l6.6-7.544,6.212,1.434a6.962,6.962,0,0,1,5.422,6.815Z" transform="translate(-4 -0.002)" fill="#232328"/></g><g transform="translate(44.772 2)"><path d="M44.709,31.435a10.2,10.2,0,1,0,5.046,4.4,10.266,10.266,0,0,0-3.547-3.644.34.34,0,0,0-.354.58,9.472,9.472,0,1,1-1.4-.7.34.34,0,1,0,.254-.63Z" transform="translate(-29.31 -29.31)"/><g transform="translate(1.424 1.278)"><path d="M11.645,21.79A10.145,10.145,0,1,1,21.79,11.645,10.156,10.156,0,0,1,11.645,21.79Zm0-18.937a8.792,8.792,0,1,0,8.792,8.792,8.8,8.8,0,0,0-8.792-8.792Z" transform="translate(-1.5 -1.5)"/><path d="M7.194,12.389a5.194,5.194,0,1,1,5.194-5.194A5.194,5.194,0,0,1,7.194,12.389Zm0-1.039a4.155,4.155,0,1,0-2.938-1.217A4.156,4.156,0,0,0,7.194,11.35Z" transform="translate(3.123 3.083)" stroke="#000" stroke-width="1"/></g></g></g></g></g></g></svg>