<svg xmlns="http://www.w3.org/2000/svg" xmlns:xlink="http://www.w3.org/1999/xlink" width="141.987" height="143.184" viewBox="0 0 141.987 143.184"><defs><filter id="a" x="7.493" y="17.184" width="126" height="126" filterUnits="userSpaceOnUse"><feOffset dy="3" input="SourceAlpha"/><feGaussianBlur stdDeviation="3" result="b"/><feFlood flood-opacity="0.161"/><feComposite operator="in" in2="b"/><feComposite in="SourceGraphic"/></filter></defs><g transform="translate(-519.507 -924.092)"><g transform="matrix(1, 0, 0, 1, 519.51, 924.09)" filter="url(#a)"><circle cx="54" cy="54" r="54" transform="translate(16.49 23.18)" fill="#13c6cc"/></g><g transform="translate(560.172 965.411)"><path d="M86,85.944v7.391a1.5,1.5,0,0,0,1.5,1.5h54.668a1.5,1.5,0,0,0,1.5-1.5V85.944a14.026,14.026,0,0,0-14.038-13.92,7.754,7.754,0,0,1-6.285-3.308,8.719,8.719,0,0,1-1.395-5.71l-.028-.069a18.537,18.537,0,0,0,11.448-17.131V45.22a4.651,4.651,0,0,0,3.786-1.883s0,0,0,0a4.544,4.544,0,0,0,.893-2.707V22.379a5.055,5.055,0,0,0-5.055-5.055,14.89,14.89,0,0,0-13.826-9.361c-8.909,0-14.635-.067-15.112.172-.112.017-1.145.2-1.226.242a14.889,14.889,0,0,0-11.4,14.478v17.5A4.868,4.868,0,0,0,96.3,45.22v.586a18.537,18.537,0,0,0,11.448,17.131l-.028.069a8.714,8.714,0,0,1-1.395,5.71,7.753,7.753,0,0,1-6.285,3.308A14.026,14.026,0,0,0,86,85.944Z" transform="translate(-84.502 -6.465)" fill="#ffdfba"/><path d="M115.973,22.854v17.5a4.868,4.868,0,0,0,4.868,4.868V34.853a1.5,1.5,0,0,1,1.406-1.494,53.6,53.6,0,0,0,25.484-8.2,1.5,1.5,0,0,1,2.256.889,7.384,7.384,0,0,0,3.243,4.564,9.847,9.847,0,0,0,3.744,1.093,1.49,1.49,0,0,1,.936,1.385V45.22a4.651,4.651,0,0,0,3.786-1.883s0,0,0,0a4.54,4.54,0,0,0,.809-1.835c.12-.612.084.769.084-19.119a5.055,5.055,0,0,0-5.055-5.055A14.893,14.893,0,0,0,143.71,7.963c-8.909,0-14.635-.067-15.112.172a14.855,14.855,0,0,0-4.027,1.221c-.022.011-.379.176-.393.191a14.889,14.889,0,0,0-8.2,13.308Z" transform="translate(-109.046 -6.465)" fill="#42434d"/><path d="M86,349.728v7.391a1.5,1.5,0,0,0,1.5,1.5h54.668a1.5,1.5,0,0,0,1.5-1.5v-7.391a14.026,14.026,0,0,0-14.038-13.92,7.754,7.754,0,0,1-6.285-3.308l-7.4,8.219a1.5,1.5,0,0,1-2.228,0c-2.138-2.377-.393-.437-7.4-8.219a7.753,7.753,0,0,1-6.285,3.308A14.026,14.026,0,0,0,86,349.728Z" transform="translate(-84.502 -270.249)" fill="#d6f4fc"/><path d="M255.07,335.182c.023.049,1.871,8.456,1.859,8.4a1.378,1.378,0,0,0,2.386.607c4.916-5.661,4.245-4.923,4.743-5.372l-5.688-6.321a7.779,7.779,0,0,1-3.3,2.683Z" transform="translate(-236.55 -270.249)" fill="#e8f8fc"/><path d="M182.473,332.5l-5.553,6.171,4.606,5.458a1.378,1.378,0,0,0,2.4-.592c.012-.053,1.825-8.3,1.849-8.354A7.778,7.778,0,0,1,182.473,332.5Z" transform="translate(-143.634 -270.249)" fill="#e8f8fc"/><path d="M141,119.494a18.535,18.535,0,1,0,37.069,0v-12.71a1.5,1.5,0,0,0-1.418-1.5,6.991,6.991,0,0,1-6.506-5.549,1.5,1.5,0,0,0-2.255-.889,53.588,53.588,0,0,1-25.484,8.2A1.5,1.5,0,0,0,141,108.542Z" transform="translate(-129.205 -80.154)" fill="#ffebd2"/><path d="M118.132,13.579h12.926A14.891,14.891,0,0,1,144.44,21.94a2.065,2.065,0,0,0,1.462,1.1,5.057,5.057,0,0,1,4.036,4.952v3.714a1.49,1.49,0,0,1,.936,1.385v8.891a2.131,2.131,0,0,0,3.872,1.232,4.637,4.637,0,0,0,.687-1.55c.169-.727.122.679.122-19.289a5.055,5.055,0,0,0-5.055-5.055,14.893,14.893,0,0,0-13.826-9.361c-8.849,0-14.634-.067-15.112.172A14.978,14.978,0,0,0,117.877,9.2c-.059.025-.708.317-.736.344A2.131,2.131,0,0,0,118.132,13.579Z" transform="translate(-102.011 -6.465)" fill="#4d4e59"/><path d="M200.87,304.773a18.586,18.586,0,0,0,14.652,0,11.6,11.6,0,0,1-.212-3.074l-.028-.069a18.573,18.573,0,0,1-14.172,0l-.028.069a11.607,11.607,0,0,1-.212,3.074Z" transform="translate(-177.866 -245.159)" fill="#ffd6a6"/><path d="M86,351.215a13.962,13.962,0,0,1,13.315,13.946v5.1H102.5a1.5,1.5,0,0,0,1.5-1.5v-7.38a14.041,14.041,0,0,0-14.043-13.932,7.755,7.755,0,0,1-2.979-.625c-.023.049-.962,4.331-.974,4.385Z" transform="translate(-44.834 -281.897)" fill="#e8f8fc"/><path d="M315.875,351.215a13.962,13.962,0,0,0-13.315,13.946v5.1h-3.183a1.5,1.5,0,0,1-1.5-1.5v-7.38a14.041,14.041,0,0,1,14.043-13.932,7.755,7.755,0,0,0,2.979-.625C314.925,346.879,315.864,351.161,315.875,351.215Z" transform="translate(-296.382 -281.897)" fill="#bdeffc"/><path d="M178.4,340.363c-.279,1.267-.577,2.617-.829,3.765a1.377,1.377,0,0,0,2.4-.591c.72-3.269,1.834-8.321,1.849-8.354a7.78,7.78,0,0,1-3.3-2.683l-1.6,1.779A7.229,7.229,0,0,1,178.4,340.363Z" transform="translate(-139.68 -270.249)" fill="#f1fafc"/><path d="M141.018,102.97a9.36,9.36,0,0,0,3.434,6.476,13.678,13.678,0,0,1,5.4,11.008v4.654a2.286,2.286,0,0,0,4.412.969,18.493,18.493,0,0,0,1.2-6.586v-12.71a1.5,1.5,0,0,0-1.418-1.5,6.991,6.991,0,0,1-6.506-5.55,1.5,1.5,0,0,0-2.253-.89c-.947.6-1.976,1.207-3.089,1.809a2.3,2.3,0,0,0-1.181,2.314Z" transform="translate(-106.6 -80.151)" fill="#fff3e4"/><path d="M212.8,365.61l-2.8,19.8h11.233l-2.66-19.946-1.843,2.047a1.5,1.5,0,0,1-2.226,0Z" transform="translate(-185.287 -297.039)" fill="#f7c46b"/><path d="M210,367.634l2.37,17.773h2.247l-2.66-19.946Z" transform="translate(-178.671 -297.039)" fill="#dfa849"/><path d="M93.459,64.061a6.222,6.222,0,0,0,5.353-3.005,1.5,1.5,0,1,1,2.558,1.558,9.246,9.246,0,0,1-3.133,3.122l1.552,7.045,3.742-4.309a1.5,1.5,0,1,1,2.183-2.055l2.633,3.028,6.634-7.371a9.148,9.148,0,0,1-1-3.514A20.054,20.054,0,0,1,88.3,39.34V26.96a1.5,1.5,0,1,1,3,0V39.34a17.037,17.037,0,1,0,34.074,0V26.629a8.457,8.457,0,0,1-7.864-6.655A51.235,51.235,0,0,1,96.94,27.582a1.5,1.5,0,0,1-.415-2.967,48.267,48.267,0,0,0,21.237-8.427,1.5,1.5,0,0,1,2.363,1.232c0,.037.014,3.752,2.831,5.447a6.165,6.165,0,0,0,3.894.722,1.5,1.5,0,0,1,1.5,1.325c.016.145.011-.348.011,11.985a3.093,3.093,0,0,0,1.685-2.74V15.914a3.561,3.561,0,0,0-3.557-3.557,1.5,1.5,0,0,1-1.391-.942A13.33,13.33,0,0,0,112.663,3H99.819A13.409,13.409,0,0,0,86.425,16.389V34.16a1.5,1.5,0,1,1-3,0V16.389A16.408,16.408,0,0,1,99.819,0h12.845a16.3,16.3,0,0,1,14.844,9.44,6.563,6.563,0,0,1,5.536,6.474V34.16a6.111,6.111,0,0,1-4.7,5.92,20.063,20.063,0,0,1-11.405,17.344v.4a6.248,6.248,0,0,0,6.259,6.242A15.45,15.45,0,0,1,138.659,79.52v8.847a1.5,1.5,0,1,1-3,0V79.52A12.456,12.456,0,0,0,123.2,67.057a9.348,9.348,0,0,1-1.957-.208l-2.09,9.485a1.5,1.5,0,0,1-2.594.66l-2.951-3.4,1.823,14.586a1.5,1.5,0,0,1-2.972.371L110.352,71.7c-.1.106-.928,1.039-1.035,1.134a1.5,1.5,0,0,1-2.11-.132c-.3-.339.47.541-.9-1.032L104.2,88.553a1.5,1.5,0,0,1-2.972-.371L103.05,73.6l-2.951,3.4a1.5,1.5,0,0,1-2.594-.66l-2.09-9.485a9.406,9.406,0,0,1-1.957.208A12.457,12.457,0,0,0,81,79.52v8.847a1.5,1.5,0,1,1-3,0V79.52A15.45,15.45,0,0,1,93.459,64.061Zm23.409,8.719,1.553-7.047a9.3,9.3,0,0,1-1.6-1.225l-3.631,4.035Z" transform="translate(-78 0)"/></g><g transform="translate(520.507 925.093)"><g transform="translate(0 0)"><g transform="translate(0 59.348)"><g transform="translate(106.42)"><path d="M19.932,130.1l15.96-9.412a1.231,1.231,0,0,0,0-2.121l-15.96-9.411a1.231,1.231,0,0,0-1.857,1.06v4.345H4.162a1.231,1.231,0,0,0-1.231,1.231v7.671a1.231,1.231,0,0,0,1.231,1.231H18.075v4.345A1.231,1.231,0,0,0,19.932,130.1Z" transform="translate(-2.931 -108.979)" fill="#f7c46b" stroke="#0d0909" stroke-width="2"/></g><g transform="translate(0)"><path d="M209.656,130.1l-15.96-9.412a1.231,1.231,0,0,1,0-2.121l15.96-9.411a1.231,1.231,0,0,1,1.857,1.06v4.345h13.913a1.231,1.231,0,0,1,1.231,1.231v7.671a1.231,1.231,0,0,1-1.231,1.231H211.513v4.345A1.231,1.231,0,0,1,209.656,130.1Z" transform="translate(-193.091 -108.979)" fill="#f7c46b" stroke="#0d0909" stroke-width="2"/></g></g><g transform="translate(59.35)"><path d="M130.1,19.5,120.684,3.537a1.231,1.231,0,0,0-2.121,0L109.152,19.5a1.231,1.231,0,0,0,1.061,1.857h4.345V35.265a1.231,1.231,0,0,0,1.231,1.231h7.671a1.231,1.231,0,0,0,1.231-1.231V21.353h4.345A1.231,1.231,0,0,0,130.1,19.5Z" transform="translate(-108.98 -2.931)" fill="#f7c46b" stroke="#0d0909" stroke-width="2"/></g></g></g></g></svg>