<svg xmlns="http://www.w3.org/2000/svg" width="50.013" height="50.007" viewBox="0 0 50.013 50.007"><g transform="translate(0 0.002)"><path d="M2.525,50h31.62a2.534,2.534,0,0,0,1.917-.869,2.491,2.491,0,0,0,.583-1.984L35.62,40.067A5.8,5.8,0,0,0,32.26,35.6l-9.076-4.18-.009-.1a10.4,10.4,0,0,0,4.334-8.1,3.356,3.356,0,0,0,1.6-.959,3.629,3.629,0,0,0,.229-.3A12.374,12.374,0,0,0,37.5,25,12.5,12.5,0,1,0,25.684,8.45a11.7,11.7,0,0,0-1.606-1.093,5.824,5.824,0,0,0-11.486,0A11.668,11.668,0,0,0,6.667,17.5V20a3.34,3.34,0,0,0,2.492,3.226,10.4,10.4,0,0,0,4.334,8.1l-.009.1L4.417,35.6A5.8,5.8,0,0,0,1.05,40.067L.025,47.151a2.491,2.491,0,0,0,.583,1.982A2.531,2.531,0,0,0,2.525,50Zm19.13-16.967A3.334,3.334,0,1,1,15,33.353c0-.113.008-.22.013-.317l.068-.75a14.49,14.49,0,0,0,1.812.8,4.291,4.291,0,0,0,2.882,0,14.613,14.613,0,0,0,1.812-.8ZM37.5,1.666A10.834,10.834,0,1,1,29.98,20.275c.007-.09.007-.182.007-.273H30V17.5a11.608,11.608,0,0,0-2.971-7.751A10.9,10.9,0,0,1,37.5,1.666Zm-19.169,2.5a4.2,4.2,0,0,1,3.7,2.279,11.5,11.5,0,0,0-7.406,0A4.2,4.2,0,0,1,18.335,4.167Zm0,3.334a10.005,10.005,0,0,1,9.983,9.639,3.412,3.412,0,0,0-1.694-.472,3.578,3.578,0,0,1-3.445-2.152,2.133,2.133,0,0,0-1.565-1.167,1.955,1.955,0,0,0-1.731.562c-2.693,2.72-9.811,2.757-9.882,2.757a3.291,3.291,0,0,0-1.648.453A10.005,10.005,0,0,1,18.335,7.5Zm-7.5,15.089A.833.833,0,0,0,10,21.668a1.667,1.667,0,0,1,0-3.334c.321,0,7.885-.037,11.067-3.254a.3.3,0,0,1,.278-.088.465.465,0,0,1,.338.26,5.241,5.241,0,0,0,4.928,3.083,1.735,1.735,0,0,1,1.719,1.534,1.667,1.667,0,0,1-1.662,1.8.833.833,0,0,0-.828.921c.026.258.563,6.358-6.626,8.928a2.625,2.625,0,0,1-1.76,0C10.269,28.949,10.8,22.854,10.834,22.589ZM2.7,40.305a4.143,4.143,0,0,1,2.407-3.187l8.227-3.79v.024a5,5,0,1,0,10-.025l8.233,3.792a4.144,4.144,0,0,1,2.4,3.186L35,47.39a.81.81,0,0,1-.2.655.855.855,0,0,1-.658.293H2.525a.854.854,0,0,1-.655-.3.813.813,0,0,1-.2-.653Z" fill="#13c6cc"/></g></svg>