<svg xmlns="http://www.w3.org/2000/svg" xmlns:xlink="http://www.w3.org/1999/xlink" width="126" height="126" viewBox="0 0 126 126"><defs><filter id="a" x="0" y="0" width="126" height="126" filterUnits="userSpaceOnUse"><feOffset dy="3" input="SourceAlpha"/><feGaussianBlur stdDeviation="3" result="b"/><feFlood flood-opacity="0.161"/><feComposite operator="in" in2="b"/><feComposite in="SourceGraphic"/></filter></defs><g transform="translate(-316.936 -2216.559)"><g transform="matrix(1, 0, 0, 1, 316.94, 2216.56)" filter="url(#a)"><circle cx="54" cy="54" r="54" transform="translate(9 6)" fill="#13c6cc"/></g><g transform="translate(336.617 2240.691)"><path d="M57.835,27.457l-.267,1.151L56,27.907a2.574,2.574,0,0,0-1.081-.225H50.7v-8.1l-9.24,1.966a28.035,28.035,0,0,1-5.617.576,27.31,27.31,0,0,1-10.424-2.066l0,7.627H21.213a2.8,2.8,0,0,0-1.868.716L17,30.519V30.49a4.171,4.171,0,0,1,1.4-3.117V12.867c0-10.462,9.83-8.046,9.83-8.046C63-9.488,57.92,20.52,56.571,26.629a4.026,4.026,0,0,1,1.264.829Z" transform="translate(5.255 0.402)" fill="#494a59"/><path d="M34.83,33.156A13.967,13.967,0,0,1,25,29.14V52.815l9.83,11.234,9.83-11.234V29.14A13.967,13.967,0,0,1,34.83,33.156Z" transform="translate(8.489 11.779)" fill="#eac2b9"/><path d="M72.121,45.82l-9.547-2.2L52.744,38l-9.83,11.234L33.085,38l-9.83,5.617-9.547,2.2A11.234,11.234,0,0,0,5,56.766v16.34H80.829V56.766A11.234,11.234,0,0,0,72.121,45.82Z" transform="translate(0.404 15.36)" fill="#e6ecff"/><path d="M45.617,19H40v8.425h5.617a4.213,4.213,0,1,0,0-8.425Z" transform="translate(14.553 7.68)" fill="#eac2b9"/><path d="M21.213,19a4.213,4.213,0,0,0,0,8.425H26.83V19Z" transform="translate(5.255 7.68)" fill="#eac2b9"/><path d="M18,43.617l9.83,11.234,9.83-5.617L27.83,38Z" transform="translate(5.659 15.36)" fill="#d0dbf7"/><path d="M51.659,43.617,41.83,54.851,32,49.234,41.83,38Z" transform="translate(11.319 15.36)" fill="#d0dbf7"/><path d="M26,69.872l5.617-12.638L28.486,49.4l5.94-3.4,5.94,3.4-3.131,7.836,5.617,12.638Z" transform="translate(8.893 18.594)" fill="#4294ff"/><path d="M39.65,49.4l-3.131,7.836H30.9L27.77,49.4,33.71,46Z" transform="translate(9.609 18.594)" fill="#376cfb"/><path d="M39.149,15.313A25.767,25.767,0,0,1,22,13V29.851a14.042,14.042,0,1,0,28.085,0V13Z" transform="translate(7.276 5.254)" fill="#ffddd4"/><path d="M72.841,59.809l-9.346-2.157-8.942-5.109V45.671a15.378,15.378,0,0,0,4.142-9.165H60.17a5.607,5.607,0,0,0,3.238-10.192c.979-4.994,2.528-17.332-4.445-23.2-5.188-4.358-13.8-4.146-25.613.642a10.387,10.387,0,0,0-7.91,1.587C23.326,7,22.255,9.668,22.255,13.266V27.213a5.589,5.589,0,0,0,4.213,9.293h1.475a15.378,15.378,0,0,0,4.142,9.165v6.871l-8.941,5.109L13.8,59.809A12.579,12.579,0,0,0,4,72.124V88.463a1.4,1.4,0,0,0,1.4,1.4H81.233a1.4,1.4,0,0,0,1.4-1.4V72.124a12.58,12.58,0,0,0-9.8-12.315ZM41.423,77.229h3.791l4.369,9.83H37.054Zm3.754-2.808H41.461L39.133,68.6l4.186-2.392L47.5,68.6ZM43.319,50.548a15.526,15.526,0,0,0,8.425-2.494v4.774l-8.425,9.63-8.425-9.63V48.054a15.63,15.63,0,0,0,8.425,2.494Zm2.187,13.675,7.943-9.077,7.342,4.195-7.943,9.077ZM60.17,33.7h-1.4V28.081h1.4a2.808,2.808,0,1,1,0,5.617ZM25.064,13.266c0-2.685.705-4.6,2.1-5.7a6.462,6.462,0,0,1,4-1.182,9.787,9.787,0,0,1,2,.2,1.41,1.41,0,0,0,.87-.064c10.969-4.512,18.751-4.931,23.132-1.25,5.639,4.741,4.48,15.241,3.589,20.034-.416-.045-1.522-.03-1.979-.03V18.251A1.312,1.312,0,0,0,57.8,16.94a1.376,1.376,0,0,0-.73-.063L46.133,19.189a24.882,24.882,0,0,1-14.315-1.308q-.966-.4-1.9-.878a1.4,1.4,0,0,0-2.047,1.248v7.021h-1.4a6.707,6.707,0,0,0-1.4.178Zm-1.4,17.623a2.84,2.84,0,0,1,2.808-2.808h1.4V33.7h-1.4a2.812,2.812,0,0,1-2.808-2.809Zm7.021-4.213V20.449a27.372,27.372,0,0,0,16.032,1.493l9.244-1.958V35.1a12.638,12.638,0,1,1-25.276,0Zm2.508,28.47,7.943,9.077-7.342,4.195-7.943-9.077ZM6.809,72.124a9.782,9.782,0,0,1,7.62-9.577l8.729-2.015,9.276,10.6a1.4,1.4,0,0,0,1.753.295l2.486-1.42L38.987,75.8,33.982,87.058H19.447V80.037a1.4,1.4,0,0,0-2.808,0v7.021H6.809Zm73.02,14.935H70V80.037a1.4,1.4,0,1,0-2.808,0v7.021H52.657L47.651,75.8l2.316-5.789,2.486,1.42a1.4,1.4,0,0,0,1.754-.295l9.276-10.6,8.729,2.015a9.783,9.783,0,0,1,7.619,9.577Z" transform="translate(0 0)" fill="#232328"/></g><g transform="translate(404.936 2240.693)"><circle cx="15.81" cy="15.81" r="15.81" transform="translate(0.477 0.477)" fill="#f4fbff"/><path d="M13.857,0A13.857,13.857,0,1,1,0,13.857,13.857,13.857,0,0,1,13.857,0Z" transform="translate(2.43 2.43)" fill="#13cc3e"/><path d="M151.542,52.116a13.861,13.861,0,0,1-12.313,24.67,13.859,13.859,0,1,0,12.313-24.67Z" transform="translate(-130.371 -48.8)" fill="#05a32a"/><path d="M137.356,126.313h-5.979a.088.088,0,0,1-.088-.088v-5.979a.088.088,0,0,0-.088-.088h-4.8a.088.088,0,0,0-.088.088v5.979a.088.088,0,0,1-.088.088h-5.979a.088.088,0,0,0-.088.088v4.8a.088.088,0,0,0,.088.088h5.979a.088.088,0,0,1,.088.088v5.979a.088.088,0,0,0,.088.088h4.8a.088.088,0,0,0,.088-.088v-5.979a.088.088,0,0,1,.088-.088h5.979a.088.088,0,0,0,.088-.088v-4.8A.088.088,0,0,0,137.356,126.313Z" transform="translate(-112.514 -112.514)" fill="#f4fbff"/><path d="M227.935,216.891H225.4a1.8,1.8,0,0,1,.079.528v1.376a1.8,1.8,0,0,1-1.8,1.8h-2.554a1.8,1.8,0,0,0-1.8,1.8v2.553a1.8,1.8,0,0,1-1.8,1.8h-.631v1.185a.088.088,0,0,0,.088.088h4.8a.088.088,0,0,0,.088-.088v-5.979a.088.088,0,0,1,.088-.088h5.979a.088.088,0,0,0,.088-.088v-4.8A.088.088,0,0,0,227.935,216.891Z" transform="translate(-203.093 -203.092)" fill="#e4f6ff"/><path d="M16.287,0A16.289,16.289,0,0,0,8.54,30.617a.477.477,0,1,0,.455-.839,15.253,15.253,0,1,1,2.033.916.477.477,0,0,0-.327.9A16.289,16.289,0,1,0,16.287,0Z"/><path d="M50.386,31.733a14.332,14.332,0,1,0,7.09,6.179,14.426,14.426,0,0,0-4.984-5.121.477.477,0,0,0-.5.815,13.31,13.31,0,1,1-1.965-.987.477.477,0,1,0,.356-.885Z" transform="translate(-28.747 -28.747)"/><path d="M119.378,130.9h4.8a.566.566,0,0,0,.565-.565v-5.589h5.589a.566.566,0,0,0,.565-.565v-4.8a.566.566,0,0,0-.565-.565h-5.589v-5.589a.566.566,0,0,0-.565-.565h-4.8a.566.566,0,0,0-.565.565v2.627a.477.477,0,1,0,.954,0v-2.238h4.022V119.2a.565.565,0,0,0,.565.565h5.589v4.022h-5.589a.565.565,0,0,0-.565.565v5.589h-4.022v-5.589a.565.565,0,0,0-.565-.565h-5.589v-4.022H119.2a.565.565,0,0,0,.565-.565v-1.125a.477.477,0,1,0-.954,0v.735h-5.589a.566.566,0,0,0-.565.565v4.8a.566.566,0,0,0,.565.565h5.589v5.589A.565.565,0,0,0,119.378,130.9Z" transform="translate(-105.491 -105.491)"/></g></g></svg>