<svg xmlns="http://www.w3.org/2000/svg" xmlns:xlink="http://www.w3.org/1999/xlink" width="126" height="126" viewBox="0 0 126 126"><defs><filter id="a" x="0" y="0" width="126" height="126" filterUnits="userSpaceOnUse"><feOffset dy="3" input="SourceAlpha"/><feGaussianBlur stdDeviation="3" result="b"/><feFlood flood-opacity="0.161"/><feComposite operator="in" in2="b"/><feComposite in="SourceGraphic"/></filter></defs><g transform="translate(-581.75 -864.391)"><g transform="matrix(1, 0, 0, 1, 581.75, 864.39)" filter="url(#a)"><circle cx="54" cy="54" r="54" transform="translate(9 6)" fill="#1b3f5e"/></g><g transform="translate(604.971 890.024)"><g transform="translate(1.823 27.228)"><ellipse cx="4.315" cy="5.523" rx="4.315" ry="5.523" transform="translate(41.421)" fill="#e8916f"/><ellipse cx="4.315" cy="5.523" rx="4.315" ry="5.523" fill="#e8916f"/><path d="M127.5,296.546h10.355V313.8H127.5Z" transform="translate(-107.318 -272.593)" fill="#e8916f"/></g><path d="M49.5,54.424V40.58A17.58,17.58,0,0,1,67.079,23H69.2A17.579,17.579,0,0,1,86.779,40.579V54.424A18.628,18.628,0,0,1,68.152,73.051h-.024A18.628,18.628,0,0,1,49.5,54.424Z" transform="translate(-40.957 -19.03)" fill="#ebad88"/><path d="M146.149,23h-2.121c-.515,0-1.025.023-1.528.067a17.58,17.58,0,0,1,16.051,17.513V54.424A18.631,18.631,0,0,1,142.5,72.873a18.771,18.771,0,0,0,2.577.178h.024a18.627,18.627,0,0,0,18.627-18.627V40.58A17.579,17.579,0,0,0,146.149,23Z" transform="translate(-117.906 -19.03)" fill="#e8916f"/><path d="M23.378,354.5H43.4a15.878,15.878,0,0,1,15.878,15.878v8.975a1.035,1.035,0,0,1-1.036,1.036H8.536A1.035,1.035,0,0,1,7.5,379.353v-8.975A15.878,15.878,0,0,1,23.378,354.5Z" transform="translate(-6.206 -293.317)" fill="#ffd15b"/><path d="M190.678,354.5H185.5a15.878,15.878,0,0,1,15.878,15.878v10.01h4.142a1.035,1.035,0,0,0,1.036-1.036v-8.975A15.878,15.878,0,0,0,190.678,354.5Z" transform="translate(-153.485 -293.317)" fill="#e6b333"/><path d="M109.722,336.594l-3.354,2.794a.345.345,0,0,0-.035.5l4.795,5.316a.345.345,0,0,0,.55-.05l3.413-5.532-4.966-3.053a.345.345,0,0,0-.4.029Z" transform="translate(-87.907 -278.435)" fill="#fbf2df"/><path d="M162.868,336.594l3.354,2.794a.345.345,0,0,1,.035.5l-4.795,5.316a.345.345,0,0,1-.55-.05l-3.413-5.532,4.966-3.053A.345.345,0,0,1,162.868,336.594Z" transform="translate(-130.317 -278.435)" fill="#fbf2df"/><path d="M61.25,18.321a1.022,1.022,0,0,0-1.69.575c-.524,2.706-3.029,7.238-14.164,5.613-6.771-.989-13.147,6.112-13.147,11.6a4.6,4.6,0,0,0-2.405-2.676s-2.131-7.486-.7-13.957C30.468,13.521,38.293,7.5,50.192,7.5c6.2,0,8.767,1.532,9.736,2.419a2.468,2.468,0,0,0,1.475.652c2.557.2,9.481,1.389,10.976,8.561,1.239,5.941-.61,9.416-1.114,14.3a6.7,6.7,0,0,0-1.737,2.676s-3.3-6.3-4.068-10.982c-.485-2.955-2.666-5.4-4.21-6.807Z" transform="translate(-23.706 -6.206)" fill="#7d4d3d"/><path d="M163.3,19.132c-1.5-7.172-8.42-8.366-10.976-8.561a2.468,2.468,0,0,1-1.475-.652c-.969-.887-3.538-2.419-9.736-2.419-.882,0-1.739.037-2.575.1,4.345.355,6.313,1.567,7.133,2.318a2.468,2.468,0,0,0,1.475.652c2.557.2,9.481,1.389,10.976,8.561.9,4.315.171,7.33-.489,10.528a58.226,58.226,0,0,0,2.816,6.449,6.7,6.7,0,0,1,1.737-2.676C162.695,28.548,164.544,25.073,163.3,19.132Z" transform="translate(-114.631 -6.206)" fill="#704537"/><path d="M322.47,10.258V59.281a2.758,2.758,0,0,1-2.757,2.758H296.27a2.757,2.757,0,0,1-2.757-2.758V54.352a.582.582,0,0,0-.659-.577l-8.017,1.062a.3.3,0,0,1-.237-.515l8.533-7.663a1.146,1.146,0,0,0,.38-.853V10.258A2.758,2.758,0,0,1,296.271,7.5h23.443a2.757,2.757,0,0,1,2.757,2.758Z" transform="translate(-235.399 -6.206)" fill="#fbf2df"/><path d="M463.7,7.5h-5.178a2.757,2.757,0,0,1,2.757,2.758V59.281a2.758,2.758,0,0,1-2.757,2.758H463.7a2.757,2.757,0,0,0,2.757-2.758V10.258A2.757,2.757,0,0,0,463.7,7.5Z" transform="translate(-379.388 -6.206)" fill="#f2e5ce"/><path d="M384.011,179.287H370.629A2.629,2.629,0,0,1,368,176.658V160.629A2.629,2.629,0,0,1,370.629,158h13.382a2.629,2.629,0,0,1,2.629,2.629v16.029A2.629,2.629,0,0,1,384.011,179.287Z" transform="translate(-304.487 -130.731)" fill="#e7387f"/><circle cx="2.761" cy="2.761" r="2.761" transform="translate(24.422 72.978)" fill="#fbf2df"/><path d="M37.193,59.889H36.65l-2.994-2.495V54.24A20,20,0,0,0,46.694,39.487a4.683,4.683,0,0,0,.865.081c3.093,0,5.609-3.058,5.609-6.817,0-3.153-1.771-5.814-4.167-6.589.155-1.021.359-2,.558-2.958a23.5,23.5,0,0,0,.382-10.542A11.191,11.191,0,0,0,44.2,4.893,16.425,16.425,0,0,0,37.8,3.075a1.182,1.182,0,0,1-.7-.316C35.722,1.5,32.766,0,26.486,0,13.732,0,5.609,6.535,4.178,12.991c-1.131,5.1-.183,10.687.377,13.219C2.23,27.042.528,29.659.528,32.751c0,3.759,2.516,6.817,5.609,6.817a4.742,4.742,0,0,0,1.5-.243A20,20,0,0,0,20.711,54.24v3.154l-2.994,2.495h-.544A17.192,17.192,0,0,0,0,77.062v8.975a2.333,2.333,0,0,0,2.33,2.33H52.036a2.333,2.333,0,0,0,2.33-2.33V77.062A17.192,17.192,0,0,0,37.193,59.889Zm-4.947-.3,2.072,1.726-3.285,3.643-2.067-3.351ZM50.579,32.751c0,2.292-1.383,4.228-3.02,4.228a2.132,2.132,0,0,1-.5-.06q.057-.756.058-1.526V30.141a6.211,6.211,0,0,1,.9-1.567C49.446,28.892,50.579,30.676,50.579,32.751ZM6.705,13.552C8.284,6.431,18.075,2.589,26.486,2.589c5.949,0,8.179,1.454,8.861,2.079a3.781,3.781,0,0,0,2.251.989c2.517.192,8.51,1.311,9.808,7.535a21.069,21.069,0,0,1-.382,9.486c-.258,1.24-.524,2.518-.7,3.912a5.481,5.481,0,0,0-.433.492,37.206,37.206,0,0,1-2.865-8.368c-.536-3.26-2.806-5.907-4.616-7.554a2.318,2.318,0,0,0-3.832,1.286c-.782,4.034-5.294,5.66-12.706,4.578a12.046,12.046,0,0,0-9.6,3.175,15.141,15.141,0,0,0-4.491,6.541,6.343,6.343,0,0,0-.534-.369c-.425-1.744-1.686-7.684-.548-12.817ZM6.137,36.979c-1.637,0-3.02-1.936-3.02-4.228,0-2.154,1.222-3.994,2.728-4.208a3.392,3.392,0,0,1,1.4,1.576v5.274q0,.634.039,1.258a2.251,2.251,0,0,1-1.151.328Zm3.791.19c0-.028,0-.056-.008-.084q-.081-.835-.082-1.692V29.9c0-2.536,1.623-5.577,4.134-7.748A9.512,9.512,0,0,1,21.5,19.584c5.187.757,9.2.3,11.921-1.357a7.77,7.77,0,0,0,3.6-4.828,11.2,11.2,0,0,1,3.455,5.733c.708,4.309,3.383,9.767,4.051,11.085v5.176a17.434,17.434,0,0,1-.134,2.158l0,.016A17.359,17.359,0,0,1,27.2,52.726h-.024A17.358,17.358,0,0,1,9.928,37.169ZM27.171,55.315H27.2a19.944,19.944,0,0,0,3.871-.378v2.339l-3.883,2.387L23.3,57.277V54.938A19.943,19.943,0,0,0,27.171,55.315ZM22.12,59.59,25.4,61.607l-2.067,3.351-3.285-3.643ZM51.777,85.777H2.589V77.062A14.6,14.6,0,0,1,17.173,62.478h.437l4.65,5.155a1.64,1.64,0,0,0,2.613-.237l2.311-3.746L29.494,67.4a1.64,1.64,0,0,0,2.613.237l4.65-5.155h.437A14.6,14.6,0,0,1,51.777,77.062Z" transform="translate(0 0)"/><path d="M313.494,0H290.052A4.057,4.057,0,0,0,286,4.052V39.533l-8.484,7.619a1.592,1.592,0,0,0,1.273,2.761L286,48.959v4.116a4.056,4.056,0,0,0,4.052,4.052h23.443a4.057,4.057,0,0,0,4.052-4.052V4.052A4.057,4.057,0,0,0,313.494,0Zm1.463,53.075a1.465,1.465,0,0,1-1.463,1.464H290.052a1.465,1.465,0,0,1-1.463-1.464V48.146a1.877,1.877,0,0,0-2.123-1.861l-4.821.639,6.135-5.509a2.445,2.445,0,0,0,.809-1.815V4.052a1.465,1.465,0,0,1,1.463-1.464h23.443a1.465,1.465,0,0,1,1.463,1.464V53.075Z" transform="translate(-229.18)"/><path d="M399.273,47.486h10.848a1.294,1.294,0,0,0,0-2.589H399.273a1.294,1.294,0,1,0,0,2.589Z" transform="translate(-329.292 -37.148)"/><path d="M372.127,82.486h15.533a1.294,1.294,0,0,0,0-2.589H372.127a1.294,1.294,0,1,0,0,2.589Z" transform="translate(-306.831 -66.108)"/><path d="M372.127,117.486h15.533a1.294,1.294,0,0,0,0-2.589H372.127a1.294,1.294,0,1,0,0,2.589Z" transform="translate(-306.831 -95.067)"/><path d="M377.806,150.5H364.423a3.928,3.928,0,0,0-3.923,3.923v16.029a3.928,3.928,0,0,0,3.923,3.923h13.383a3.928,3.928,0,0,0,3.923-3.923V154.423A3.927,3.927,0,0,0,377.806,150.5Zm1.334,19.952a1.336,1.336,0,0,1-1.334,1.334H364.423a1.336,1.336,0,0,1-1.334-1.334V154.423a1.336,1.336,0,0,1,1.334-1.334h13.383a1.336,1.336,0,0,1,1.334,1.334v16.029Z" transform="translate(-298.281 -124.525)"/><path d="M415.794,176.013a1.294,1.294,0,0,0-1.294,1.294v7.222a1.294,1.294,0,0,0,2.589,0v-7.222A1.294,1.294,0,0,0,415.794,176.013Z" transform="translate(-342.961 -145.635)"/><path d="M415.794,239.192a1.294,1.294,0,0,0-1.294,1.294v.744a1.294,1.294,0,0,0,2.589,0v-.744A1.294,1.294,0,0,0,415.794,239.192Z" transform="translate(-342.961 -197.91)"/><path d="M138.056,415.342a4.056,4.056,0,1,0,4.056,4.056A4.06,4.06,0,0,0,138.056,415.342Zm0,5.523a1.467,1.467,0,1,1,1.467-1.467A1.469,1.469,0,0,1,138.056,420.865Z" transform="translate(-110.873 -343.658)"/></g><g transform="translate(536.299 883.524)"><path d="M209.943,262.484a1.338,1.338,0,0,1-1.29-1.693c1.059-3.86,3.992-6.636,7.445-6.636s6.385,2.775,7.445,6.636a1.338,1.338,0,0,1-1.29,1.693Z" transform="translate(-120.49 -209.454)" fill="#bc4142"/><path d="M227.507,258.319H214.645a7.048,7.048,0,0,1,12.862,0Z" transform="translate(-125.467 -209.454)" fill="#ebeef2"/><path d="M298.908,202.812a1.319,1.319,0,0,0-1.319,1.319v2.024a1.319,1.319,0,0,0,2.638,0v-2.024A1.319,1.319,0,0,0,298.908,202.812Z" transform="translate(-193.824 -167.142)"/><path d="M279.894,177.958a1.316,1.316,0,0,0,.474-.089l7.308-2.817a1.319,1.319,0,0,0-.949-2.462l-7.308,2.817a1.319,1.319,0,0,0,.475,2.55Z" transform="translate(-96.522 -232.138) rotate(21)"/><path d="M192.468,206.154V204.13a1.319,1.319,0,0,0-2.638,0v2.024a1.319,1.319,0,1,0,2.638,0Z" transform="translate(-105.018 -167.141)"/><path d="M175.919,177.957a1.319,1.319,0,0,0,.475-2.55l-7.308-2.817a1.319,1.319,0,1,0-.949,2.462l7.308,2.817A1.316,1.316,0,0,0,175.919,177.957Z" transform="translate(-116.714 -106.072) rotate(-11)"/><path d="M218.182,256.583a2.638,2.638,0,0,0,.45-2.315c-1.2-4.384-4.5-7.381-8.286-7.593h-.016l-.059,0h-.022l-.087,0h-.493l-.086,0h-.023l-.058,0h-.017c-3.786.212-7.083,3.21-8.286,7.593a2.657,2.657,0,0,0,2.562,3.361h12.31A2.636,2.636,0,0,0,218.182,256.583Zm-4.542-5.757h-7.45a5.589,5.589,0,0,1,3.662-1.526h.127A5.589,5.589,0,0,1,213.641,250.826Zm-9.887,4.164a.021.021,0,0,1-.011-.024,9.847,9.847,0,0,1,.544-1.5h11.257a9.822,9.822,0,0,1,.544,1.5.02.02,0,0,1-.017.025H203.754Z" transform="translate(-114.307 -203.279)"/></g></g></svg>