<svg xmlns="http://www.w3.org/2000/svg" xmlns:xlink="http://www.w3.org/1999/xlink" width="126" height="126" viewBox="0 0 126 126"><defs><filter id="a" x="0" y="0" width="126" height="126" filterUnits="userSpaceOnUse"><feOffset dy="3" input="SourceAlpha"/><feGaussianBlur stdDeviation="3" result="b"/><feFlood flood-opacity="0.161"/><feComposite operator="in" in2="b"/><feComposite in="SourceGraphic"/></filter></defs><g transform="translate(-896.75 -864.391)"><g transform="matrix(1, 0, 0, 1, 896.75, 864.39)" filter="url(#a)"><circle cx="54" cy="54" r="54" transform="translate(9 6)" fill="#13c6cc"/></g><g transform="translate(863.168 888.524)"><path d="M146.169,365.514h3.106c5.58-7.155,26.426-2.91,19.636,21.043H126.534C119.743,362.6,140.59,358.359,146.169,365.514Z" transform="translate(-51.561 -297.572)" fill="#ec6b59"/><path d="M284.149,362.782c6.768,1.734,13.083,9.011,8.9,23.776h6.4C304.995,366.99,292.1,360.575,284.149,362.782Z" transform="translate(-182.098 -297.572)" fill="#bc4142"/><path d="M221.812,344.188h0a6.4,6.4,0,0,0,6.4-6.4v-7.923h-12.8v7.923A6.4,6.4,0,0,0,221.812,344.188Z" transform="translate(-125.651 -270.881)" fill="#f6bb93"/><path d="M215.411,336.18a40.929,40.929,0,0,0,12.8.728v-7.044h-12.8Z" transform="translate(-125.651 -270.881)" fill="#e49775"/><g transform="translate(68.754 35.049)"><path d="M103.34,206.83h7.153V196.013H103.34a5.409,5.409,0,0,0-5.409,5.409h0A5.408,5.408,0,0,0,103.34,206.83Z" transform="translate(-97.931 -196.013)" fill="#f6bb93"/><path d="M341.388,206.83h-7.153V196.013h7.153a5.409,5.409,0,0,1,5.409,5.409h0A5.409,5.409,0,0,1,341.388,206.83Z" transform="translate(-291.982 -196.013)" fill="#f6bb93"/></g><path d="M99.6,49.882c-1.334-5.774-3.3-13.47-4.194-17.224-5.713-4.96-6.9-15.445-3.441-22.9a1.813,1.813,0,0,1,2.789-.648c2.27,1.845,6.749,3.594,15.122.523,16.3-5.98,30.035,2.071,30.823,6.194.882,0,5.163.607,5.163,4.817,0,3.581-5.886,22.656-8.424,29.236Z" transform="translate(-22.689 -6.159)" fill="#52668d"/><path d="M277.852,15.83c-.619-3.24-9.232-8.906-20.805-8.282,8.735.531,14.967,5.38,15.464,8.282a4.675,4.675,0,0,1,4.619,4.817c0,3.581-5.265,22.656-7.536,29.236h5c2.538-6.579,8.424-25.654,8.424-29.236C283.016,16.436,278.734,15.83,277.852,15.83Z" transform="translate(-159.842 -6.159)" fill="#243b5d"/><path d="M138.4,141.406c0,14.245,40.341,14.245,40.341,0,0-8.162-1.092-21.982-3.47-27.354a7.853,7.853,0,0,0-2.8-3.185,5.158,5.158,0,0,0-2.648-.8,7.053,7.053,0,0,0-3,.8c-2.575,1.216-5.172,3.4-8.257,3.4s-5.682-2.184-8.257-3.4a7.052,7.052,0,0,0-3-.8,5.158,5.158,0,0,0-2.648.8,7.861,7.861,0,0,0-2.8,3.19C139.5,119.4,138.4,133.088,138.4,141.406Z" transform="translate(-62.412 -90.389)" fill="#f6bb93"/><path d="M261.746,114.05a7.851,7.851,0,0,0-2.8-3.185,5.158,5.158,0,0,0-2.648-.8,6.144,6.144,0,0,0-2.185.448,5.338,5.338,0,0,1,.583.347,7.616,7.616,0,0,1,2.449,3.185c2.082,5.372,3.037,19.192,3.037,27.354,0,6.806-8.061,10.36-16.48,10.662,10.512.33,21.512-3.224,21.512-10.662C265.217,133.242,264.125,119.422,261.746,114.05Z" transform="translate(-148.885 -90.388)" fill="#e49775"/><path d="M209.965,262.622a1.361,1.361,0,0,1-1.311-1.721c1.077-3.925,4.059-6.746,7.569-6.746s6.492,2.821,7.569,6.746a1.361,1.361,0,0,1-1.311,1.721Z" transform="translate(-120.061 -208.71)" fill="#bc4142"/><path d="M227.721,258.389H214.645a7.165,7.165,0,0,1,13.076,0Z" transform="translate(-125.022 -208.71)" fill="#ebeef2"/><path d="M345.051,378.955h-3.566a7.921,7.921,0,0,0-7.921,7.921v2.58a2.24,2.24,0,0,0,2.24,2.24h1.84v7.791a1.916,1.916,0,0,0,1.916,1.916h0a1.916,1.916,0,0,0,1.916-1.916v-5.024a1.916,1.916,0,0,0,1.916,1.916h0a1.916,1.916,0,0,0,1.916-1.916,1.916,1.916,0,0,0,1.916,1.916h0a1.916,1.916,0,0,0,1.916-1.916,1.916,1.916,0,0,0,1.916,1.916h0a1.916,1.916,0,0,0,1.916-1.916v-7.588A7.922,7.922,0,0,0,345.051,378.955Z" transform="translate(-222.677 -311.194)" fill="#f6bb93"/><path d="M382.634,378.955h-3.3a7.921,7.921,0,0,1,7.921,7.921v7.588a1.906,1.906,0,0,1-.264.971,1.916,1.916,0,0,0,3.567-.971v-7.588A7.921,7.921,0,0,0,382.634,378.955Z" transform="translate(-260.26 -311.194)" fill="#e49775"/><g transform="translate(62.401 0)"><path d="M298.93,202.812a1.341,1.341,0,0,0-1.341,1.341v2.058a1.341,1.341,0,1,0,2.682,0v-2.058A1.341,1.341,0,0,0,298.93,202.812Z" transform="translate(-255.535 -166.547)"/><path d="M279.916,178.048a1.337,1.337,0,0,0,.482-.09l7.429-2.864a1.341,1.341,0,0,0-.965-2.5l-7.429,2.864a1.341,1.341,0,0,0,.483,2.593Z" transform="translate(-239.92 -141.657)"/><path d="M192.512,206.21v-2.058a1.341,1.341,0,0,0-2.682,0v2.058a1.341,1.341,0,1,0,2.682,0Z" transform="translate(-167.044 -166.546)"/><path d="M176.063,178.048a1.341,1.341,0,0,0,.483-2.593l-7.429-2.864a1.341,1.341,0,1,0-.965,2.5l7.429,2.864A1.338,1.338,0,0,0,176.063,178.048Z" transform="translate(-148.536 -141.656)"/><path d="M218.467,256.748a2.681,2.681,0,0,0,.457-2.354c-1.223-4.457-4.574-7.5-8.424-7.72h-.016l-.06,0H210.4l-.089,0h-.5l-.088,0H209.7l-.059,0h-.017c-3.849.216-7.2,3.263-8.424,7.72a2.7,2.7,0,0,0,2.6,3.417H216.32A2.68,2.68,0,0,0,218.467,256.748ZM213.85,250.9h-7.575A5.682,5.682,0,0,1,210,249.344h.129A5.682,5.682,0,0,1,213.85,250.9ZM203.8,255.129a.022.022,0,0,1-.011-.025,10.01,10.01,0,0,1,.553-1.526h11.444a9.989,9.989,0,0,1,.553,1.526.02.02,0,0,1-.018.025H203.8Z" transform="translate(-176.301 -202.556)"/><path d="M139.532,66.42h-3.565a9.272,9.272,0,0,0-9.262,9.262v2.58a3.585,3.585,0,0,0,3.581,3.581h.5v5.528H99.949V82.033a1.341,1.341,0,0,0-2.682,0v5.339H93.158c-1.968-7.683-1.057-14,2.6-17.856a11.8,11.8,0,0,1,9.822-3.579v.97a7.742,7.742,0,1,0,15.485,0v-.969a11.693,11.693,0,0,1,5.8.824,1.341,1.341,0,0,0,1.02-2.48,14.444,14.444,0,0,0-6.817-1.04v-.917c7.5-1.447,13.769-5.112,13.769-11.305,0-1.205-.023-2.486-.067-3.809a6.9,6.9,0,0,0,5.327-1.977,6.75,6.75,0,0,0-3.414-11.385c2.4-7.6,5-16.763,5-19.357,0-4.246-3.436-5.712-5.521-6.066-.755-1.6-2.57-3.286-5.154-4.749A29.958,29.958,0,0,0,119.45.167a34.856,34.856,0,0,0-15.566,2.052c-7.651,2.808-11.734,1.384-13.812-.3A3.153,3.153,0,0,0,85.22,3.039,22.533,22.533,0,0,0,83.3,10.112a1.341,1.341,0,0,0,2.667.289,20.144,20.144,0,0,1,1.684-6.235A.471.471,0,0,1,88.38,4,11.92,11.92,0,0,0,96.143,6.49a25.324,25.324,0,0,0,8.664-1.753,32.191,32.191,0,0,1,14.376-1.9,27.232,27.232,0,0,1,10.493,3.173c2.639,1.494,4.014,3.077,4.174,3.916a1.341,1.341,0,0,0,1.317,1.089c.038,0,3.823.095,3.823,3.476,0,2.079-2.582,11.4-5.241,19.73-.495-3.853-1.291-8.36-2.5-11.1a9.179,9.179,0,0,0-3.336-3.793c-5.746-3.435-9.814,3.21-14.591,3.21-3.813,0-7.12-4.2-11.254-4.2-2.866,0-5.537,2.211-6.677,4.783a42.1,42.1,0,0,0-2.415,10.361l-.342-1.379c-.59-2.383-1.1-4.44-1.45-5.916a1.342,1.342,0,0,0-.426-.7C88.2,23.27,86.512,19.7,86,15.425a1.341,1.341,0,1,0-2.663.32,18.487,18.487,0,0,0,5.334,11.474c.347,1.448.819,3.356,1.359,5.534l.257,1.036a6.75,6.75,0,0,0,1.037,13.42h.553c-.045,1.384-.067,2.67-.067,3.809,0,3.857,2.446,7.047,7.073,9.226a28.293,28.293,0,0,0,6.7,2.094v.9a14.555,14.555,0,0,0-11.769,4.432,15.933,15.933,0,0,0-4.057,8.478,29.6,29.6,0,0,0,1.09,12.93,1.341,1.341,0,0,0,1.29.975H131.3a3.256,3.256,0,0,0,6-1.76V86.475a3.257,3.257,0,0,0,2.491-.574,3.251,3.251,0,0,0,3.832,0,3.255,3.255,0,0,0,5.173-2.632V75.682A9.273,9.273,0,0,0,139.532,66.42Zm-.146-25.962a4.041,4.041,0,0,1-1.191,2.876,4.471,4.471,0,0,1-3.545,1.192c-.065-1.251-.146-2.517-.242-3.772.433-1.255.926-2.728,1.445-4.328A4.074,4.074,0,0,1,139.386,40.459ZM91.321,44.526a4.068,4.068,0,0,1-.39-8.117c.419,1.7.843,3.438,1.238,5.093-.072,1.028-.133,2.041-.183,3.024Zm3.169,6.491c0-2.694.118-6.024.363-9.456a1.329,1.329,0,0,0,.01-.144c.485-6.709,1.455-13.775,2.976-17.2.7-1.578,2.458-3.188,4.225-3.188,3.087,0,6.576,4.2,11.254,4.2s8.178-4.2,11.254-4.2c1.758,0,3.518,1.6,4.22,3.182.964,2.178,2.258,8.2,2.922,16.233a1.331,1.331,0,0,0,.04.494c.12,1.525.217,3.12.285,4.772a1.349,1.349,0,0,0,.017.43c.06,1.58.092,3.211.092,4.882,0,6.133-9.472,9.342-18.829,9.342S94.49,57.151,94.49,51.017Zm18.829,12.024a42.468,42.468,0,0,0,5.06-.3v2.045q0,.025,0,.049v2.071a5.06,5.06,0,0,1-10.12,0V64.835c0-.017,0-.034,0-.05V62.749A43.193,43.193,0,0,0,113.319,63.042Zm32.792,20.228a.575.575,0,1,1-1.15,0,1.341,1.341,0,1,0-2.682,0,.575.575,0,1,1-1.15,0,1.341,1.341,0,0,0-2.682,0,.575.575,0,1,1-1.15,0,1.341,1.341,0,1,0-2.682,0v5.024a.575.575,0,0,1-1.129.153c0-.018-.008-.036-.012-.053a.582.582,0,0,1-.009-.1V77a1.341,1.341,0,0,0-2.682,0v2.166h-.5a.9.9,0,0,1-.9-.9v-2.58a6.587,6.587,0,0,1,6.58-6.58h3.565a6.587,6.587,0,0,1,6.58,6.58v7.588Z" transform="translate(-79.559 0)"/><path d="M69.924,320.986a1.341,1.341,0,0,0-1.733-.771l-3.752,1.44a1.341,1.341,0,1,0,.961,2.5l3.752-1.44A1.341,1.341,0,0,0,69.924,320.986Z" transform="translate(-63.367 -262.884)"/><path d="M63.2,282.4l4.058,1.807a1.341,1.341,0,0,0,1.091-2.45l-4.058-1.806A1.341,1.341,0,0,0,63.2,282.4Z" transform="translate(-62.401 -229.797)"/><path d="M98.741,342.321a1.341,1.341,0,0,0-1.771.68l-1.807,4.058a1.341,1.341,0,1,0,2.45,1.091l1.807-4.058A1.341,1.341,0,0,0,98.741,342.321Z" transform="translate(-89.209 -281.015)"/></g></g></g></svg>