<svg xmlns="http://www.w3.org/2000/svg" xmlns:xlink="http://www.w3.org/1999/xlink" width="126" height="126" viewBox="0 0 126 126"><defs><filter id="a" x="0" y="0" width="126" height="126" filterUnits="userSpaceOnUse"><feOffset dy="3" input="SourceAlpha"/><feGaussianBlur stdDeviation="3" result="b"/><feFlood flood-opacity="0.161"/><feComposite operator="in" in2="b"/><feComposite in="SourceGraphic"/></filter></defs><g transform="translate(-1211.75 -864.391)"><g transform="matrix(1, 0, 0, 1, 1211.75, 864.39)" filter="url(#a)"><circle cx="54" cy="54" r="54" transform="translate(9 6)" fill="#13c6cc"/></g><g transform="translate(1224.936 887.524)"><path d="M71.942,79.93V9.216A7.216,7.216,0,0,0,64.726,2H7a7.216,7.216,0,0,1,7.216,7.216V79.567a8.9,8.9,0,0,0,8.392,9.023,8.659,8.659,0,0,0,8.926-8.659Z" transform="translate(2.659 0.443)" fill="#e2e7f6"/><path d="M67.193,30.216,41.216,56.193,34,48.977,59.977,23Z" transform="translate(14.624 9.749)" fill="#559b2d"/><path d="M42.988,48.216,35.773,41,30,53.988Z" transform="translate(12.851 17.726)" fill="#fadfb2"/><path d="M37.992,48.9l-4.439-4.439L30,52.454Z" transform="translate(12.851 19.26)" fill="#474747"/><path d="M0,0H6.123V10.2H0Z" transform="translate(74.589 32.753) rotate(-45)" fill="#f0ae42"/><path d="M55,20.886,62.216,28.1l1.393-1.394a5.1,5.1,0,0,0-7.216-7.214Z" transform="translate(23.93 7.534)" fill="#ccc"/><g transform="translate(2.443 2.443)"><path d="M16.432,26.534H4.886A2.886,2.886,0,0,1,2,23.647V9.216a7.216,7.216,0,0,1,14.432,0Z" transform="translate(-2 -2)" fill="#c8cded"/><path d="M17.815,64.659A8.659,8.659,0,0,0,26.741,56H72.922a8.659,8.659,0,0,1-8.659,8.659Z" transform="translate(5.008 21.93)" fill="#c8cded"/><path d="M16,18H30.432V32.432H16Z" transform="translate(4.204 5.09)" fill="#c8cded"/></g><path d="M23.643,30.746a1.443,1.443,0,0,1-1.022-.421l-4.329-4.329,2.042-2.042,3.309,3.306L35.61,15.291l2.042,2.042L24.664,30.321a1.443,1.443,0,0,1-1.02.424Z" transform="translate(7.663 6.333)" fill="#6bc13b"/><path d="M16,34H30.432V48.432H16Z" transform="translate(6.647 14.624)" fill="#c8cded"/><path d="M23.643,46.746a1.443,1.443,0,0,1-1.022-.421l-4.329-4.329,2.042-2.042,3.309,3.306L35.61,31.291l2.042,2.042L24.664,46.321A1.443,1.443,0,0,1,23.643,46.746Z" transform="translate(7.663 13.424)" fill="#6bc13b"/><rect width="41" height="9" rx="3" transform="translate(25 8.476)" fill="#78a0d4"/><path d="M54.534,29.773H30V24H60.306" transform="translate(12.851 10.193)" fill="#78a0d4"/><path d="M41,51H52.543v2.885H41Z" transform="translate(17.726 22.157)" fill="#78a0d4"/><path d="M22.329,6a4.329,4.329,0,0,0,0,8.659H47.192A26.639,26.639,0,0,0,53.468,6Z" transform="translate(7.534 2.216)" fill="#99bbe0"/><path d="M88.558,35.262A6.546,6.546,0,1,0,79.3,26.005l-3.255,3.256V9.659A8.669,8.669,0,0,0,67.385,1H9.659A8.659,8.659,0,0,0,1,9.659V24.09A4.329,4.329,0,0,0,5.329,28.42h10.1V80.01a10.368,10.368,0,0,0,9.792,10.466H71.715a10.114,10.114,0,0,0,10.1-10.1,1.443,1.443,0,0,0-1.443-1.443H76.044V47.777ZM46.866,66.231,48.335,67.7l-2.642,1.173Zm4.3.212L48.123,63.4l.964-2.165,4.243,4.243ZM55.84,63.9l-5.177-5.172L74.6,34.79l5.172,5.175ZM66.786,38.522H44.295V35.636H69.671Zm9.855-5.773,2.289-2.289L84.1,35.636l-2.286,2.286Zm7.288-5.773a3.658,3.658,0,0,1,2.586,6.245l-.369.369L80.971,28.42l.371-.371A3.634,3.634,0,0,1,83.929,26.977Zm-68.5-1.443H5.329A1.443,1.443,0,0,1,3.886,24.09V9.659a5.773,5.773,0,1,1,11.545,0ZM71.715,87.589H32.605a10,10,0,0,0,2.93-5.773H78.786a7.227,7.227,0,0,1-7.071,5.773Zm1.443-8.659H34.193a1.443,1.443,0,0,0-1.443,1.443,7.216,7.216,0,0,1-6.975,7.216H25.29a7.464,7.464,0,0,1-6.972-7.579V9.659A8.614,8.614,0,0,0,16.1,3.886h51.29a5.773,5.773,0,0,1,5.773,5.773V32.148l-.6.6H42.851a1.443,1.443,0,0,0-1.443,1.443v5.773a1.443,1.443,0,0,0,1.443,1.443H63.9L47.6,57.7a1.461,1.461,0,0,0-.3.433L41.531,71.124a1.443,1.443,0,0,0,1.32,2.033,1.411,1.411,0,0,0,.584-.126L56.424,67.26a1.46,1.46,0,0,0,.433-.3l16.3-16.3Z" transform="translate(0 0)"/><path d="M16.443,35.075H30.875a1.443,1.443,0,0,0,1.443-1.443v-9.5l6.793-6.794-2.045-2.042-4.748,4.751V19.2a1.443,1.443,0,0,0-1.443-1.443H16.443A1.443,1.443,0,0,0,15,19.2V33.632A1.443,1.443,0,0,0,16.443,35.075Zm1.443-14.432H29.432v2.287L25.1,27.261l-3.308-3.309-2.042,2.042,4.329,4.329a1.443,1.443,0,0,0,2.042,0l3.308-3.309v5.175H17.886Z" transform="translate(6.204 6.333)"/><path d="M39.108,33.334l-2.042-2.042-4.748,4.751V35.2a1.443,1.443,0,0,0-1.443-1.443H16.443A1.443,1.443,0,0,0,15,35.2V49.632a1.443,1.443,0,0,0,1.443,1.443H30.875a1.443,1.443,0,0,0,1.443-1.443v-9.5ZM29.432,48.188H17.886V36.643H29.432v2.286L25.1,43.259l-3.308-3.309-2.042,2.042,4.329,4.329a1.443,1.443,0,0,0,2.042,0l3.308-3.308Z" transform="translate(6.204 13.424)"/><path d="M22.773,16.545H54.522A5.773,5.773,0,0,0,54.522,5H22.773a5.773,5.773,0,1,0,0,11.545Zm0-8.659H54.522a2.886,2.886,0,1,1,0,5.773H22.773a2.886,2.886,0,0,1,0-5.773Z" transform="translate(7.09 1.773)"/><path d="M41,51H52.543v2.885H41Z" transform="translate(17.726 22.157)"/></g></g></svg>