<svg xmlns="http://www.w3.org/2000/svg" width="85.523" height="37.621" viewBox="0 0 85.523 37.621"><g transform="translate(-180.477 -428)"><g transform="translate(180.477 395.455)"><g transform="translate(0 32.545)"><path d="M418.688,104.917a2.239,2.239,0,1,1-2.238-2.138A2.19,2.19,0,0,1,418.688,104.917Z" transform="translate(-414.214 -102.779)" fill="#13c6cc"/><path d="M418.688,104.917a2.239,2.239,0,1,1-2.238-2.138A2.19,2.19,0,0,1,418.688,104.917Z" transform="translate(-363.559 -102.779)" fill="#13c6cc"/><path d="M427.134,104.917a2.239,2.239,0,1,1-2.236-2.138A2.189,2.189,0,0,1,427.134,104.917Z" transform="translate(-412.529 -102.779)" fill="#13c6cc"/><path d="M427.134,104.917a2.239,2.239,0,1,1-2.236-2.138A2.189,2.189,0,0,1,427.134,104.917Z" transform="translate(-361.873 -102.779)" fill="#13c6cc"/><path d="M435.58,104.917a2.239,2.239,0,1,1-2.236-2.138A2.189,2.189,0,0,1,435.58,104.917Z" transform="translate(-410.844 -102.779)" fill="#13c6cc"/><path d="M435.58,104.917a2.239,2.239,0,1,1-2.236-2.138A2.189,2.189,0,0,1,435.58,104.917Z" transform="translate(-360.189 -102.779)" fill="#13c6cc"/><path d="M444.027,104.917a2.239,2.239,0,1,1-2.238-2.138A2.19,2.19,0,0,1,444.027,104.917Z" transform="translate(-409.16 -102.779)" fill="#13c6cc"/><path d="M444.027,104.917a2.239,2.239,0,1,1-2.238-2.138A2.19,2.19,0,0,1,444.027,104.917Z" transform="translate(-358.504 -102.779)" fill="#13c6cc"/><path d="M452.473,104.917a2.239,2.239,0,1,1-2.236-2.138A2.189,2.189,0,0,1,452.473,104.917Z" transform="translate(-407.475 -102.779)" fill="#13c6cc"/></g><g transform="translate(0 43.657)"><ellipse cx="2.237" cy="2.139" rx="2.237" ry="2.139" transform="translate(0 0.001)" fill="#13c6cc"/><ellipse cx="2.237" cy="2.139" rx="2.237" ry="2.139" transform="translate(50.656 0.001)" fill="#13c6cc"/><path d="M427.134,112.425a2.239,2.239,0,1,1-2.236-2.138A2.19,2.19,0,0,1,427.134,112.425Z" transform="translate(-412.529 -110.287)" fill="#13c6cc"/><path d="M427.134,112.425a2.239,2.239,0,1,1-2.236-2.138A2.19,2.19,0,0,1,427.134,112.425Z" transform="translate(-361.873 -110.287)" fill="#13c6cc"/><ellipse cx="2.237" cy="2.139" rx="2.237" ry="2.139" transform="translate(20.262 0.001)" fill="#13c6cc"/><ellipse cx="2.237" cy="2.139" rx="2.237" ry="2.139" transform="translate(70.918 0.001)" fill="#13c6cc"/><path d="M444.027,112.425a2.239,2.239,0,1,1-2.238-2.138A2.191,2.191,0,0,1,444.027,112.425Z" transform="translate(-409.16 -110.287)" fill="#13c6cc"/><path d="M444.027,112.425a2.239,2.239,0,1,1-2.238-2.138A2.191,2.191,0,0,1,444.027,112.425Z" transform="translate(-358.504 -110.287)" fill="#13c6cc"/><path d="M452.473,112.425a2.239,2.239,0,1,1-2.236-2.138A2.19,2.19,0,0,1,452.473,112.425Z" transform="translate(-407.475 -110.287)" fill="#13c6cc"/></g><g transform="translate(0 54.771)"><path d="M418.688,119.934a2.239,2.239,0,1,1-2.238-2.14A2.191,2.191,0,0,1,418.688,119.934Z" transform="translate(-414.214 -117.794)" fill="#13c6cc"/><path d="M418.688,119.934a2.239,2.239,0,1,1-2.238-2.14A2.191,2.191,0,0,1,418.688,119.934Z" transform="translate(-363.559 -117.794)" fill="#13c6cc"/><path d="M427.134,119.934a2.239,2.239,0,1,1-2.236-2.14A2.19,2.19,0,0,1,427.134,119.934Z" transform="translate(-412.529 -117.794)" fill="#13c6cc"/><path d="M427.134,119.934a2.239,2.239,0,1,1-2.236-2.14A2.19,2.19,0,0,1,427.134,119.934Z" transform="translate(-361.873 -117.794)" fill="#13c6cc"/><path d="M435.58,119.934a2.239,2.239,0,1,1-2.236-2.14A2.191,2.191,0,0,1,435.58,119.934Z" transform="translate(-410.844 -117.794)" fill="#13c6cc"/><path d="M435.58,119.934a2.239,2.239,0,1,1-2.236-2.14A2.191,2.191,0,0,1,435.58,119.934Z" transform="translate(-360.189 -117.794)" fill="#13c6cc"/><path d="M444.027,119.934a2.239,2.239,0,1,1-2.238-2.14A2.191,2.191,0,0,1,444.027,119.934Z" transform="translate(-409.16 -117.794)" fill="#13c6cc"/><path d="M444.027,119.934a2.239,2.239,0,1,1-2.238-2.14A2.191,2.191,0,0,1,444.027,119.934Z" transform="translate(-358.504 -117.794)" fill="#13c6cc"/><path d="M452.473,119.934a2.239,2.239,0,1,1-2.236-2.14A2.19,2.19,0,0,1,452.473,119.934Z" transform="translate(-407.475 -117.794)" fill="#13c6cc"/></g><g transform="translate(0 65.886)"><ellipse cx="2.237" cy="2.139" rx="2.237" ry="2.139" transform="translate(0 0.002)" fill="#13c6cc"/><ellipse cx="2.237" cy="2.139" rx="2.237" ry="2.139" transform="translate(50.656 0.002)" fill="#13c6cc"/><path d="M427.134,127.442a2.239,2.239,0,1,1-2.236-2.14A2.189,2.189,0,0,1,427.134,127.442Z" transform="translate(-412.529 -125.302)" fill="#13c6cc"/><path d="M427.134,127.442a2.239,2.239,0,1,1-2.236-2.14A2.189,2.189,0,0,1,427.134,127.442Z" transform="translate(-361.873 -125.302)" fill="#13c6cc"/><ellipse cx="2.237" cy="2.139" rx="2.237" ry="2.139" transform="translate(20.262 0.002)" fill="#13c6cc"/><ellipse cx="2.237" cy="2.139" rx="2.237" ry="2.139" transform="translate(70.918 0.002)" fill="#13c6cc"/><path d="M444.027,127.442a2.239,2.239,0,1,1-2.238-2.14A2.189,2.189,0,0,1,444.027,127.442Z" transform="translate(-409.16 -125.302)" fill="#13c6cc"/><path d="M444.027,127.442a2.239,2.239,0,1,1-2.238-2.14A2.189,2.189,0,0,1,444.027,127.442Z" transform="translate(-358.504 -125.302)" fill="#13c6cc"/><path d="M452.473,127.442a2.239,2.239,0,1,1-2.236-2.14A2.189,2.189,0,0,1,452.473,127.442Z" transform="translate(-407.475 -125.302)" fill="#13c6cc"/></g></g></g></svg>