<svg xmlns="http://www.w3.org/2000/svg" xmlns:xlink="http://www.w3.org/1999/xlink" width="126" height="126" viewBox="0 0 126 126"><defs><filter id="a" x="0" y="0" width="126" height="126" filterUnits="userSpaceOnUse"><feOffset dy="3" input="SourceAlpha"/><feGaussianBlur stdDeviation="3" result="b"/><feFlood flood-opacity="0.161"/><feComposite operator="in" in2="b"/><feComposite in="SourceGraphic"/></filter></defs><g transform="translate(-736.936 -2912)"><g transform="matrix(1, 0, 0, 1, 736.94, 2912)" filter="url(#a)"><circle cx="54" cy="54" r="54" transform="translate(9 6)" fill="#13c6cc"/></g><g transform="translate(754.936 2936.135)"><g transform="translate(1.316 1.316)"><path d="M11.334,7.5H41.963A3.834,3.834,0,0,1,45.8,11.334V36.641a3.834,3.834,0,0,1-3.834,3.834H34.45v5.677l-7.265-5.677H11.334A3.834,3.834,0,0,1,7.5,36.641V11.334A3.834,3.834,0,0,1,11.334,7.5Z" transform="translate(-7.5 -7.5)" fill="#f4fbff"/><g transform="translate(32.096 3.372)"><path d="M192.846,42.247a7.077,7.077,0,0,0-2.482,5.383V53.3a7.046,7.046,0,0,0,.673,3.011h1.694a3.834,3.834,0,0,0,3.834-3.834V27.174a3.861,3.861,0,0,0-.031-.462,17.64,17.64,0,0,0-3.688,10.812Z" transform="translate(-190.364 -26.712)" fill="#dfeaef"/></g></g><g transform="translate(28.266 1.316)"><g transform="translate(10.47 33.333)"><path d="M220.695,197.411h39.343v24.468H220.695Z" transform="translate(-220.695 -197.411)" fill="#934d36"/></g><g transform="translate(0 51.417)"><path d="M197.392,300.447l14.722,3.926a12.411,12.411,0,0,1,9.213,11.992v19.9H161.045v-19.9a12.411,12.411,0,0,1,9.213-11.992l14.722-3.926Z" transform="translate(-161.045 -300.447)" fill="#d3effb"/></g><g transform="translate(30.141 51.418)"><path d="M332.772,307.185l3.185,6.569a2.457,2.457,0,0,0,4.509-.2l4.371-11.542-5.86-1.563Z" transform="translate(-332.772 -300.448)" fill="#f4fbff"/></g><g transform="translate(18.076 51.418)"><path d="M276.1,307.185l-3.185,6.569a2.457,2.457,0,0,1-4.509-.2l-4.371-11.542,5.86-1.563Z" transform="translate(-264.031 -300.448)" fill="#f4fbff"/></g><g transform="translate(51.83 55.576)"><path d="M456.345,324.137a12.394,12.394,0,0,1,2.956,8.037v23.62h5.5V335.9a12.41,12.41,0,0,0-8.452-11.76Z" transform="translate(-456.345 -324.137)" fill="#b1e4f9"/></g><g transform="translate(23.936 43.794)"><path d="M297.417,265.166V257.01h12.411v8.156a6.206,6.206,0,1,1-12.411,0Z" transform="translate(-297.417 -257.01)" fill="#fcd0a3"/></g><g transform="translate(23.936 43.794)"><path d="M297.417,261.046a17.728,17.728,0,0,0,12.411,0V257.01H297.417v4.036Z" transform="translate(-297.417 -257.01)" fill="#ffb983"/></g><g transform="translate(15.957 16.489)"><path d="M251.959,101.445v14.732a14.184,14.184,0,0,0,28.368,0V101.445Z" transform="translate(-251.959 -101.445)" fill="#fcd0a3"/></g><g transform="translate(38.79 16.489)"><path d="M387.582,116.177V101.445h-3.369v18.439a14.114,14.114,0,0,1-2.167,7.532A14.157,14.157,0,0,0,387.582,116.177Z" transform="translate(-382.047 -101.445)" fill="#ffb983"/></g><g transform="translate(11.347)"><path d="M225.7,25.23A17.73,17.73,0,0,1,243.425,7.5h5.142a5.319,5.319,0,0,1,5.319,5.319h2.3a7.092,7.092,0,0,1,7.092,7.092V34.627h-4.61l-4.787-9.22-2.533,2.533a7.092,7.092,0,0,1-5.015,2.077h-5.376a14.184,14.184,0,0,0-9.115,3.316L230.3,34.627H225.7v-9.4Z" transform="translate(-225.695 -7.5)" fill="#aa593d"/></g><g transform="translate(43.586 5.535)"><path d="M409.375,39.038a7.06,7.06,0,0,1,.739,3.152V60.452l-.09,0,.09.174,4.61-.177V45.914a7.1,7.1,0,0,0-5.349-6.876Z" transform="translate(-409.375 -39.038)" fill="#934d36"/></g><g transform="translate(44.325 20.744)"><path d="M417.132,138.455h-3.546V125.689h3.546a3.546,3.546,0,0,1,3.546,3.546v5.674A3.546,3.546,0,0,1,417.132,138.455Z" transform="translate(-413.586 -125.689)" fill="#d0f0ff"/></g><g transform="translate(8.865 20.744)"><path d="M215.1,138.455h3.546V125.689H215.1a3.546,3.546,0,0,0-3.546,3.546v5.674A3.546,3.546,0,0,0,215.1,138.455Z" transform="translate(-211.553 -125.689)" fill="#d0f0ff"/></g></g><g transform="translate(1.316 54.861)"><path d="M48.279,339.164H7.5V316.115a3.546,3.546,0,0,1,3.546-3.546H44.733a3.546,3.546,0,0,1,3.546,3.546Z" transform="translate(-7.5 -312.569)" fill="#a0aab7"/><g transform="translate(16.844 9.752)"><circle cx="3.546" cy="3.546" r="3.546" fill="#f4fbff"/></g><g transform="translate(0 26.595)"><path d="M7.5,464.094H51.825v3.546a3.546,3.546,0,0,1-3.546,3.546H11.046A3.546,3.546,0,0,1,7.5,467.64Z" transform="translate(-7.5 -464.094)" fill="#808b95"/></g><g transform="translate(37.233 26.595)"><path d="M223.18,464.094v3.546a3.546,3.546,0,0,1-3.546,3.546h3.546a3.546,3.546,0,0,0,3.546-3.546v-3.546Z" transform="translate(-219.634 -464.094)" fill="#5e6b75"/></g></g><g transform="translate(9.913 7.166)"><circle cx="10.638" cy="10.638" r="10.638" fill="#f6e266"/></g><g transform="translate(0 0)"><path d="M88.549,72.946a1.316,1.316,0,0,0,1.316-1.316V68.652A13.744,13.744,0,0,0,79.675,55.388l-.279-.074V34.887A4.851,4.851,0,0,0,81,31.28V25.607a4.865,4.865,0,0,0-2.482-4.238V13.727a8.418,8.418,0,0,0-8.408-8.408H68.99A6.647,6.647,0,0,0,62.485,0H57.344A19.056,19.056,0,0,0,40.93,9.395V5.151A5.157,5.157,0,0,0,35.778,0h-22.4a1.316,1.316,0,1,0,0,2.633h22.4A2.522,2.522,0,0,1,38.3,5.151V21.369a4.865,4.865,0,0,0-2.482,4.238V31.28a4.841,4.841,0,0,0,.3,1.671,2.577,2.577,0,0,1-.332.023H28.266a1.316,1.316,0,0,0-1.316,1.316v2.978l-5.139-4.015A1.317,1.317,0,0,0,21,32.975H5.151a2.521,2.521,0,0,1-2.519-2.517V5.151A2.522,2.522,0,0,1,5.151,2.633H7.234A1.316,1.316,0,0,0,7.234,0H5.151A5.157,5.157,0,0,0,0,5.151V30.458a5.156,5.156,0,0,0,5.151,5.15h15.4l6.909,5.4a1.316,1.316,0,0,0,2.127-1.037V35.607h6.2a5.148,5.148,0,0,0,1.641-.269V53.545H4.862A4.868,4.868,0,0,0,0,58.407v9.559a1.316,1.316,0,0,0,2.633,0V58.407a2.232,2.232,0,0,1,2.23-2.23H38.55a2.232,2.232,0,0,1,2.23,2.23V80.14H2.633V74.112a1.316,1.316,0,0,0-2.633,0V85a4.868,4.868,0,0,0,4.862,4.862H88.549a1.316,1.316,0,0,0,1.316-1.316V77.78a1.316,1.316,0,1,0-2.633,0v9.453H78.163V81.457a1.316,1.316,0,0,0-2.633,0v5.776H46.415A4.831,4.831,0,0,0,46.958,85V81.457a1.316,1.316,0,0,0-1.316-1.316h-2.23V58.407a4.834,4.834,0,0,0-.374-1.869l2.494-.665L49.483,66.3a3.723,3.723,0,0,0,3.36,2.433c.06,0,.119,0,.179,0a3.719,3.719,0,0,0,3.386-2.127l2-4.126,2,4.126a3.718,3.718,0,0,0,3.386,2.128c.059,0,.119,0,.179,0a3.723,3.723,0,0,0,3.36-2.433l3.95-10.43L79,57.932a11.109,11.109,0,0,1,8.236,10.72V71.63A1.316,1.316,0,0,0,88.549,72.946ZM44.325,85a2.232,2.232,0,0,1-2.23,2.23H4.862A2.232,2.232,0,0,1,2.633,85v-2.23H44.325ZM76.763,54.611,65.929,51.723V46.086a15.616,15.616,0,0,0,5.165-4.654,3.092,3.092,0,0,0,2.814-3.075V36.143h2.23a4.865,4.865,0,0,0,.625-.042ZM58.407,58.155a4.895,4.895,0,0,1-4.889-4.889V47.247a15.51,15.51,0,0,0,9.778,0v6.018A4.894,4.894,0,0,1,58.407,58.155Zm-7.522-6.433-9.719,2.59a4.846,4.846,0,0,0-1.115-.529V36.1a4.9,4.9,0,0,0,.625.042h2.654a15.558,15.558,0,0,0,7.554,9.944ZM38.448,25.607a2.232,2.232,0,0,1,2.23-2.23h2.23V33.51h-2.23a2.232,2.232,0,0,1-2.23-2.23Zm29.017-4.181,3.811,7.339v3.773a12.786,12.786,0,0,1-1.64,6.276H60.685a2.633,2.633,0,1,0,0,2.633h6.994A12.858,12.858,0,0,1,45.54,32.538v-3.48l1.072-.9a12.889,12.889,0,0,1,8.269-3.009h5.376A8.354,8.354,0,0,0,66.2,22.687Zm8.673,1.952a2.232,2.232,0,0,1,2.23,2.23V31.28a2.232,2.232,0,0,1-2.23,2.23h-2.23V23.377Zm-.253-9.65v7.017H72.592a1.316,1.316,0,0,0-1.316,1.316v.991L69.121,18.9V7.952h.989a5.782,5.782,0,0,1,5.776,5.776ZM57.344,2.633h5.142a4.007,4.007,0,0,1,4,4V18.679l-2.147,2.147a5.739,5.739,0,0,1-4.084,1.692H54.881a15.527,15.527,0,0,0-9.341,3.133v-3.59a1.316,1.316,0,0,0-1.316-1.316H40.93v-1.7A16.432,16.432,0,0,1,57.344,2.633ZM54.038,65.466a1.141,1.141,0,0,1-2.093-.094l-3.855-10.18,2.886-.769a7.543,7.543,0,0,0,5.459,6.1Zm10.833-.094a1.141,1.141,0,0,1-2.093.094l-2.4-4.943a7.543,7.543,0,0,0,5.459-6.1l2.886.769Z" transform="translate(0 0)"/><path d="M105.691,365.49a4.862,4.862,0,1,0-4.862,4.862A4.868,4.868,0,0,0,105.691,365.49Zm-7.092,0a2.23,2.23,0,1,1,2.23,2.23A2.232,2.232,0,0,1,98.6,365.49Z" transform="translate(-79.122 -297.331)"/><path d="M96.085,116.457a1.316,1.316,0,0,0-1.863-1.86,4.7,4.7,0,0,1-6.658,0,1.316,1.316,0,0,0-1.863,1.86,7.335,7.335,0,0,0,10.384,0Z" transform="translate(-70.342 -94.165)"/><path d="M72.89,45.282A11.954,11.954,0,1,0,60.936,57.237,11.968,11.968,0,0,0,72.89,45.282Zm-21.276,0A9.322,9.322,0,1,1,60.935,54.6,9.332,9.332,0,0,1,51.614,45.282Z" transform="translate(-40.384 -27.478)"/><circle cx="1.773" cy="1.773" r="1.773" transform="translate(14.699 13.371)"/><circle cx="1.773" cy="1.773" r="1.773" transform="translate(22.858 13.371)"/></g></g></g></svg>