<svg xmlns="http://www.w3.org/2000/svg" width="98.731" height="103.164" viewBox="0 0 98.731 103.164"><g transform="translate(-11)"><path d="M60.366,22A49.377,49.377,0,0,0,16.541,94.1l.2-.047V88.089a2.824,2.824,0,0,1,2.821-2.821h81.6a2.824,2.824,0,0,1,2.821,2.821v5.967l.2.047A49.377,49.377,0,0,0,60.366,22Z" transform="translate(0 -17.567)" fill="#4aa3dc"/><g transform="translate(19.15 0)"><g transform="translate(0 35.447)"><path d="M65.334,175.922a14.31,14.31,0,0,0-13.888,14.3V208.21a2.8,2.8,0,0,1,.414-.034H65.334Z" transform="translate(-51.446 -175.922)" fill="#fff"/><path d="M391.627,175.922v32.254H405.1a2.807,2.807,0,0,1,.414.034V190.225A14.31,14.31,0,0,0,391.627,175.922Z" transform="translate(-323.083 -175.922)" fill="#fff"/></g><path d="M65.334,175.922a14.31,14.31,0,0,0-13.888,14.3V208.21a2.832,2.832,0,0,1,.414-.034h5.922V190.225a14.309,14.309,0,0,1,7.552-12.617Z" transform="translate(-51.446 -140.475)" fill="#f8f6f6"/><path d="M174.432,67.7V27.529a27.529,27.529,0,0,0-55.058,0V67.7Z" transform="translate(-105.687 0)" fill="#f8f6f6"/><path d="M127.2,27.477a19.674,19.674,0,0,1,7.556-15.516A27.544,27.544,0,0,1,152.179.507a27.544,27.544,0,0,0-32.805,27.022V67.7h10.553V37.49A19.609,19.609,0,0,1,127.2,27.477Z" transform="translate(-105.687 0)" fill="#e2e2e2"/><g transform="translate(21.508 7.769)"><path d="M169.322,65.962h17.152a5.939,5.939,0,0,1,5.924,5.65,19.708,19.708,0,1,0-29,0A5.939,5.939,0,0,1,169.322,65.962Z" transform="translate(-158.19 -38.559)" fill="#0172fb"/></g><g transform="translate(25.488 11.749)"><path d="M185.093,81.733h17.152a5.909,5.909,0,0,1,4.084,1.636,15.728,15.728,0,1,0-25.32,0A5.909,5.909,0,0,1,185.093,81.733Z" transform="translate(-177.94 -58.309)" fill="#8ac9fe"/></g><g transform="translate(25.488 11.749)"><path d="M185.093,81.734h2.438a15.73,15.73,0,0,1,9.928-22.961,15.728,15.728,0,0,0-16.45,24.6A5.908,5.908,0,0,1,185.093,81.734Z" transform="translate(-177.94 -58.311)" fill="#60b7ff"/></g><path d="M170,248.56v4.433a2.015,2.015,0,0,0,2.015,2.015h30.627a2.015,2.015,0,0,0,2.015-2.015V248.56Z" transform="translate(-146.112 -198.477)" fill="#868686"/><path d="M212.417,181.62v-1.927a6.133,6.133,0,0,0-6.133-6.133H189.132A6.133,6.133,0,0,0,183,179.693v1.927Z" transform="translate(-156.492 -138.589)" fill="#9c9c9c"/><path d="M197.193,173.56h-8.06A6.133,6.133,0,0,0,183,179.693v1.927h8.06v-1.927A6.133,6.133,0,0,1,197.193,173.56Z" transform="translate(-156.493 -138.589)" fill="#868686"/><path d="M184.246,220.015H138.507a1.008,1.008,0,0,1-1.007-1.007v-5.44a1.008,1.008,0,0,1,1.007-1.007h45.739a1.008,1.008,0,0,1,1.007,1.007v5.44A1.008,1.008,0,0,1,184.246,220.015Z" transform="translate(-120.161 -169.731)" fill="#acacac"/><path d="M147.675,219.008v-5.44a1.008,1.008,0,0,1,1.007-1.007H138.507a1.008,1.008,0,0,0-1.007,1.007v5.44a1.008,1.008,0,0,0,1.007,1.007h10.175A1.008,1.008,0,0,1,147.675,219.008Z" transform="translate(-120.161 -169.731)" fill="#9c9c9c"/><g transform="translate(35.675 2.732)"><circle cx="1.511" cy="1.511" r="1.511" fill="#8ac9fe"/><g transform="translate(4.03)"><circle cx="1.511" cy="1.511" r="1.511" fill="#22b27f"/></g><g transform="translate(8.06)"><circle cx="1.511" cy="1.511" r="1.511" fill="#0172fb"/></g></g></g><g transform="translate(16.541 67.5)"><path d="M123.127,335h-81.6a3.022,3.022,0,0,0-3.022,3.022v6.016a49.379,49.379,0,0,0,87.649,0v-6.016A3.022,3.022,0,0,0,123.127,335Z" transform="translate(-38.5 -335)" fill="#eaf6ff"/></g><path d="M48.272,338.022A3.022,3.022,0,0,1,51.295,335H41.522a3.022,3.022,0,0,0-3.022,3.022v6.016a49.54,49.54,0,0,0,9.772,13Z" transform="translate(-21.959 -267.5)" fill="#d8ecfe"/><g transform="translate(33.868 45.537)"><g transform="translate(0)"><path d="M150.991,431.981a49.134,49.134,0,0,0,26.5-7.708l-1.867-7.149a7.438,7.438,0,0,0-7.134-5.335H133.495a7.438,7.438,0,0,0-7.134,5.335l-1.867,7.149A49.135,49.135,0,0,0,150.991,431.981Z" transform="translate(-124.493 -374.354)" fill="#8ac9fe"/><path d="M134.91,417.123a7.438,7.438,0,0,1,7.134-5.335H133.5a7.438,7.438,0,0,0-7.134,5.335l-1.867,7.149a49.229,49.229,0,0,0,7.669,3.989Z" transform="translate(-124.494 -374.353)" fill="#60b7ff"/><g transform="translate(10.248)"><path d="M273.668,241.67v3.037h.652a4.605,4.605,0,0,1,4.6,4.6v2.59h1.917a3.039,3.039,0,0,1,1.195.244v-8.518a7.929,7.929,0,0,0-7.929-7.929h-3.27A7.714,7.714,0,0,1,273.668,241.67Z" transform="translate(-251.594 -233.741)" fill="#fb8801"/><path d="M186.782,244.157H188.7v-2.59a4.605,4.605,0,0,1,4.6-4.6h12.5v-3.038A7.929,7.929,0,0,0,197.871,226h-4.354a7.929,7.929,0,0,0-7.929,7.929V244.4a3.038,3.038,0,0,1,1.195-.244Z" transform="translate(-183.525 -226)" fill="#fe9901"/><path d="M186.782,244.157H188.7v-2.59a4.6,4.6,0,0,1,2.147-3.888v-3.749a7.929,7.929,0,0,1,7.477-7.916c-.15-.008-.3-.014-.452-.014h-4.354a7.929,7.929,0,0,0-7.929,7.929V244.4a3.038,3.038,0,0,1,1.195-.244Z" transform="translate(-183.525 -226)" fill="#fb8801"/><g transform="translate(0 17.956)"><path d="M180.526,323.653v-8.54h-1.917a3.257,3.257,0,0,0-3.257,3.257v2.389a3.257,3.257,0,0,0,3.257,3.257h1.926C180.53,323.9,180.526,323.775,180.526,323.653Z" transform="translate(-175.352 -315.113)" fill="#f6a96c"/><path d="M312.85,315.113h-1.917v8.54c0,.121,0,.242-.009.362h1.926a3.257,3.257,0,0,0,3.257-3.257V318.37A3.256,3.256,0,0,0,312.85,315.113Z" transform="translate(-283.607 -315.113)" fill="#ffbd86"/></g><g transform="translate(9.099 34.973)"><path d="M232.067,401.29v-1.718a8.705,8.705,0,0,1-2.054.246h-4.7a8.718,8.718,0,0,1-2.054-.246v1.718a.744.744,0,0,1-.744.744h-2l6.662,10.171a.6.6,0,0,0,1,0l6.587-10.169h-1.953a.744.744,0,0,1-.744-.744Z" transform="translate(-220.51 -399.572)" fill="#ffbd86"/></g><g transform="translate(9.099 34.974)"><path d="M225.808,403.325h.883a.744.744,0,0,0,.744-.744v-2.762h-2.127a8.718,8.718,0,0,1-2.054-.246v1.718a.744.744,0,0,1-.744.744h-2l6.662,10.171a.6.6,0,0,0,1,0l1.158-1.788-4.031-6.155A.6.6,0,0,1,225.808,403.325Z" transform="translate(-220.509 -399.573)" fill="#f6a96c"/></g><g transform="translate(4.972 10.766)"><path d="M213.66,304.085h-4.7a8.926,8.926,0,0,1-8.926-8.926V284.231a4.8,4.8,0,0,1,4.8-4.8h12.952a4.8,4.8,0,0,1,4.8,4.8V295.16A8.925,8.925,0,0,1,213.66,304.085Z" transform="translate(-200.03 -279.429)" fill="#fed2a4"/></g><path d="M204.255,295.16V284.231a4.8,4.8,0,0,1,4.8-4.8h-4.225a4.8,4.8,0,0,0-4.8,4.8V295.16a8.926,8.926,0,0,0,8.926,8.926h4.225A8.925,8.925,0,0,1,204.255,295.16Z" transform="translate(-195.058 -268.663)" fill="#ffbd86"/></g><g transform="translate(19.036 17.084)"><g transform="translate(2.86 9.556)"><path d="M238.13,362.664a6.354,6.354,0,0,1-4.522-1.874,1.511,1.511,0,1,1,2.137-2.137,3.369,3.369,0,0,0,4.769,0,1.511,1.511,0,0,1,2.137,2.137A6.353,6.353,0,0,1,238.13,362.664Z" transform="translate(-233.165 -358.21)" fill="#ea9b58"/></g><g transform="translate(5.477 2.064)"><path d="M249.308,327.158h-1.1a2.062,2.062,0,0,1-2.059-2.059V322.54a1.511,1.511,0,1,1,3.022,0v1.6h.133a1.511,1.511,0,0,1,0,3.022Z" transform="translate(-246.152 -321.029)" fill="#ea9b58"/></g><g transform="translate(-27.673 -46.416)"><path d="M112.126,224.056a2.355,2.355,0,1,0,2.355,2.355A2.355,2.355,0,0,0,112.126,224.056Z" transform="translate(-70.752 -177.416)" fill="#0a3575"/><path d="M125.077,224.055a1.178,1.178,0,1,0,1.178,1.178A1.178,1.178,0,0,0,125.077,224.055Z" transform="translate(-82.133 -177.415)" fill="#fff5f5"/></g><g transform="translate(-39.673 -46.416)"><path d="M112.126,224.056a2.355,2.355,0,1,0,2.355,2.355A2.355,2.355,0,0,0,112.126,224.056Z" transform="translate(-70.752 -177.416)" fill="#0a3575"/><path d="M125.077,224.055a1.178,1.178,0,1,0,1.178,1.178A1.178,1.178,0,0,0,125.077,224.055Z" transform="translate(-82.133 -177.415)" fill="#fff5f5"/></g></g></g></g></g></svg>