<svg xmlns="http://www.w3.org/2000/svg" width="45.178" height="50.23" viewBox="0 0 45.178 50.23"><g transform="translate(10200.833 8893.3)"><g transform="translate(-10226.584 -8893.3)"><path d="M30.46,416.211l-1.054.233a4.631,4.631,0,0,0-3.655,4.55v3.863a.736.736,0,1,0,1.472,0v-3.863a3.169,3.169,0,0,1,2.5-3.113l1.054-.233a.736.736,0,1,0-.317-1.437Z" transform="translate(0 -375.363)" fill="#13c6cc"/><path d="M164.071,210.4a5.441,5.441,0,0,1-.322-1.692,2.151,2.151,0,0,0-.689-1.721,2.962,2.962,0,0,0-3.384-.216,3.481,3.481,0,0,0-1.341,2.886,6.01,6.01,0,0,0,1.456,4.093,4.7,4.7,0,0,0,3,1.874c.051,0,.123.007.212.007a2.082,2.082,0,0,0,2.143-1.742,3.068,3.068,0,0,0-.512-2.268A8.893,8.893,0,0,1,164.071,210.4Zm-.359,3.168a.821.821,0,0,1-.245.467.9.9,0,0,1-.591.121c-.955-.054-3.2-2.019-3.072-4.421.023-.437.07-1.345.663-1.722a1.423,1.423,0,0,1,.755-.2,1.345,1.345,0,0,1,.87.286c.137.12.157.192.187.7a6.885,6.885,0,0,0,.405,2.1,10.285,10.285,0,0,0,.651,1.416C163.666,212.931,163.8,213.2,163.713,213.568Z" transform="translate(-119.571 -186.098)" fill="#13c6cc"/><path d="M240.056,123.2a.736.736,0,0,0,1.207-.843,8.915,8.915,0,0,0-1.051-1.239l.4-.569a.736.736,0,0,0-1.205-.844l-.326.465c-.161-.113-.324-.223-.492-.325a8.8,8.8,0,0,0-1.033-.536l.213-.655a.736.736,0,0,0-1.4-.455l-.205.631a8.915,8.915,0,0,0-1.4-.241.736.736,0,1,0-.133,1.466,7.447,7.447,0,0,1,1.075.178l-.219.676a.736.736,0,1,0,1.4.455l.21-.647a7.324,7.324,0,0,1,.726.387c.14.085.277.177.412.272l-.464.663a.736.736,0,1,0,1.205.844l.378-.54A7.393,7.393,0,0,1,240.056,123.2Z" transform="translate(-187.784 -106.145)" fill="#13c6cc"/><path d="M106.825,443.154a5.438,5.438,0,0,0-3.4.374,3.907,3.907,0,0,0-2.283,2.532,3.747,3.747,0,0,0,.878,3.457.736.736,0,1,0,1.156-.91,2.293,2.293,0,0,1-.609-2.181c.307-1.2,2.092-2.259,3.932-1.837a3.736,3.736,0,0,1,2.365,1.989,1.819,1.819,0,0,1-.293,2.008l-.031.042a.736.736,0,1,0,1.188.868l.027-.037a3.278,3.278,0,0,0,.45-3.484A5.2,5.2,0,0,0,106.825,443.154Z" transform="translate(-67.879 -399.567)" fill="#13c6cc"/><path d="M371.491,371.072a.743.743,0,0,0,.106-.008.735.735,0,0,0,.541-.378,5.888,5.888,0,0,0-7.979-7.979.736.736,0,0,0-.17,1.167l6.982,6.982A.736.736,0,0,0,371.491,371.072Zm-4.531-7.6a4.416,4.416,0,0,1,4.265,5.558l-5.407-5.408A4.433,4.433,0,0,1,366.96,363.472Z" transform="translate(-304.861 -326.486)" fill="#13c6cc"/><path d="M337.5,389.532a.735.735,0,0,0-.541.378,5.888,5.888,0,0,0,7.979,7.979.736.736,0,0,0,.17-1.167l-6.982-6.982A.735.735,0,0,0,337.5,389.532Zm4.637,7.593a4.416,4.416,0,0,1-4.265-5.558l5.408,5.408A4.432,4.432,0,0,1,342.137,397.125Z" transform="translate(-280.038 -351.31)" fill="#13c6cc"/><path d="M123.6,34.678a.736.736,0,0,0-.955,1.12,7.326,7.326,0,1,1-2.726-1.468.736.736,0,1,0,.408-1.414,8.839,8.839,0,0,0-11,6.251l-1.351-.3a2.194,2.194,0,0,1-1.731-2.155V32.64a14.594,14.594,0,0,0,5.164-6.9,4.056,4.056,0,0,0,4.147-4.048v-1.1a2.924,2.924,0,0,0-.316-1.324V13.655a13.573,13.573,0,0,0-2.449-7.8.736.736,0,0,0-1.207.842,12.11,12.11,0,0,1,2.184,6.962v4.228a2.927,2.927,0,0,0-1.157-.237h-.356a10.16,10.16,0,0,0-3.667-7.556,15.158,15.158,0,0,0-6.269-3.317V1.494A12.2,12.2,0,0,1,109.4,4.308a.736.736,0,0,0,.944-1.129A13.656,13.656,0,0,0,87.932,13.655v5.563a2.925,2.925,0,0,0-.34,1.372v1.1a4.058,4.058,0,0,0,4.171,4.048,14.594,14.594,0,0,0,5.164,6.9v4.073A2.194,2.194,0,0,1,95.2,38.869L89.575,40.11a.736.736,0,1,0,.317,1.437l5.621-1.242A3.656,3.656,0,0,0,98.4,36.713V33.579a14.671,14.671,0,0,0,1.685.8,4.031,4.031,0,0,0,3.007,0,14.671,14.671,0,0,0,1.685-.8v3.135a3.654,3.654,0,0,0,1.79,3.16,8.451,8.451,0,0,0-1.233,2.722c-.253.949-.694,3.29.669,4.518a3.146,3.146,0,0,0,2.608.388,5.323,5.323,0,0,1,3.184.3,8.828,8.828,0,1,0,11.8-13.12ZM114.087,20.59v1.1a2.579,2.579,0,0,1-2.231,2.552,14.6,14.6,0,0,0,.4-3.405V19.118h.356a1.474,1.474,0,0,1,1.472,1.472Zm-25.023,1.1v-1.1a1.474,1.474,0,0,1,1.472-1.472h.38v1.723a14.6,14.6,0,0,0,.4,3.409A2.579,2.579,0,0,1,89.064,21.694Zm13.481,11.322a2.566,2.566,0,0,1-1.914,0,13.113,13.113,0,0,1-8.243-12.175V17.65a7.638,7.638,0,0,1,1.068-3.857.736.736,0,0,0-1.274-.736,9.091,9.091,0,0,0-1.265,4.59h-.381a2.927,2.927,0,0,0-1.132.227V13.655A12.2,12.2,0,0,1,100.852,1.494v5.28a15.154,15.154,0,0,0-6.4,3.492.736.736,0,0,0,1,1.082,13.671,13.671,0,0,1,6.143-3.233,13.488,13.488,0,0,1,6.025,3.074,8.73,8.73,0,0,1,3.175,6.461v3.191a13.114,13.114,0,0,1-8.243,12.175Zm5.893,13.024c-.592.07-1.262.149-1.45-.02-.621-.56-.514-1.991-.232-3.046a6.32,6.32,0,0,1,1.282-2.586l1.042.23c-.023.258-.035.518-.035.782a8.775,8.775,0,0,0,1.255,4.533,11.071,11.071,0,0,0-1.861.107Z" transform="translate(-55.774 0)" fill="#13c6cc"/></g></g></svg>