<svg xmlns="http://www.w3.org/2000/svg" xmlns:xlink="http://www.w3.org/1999/xlink" width="150.012" height="126" viewBox="0 0 150.012 126"><defs><filter id="a" x="13.005" y="0" width="126" height="126" filterUnits="userSpaceOnUse"><feOffset dy="3" input="SourceAlpha"/><feGaussianBlur stdDeviation="3" result="b"/><feFlood flood-opacity="0.161"/><feComposite operator="in" in2="b"/><feComposite in="SourceGraphic"/></filter></defs><g transform="translate(-1143.931 -2216.559)"><g transform="matrix(1, 0, 0, 1, 1143.93, 2216.56)" filter="url(#a)"><circle cx="54" cy="54" r="54" transform="translate(22.01 6)" fill="#1b3f5e"/></g><g transform="translate(-18.891)"><g transform="translate(1250.82 2240.693)"><g transform="translate(0.001 0)"><path d="M49.2,21.863l-.21.908-1.24-.554a2.03,2.03,0,0,0-.853-.177H43.576V15.651L36.29,17.2a22.108,22.108,0,0,1-4.429.454,21.536,21.536,0,0,1-8.22-1.629l0,6.014H20.322a2.206,2.206,0,0,0-1.473.565L17,24.277v-.022A3.289,3.289,0,0,1,18.107,21.8V10.357c0-8.25,7.751-6.345,7.751-6.345,27.418-11.284,23.409,12.38,22.346,17.2a3.175,3.175,0,0,1,1,.653Z" transform="translate(-2.604 0.104)" fill="#494a59"/><path d="M32.751,32.307A11.014,11.014,0,0,1,25,29.14V47.81l7.751,8.859L40.5,47.81V29.14A11.014,11.014,0,0,1,32.751,32.307Z" transform="translate(-1.746 3.126)" fill="#eac2b9"/><path d="M57.93,44.167,50.4,42.429,42.65,38,34.9,46.859,27.147,38,19.4,42.429l-7.529,1.737A8.859,8.859,0,0,0,5,52.8V65.684H64.8V52.8a8.859,8.859,0,0,0-6.867-8.632Z" transform="translate(-3.893 4.077)" fill="#e6ecff"/><path d="M44.429,19H40v6.644h4.429a3.322,3.322,0,1,0,0-6.644Z" transform="translate(-0.135 2.037)" fill="#eac2b9"/><path d="M20.322,19a3.322,3.322,0,1,0,0,6.644h4.429V19Z" transform="translate(-2.604 2.037)" fill="#eac2b9"/><path d="M18,42.429l7.751,8.859L33.5,46.859,25.751,38Z" transform="translate(-2.497 4.077)" fill="#d0dbf7"/><path d="M47.5,42.429l-7.751,8.859L32,46.859,39.751,38Z" transform="translate(-0.994 4.077)" fill="#d0dbf7"/><path d="M26,64.825l4.429-9.966L27.96,48.68,32.644,46l4.684,2.68-2.469,6.179,4.429,9.966Z" transform="translate(-1.638 4.936)" fill="#4294ff"/><path d="M37.138,48.68l-2.469,6.179H30.239L27.77,48.68,32.454,46Z" transform="translate(-1.448 4.936)" fill="#4294ff"/><path d="M35.523,14.824A20.319,20.319,0,0,1,22,13V26.288a11.073,11.073,0,0,0,22.147,0V13Z" transform="translate(-2.068 1.393)" fill="#ffddd4"/><path d="M58.286,47.164l-7.37-1.7-7.051-4.029V36.015a12.127,12.127,0,0,0,3.266-7.227h1.163a4.422,4.422,0,0,0,2.553-8.037c.772-3.939,1.993-13.668-3.5-18.292-4.091-3.437-10.884-3.269-20.2.506a8.191,8.191,0,0,0-6.238,1.251C19.24,5.523,18.4,7.624,18.4,10.462v11a4.407,4.407,0,0,0,3.322,7.328h1.163a12.127,12.127,0,0,0,3.266,7.227v5.419L19.1,45.463l-7.371,1.7A9.92,9.92,0,0,0,4,56.875V69.76a1.107,1.107,0,0,0,1.107,1.107H64.9a1.107,1.107,0,0,0,1.107-1.107V56.875a9.92,9.92,0,0,0-7.726-9.711ZM33.511,60.9H36.5l3.445,7.751h-9.88Zm2.96-2.215h-2.93L31.7,54.1l3.3-1.886,3.3,1.886ZM35.006,39.862a12.244,12.244,0,0,0,6.644-1.967V41.66l-6.644,7.594L28.362,41.66V37.895a12.326,12.326,0,0,0,6.644,1.967Zm1.725,10.784,6.263-7.158,5.79,3.308L42.52,53.953ZM48.294,26.574H47.187V22.144h1.107a2.215,2.215,0,1,1,0,4.429ZM20.61,10.462c0-2.117.556-3.629,1.653-4.5a5.1,5.1,0,0,1,3.152-.932,7.718,7.718,0,0,1,1.573.157,1.112,1.112,0,0,0,.686-.051c8.65-3.558,14.786-3.889,18.241-.986,4.447,3.738,3.532,12.019,2.83,15.8-.328-.035-1.2-.024-1.56-.024V14.392a1.035,1.035,0,0,0-.761-1.034,1.085,1.085,0,0,0-.576-.05l-8.624,1.823A19.621,19.621,0,0,1,25.937,14.1q-.762-.313-1.5-.693a1.107,1.107,0,0,0-1.614.984v5.537H21.718a5.289,5.289,0,0,0-1.107.141ZM19.5,24.359a2.239,2.239,0,0,1,2.215-2.215h1.107v4.429H21.718A2.217,2.217,0,0,1,19.5,24.359Zm5.537-3.322V16.126A21.585,21.585,0,0,0,37.682,17.3l7.29-1.544V27.681a9.966,9.966,0,0,1-19.932,0Zm1.978,22.451,6.263,7.158-5.79,3.308L21.228,46.8ZM6.215,56.875a7.714,7.714,0,0,1,6.009-7.552l6.883-1.589,7.314,8.359a1.107,1.107,0,0,0,1.383.233l1.96-1.12,1.826,4.565-3.947,8.881H16.181V63.116a1.107,1.107,0,1,0-2.215,0v5.537H6.215ZM63.8,68.653H56.045V63.116a1.107,1.107,0,1,0-2.215,0v5.537H42.37l-3.948-8.881,1.826-4.565,1.96,1.12a1.107,1.107,0,0,0,1.383-.233l7.314-8.359,6.883,1.589A7.714,7.714,0,0,1,63.8,56.875Z" transform="translate(-4 -0.002)" fill="#232328"/></g></g><g transform="translate(1162.822 2240.693)"><g transform="translate(-0.001 0)"><path d="M49.2,21.863l-.21.908-1.24-.554a2.03,2.03,0,0,0-.853-.177H43.576V15.651L36.29,17.2a22.108,22.108,0,0,1-4.429.454,21.536,21.536,0,0,1-8.22-1.629l0,6.014H20.322a2.206,2.206,0,0,0-1.473.565L17,24.277v-.022A3.289,3.289,0,0,1,18.107,21.8V10.357c0-8.25,7.751-6.345,7.751-6.345,27.418-11.284,23.409,12.38,22.346,17.2a3.175,3.175,0,0,1,1,.653Z" transform="translate(-2.604 0.104)" fill="#494a59"/><path d="M32.751,32.307A11.014,11.014,0,0,1,25,29.14V47.81l7.751,8.859L40.5,47.81V29.14A11.014,11.014,0,0,1,32.751,32.307Z" transform="translate(-1.746 3.126)" fill="#eac2b9"/><path d="M57.93,44.167,50.4,42.429,42.65,38,34.9,46.859,27.147,38,19.4,42.429l-7.529,1.737A8.859,8.859,0,0,0,5,52.8V65.684H64.8V52.8a8.859,8.859,0,0,0-6.867-8.632Z" transform="translate(-3.893 4.077)" fill="#e6ecff"/><path d="M44.429,19H40v6.644h4.429a3.322,3.322,0,1,0,0-6.644Z" transform="translate(-0.135 2.037)" fill="#eac2b9"/><path d="M20.322,19a3.322,3.322,0,1,0,0,6.644h4.429V19Z" transform="translate(-2.604 2.037)" fill="#eac2b9"/><path d="M18,42.429l7.751,8.859L33.5,46.859,25.751,38Z" transform="translate(-2.497 4.077)" fill="#d0dbf7"/><path d="M47.5,42.429l-7.751,8.859L32,46.859,39.751,38Z" transform="translate(-0.994 4.077)" fill="#d0dbf7"/><path d="M26,64.825l4.429-9.966L27.96,48.68,32.644,46l4.684,2.68-2.469,6.179,4.429,9.966Z" transform="translate(-1.638 4.936)" fill="#f7c46b"/><path d="M37.138,48.68l-2.469,6.179H30.239L27.77,48.68,32.454,46Z" transform="translate(-1.448 4.936)" fill="#f7c46b"/><path d="M35.523,14.824A20.319,20.319,0,0,1,22,13V26.288a11.073,11.073,0,0,0,22.147,0V13Z" transform="translate(-2.068 1.393)" fill="#ffddd4"/><path d="M58.286,47.164l-7.37-1.7-7.051-4.029V36.015a12.127,12.127,0,0,0,3.266-7.227h1.163a4.422,4.422,0,0,0,2.553-8.037c.772-3.939,1.993-13.668-3.5-18.292-4.091-3.437-10.884-3.269-20.2.506a8.191,8.191,0,0,0-6.238,1.251C19.24,5.523,18.4,7.624,18.4,10.462v11a4.407,4.407,0,0,0,3.322,7.328h1.163a12.127,12.127,0,0,0,3.266,7.227v5.419L19.1,45.463l-7.371,1.7A9.92,9.92,0,0,0,4,56.875V69.76a1.107,1.107,0,0,0,1.107,1.107H64.9a1.107,1.107,0,0,0,1.107-1.107V56.875a9.92,9.92,0,0,0-7.726-9.711ZM33.511,60.9H36.5l3.445,7.751h-9.88Zm2.96-2.215h-2.93L31.7,54.1l3.3-1.886,3.3,1.886ZM35.006,39.862a12.244,12.244,0,0,0,6.644-1.967V41.66l-6.644,7.594L28.362,41.66V37.895a12.326,12.326,0,0,0,6.644,1.967Zm1.725,10.784,6.263-7.158,5.79,3.308L42.52,53.953ZM48.294,26.574H47.187V22.144h1.107a2.215,2.215,0,1,1,0,4.429ZM20.61,10.462c0-2.117.556-3.629,1.653-4.5a5.1,5.1,0,0,1,3.152-.932,7.718,7.718,0,0,1,1.573.157,1.112,1.112,0,0,0,.686-.051c8.65-3.558,14.786-3.889,18.241-.986,4.447,3.738,3.532,12.019,2.83,15.8-.328-.035-1.2-.024-1.56-.024V14.392a1.035,1.035,0,0,0-.761-1.034,1.085,1.085,0,0,0-.576-.05l-8.624,1.823A19.621,19.621,0,0,1,25.937,14.1q-.762-.313-1.5-.693a1.107,1.107,0,0,0-1.614.984v5.537H21.718a5.289,5.289,0,0,0-1.107.141ZM19.5,24.359a2.239,2.239,0,0,1,2.215-2.215h1.107v4.429H21.718A2.217,2.217,0,0,1,19.5,24.359Zm5.537-3.322V16.126A21.585,21.585,0,0,0,37.682,17.3l7.29-1.544V27.681a9.966,9.966,0,0,1-19.932,0Zm1.978,22.451,6.263,7.158-5.79,3.308L21.228,46.8ZM6.215,56.875a7.714,7.714,0,0,1,6.009-7.552l6.883-1.589,7.314,8.359a1.107,1.107,0,0,0,1.383.233l1.96-1.12,1.826,4.565-3.947,8.881H16.181V63.116a1.107,1.107,0,1,0-2.215,0v5.537H6.215ZM63.8,68.653H56.045V63.116a1.107,1.107,0,1,0-2.215,0v5.537H42.37l-3.948-8.881,1.826-4.565,1.96,1.12a1.107,1.107,0,0,0,1.383-.233l7.314-8.359,6.883,1.589A7.714,7.714,0,0,1,63.8,56.875Z" transform="translate(-4 -0.002)" fill="#232328"/></g></g><g transform="translate(1199.82 2240.693)"><g transform="translate(0 0)"><path d="M57.835,27.457l-.267,1.151L56,27.907a2.574,2.574,0,0,0-1.081-.225H50.7v-8.1l-9.24,1.966a28.035,28.035,0,0,1-5.617.576,27.31,27.31,0,0,1-10.424-2.066l0,7.627H21.213a2.8,2.8,0,0,0-1.868.716L17,30.519V30.49a4.171,4.171,0,0,1,1.4-3.117V12.867c0-10.462,9.83-8.046,9.83-8.046C63-9.488,57.919,20.52,56.571,26.629a4.026,4.026,0,0,1,1.264.829Z" transform="translate(1.255 0.4)" fill="#494a59"/><path d="M34.83,33.156A13.967,13.967,0,0,1,25,29.14V52.815l9.83,11.234,9.83-11.234V29.14A13.967,13.967,0,0,1,34.83,33.156Z" transform="translate(4.489 11.776)" fill="#eac2b9"/><path d="M72.121,45.82l-9.547-2.2L52.744,38l-9.83,11.234L33.085,38l-9.83,5.617-9.547,2.2A11.234,11.234,0,0,0,5,56.766v16.34H80.829V56.766A11.234,11.234,0,0,0,72.121,45.82Z" transform="translate(-3.596 15.358)" fill="#e6ecff"/><path d="M45.617,19H40v8.425h5.617a4.213,4.213,0,1,0,0-8.425Z" transform="translate(10.553 7.677)" fill="#eac2b9"/><path d="M21.213,19a4.213,4.213,0,1,0,0,8.425H26.83V19Z" transform="translate(1.255 7.677)" fill="#eac2b9"/><path d="M18,43.617l9.83,11.234,9.83-5.617L27.83,38Z" transform="translate(1.659 15.358)" fill="#d0dbf7"/><path d="M51.659,43.617,41.83,54.851,32,49.234,41.83,38Z" transform="translate(7.319 15.358)" fill="#d0dbf7"/><path d="M26,69.872l5.617-12.638L28.486,49.4l5.94-3.4,5.94,3.4-3.131,7.836,5.617,12.638Z" transform="translate(4.893 18.592)" fill="#24af5c"/><path d="M39.65,49.4l-3.131,7.836H30.9L27.77,49.4,33.71,46Z" transform="translate(5.609 18.592)" fill="#24af5c"/><path d="M39.149,15.312A25.767,25.767,0,0,1,22,13V29.851a14.042,14.042,0,0,0,28.085,0V13Z" transform="translate(3.276 5.252)" fill="#ffddd4"/><path d="M72.84,59.809l-9.346-2.157-8.942-5.109V45.671a15.378,15.378,0,0,0,4.142-9.165h1.475a5.607,5.607,0,0,0,3.238-10.192c.979-4.994,2.528-17.332-4.445-23.2-5.188-4.358-13.8-4.146-25.613.642a10.387,10.387,0,0,0-7.91,1.587C23.326,7,22.255,9.668,22.255,13.266V27.213a5.589,5.589,0,0,0,4.213,9.293h1.475a15.378,15.378,0,0,0,4.142,9.165v6.871l-8.941,5.109L13.8,59.809A12.579,12.579,0,0,0,4,72.123V88.463a1.4,1.4,0,0,0,1.4,1.4H81.233a1.4,1.4,0,0,0,1.4-1.4V72.123a12.58,12.58,0,0,0-9.8-12.315ZM41.423,77.229h3.791l4.369,9.83H37.054Zm3.754-2.808H41.461L39.133,68.6l4.186-2.392L47.5,68.6ZM43.319,50.548a15.526,15.526,0,0,0,8.425-2.494v4.774l-8.425,9.63-8.425-9.63V48.054a15.63,15.63,0,0,0,8.425,2.494Zm2.187,13.675,7.943-9.077,7.342,4.195-7.943,9.077ZM60.169,33.7h-1.4V28.081h1.4a2.808,2.808,0,1,1,0,5.617ZM25.064,13.266c0-2.685.705-4.6,2.1-5.7a6.462,6.462,0,0,1,4-1.182,9.787,9.787,0,0,1,2,.2,1.41,1.41,0,0,0,.87-.064c10.968-4.512,18.751-4.931,23.132-1.25,5.639,4.741,4.48,15.241,3.589,20.034-.416-.045-1.522-.03-1.979-.03V18.25A1.312,1.312,0,0,0,57.8,16.94a1.376,1.376,0,0,0-.73-.063L46.133,19.189a24.882,24.882,0,0,1-14.315-1.308q-.966-.4-1.9-.878a1.4,1.4,0,0,0-2.047,1.248v7.021h-1.4a6.707,6.707,0,0,0-1.4.178Zm-1.4,17.623a2.84,2.84,0,0,1,2.808-2.808h1.4V33.7h-1.4a2.812,2.812,0,0,1-2.808-2.809Zm7.021-4.213V20.449a27.372,27.372,0,0,0,16.032,1.493l9.244-1.958V35.1a12.638,12.638,0,0,1-25.276,0Zm2.508,28.47,7.943,9.077-7.342,4.195-7.943-9.077ZM6.808,72.123a9.782,9.782,0,0,1,7.62-9.577l8.729-2.015,9.276,10.6a1.4,1.4,0,0,0,1.753.295l2.486-1.42L38.987,75.8,33.982,87.058H19.447V80.037a1.4,1.4,0,0,0-2.808,0v7.021H6.809Zm73.02,14.935H70V80.037a1.4,1.4,0,0,0-2.808,0v7.021H52.657L47.651,75.8l2.316-5.789,2.486,1.42a1.4,1.4,0,0,0,1.754-.295l9.276-10.6,8.729,2.015a9.783,9.783,0,0,1,7.619,9.577Z" transform="translate(-4 -0.002)" fill="#232328"/></g></g></g></g></svg>