<svg xmlns="http://www.w3.org/2000/svg" width="98.731" height="103.163" viewBox="0 0 98.731 103.163"><g transform="translate(7301.539 8981.164)"><g transform="translate(-7312.539 -8981.164)"><g transform="translate(11 4.433)"><path d="M100.859,99.6a49.365,49.365,0,1,0-80.987,0Z" transform="translate(-11 -22)" fill="#4aa3dc"/></g><g transform="translate(24.42 9.226)"><circle cx="36" cy="36" r="36" transform="translate(-0.419 -0.062)" fill="#3c94cd"/></g><g transform="translate(95.626 41.439)"><path d="M432.007,246.227A1.007,1.007,0,0,1,431,245.22V206.666a1.007,1.007,0,1,1,2.015,0V245.22A1.007,1.007,0,0,1,432.007,246.227Z" transform="translate(-431 -205.659)" fill="#b8f0ff"/></g><g transform="translate(39.408 15.069)"><path d="M172.948,74.787c-15.36,0-20.957,11.044-20.957,11.044v3.551H193.9V85.831S188.308,74.787,172.948,74.787Z" transform="translate(-151.991 -74.787)" fill="#ff4155"/></g><g transform="translate(19.872 63.384)"><path d="M95.524,354.354a49.305,49.305,0,0,0,40.494-21.129c-1.858-5.11-3.836-9.536-5.519-11.022-4.718-4.165-24.962-7.543-25.482-7.629l-9.492,0-9.492,0c-.521.086-20.765,3.464-25.482,7.629-1.683,1.486-3.661,5.912-5.519,11.022A49.306,49.306,0,0,0,95.524,354.354Z" transform="translate(-55.031 -314.574)" fill="#8f8ff9"/></g><g transform="translate(58.854 68.615)"><path d="M251.522,375.062V340.538H248.5v34.524c.5.015,1.005.025,1.511.025S251.02,375.077,251.522,375.062Z" transform="translate(-248.5 -340.538)" fill="#746bf9"/></g><g transform="translate(58.35 79.807)"><circle cx="2.015" cy="2.015" r="2.015" fill="#a2b6f4"/></g><g transform="translate(58.35 91.967)"><circle cx="2.015" cy="2.015" r="2.015" fill="#a2b6f4"/></g><g transform="translate(47.827 63.384)"><path d="M218.861,315.117c-1.744-.332-2.885-.522-3-.542h-19.1c-.118.02-1.254.21-2.991.54.4.536,5.062,6.531,12.5,6.531C213.774,321.646,218.537,315.544,218.861,315.117Z" transform="translate(-193.771 -314.575)" fill="#746bf9"/></g><g transform="translate(19.876 66.094)"><path d="M73.145,328.024c-5.189,1.328-10.45,3.043-12.574,4.919-1.683,1.486-3.661,5.912-5.519,11.022A49.3,49.3,0,0,0,95.54,365.094C74.883,353.266,73.189,328.724,73.145,328.024Z" transform="translate(-55.051 -328.024)" fill="#746bf9"/></g><g transform="translate(50.818 44.476)"><path d="M227.71,220.734h-19.1v18.908a14.26,14.26,0,0,0,9.5,4.049,14.6,14.6,0,0,0,9.591-4.049Z" transform="translate(-208.614 -220.734)" fill="#fcad6d"/></g><g transform="translate(50.818 44.476)"><path d="M208.614,220.734v18.908c18.788,0,19.094-10.386,19.1-10.708v-8.2Z" transform="translate(-208.614 -220.734)" fill="#fd995b"/></g><g transform="translate(37.968 28.061)"><path d="M152.118,143.358s-2.092-5.095-5.822-3.912.09,12.223,7.369,12.919Z" transform="translate(-144.844 -139.268)" fill="#fd995b"/></g><g transform="translate(73.942 28.061)"><path d="M324.929,143.358s2.092-5.095,5.822-3.912-.09,12.223-7.369,12.919Z" transform="translate(-323.382 -139.268)" fill="#fcad6d"/></g><g transform="translate(42.715 7.227)"><path d="M198.241,73.118l2.846-1.261A38.96,38.96,0,0,0,203.7,58.212c0-13-7.9-22.342-17.65-22.342S168.4,45.215,168.4,58.212c0,9.763,4.459,20.793,10.81,25.678l3.817.471,2.1,2.045q.458.045.923.046c4.731,0,9.027-3.591,12.2-8.773Z" transform="translate(-168.403 -35.87)" fill="#f9ba8f"/></g><g transform="translate(42.715 7.227)"><path d="M190.083,36.42a14.94,14.94,0,0,0-4.03-.551c-9.748,0-17.65,9.345-17.65,22.342,0,9.763,4.459,20.794,10.81,25.678l3.817.471,2.1,2.045q.458.045.923.046a10,10,0,0,0,4.03-.876c-7.806-3.416-13.62-16.216-13.62-27.364s5.814-19.61,13.62-21.791Z" transform="translate(-168.403 -35.869)" fill="#fcad6d"/></g><g transform="translate(39.408)"><path d="M172.948,0a20.957,20.957,0,0,0-20.957,20.957v5.156s6.557-7.279,20.957-7.279S193.9,26.112,193.9,26.112V20.957A20.957,20.957,0,0,0,172.948,0Z" transform="translate(-151.991)" fill="#e9efff"/></g><g transform="translate(39.408)"><path d="M172.948,0a20.957,20.957,0,0,0-20.957,20.957v5.156s6.557-7.279,20.957-7.279c-10.972-6.468-6.075-17.388,0-18.833Z" transform="translate(-151.991)" fill="#d3dcfb"/></g><g transform="translate(39.636 1.751)"><path d="M189.432,13.88a21.008,21.008,0,0,0-7.186-5.192c-7.378.884-19.284,3.289-27.133,9.815a20.814,20.814,0,0,0-1.99,6.3C157.225,22.216,167.642,17.111,189.432,13.88Z" transform="translate(-153.122 -8.688)" fill="#bec8f7"/></g><g transform="translate(57.343 35.45)"><path d="M241.2,179.263l1.7-2.708a1.321,1.321,0,0,1,2.237,0l1.7,2.708a1.321,1.321,0,0,1-1.118,2.023h-3.4A1.321,1.321,0,0,1,241.2,179.263Z" transform="translate(-241 -175.936)" fill="#fcad6d"/></g><g transform="translate(56.391 45.01)"><path d="M243.618,225.4a.606.606,0,0,0,.274-1.145,8.062,8.062,0,0,0-7.284,0,.605.605,0,0,0,.274,1.145Z" transform="translate(-236.276 -223.383)" fill="#fd995b"/></g><g transform="translate(67.921 85.325)"><path d="M307.6,427.5h-12.09a2.015,2.015,0,0,1,0-4.03H307.6a2.015,2.015,0,0,1,0,4.03Z" transform="translate(-293.5 -423.468)" fill="#a2b6f4"/></g><g transform="translate(49.283 30.113)"><path d="M201,150.464a2.519,2.519,0,1,0,5.037,0,1.042,1.042,0,0,0-1.781-.707,1.043,1.043,0,0,1-1.475,0A1.042,1.042,0,0,0,201,150.464Z" transform="translate(-201 -149.45)" fill="#2d2d59"/></g><g transform="translate(66.41 30.113)"><path d="M291.036,150.464a2.519,2.519,0,1,1-5.037,0,1.042,1.042,0,0,1,1.781-.707,1.043,1.043,0,0,0,1.475,0A1.042,1.042,0,0,1,291.036,150.464Z" transform="translate(-285.999 -149.45)" fill="#2d2d59"/></g><g transform="translate(47.336 24.457)"><path d="M197.133,124.349l-3.893,1.043a1.511,1.511,0,0,1-.782-2.919l3.893-1.043a1.511,1.511,0,1,1,.782,2.919Z" transform="translate(-191.338 -121.378)" fill="#2d2d59"/></g><g transform="translate(66.478 24.457)"><path d="M291.352,125.393l-3.893-1.043a1.511,1.511,0,0,1,.782-2.919l3.893,1.043a1.511,1.511,0,0,1-.782,2.919Z" transform="translate(-286.339 -121.379)" fill="#2d2d59"/></g><g transform="translate(27.133 84.918)"><path d="M91.07,422.535v4.3a49.626,49.626,0,0,0,4.553,3.68L93.2,422.23A1.086,1.086,0,0,0,91.07,422.535Z" transform="translate(-91.07 -421.448)" fill="#5858f4"/></g><g transform="translate(89.044 84.918)"><path d="M402.885,422.535v4.3a49.628,49.628,0,0,1-4.554,3.68l2.425-8.282A1.086,1.086,0,0,1,402.885,422.535Z" transform="translate(-398.331 -421.448)" fill="#746bf9"/></g><g transform="translate(66.41 38.219)"><path d="M294.99,194.674l-3.755-4.033a3.022,3.022,0,0,0-4.424,4.119l5.341,5.737A35.622,35.622,0,0,0,294.99,194.674Z" transform="translate(-286 -189.678)" fill="#e9efff"/></g><g transform="translate(68.425 40.234)"><path d="M302.126,204.7l-4.38-4.7a1,1,0,0,0-.351-.245,1.008,1.008,0,0,0-1.123,1.618l4.908,5.271Q301.677,205.7,302.126,204.7Z" transform="translate(-296.002 -199.68)" fill="#d3dcfb"/></g><g transform="translate(53.526 49.963)"><path d="M226.079,248.929l-4.024,4.322a11.623,11.623,0,0,0,5.917,2.516l2.532-2.719a3.022,3.022,0,1,0-4.424-4.119Z" transform="translate(-222.055 -247.966)" fill="#e9efff"/></g><g transform="translate(53.526 50.964)"><path d="M230.233,257.3a20.737,20.737,0,0,1-4.189-4.372l-3.989,4.284a11.622,11.622,0,0,0,5.917,2.516Z" transform="translate(-222.055 -252.933)" fill="#d3dcfb"/></g><g transform="translate(55.227 51.978)"><path d="M234.645,258.043a1,1,0,0,0-.351.245l-3.8,4.079a11.761,11.761,0,0,0,1.935.879l3.338-3.585a1.008,1.008,0,0,0-1.123-1.618Z" transform="translate(-230.496 -257.967)" fill="#d3dcfb"/></g><g transform="translate(55.227 52.562)"><path d="M232.431,265.558l3.007-3.23q-.714-.682-1.388-1.465l-3.553,3.816A11.771,11.771,0,0,0,232.431,265.558Z" transform="translate(-230.496 -260.863)" fill="#bec8f7"/></g><g transform="translate(41.627 3.667)"><path d="M202.689,34.965A20.977,20.977,0,0,0,202.1,30.5c-5.282-4.051-15.888-10.4-32.2-12.3A21.051,21.051,0,0,0,163,26.1C170.527,25.556,188.258,25.508,202.689,34.965Z" transform="translate(-163 -18.2)" fill="#d3dcfb"/></g><g transform="translate(39.636 4.694)"><path d="M168.385,23.3a39.985,39.985,0,0,0-13.272,6.872,20.814,20.814,0,0,0-1.99,6.3A61.148,61.148,0,0,1,167.7,30.26,9.59,9.59,0,0,1,168.385,23.3Z" transform="translate(-153.122 -23.297)" fill="#a2b6f4"/></g><g transform="translate(41.627 3.667)"><path d="M176.278,19.216c-2.023-.41-4.147-.756-6.383-1.016A21.051,21.051,0,0,0,163,26.1a79.317,79.317,0,0,1,12.593.119A9.589,9.589,0,0,1,176.278,19.216Z" transform="translate(-163 -18.2)" fill="#bec8f7"/></g><g transform="translate(92.604 35.174)"><path d="M420.03,184.127A4.03,4.03,0,0,1,416,180.1V174.57h8.06V180.1A4.03,4.03,0,0,1,420.03,184.127Z" transform="translate(-416 -174.57)" fill="#8ae1ff"/></g><g transform="translate(86.559 6.966)"><path d="M402.119,38.6H400.1a4.03,4.03,0,0,0-8.06,0H390.03A4.03,4.03,0,0,0,386,42.63v14.1a10.075,10.075,0,1,0,20.149,0V42.63A4.03,4.03,0,0,0,402.119,38.6Z" transform="translate(-386 -34.57)" fill="#b8f0ff"/></g><g transform="translate(86.559 10.995)"><path d="M392.045,72.7V54.57H390.03A4.03,4.03,0,0,0,386,58.6V72.7a10.081,10.081,0,0,0,13.1,9.613A10.079,10.079,0,0,1,392.045,72.7Z" transform="translate(-386 -54.57)" fill="#8ae1ff"/></g><g transform="translate(86.559 21.574)"><path d="M396.075,124.7A10.075,10.075,0,0,1,386,114.626v-.84c10.075,0,10.075-6.716,20.149-6.716v7.556A10.075,10.075,0,0,1,396.075,124.7Z" transform="translate(-386 -107.07)" fill="#42c3fc"/></g><g transform="translate(86.559 27.215)"><path d="M386,136.141v.84a10.081,10.081,0,0,0,13.1,9.613,10.079,10.079,0,0,1-7.052-9.613v-1.915A15.638,15.638,0,0,1,386,136.141Z" transform="translate(-386 -135.066)" fill="#1aa9e8"/></g><g transform="translate(95.123 9.484)"><circle cx="1.511" cy="1.511" r="1.511" fill="#8ae1ff"/></g></g></g></svg>