<svg xmlns="http://www.w3.org/2000/svg" xmlns:xlink="http://www.w3.org/1999/xlink" width="610" height="363" viewBox="0 0 610 363"><defs><clipPath id="a"><rect width="610" height="363" transform="translate(809.936 1520)" fill="#fff" opacity="0.39"/></clipPath><clipPath id="b"><rect width="498.738" height="281.345" fill="none"/></clipPath><clipPath id="c"><rect width="513.232" height="337.353" fill="none"/></clipPath><clipPath id="d"><path d="M255.515,0a91.692,91.692,0,0,0-9.772.547A103.251,103.251,0,0,0,179.554,34.7c-16.619,18.938-27.5,41.71-39.413,63.636s-25.518,43.807-45.89,59.043c-19.423,14.529-44.713,22.846-58.763,42.2C21.017,219.5-9.785,293.766,3.066,314.669s60.331,9.237,84.266,17.355c13.591,4.61,30.089.88,46.446-2.85,12.447-2.84,24.815-5.678,35.759-4.841,82.2,6.286,167.03,6.749,244.518-20.159,27.88-9.686,56.18-24.436,69.4-49.776,13.153-25.216,28.137-58.623,13.66-83.177s-57.232-41.32-80.792-58.3S367.884,80.3,347.276,60.127c-14.514-14.212-26.835-30.6-43.145-42.9C290.109,6.666,275,.013,255.659,0Z" transform="translate(0)" fill="none"/></clipPath></defs><g transform="translate(-809.936 -1520)"><g clip-path="url(#a)"><g transform="translate(-0.385)"><g transform="translate(865.566 1596.655)"><g transform="translate(0 0)" clip-path="url(#b)"><path d="M.173,178.929q-.057-1.173-.095-2.336C-2.229,106.087,46.852,98.451,126.7,107.147c1.964.214,2.146.841,2.864,1.113,78.347,29.673,112.759,19.61,209.7-50.792,131.3-95.357,238.975,139.061,80.428,231.987H77.383c-4.38-2.192-8.468-4.369-12.259-6.495-38-21.307-62.841-60.515-64.951-104.032" transform="translate(-0.001 -8.111)" fill="#b8dcf1"/><path d="M272.9,54.276c-3.321-8.643,1.118-16.873,10.8-16.015,9.814.87,35.254,2.17,56.905-21.076,44.958-48.271,74.016,16.928,27.22,51.311-32.032,23.536-81.634,20.356-94.922-14.22" transform="translate(-101.897 0)" fill="#b8dcf1"/></g></g><g transform="translate(858.32 1546.023)"><g clip-path="url(#c)"><path d="M254.787.547A103.251,103.251,0,0,0,188.6,34.7c-16.619,18.938-27.5,41.71-39.413,63.636s-25.518,43.807-45.89,59.043c-19.423,14.529-44.713,22.846-58.763,42.2-14.47,19.924-12.888,47.936-.037,68.839s35.306,35.225,59.242,43.351S153.254,322.4,178.58,324.34c82.2,6.286,167.03,6.749,244.518-20.159,27.88-9.686,56.18-24.436,69.4-49.776,13.153-25.216,8.265-56.415-6.212-80.969s-37.36-43.528-60.92-60.507-48.437-32.62-69.045-52.794c-14.514-14.212-26.835-30.6-43.145-42.9C296.843,4.926,279.031-2.073,254.787.547" transform="translate(-9.044 0)" fill="#e4efed"/><path d="M472.765,378.673c.147-40.23,11.511-80.328,32.223-113.655s50.66-59.742,87.6-73.255c4.092,41.069-6.116,83.64-28.138,117.291a174.327,174.327,0,0,1-91.685,69.619" transform="translate(-124.805 -50.623)" fill="#70a8c4"/><path d="M589.419,206.643a614.863,614.863,0,0,0-103.424,169.3" transform="translate(-128.297 -54.551)" fill="none" stroke="#eaf8f9" stroke-linecap="round" stroke-miterlimit="10" stroke-width="1"/><path d="M596.244,236.431a67.141,67.141,0,0,1-.626-19.158" transform="translate(-157.128 -57.358)" fill="none" stroke="#eaf8f9" stroke-linecap="round" stroke-miterlimit="10" stroke-width="1"/><path d="M581.165,264.393a122.186,122.186,0,0,0,32.031.559" transform="translate(-153.421 -69.797)" fill="none" stroke="#eaf8f9" stroke-linecap="round" stroke-miterlimit="10" stroke-width="1"/><path d="M546.588,299.693a123.873,123.873,0,0,1-8.943-31.42" transform="translate(-141.932 -70.821)" fill="none" stroke="#eaf8f9" stroke-linecap="round" stroke-miterlimit="10" stroke-width="1"/><path d="M536.985,334.173a200.974,200.974,0,0,0,43.461,5.189" transform="translate(-141.758 -88.218)" fill="none" stroke="#eaf8f9" stroke-linecap="round" stroke-miterlimit="10" stroke-width="1"/><path d="M510.868,363.123a111.357,111.357,0,0,1-11.813-27.88" transform="translate(-131.745 -88.5)" fill="none" stroke="#eaf8f9" stroke-linecap="round" stroke-miterlimit="10" stroke-width="1"/><path d="M479.055,422.837A126.121,126.121,0,0,1,547.3,362.882a118.28,118.28,0,0,1,92.4,4.865c-41.121,40.407-101.621,60.139-160.642,55.09" transform="translate(-126.465 -93.912)" fill="#82ced8"/><path d="M629.555,375.723a329.293,329.293,0,0,0-140.1,47.738" transform="translate(-129.211 -99.187)" fill="none" stroke="#eaf8f9" stroke-linecap="round" stroke-miterlimit="10" stroke-width="1"/><path d="M637.445,376.879a69.754,69.754,0,0,1,8.133-13.756" transform="translate(-168.278 -95.86)" fill="none" stroke="#eaf8f9" stroke-linecap="round" stroke-miterlimit="10" stroke-width="1"/><path d="M620.925,386.183a64.919,64.919,0,0,0,18.547,13.94" transform="translate(-163.917 -101.948)" fill="none" stroke="#eaf8f9" stroke-linecap="round" stroke-miterlimit="10" stroke-width="1"/><path d="M586.485,387.083a60.865,60.865,0,0,1,5.358-24.06" transform="translate(-154.825 -95.834)" fill="none" stroke="#eaf8f9" stroke-linecap="round" stroke-miterlimit="10" stroke-width="1"/><path d="M567.165,402.783a71.4,71.4,0,0,0,16.487,22.066" transform="translate(-149.725 -106.33)" fill="none" stroke="#eaf8f9" stroke-linecap="round" stroke-miterlimit="10" stroke-width="1"/><path d="M539.678,406.57a68.739,68.739,0,0,1,.368-19.077" transform="translate(-142.338 -102.294)" fill="none" stroke="#eaf8f9" stroke-linecap="round" stroke-miterlimit="10" stroke-width="1"/><path d="M519.775,423.743A45.5,45.5,0,0,0,539.2,433.878" transform="translate(-137.215 -111.863)" fill="none" stroke="#eaf8f9" stroke-linecap="round" stroke-miterlimit="10" stroke-width="1"/><path d="M282.128,358.986c2.834-41.084,5.616-82.838-3.548-123.032s-32.112-79.357-71.069-97.772c-15.846,40.459-25.613,84.8-15.986,127.072s42.24,81.594,90.6,93.731" transform="translate(-49.552 -36.479)" fill="#82ced8"/><path d="M223.615,156.673q10.919,41.158,21.83,82.323c10.768,40.628,21.646,81.543,40.024,119.344" transform="translate(-59.032 -41.36)" fill="none" stroke="#eaf8f9" stroke-linecap="round" stroke-miterlimit="10" stroke-width="1"/><path d="M252.4,177.283a149.4,149.4,0,0,1-13.145,28.049" transform="translate(-63.161 -46.801)" fill="none" stroke="#eaf8f9" stroke-linecap="round" stroke-miterlimit="10" stroke-width="1"/><path d="M231.727,239.073a208.04,208.04,0,0,1-38.162,1.6" transform="translate(-51.099 -63.113)" fill="none" stroke="#eaf8f9" stroke-linecap="round" stroke-miterlimit="10" stroke-width="1"/><path d="M261.845,286.41a141.455,141.455,0,0,0,30.567-34.217" transform="translate(-69.124 -66.576)" fill="none" stroke="#eaf8f9" stroke-linecap="round" stroke-miterlimit="10" stroke-width="1"/><path d="M256.265,332.053a87.171,87.171,0,0,1-39.45,1.752" transform="translate(-57.237 -87.658)" fill="none" stroke="#eaf8f9" stroke-linecap="round" stroke-miterlimit="10" stroke-width="1"/><path d="M288.135,376.3a93.075,93.075,0,0,0,19.607-26.828" transform="translate(-76.064 -92.257)" fill="none" stroke="#eaf8f9" stroke-linecap="round" stroke-miterlimit="10" stroke-width="1"/><path d="M222.923,402.256C181.177,335.33,101.68,293.834,22.905,297.838c8.214,39.59,34.7,75.007,70.348,94.07s79.813,21.433,129.67,10.348" transform="translate(-6.047 -78.556)" fill="#70a8c4"/><path d="M40.815,309.373c17.355,17.5,34.916,35.181,55.856,48.179,22.272,13.83,47.576,21.874,72.718,29.293q24.885,7.342,49.953,14.036" transform="translate(-10.775 -81.671)" fill="none" stroke="#eaf8f9" stroke-linecap="round" stroke-miterlimit="10" stroke-width="1"/><path d="M81.4,337.266a122.055,122.055,0,0,0,2.966-30.883" transform="translate(-21.49 -80.882)" fill="none" stroke="#eaf8f9" stroke-linecap="round" stroke-miterlimit="10" stroke-width="1"/><path d="M63.464,337.673A77.07,77.07,0,0,1,47.1,344.415" transform="translate(-12.433 -89.142)" fill="none" stroke="#eaf8f9" stroke-linecap="round" stroke-miterlimit="10" stroke-width="1"/><path d="M92.975,398.559A93.107,93.107,0,0,0,118.353,381.4" transform="translate(-24.544 -100.686)" fill="none" stroke="#eaf8f9" stroke-linecap="round" stroke-miterlimit="10" stroke-width="1"/><path d="M154.235,377.692a246.024,246.024,0,0,0,2.973-44.919" transform="translate(-40.716 -87.848)" fill="none" stroke="#eaf8f9" stroke-linecap="round" stroke-miterlimit="10" stroke-width="1"/><path d="M235.079,378.073a119.941,119.941,0,0,1-3.054,30.353" transform="translate(-61.252 -99.807)" fill="none" stroke="#eaf8f9" stroke-linecap="round" stroke-miterlimit="10" stroke-width="1"/><path d="M214.808,416.923a51.777,51.777,0,0,1-20.233,17.686" transform="translate(-51.366 -110.063)" fill="none" stroke="#eaf8f9" stroke-linecap="round" stroke-miterlimit="10" stroke-width="1"/></g><g transform="translate(0)"><g clip-path="url(#d)"><path d="M239.186,309.531s-1.715,3.629-4.416,9.3c-5.373,11.29-14.639,30.655-21.977,45.508-4.836,9.811-8.832,17.65-10.312,19.909-4.821,7.382-126.55.552-126.55.552l-.986-24.45s87.71-8.523,90.088-10.142c.736-.5,3.724-7.522,7.478-16.958,3.923-9.826,8.678-22.279,12.637-32.745,4.5-11.879,7.949-21.2,7.949-21.2Z" transform="translate(-19.785 -73.733)" fill="#e8aa80"/><path d="M269.767,326.427c-5.373,11.29-14.639,30.655-21.977,45.508l-40.275-31.1c3.923-9.826,8.678-22.279,12.637-32.745Z" transform="translate(-54.782 -81.333)" fill="#d68163"/><path d="M278.525,253.534l-17.186-37.441s-17.333,7.25-25.915,19.313S203.8,310.832,203.8,310.832l54.413,24.885Z" transform="translate(-53.802 -57.046)" fill="#32b38e"/><path d="M75.453,404.449c-10.827,12.637-24.848,14.3-34.7,14.124-5.248-.1-9.5-3-4.217-7.986a25.845,25.845,0,0,1-8.9-1.538c-3.54-1.288-7.515-4.379-8.9-7.883-1.222-3.091.015-6.558,1.369-9.59a122.683,122.683,0,0,1,8.839-16.369c2.215-3.445,4.975-7.036,8.972-7.919,3.776-.832,7.574.979,11.011,2.745,6.97,3.57,26.254,13.454,28.108,15.155,1.538,1.406-5.277,14.087-1.582,19.261" transform="translate(-4.814 -96.905)" fill="#e8aa80"/><path d="M44.525,421.385a65.768,65.768,0,0,0,10.783-10.142" transform="translate(-11.754 -108.563)" fill="none" stroke="#cf5953" stroke-linecap="round" stroke-miterlimit="10" stroke-width="2"/><path d="M51.153,412.69q-2.959-5.145-5.918-10.3" transform="translate(-11.942 -106.227)" fill="none" stroke="#cf5953" stroke-linecap="round" stroke-miterlimit="10" stroke-width="2"/><path d="M47.408,411.935a12.359,12.359,0,0,0-7.6.707" transform="translate(-10.508 -108.666)" fill="none" stroke="#cf5953" stroke-linecap="round" stroke-miterlimit="10" stroke-width="2"/><path d="M387.546,195.86s-24.517,31.347-47.038,32.12c-20.579.707-44.742-33.187-44.742-33.187s14.2-.324,19.055-4.49c1.582-1.362,2.907-5.8,3.974-11.165.935-4.7,1.671-10.12,2.208-14.809.729-6.425,1.1-11.5,1.1-11.5l34.894-4.49s.78,10.724,1.789,21.227c.508,5.248,1.075,10.451,1.641,14.22a29.95,29.95,0,0,0,1.067,5.2c1.892,4.872,26.055,6.867,26.055,6.867" transform="translate(-78.079 -39.161)" fill="#e8aa80"/><path d="M369.466,183.8c-21.293,3.967-34.21-11.357-39.421-19.46.729-6.425,1.1-11.5,1.1-11.5l34.894-4.49s.78,10.724,1.789,21.227c.515,5.255,1.082,10.451,1.641,14.22" transform="translate(-87.128 -39.164)" fill="#d68163"/><path d="M416.43,118.1c7.335-1.5,14.3,2.265,15.564,8.417s-3.663,12.358-11,13.862-14.3-2.265-15.564-8.417,3.662-12.358,11-13.862" transform="translate(-106.978 -31.089)" fill="#d68163"/><path d="M309.439,97.754c1.237-27.269,18.8-49.431,42-49.431s42,22.132,42,49.431-17.473,50.527-34.938,52.507c-23.052,2.613-50.343-24.1-49.055-52.507" transform="translate(-81.677 -12.757)" fill="#e8aa80"/><path d="M317.476,109.159c2.355-5.9,8.052-23.118,12.924-30.692,0,0,20.954,6.528,30.942,5.608,12.424-1.141,12.188-7.735,9.855-10.922l13.2,6.33,8.567,23.928-3.393-35.122-65-12.2L311.065,88.9" transform="translate(-82.118 -14.808)" fill="#d68163"/><path d="M335.495,113.82c5.218-4.88,11.82-5.513,17.009-2.885" transform="translate(-88.567 -28.882)" fill="none" stroke="#000" stroke-linecap="round" stroke-miterlimit="10" stroke-width="3"/><path d="M407.875,113.584c-5.366-4.718-11.982-5.152-17.09-2.37" transform="translate(-103.163 -28.903)" fill="none" stroke="#000" stroke-linecap="round" stroke-miterlimit="10" stroke-width="3"/><path d="M392.072,80.687c-.78,11.217-3.165,23.928-3.165,23.928-1.163-13.631-2.274-24.7-5.675-34.732l-25.989-11s14.374,10.841,4.445,13.734C351.51,75.587,325.168,66.1,325.168,66.1c-3.511,6.146-9.436,29.58-10.944,40.422-.78,5.594-13.035-5.91-12.829-1.516,0,0-14.507-38.979,5.807-61.869.052-.052.1-.118.155-.169C317.249,31.919,331,28.026,348,28.725c27.777,0,40.746,19.217,43.6,39.045a62.05,62.05,0,0,1,.471,12.917" transform="translate(-78.24 -7.562)" fill="#08183d"/><path d="M395.529,67.773A60.351,60.351,0,0,0,337.31,34.564a58.75,58.75,0,0,0-26.025,8.413c9.892-11.048,23.641-14.941,40.643-14.242,27.777-.007,40.738,19.21,43.6,39.038" transform="translate(-82.176 -7.565)" fill="#1a3866"/><path d="M304.592,121.133c7.487,0,13.557,5.091,13.557,11.371s-6.07,11.371-13.557,11.371-13.557-5.091-13.557-11.371,6.07-11.371,13.557-11.371" transform="translate(-76.83 -31.978)" fill="#e8aa80"/><path d="M341.255,132.013a12.488,12.488,0,0,0,13.292.052" transform="translate(-90.088 -34.85)" fill="none" stroke="#000" stroke-linecap="round" stroke-miterlimit="10" stroke-width="2"/><path d="M390.8,131.247a11.565,11.565,0,0,0,13.153-.994" transform="translate(-103.166 -34.385)" fill="none" stroke="#000" stroke-linecap="round" stroke-miterlimit="10" stroke-width="2"/><path d="M575.3,324.851s-86.864,67.735-106.332,70.127c-6.749.832-17.156-15.478-26.349-33.408A249.124,249.124,0,0,1,428.7,328.089l32.186-45.75,3.209-4.556s.3.846.839,2.341c2.981,8.295,13.248,36.572,19.519,50.858,2.245,5.115,3.982,8.427,4.688,8.405,3.054-.1,69.524-27.321,69.524-27.321Z" transform="translate(-113.171 -73.332)" fill="#e8aa80"/><path d="M484.448,331.811l-41.828,30.6A249.124,249.124,0,0,1,428.7,328.926l32.186-45.75,4.041-2.223c2.988,8.295,13.248,36.572,19.526,50.858" transform="translate(-113.171 -74.168)" fill="#d68163"/><path d="M399.735,248.548,415,212.263s19.254,6.1,27.836,18.165,36.234,78.5,36.234,78.5l-54.943,25.782Z" transform="translate(-105.526 -56.035)" fill="#32b38e"/><path d="M588.495,315.115s9.818-29.308,12.5-33.525c2.51-3.96,25.194-20.682,30-17.907,4.71,2.723-13.506,16.008-13.506,16.008s23.8-12.8,26.938-8.251c3.614,5.24-23.074,17.841-23.074,17.841s27-7.1,27-3.842c0,4-22.419,11.151-22.419,11.151s22.949-2.856,22.434.655c-.721,4.9-23.067,7.367-23.067,7.367s-3.01,20.7-16.516,22.61Z" transform="translate(-155.356 -69.528)" fill="#e8aa80"/><path d="M601.295,301.427a133.719,133.719,0,0,1,16.825-16.214,8.8,8.8,0,0,1,2.738-1.685,2.777,2.777,0,0,1,3.835,3.238,8.591,8.591,0,0,1-1.1,2.745c-2.112,3.871-4.482,7.6-7.007,11.563a19.1,19.1,0,0,1-1.693,17.208" transform="translate(-158.735 -74.799)" fill="#e8aa80"/><path d="M601.295,301.427a133.719,133.719,0,0,1,16.825-16.214,8.8,8.8,0,0,1,2.738-1.685,2.777,2.777,0,0,1,3.835,3.238,8.591,8.591,0,0,1-1.1,2.745c-2.112,3.871-4.482,7.6-7.007,11.563a19.1,19.1,0,0,1-1.693,17.208" transform="translate(-158.735 -74.799)" fill="none" stroke="#cf5953" stroke-linecap="round" stroke-miterlimit="10" stroke-width="2"/><path d="M399.29,329.245c-2.436,31.045-5.505,56.548-5.505,56.548l-124.673.39s-1.5-11.482-3.415-28.314c-4.828-42.306-12.328-118.432-5.446-131.474,9.112-17.267,38.56-19.247,38.56-19.247s29.757,32.627,31.17,32.016c3.216-1.391,25-33.982,25-33.982s35.145,4.239,42.284,18.091c7.412,14.352,5.255,64.982,2.024,105.971" transform="translate(-67.971 -54.166)" fill="#3dc6a6"/><path d="M402.238,373.743c-2.436,31.045-5.505,56.548-5.505,56.548l-124.673.39s-1.5-11.482-3.415-28.314c66.145,21.05,115.245-12.784,133.593-28.623" transform="translate(-70.919 -98.664)" fill="#32b38e"/><path d="M357.415,248.5a69.29,69.29,0,0,1,43.675,7.132c-.765-2.694-2.112-6.735-2.878-9.428a5.5,5.5,0,0,0-1.075-2.318,5.374,5.374,0,0,0-3.54-1.288c-11.592-1.133-23.471.78-36.182,5.9" transform="translate(-94.354 -63.96)" fill="#32b38e"/><path d="M337.715,248.249a44.78,44.78,0,0,0-40.459-.177,38.313,38.313,0,0,0-2.171,9.642,78.514,78.514,0,0,1,42.63-9.465" transform="translate(-77.899 -64.236)" fill="#32b38e"/><path d="M355.845,237.988c9.76-10.569,16.833-21.146,21.5-37.169,0,0,11.312-2.024,15.324,5.837,1.685,3.3,9.134,33.562,9.134,33.562-14.271-7.051-29.882-6.514-45.957-2.23" transform="translate(-93.939 -52.952)" fill="#e0fffd"/><path d="M315.211,200.753s-10.584-2.782-14.757,6.006c-1.958,4.129-6.889,36.072-6.889,36.072,13.94-9.885,32.134-10.407,45.831-4.887-12-12-20.432-23.523-24.185-37.191" transform="translate(-77.498 -52.886)" fill="#e0fffd"/><path d="M142.187,73.378l-24.9-.6s.023,10.132,11.827,10.382c12.634.267,13.07-9.778,13.07-9.778" transform="translate(144.879 43.337)" fill="#fff"/><path d="M130.435,69.551l3.639-2.949-4.21-5.845" transform="translate(145.754 41.067)" fill="none" stroke="#000" stroke-linecap="round" stroke-linejoin="round" stroke-width="1.8"/></g></g><g clip-path="url(#c)"><path d="M146.995,350.118c18.187-1.95,35.483-.8,54.98-.8a258.809,258.809,0,0,1,.368-43.322,364.271,364.271,0,0,0-42.7-9.951c-3.555,15.28-7.316,38.508-12.652,54.075" transform="translate(-38.805 -78.152)" fill="#a1a7bf"/><path d="M215.853,445.915l-31.428-.412a27.459,27.459,0,0,1,.4-2.826c.81-4.306,2.341-7.117,3.187-9.782l3.253-1.472s4.232,1.59,14.014,4.445c6.8,1.98,9.355,4.7,10.26,6.808a4.78,4.78,0,0,1,.309,3.238" transform="translate(-48.686 -113.891)" fill="#3d43af"/><path d="M215.853,449.951l-31.428-.412a27.459,27.459,0,0,1,.4-2.826h30.714a4.78,4.78,0,0,1,.309,3.238" transform="translate(-48.686 -117.927)" fill="#b8bfe6"/><path d="M130.8,445.915l31.428-.412a27.458,27.458,0,0,0-.4-2.826c-.81-4.306-2.341-7.117-3.187-9.782l-3.253-1.472s-4.232,1.59-14.014,4.445c-6.8,1.98-9.355,4.7-10.26,6.808a4.78,4.78,0,0,0-.309,3.238" transform="translate(-34.492 -113.891)" fill="#3d43af"/><path d="M130.8,449.951l31.428-.412a27.458,27.458,0,0,0-.4-2.826H131.111a4.78,4.78,0,0,0-.309,3.238" transform="translate(-34.492 -117.927)" fill="#b8bfe6"/><path d="M156.274,272.753,151.895,393l13.881.147,13.278-88.358-1.067,88.66,16.465-.375,8.162-117.865Z" transform="translate(-40.099 -72.004)" fill="#08183d"/><path d="M210.925,219.709l1.95-12.586s5.417,2.289,7.434,5.682c3.032,5.1,10.532,31.045,10.532,31.045l23.479-1.457,1.95,17s-27.232,9.288-32.053,7.25c-6.227-2.628-12.122-28.16-12.122-28.16Z" transform="translate(-55.682 -54.678)" fill="#e1e8f5"/><path d="M275.375,248.1s5.343-6.072,6.293-4.961c1.715,2-3.982,8.4-3.982,8.4Z" transform="translate(-72.696 -64.151)" fill="#d68163"/><rect width="43.257" height="30.369" transform="translate(172.462 211.556) rotate(-84.243)" fill="#89512c"/><rect width="37.141" height="25.776" transform="matrix(0.1, -0.995, 0.995, 0.1, 175.166, 207.624)" fill="#f2f6fc"/><path d="M251.145,232.083l1.126-2.826a2.284,2.284,0,0,1,2.355-1.428l7.434.751a2.3,2.3,0,0,1,2.024,1.869l.537,3Z" transform="translate(-66.299 -60.141)" fill="#83a4de"/><path d="M254.985,225.043l.684,2.046,7.367.743,1.082-1.869Z" transform="translate(-67.313 -59.409)" fill="#83a4de"/><rect width="0.398" height="13.808" transform="translate(187.199 176.548) rotate(-84.259)" fill="#ced6f2"/><rect width="0.398" height="13.808" transform="translate(187.039 178.114) rotate(-84.259)" fill="#ced6f2"/><rect width="0.398" height="13.808" transform="translate(186.878 179.688) rotate(-84.259)" fill="#ced6f2"/><rect width="0.398" height="13.808" transform="translate(186.725 181.255) rotate(-84.259)" fill="#ced6f2"/><rect width="4.931" height="4.733" transform="translate(181.012 180.677) rotate(-84.243)" fill="none" stroke="#ced6f2" stroke-miterlimit="10" stroke-width="0.5"/><rect width="0.398" height="16.598" transform="translate(183.689 183.577) rotate(-84.259)" fill="#ced6f2"/><rect width="0.397" height="19.446" transform="translate(180.694 184.861) rotate(-84.259)" fill="#ced6f2"/><rect width="0.397" height="19.446" transform="translate(180.533 186.434) rotate(-84.259)" fill="#ced6f2"/><rect width="0.397" height="19.446" transform="translate(180.38 188.001) rotate(-84.259)" fill="#ced6f2"/><rect width="0.398" height="16.598" transform="translate(182.105 197.69) rotate(-84.259)" fill="#ced6f2"/><rect width="0.397" height="19.446" transform="translate(179.109 198.974) rotate(-84.259)" fill="#ced6f2"/><rect width="0.397" height="19.446" transform="translate(178.956 200.548) rotate(-84.259)" fill="#ced6f2"/><rect width="0.397" height="19.446" transform="translate(178.796 202.114) rotate(-84.259)" fill="#ced6f2"/><rect width="0.398" height="13.808" transform="translate(185.732 191.099) rotate(-84.259)" fill="#ced6f2"/><rect width="0.398" height="13.808" transform="translate(185.572 192.666) rotate(-84.259)" fill="#ced6f2"/><rect width="0.398" height="13.808" transform="translate(185.411 194.239) rotate(-84.259)" fill="#ced6f2"/><rect width="0.398" height="13.808" transform="translate(185.259 195.806) rotate(-84.259)" fill="#ced6f2"/><rect width="4.931" height="4.733" transform="translate(179.552 195.229) rotate(-84.243)" fill="none" stroke="#ced6f2" stroke-miterlimit="10" stroke-width="0.5"/><path d="M274.941,252.626a32.763,32.763,0,0,1,3.842-2.333,2.254,2.254,0,0,1,1.273-.353,1.319,1.319,0,0,1,1.082.972,2.112,2.112,0,0,1-.206,1.443c-.861,1.8-3.025,2.686-5,3.422-.927.346-2.149.626-2.789-.074a1.383,1.383,0,0,1-.206-1.406c.169-.471.633-.7,2-1.671" transform="translate(-72.026 -65.979)" fill="#e8aa80"/><path d="M274.941,256.846a32.763,32.763,0,0,1,3.842-2.333,2.254,2.254,0,0,1,1.273-.353,1.319,1.319,0,0,1,1.082.972,2.112,2.112,0,0,1-.206,1.443c-.861,1.8-3.025,2.686-5,3.422-.927.346-2.149.626-2.789-.074a1.383,1.383,0,0,1-.206-1.406c.169-.478.633-.707,2-1.671" transform="translate(-72.026 -67.093)" fill="#e8aa80"/><path d="M274.941,261.056a32.759,32.759,0,0,1,3.842-2.333,2.254,2.254,0,0,1,1.273-.353,1.319,1.319,0,0,1,1.082.972,2.113,2.113,0,0,1-.206,1.443c-.861,1.8-3.025,2.686-5,3.422-.927.346-2.149.626-2.789-.074a1.383,1.383,0,0,1-.206-1.406c.169-.478.633-.707,2-1.671" transform="translate(-72.026 -68.205)" fill="#e8aa80"/><path d="M274.941,265.276a32.763,32.763,0,0,1,3.842-2.333,2.254,2.254,0,0,1,1.273-.353,1.319,1.319,0,0,1,1.082.972,2.112,2.112,0,0,1-.206,1.443c-.861,1.8-3.025,2.686-5,3.422-.927.346-2.149.626-2.789-.074a1.383,1.383,0,0,1-.206-1.406c.169-.478.633-.707,2-1.671" transform="translate(-72.026 -69.319)" fill="#e8aa80"/><path d="M163.185,208.743l32.414.162,6.447,56.121-38.861-1.133" transform="translate(-43.079 -55.106)" fill="#3d43af"/><path d="M195.4,198.85s-12.5,12.343-13.9,12.409c-2.157.11-20.336-9.62-20.336-9.62a80.54,80.54,0,0,0,7.419-4.836c1.163-1,1.928-6.492,2.282-9.576.272-2.37.4-4.239.4-4.239l12.865-1.656s1.06,11.658,1.266,13.064a10.908,10.908,0,0,0,.4,1.921c.692,1.789,9.6,2.532,9.6,2.532" transform="translate(-42.546 -47.87)" fill="#e8aa80"/><path d="M188.874,194.395c-7.846,1.465-12.608-4.188-14.529-7.176.272-2.37.4-4.239.4-4.239l12.865-1.656s.287,3.952.662,7.824c.184,1.943.39,3.864.6,5.248" transform="translate(-46.025 -47.867)" fill="#d68163"/><path d="M203.2,171.057a3.9,3.9,0,1,1-2.986,5.012,4.14,4.14,0,0,1,2.986-5.012" transform="translate(-52.81 -45.096)" fill="#d68163"/><path d="M169.365,164c0-9.325,6.028-16.884,13.462-16.884S195.8,154.687,196.288,164c.478,8.979-2.385,17.443-10.864,18-9.053,0-16.06-8.678-16.06-18" transform="translate(-44.71 -38.836)" fill="#e8aa80"/><path d="M174.045,170.023A17.946,17.946,0,0,0,178,161.338a3.866,3.866,0,0,0,2.23-2.23,17.957,17.957,0,0,0,15.3,1.06,18.838,18.838,0,0,1,1.95,8.045c.206-3.879.221-7.765.074-11.68-6.926-1.038-13.881-1.884-21.035-2.429-.662,5.049-1.317,10.1-2.473,15.92" transform="translate(-45.946 -40.681)" fill="#d68163"/><path d="M196.927,154.714a2.719,2.719,0,0,1-.618.464,30.614,30.614,0,0,1-1.266,12.328,36.473,36.473,0,0,0-1.156-11.489c-3.533,1.443-12.7.905-17-2.444.029.824-.721,2.8-1.943,2.988-.375,4.784-1.9,8.28-3.827,12.247-1.31-.486-2.628-.972-4.033-1.641a40.57,40.57,0,0,1-1.84-8.177,13.67,13.67,0,0,1,1.553-8.1,7.307,7.307,0,0,1,6.617-3.813,8.439,8.439,0,0,1,1.921-2.8,10.99,10.99,0,0,1,7.4-3.025c3.842-.052,7.515,1.685,10.768,3.857a10.532,10.532,0,0,1,4.2,4.438,4.941,4.941,0,0,1-.78,5.167" transform="translate(-43.605 -37.289)" fill="#89512c"/><path d="M200.564,154.72c.316-1.788-1.465-6.227-4.747-8.214a26.652,26.652,0,0,0-9.929-3.253,14.153,14.153,0,0,0-6.933,1.045,10.99,10.99,0,0,1,7.4-3.025c3.842-.052,7.515,1.685,10.768,3.857a10.532,10.532,0,0,1,4.2,4.438,4.887,4.887,0,0,1-.765,5.152" transform="translate(-47.242 -37.294)" fill="#a16337"/><path d="M169.772,171.973c2.544,0,4.607,1.74,4.607,3.886s-2.063,3.886-4.607,3.886-4.607-1.74-4.607-3.886,2.063-3.886,4.607-3.886" transform="translate(-43.602 -45.399)" fill="#e8aa80"/><path d="M188.795,216.695l4.858-14.772,5.918,2.09,1.641,12.439c-6.521-1.479-7.4-1.45-12.417.243" transform="translate(-49.84 -53.305)" fill="#5766c9"/><path d="M164.635,204.624l5.078-3.231,12.711,15.169c-4.541-.287-9.951.132-13.005,2.245Z" transform="translate(-43.462 -53.165)" fill="#5766c9"/><path d="M67.278,188.711,27.419,164.746a2.124,2.124,0,0,1-.726-2.915L57.436,110.7a2.124,2.124,0,0,1,2.915-.726l39.859,23.965a2.125,2.125,0,0,1,.726,2.916L70.194,187.985a2.125,2.125,0,0,1-2.916.726" transform="translate(-6.966 -28.951)" fill="#08183d"/><rect width="58.489" height="46.451" transform="matrix(0.515, -0.857, 0.857, 0.515, 21.874, 133.486)" fill="none" stroke="#174f6b" stroke-miterlimit="10" stroke-width="0.75"/><path d="M83.553,188.494c-.146.116-.311.222-.47.328a4.1,4.1,0,0,1-1.521.637,2.345,2.345,0,0,1-1.254-.078,3.771,3.771,0,0,1-1.887-2.677,21.178,21.178,0,0,1-.733-3.873,5.012,5.012,0,0,0-.411-1.933,4.136,4.136,0,0,0-1.4-1.315c-1.323-.91-2.642-1.412-3.639-2.9a3.24,3.24,0,0,1-.29-2.5,6.28,6.28,0,0,1,.732-1.917c.04-.081.084-.155.123-.236a150.143,150.143,0,0,1,14.312-22.015,2.113,2.113,0,0,1,1.952-.716,1,1,0,0,1,.294.091,1.785,1.785,0,0,1,.6.493,11.261,11.261,0,0,1,2.939,7.085,34.93,34.93,0,0,1-.169,7.2,66.383,66.383,0,0,1-2.023,10.286c-.116.406-.237.815-.364,1.233a60.26,60.26,0,0,1-2.556,6.361c-.09.189-.176.38-.266.569C86.552,184.756,85.417,187.049,83.553,188.494Z" transform="translate(-18.964 -39.405)" fill="#174f6b"/><path d="M58.279,166.183c-.049.066-.089.132-.134.191a6.616,6.616,0,0,1-1.373,1.569,3.232,3.232,0,0,1-2.338.921c-1.789-.185-2.848-1.112-4.27-1.857a4.205,4.205,0,0,0-1.816-.616,5.018,5.018,0,0,0-1.9.542,20.626,20.626,0,0,1-3.764,1.17,3.746,3.746,0,0,1-3.249-.411,3.236,3.236,0,0,1-.808-2.714,2.886,2.886,0,0,1,.056-.4,1.456,1.456,0,0,1,.021-.163c.4-2.324,1.9-4.4,3.331-6.28.125-.169.253-.334.378-.5a52.085,52.085,0,0,1,5.345-6.137c.375-.346.747-.693,1.122-1.039a62.889,62.889,0,0,1,7.006-5.575,35,35,0,0,1,6.277-3.525,11.289,11.289,0,0,1,7.635-.726,1.862,1.862,0,0,1,.72.3,1.642,1.642,0,0,1,.525.773,2.136,2.136,0,0,1-.025,1.5,151.115,151.115,0,0,1-12.738,22.976" transform="translate(-10.192 -37.032)" fill="#174f6b"/><path d="M95.068,161.379l.437.149a1.252,1.252,0,0,0-.437-.149" transform="translate(-25.097 -42.602)" fill="#f9ada7"/><path d="M78.957,178.3a9.853,9.853,0,0,0-.81-1.263c.294.1.588.216.891.293a1.512,1.512,0,0,0,.755.04.966.966,0,0,0,.645-.507,1.276,1.276,0,0,1-1.274.338c-.42-.1-.787-.339-1.2-.458a4.646,4.646,0,0,0-1.409-.115,3.119,3.119,0,0,0,.322-.263,5.43,5.43,0,0,0,1.078-1.737,5.808,5.808,0,0,0-.645.859,4.255,4.255,0,0,1-1.235,1.147,3.368,3.368,0,0,1-1.3-.2,6.821,6.821,0,0,0-3.45-3.117,3.118,3.118,0,0,1-1.359-2.188,6.989,6.989,0,0,0,2.048.669,5.729,5.729,0,0,1,1.273.276,3.845,3.845,0,0,1,1.209.974,1.27,1.27,0,0,0-.516-.853,4.644,4.644,0,0,0-.932-.613,15.21,15.21,0,0,0,2.148-.74,1.881,1.881,0,0,1,1.641,1.138,3.08,3.08,0,0,0,.4.881,1.433,1.433,0,0,0,.589.349c.341.134.687.251,1.039.358a2.46,2.46,0,0,1-1.661-1.231c-.077-.2-.113-.416-.19-.615a2.251,2.251,0,0,0-1.189-1.077,3.59,3.59,0,0,1,.6-.1,5.237,5.237,0,0,1,1.454.175,5.415,5.415,0,0,1,1.236.371,4.687,4.687,0,0,0-1.915-.642c.168-.08.336-.16.506-.244.055-.029.112-.052.168-.08l1.331-.637a1.451,1.451,0,0,1,.881-.217c-.375-.179-.85.069-1.267.271a12.721,12.721,0,0,1-2.536.8l.02.007a4.339,4.339,0,0,0-1,.171c-.257.069-.512.144-.771.222.214-.18.448-.33.664-.514,1.022-.871,1.462-2.311,2.366-3.33a5.643,5.643,0,0,0-.952,1.137,12.188,12.188,0,0,1-.747,1.179,16.35,16.35,0,0,1-2.448,1.851,7.072,7.072,0,0,1-1.129.207c-.5-.152-1.023-.239-1.507-.42a2.418,2.418,0,0,1-.951-.615c-.013-.122-.029-.246-.037-.369a25.965,25.965,0,0,1-.108-4.745,18.607,18.607,0,0,1,1.047-4.612,17.007,17.007,0,0,1,.977-2.174c.19-.347.391-.689.6-1.018a10.809,10.809,0,0,0,.647-.925,11.843,11.843,0,0,0,3.72,5.031,4.423,4.423,0,0,1-.01,1.7c-.021.082-.044.169-.071.252-.118.2-.247.386-.381.57-.422.59-.855,1.167-1.255,1.769a2.124,2.124,0,0,1-1.17.625c-.34.048-.673-.01-1.014.071a3.063,3.063,0,0,0-.988.529.74.74,0,0,0-.319.347,1.344,1.344,0,0,1,1.083-.567c.4-.02.777.068,1.176.04a1.5,1.5,0,0,0,.724-.241l-.021.035a4.045,4.045,0,0,0-.492,1.128,4.119,4.119,0,0,1-.307,1.281,4.133,4.133,0,0,0,.495-1.069,7.573,7.573,0,0,1,.254-.852,5.122,5.122,0,0,1,.921-1.254,7.3,7.3,0,0,0,.964-1.4,3.51,3.51,0,0,0,.083,2.1,2.769,2.769,0,0,1,.051-1.54c.165-.6.435-1.176.625-1.772a3.432,3.432,0,0,0,.182-1.376c.2.132.394.261.6.379a4.045,4.045,0,0,1,1.275,1.348c.858,1.6-.637,5.006-.637,5.006a7.167,7.167,0,0,0,1.124-2.48,1.532,1.532,0,0,0,.567.489c.275.146.581.244.856.391a2.789,2.789,0,0,1,1.239,1.359,1.879,1.879,0,0,0-.857-1.5A8.659,8.659,0,0,1,80,165.768a1.1,1.1,0,0,1-.268-.485,4.174,4.174,0,0,0-.053-1.86,2.05,2.05,0,0,0-.251-.475c.623.07,1.365-.226,1.967-.026a2.227,2.227,0,0,1,.92.754,1.474,1.474,0,0,0-.872-.872,3.968,3.968,0,0,0-1.453-.36c-.339-.018-.693,0-1.022-.052a6.259,6.259,0,0,0-.684-.612,6.408,6.408,0,0,1-2.123-2.109c.817-.285,1.566-.991,2.384-1.38a6.368,6.368,0,0,1,2.967-.415,4.356,4.356,0,0,1,.575.046,4.764,4.764,0,0,0-3.3-.166,22.665,22.665,0,0,1-2.5,1.25,1.49,1.49,0,0,1-.488.04,42,42,0,0,1-1.771-5.059c-.01-.007-1-.6-1.657-1.064a8.766,8.766,0,0,1-6.473,1.021,3.954,3.954,0,0,1-.738-.92c-.149-.246-.28-.506-.408-.768a17.134,17.134,0,0,1,.933-1.91,4.6,4.6,0,0,0,.613-2.055,16.518,16.518,0,0,1-1.777,3.355c-.01.017-.026.036-.037.054-.094-.2-.184-.387-.282-.574a5.927,5.927,0,0,0-1.515-1.944,3.294,3.294,0,0,0-2.286-.741,2.818,2.818,0,0,1,2.332,1.087,6.791,6.791,0,0,1,1,1.718,17.183,17.183,0,0,1-2.806-.368c-.313-.117-.6-.29-.922-.383a2.267,2.267,0,0,0-1.251,0c.843-.121,1.443.616,2.2.891a5.262,5.262,0,0,0,1.671.171,2.826,2.826,0,0,1,1.36.3c.011.029.025.062.035.092a17.778,17.778,0,0,0,.786,1.772,11.247,11.247,0,0,0-5.016.036,6.442,6.442,0,0,0-.993.474c-.648-.109-1.266-.314-1.9-.483a3.555,3.555,0,0,1-.447-.545,3.858,3.858,0,0,0-1.654-1.5l.965.966a2.434,2.434,0,0,1,.363.423,3.9,3.9,0,0,1,.261.537c-.085-.018-.166-.043-.25-.055a3.886,3.886,0,0,0-3.065.595,2.372,2.372,0,0,1,1.719-.352,7.707,7.707,0,0,1,1.79.658,4.5,4.5,0,0,0,1.238.368c-1.435.97-2.806,2.145-3.91,2.343a16.154,16.154,0,0,0,2.734-.832c1.615-.6,3.063-1.624,4.705-1.851-.465.853-.735,1.811-1.2,2.671a7.393,7.393,0,0,1-1.072,1.464,7.357,7.357,0,0,1-1.568-.1c-1.015-.039-2.115.566-3.071.31a3.3,3.3,0,0,0,1.1.273,3.46,3.46,0,0,0,.741.008c.241-.026.479-.088.718-.121a5,5,0,0,1,1.622.095,15.376,15.376,0,0,1-2,1.55,6.787,6.787,0,0,0,2.834-1.92c.224-.255.434-.524.636-.8a1.219,1.219,0,0,1,.038.8,8.2,8.2,0,0,1-.678,1.963,4.813,4.813,0,0,0,.836-1.868,10.093,10.093,0,0,0,.211-1.487,16.589,16.589,0,0,1,2.111-2.882,14.3,14.3,0,0,1,2.828.348,18.91,18.91,0,0,0,4.852.723c-.057,0-.8,1.426-.889,1.574a19.551,19.551,0,0,1-1.137,1.621,20,20,0,0,1-2.661,2.795,19.277,19.277,0,0,1-3.127,2.2,6.356,6.356,0,0,1-3.167,1.2,12.731,12.731,0,0,1-2.329-.463,5.967,5.967,0,0,0-3.026-3.242c-.071-.138-.128-.3-.185-.44-.6-1.406-2.422-1.756-2.965-3.2a4.456,4.456,0,0,0,1.8,2.31,1.813,1.813,0,0,1,.409.442,6.141,6.141,0,0,1,.258.621,5.784,5.784,0,0,0-2.21-.262,5.834,5.834,0,0,1,3.149,1.3,7.987,7.987,0,0,1-4.039.138,6.536,6.536,0,0,0,3.47.363,3.623,3.623,0,0,0,.938-.193,10.3,10.3,0,0,1,1.678,1.967c-.346-.085-.695-.166-1.052-.224a13.781,13.781,0,0,0-3.449.016,2.524,2.524,0,0,1-1.108-.352,7.7,7.7,0,0,0-1.131-.585,3.316,3.316,0,0,1-.777-.919,4.882,4.882,0,0,0-.521-.875c-.244-.271-.585-.428-.839-.69a6.926,6.926,0,0,1,.865.948A1.705,1.705,0,0,1,48.5,162c.127.324.114.749.337.983-1-.046-2.094.364-3,.015a2.134,2.134,0,0,0,1.691.346,4.193,4.193,0,0,1,1.8.018,4.859,4.859,0,0,1,.712.375,5,5,0,0,0,.985.431,8.139,8.139,0,0,0-3.891,1.707,11.055,11.055,0,0,1,6.484-1.476,3.929,3.929,0,0,0-.356.361,2.121,2.121,0,0,1-.249.27,1.755,1.755,0,0,1-.434.229,4.4,4.4,0,0,0-1.775,1.456c.273-.207.54-.413.813-.62a3.138,3.138,0,0,1,.76-.476c.206-.08.42-.11.62-.2.436-.209.757-.693,1.154-.972a6.879,6.879,0,0,1,1.152.192c.71.213,1.419.5,2.158.707a10.95,10.95,0,0,1-3.908,1.345,6.343,6.343,0,0,0,4.418-1.214,6.686,6.686,0,0,0,1.045.163,9.161,9.161,0,0,0,3.338-.484,15.048,15.048,0,0,0,6.282-4.106,14.261,14.261,0,0,0,1.1-1.342,4.671,4.671,0,0,0-.416,1.145c-.131.4-.247.808-.347,1.214a17.994,17.994,0,0,0-.442,2.477,17.72,17.72,0,0,0,.153,4.877,7.926,7.926,0,0,0,.933,3.046,4.961,4.961,0,0,0,.832,4.186,6.277,6.277,0,0,1-.411-3.661,2.8,2.8,0,0,0,.389.325,19.426,19.426,0,0,1,2.711,1.64,5.389,5.389,0,0,1,.042,1.068,3,3,0,0,1-.536.749c-.183.185-.385.345-.569.524a3.419,3.419,0,0,0-.575.749,13.224,13.224,0,0,0,1.133-.994,4.231,4.231,0,0,0,.436-.462,4.909,4.909,0,0,0-.3,1.207,4.973,4.973,0,0,0,.156.918,1.155,1.155,0,0,1-.177.931,1.805,1.805,0,0,0,.434-.953c0-.316-.184-.577-.171-.893a2.217,2.217,0,0,1,.263-.756,3.8,3.8,0,0,0,.35-1.617,9.248,9.248,0,0,1,2.024,4.43,11.1,11.1,0,0,0-.181-1.385l1.052.533a2.865,2.865,0,0,0,1.255.4,5.755,5.755,0,0,1-2.419-1.435,7.778,7.778,0,0,0-.4-1.181,5.768,5.768,0,0,0,1.29.114c.3-.015.608-.072.905-.065a2.468,2.468,0,0,1,.348.033,5.268,5.268,0,0,1,1.075,1.156,4.515,4.515,0,0,0,.53.718.951.951,0,0,0,.8.307A2.209,2.209,0,0,1,78.957,178.3Z" transform="translate(-12.101 -39.147)" fill="#4b90a0"/><path d="M92.121,134.333a1.107,1.107,0,0,1,.343,1.529l-.12.2a1.11,1.11,0,0,1-1.512.414A1.1,1.1,0,0,1,91.177,138l-.12.2a1.11,1.11,0,0,1-1.512.414,1.1,1.1,0,0,1,.345,1.526l-.122.2a1.109,1.109,0,0,1-1.51.411,1.107,1.107,0,0,1,.345,1.526l-.122.2a1.109,1.109,0,0,1-1.51.411,1.105,1.105,0,0,1,.344,1.526l-.121.2a1.106,1.106,0,0,1-1.51.411,1.108,1.108,0,0,1,.343,1.53l-.12.2a1.107,1.107,0,0,1-1.51.411,1.107,1.107,0,0,1,.344,1.529l-.12.2a1.111,1.111,0,0,1-1.512.414l-1.451-.873a1.107,1.107,0,0,1-.343-1.529l.12-.2a1.11,1.11,0,0,1,1.512-.414,1.1,1.1,0,0,1-.345-1.526l.12-.2a1.11,1.11,0,0,1,1.512-.414,1.1,1.1,0,0,1-.345-1.527l.122-.2a1.108,1.108,0,0,1,1.51-.411,1.106,1.106,0,0,1-.345-1.526l.122-.2a1.109,1.109,0,0,1,1.51-.411,1.107,1.107,0,0,1-.345-1.527l.122-.2a1.106,1.106,0,0,1,1.51-.411,1.107,1.107,0,0,1-.343-1.529l.12-.2a1.106,1.106,0,0,1,1.51-.411,1.108,1.108,0,0,1-.343-1.529l.12-.2a1.11,1.11,0,0,1,1.512-.414,1.1,1.1,0,0,1-.345-1.526l.12-.2a1.111,1.111,0,0,1,1.512-.414l1.451.873a1.107,1.107,0,0,1,.343,1.529l-.12.2a1.1,1.1,0,0,1-1.51.411" transform="translate(-21.422 -34.628)" fill="#4b90a0"/><rect width="4.365" height="9.255" transform="translate(80.068 106.569) rotate(-58.986)" fill="#4b90a0"/><path d="M101.124,193.584a23.33,23.33,0,0,0-1.178-11.732c-.258-.692-.729-1.494-1.465-1.45-.788.044-1.148,1.008-1.237,1.8a13.627,13.627,0,0,0,.618,6.256,10.215,10.215,0,0,0-1.921,6.609,18.081,18.081,0,0,0,5.182-1.479" transform="translate(-25.326 -47.624)" fill="#e8aa80"/><path d="M100.005,197.963l2.679,6.425-7.956,7.39-1.8-7.125Z" transform="translate(-24.531 -52.26)" fill="#e8aa80"/><path d="M97.672,188.113a38.454,38.454,0,0,0,2.421,4.239s-.2,4.7-.964,6.374a7.109,7.109,0,0,1-8.184,3.643c2.157-4.747,4.32-9.509,6.727-14.257" transform="translate(-24.008 -49.66)" fill="#e8aa80"/><path d="M145.844,219.022l-2.657-14.507s-8.3,3.01-10.392,4.747c-2.1,1.759-15.949,16.693-17.421,16.332-2.127-.515-13.211-23.861-13.211-23.861L90.945,213.112s12.343,36.256,19.166,36.9,32.6-14.1,32.6-14.1Z" transform="translate(-24.008 -53.255)" fill="#fefffe"/><path d="M149.165,245.177a39.967,39.967,0,0,0,2.26-23.854" transform="translate(-39.378 -58.427)" fill="none" stroke="#e1e8f5" stroke-linecap="round" stroke-miterlimit="10" stroke-width="1"/><path d="M151.875,249.223a16.613,16.613,0,0,0,5.086-9.62" transform="translate(-40.093 -63.252)" fill="none" stroke="#e1e8f5" stroke-linecap="round" stroke-miterlimit="10" stroke-width="1"/><path d="M89.225,213.041l12.807-12.858,3.893,6.094L91.749,220Z" transform="translate(-23.554 -52.846)" fill="#e1e8f5"/><path d="M148.078,211.369c.714-4.276,14.573-9.436,14.573-9.436a54.617,54.617,0,0,1,5.388,23.214c0,13.057-.052,103.594-.052,103.594L141.4,326.93s3.084-93.922,6.683-115.561" transform="translate(-37.327 -53.308)" fill="#fefffe"/><path d="M172.53,240.1a203.9,203.9,0,0,0,0-21.3c-.464-5.763-5.115-17.414-5.115-17.414a57.528,57.528,0,0,0-5.5,2.031c-1.98.927-3.673,17.539-3.5,17.944s8.067,4.5,8.067,4.5-5.2,5.373-5.167,5.962S172.53,240.1,172.53,240.1" transform="translate(-41.818 -53.163)" fill="#e1e8f5"/><rect width="16.7" height="3.179" transform="translate(109.578 254.21) rotate(-7.094)" fill="#e1e8f5"/><path d="M196.295,201.753a95.117,95.117,0,0,1,4.423,20.417c1,9.2-3.077,106.516-3.077,106.516l21.5-2.679s-1.244-110.7-6.551-117.9c-2.716-3.658-16.3-6.352-16.3-6.352" transform="translate(-51.82 -53.261)" fill="#fefffe"/><path d="M200.327,239.652s.074-14.639-.736-20.365-4.026-17.554-4.026-17.554,5.424.309,7.4,1.236,8.332,15.611,8.155,16.008-7.471,6.631-7.471,6.631,5.395,5.373,5.351,5.962-8.67,8.081-8.67,8.081" transform="translate(-51.627 -53.255)" fill="#e1e8f5"/><path d="M219.061,345.443l-.177-3.135-13.329-.795.177,3.143Z" transform="translate(-54.264 -90.156)" fill="#e1e8f5"/><path d="M447.108,289.064l-5.726,9.774-4.254-6.477-1.958-2.973-.655-1,6.793-4.284.743.64.876.743Z" transform="translate(-114.707 -75)" fill="#e8aa80"/><path d="M428.177,274.879a8.772,8.772,0,0,1-8.5,9.016,7.971,7.971,0,0,1-3.261-.692.1.1,0,0,1-.044-.015,9.036,9.036,0,0,1-5.2-8.3,8.774,8.774,0,0,1,8.5-9.023,8.057,8.057,0,0,1,4.1,1.119,9.093,9.093,0,0,1,4.4,7.9" transform="translate(-108.546 -70.185)" fill="#7bcce0"/><path d="M428.391,274.99a8.772,8.772,0,0,1-8.5,9.016,7.971,7.971,0,0,1-3.261-.692.1.1,0,0,1-.044-.015,9.075,9.075,0,0,1-4.6-8.008,8.759,8.759,0,0,1,8.494-9.009,8.05,8.05,0,0,1,3.5.8,9.1,9.1,0,0,1,4.409,7.9" transform="translate(-108.759 -70.296)" fill="#51a9c9"/><path d="M411.955,275.853l7.316,1.568.029,1.678-7.323.964Z" transform="translate(-108.751 -72.822)" fill="#7bcce0"/><path d="M412.935,271.925l6.352,2.311.464-.684-5.2-4.129Z" transform="translate(-109.01 -71.125)" fill="#7bcce0"/><path d="M422.357,273.233a3.9,3.9,0,0,0-.184,7.75v.022h3.673l.648-7.772Z" transform="translate(-110.549 -72.13)" fill="#2c7fa3"/><path d="M426.6,273.233a3.886,3.886,0,1,1-3.886,3.886,3.886,3.886,0,0,1,3.886-3.886" transform="translate(-111.592 -72.13)" fill="#6eb2c4"/><path d="M432.216,285.822c-1.8.5-6.867-1.531-8.089-2.856-1.362-1.472-2-3.128-.729-3.621.626-.243,1.73.449,4.033.162.773-3.261-1.192-5.653-1.45-7.051-.353-1.9,3.474-2.392,4.21-.78,1.376-.972,4.078-.272,4.578,1.266a2.553,2.553,0,0,1,2.348.449,2.1,2.1,0,0,1,.684,2.127c1.31.169,1.914.685,1.928,1.987.029,2.09-1.332,6.227-3.422,7.014a35.333,35.333,0,0,1-4.092,1.3" transform="translate(-111.591 -71.463)" fill="#e8aa80"/><path d="M448.045,289.56l-5.726,9.774-4.254-6.47a23.613,23.613,0,0,1,5.8-6.882Z" transform="translate(-115.644 -75.496)" fill="#d68163"/><path d="M482.424,270.921l-6.676-11.658a17.23,17.23,0,0,0-6.44,6.168c-2.826,4.475-7.964,21.992-10.68,22.316s-13.844-10.672-13.844-10.672-6.5,8.943-6.5,15.773c0,1.855,17.377,16.163,20.976,16.163,8,0,17.385-11.519,17.385-11.519Z" transform="translate(-115.702 -68.442)" fill="#e1e8f5"/><path d="M497.265,249.756s12.571,12.416,13.977,12.483c2.164.11,20.454-9.679,20.454-9.679a80.991,80.991,0,0,1-7.463-4.865c-1.17-1.008-1.943-6.536-2.289-9.627-.272-2.385-.4-4.261-.4-4.261L508.6,232.143s-1.067,11.732-1.273,13.145a11.034,11.034,0,0,1-.4,1.928c-.707,1.8-9.664,2.539-9.664,2.539" transform="translate(-131.272 -61.283)" fill="#e8aa80"/><path d="M510.925,245.281c7.9,1.472,12.682-4.21,14.617-7.213-.272-2.385-.4-4.261-.4-4.261L512.2,232.143s-.287,3.974-.662,7.868c-.191,1.95-.4,3.879-.611,5.27" transform="translate(-134.878 -61.283)" fill="#d68163"/><path d="M493.5,225.739c.409-1.741,2.617-2.713,4.931-2.17s3.861,2.394,3.453,4.136-2.616,2.713-4.931,2.17-3.861-2.394-3.453-4.136" transform="translate(-130.262 -58.98)" fill="#d68163"/><path d="M495.492,228.079a1.424,1.424,0,0,1,1.023-1.627.769.769,0,0,1,.184-.059,1.694,1.694,0,0,1,1.229.147,8.26,8.26,0,0,1,.294,1.943,1.666,1.666,0,0,1-.876.53c-.081.022-.155.029-.236.044a1.448,1.448,0,0,1-1.619-.979" transform="translate(-130.795 -59.751)" fill="#1c5180"/><path d="M524.724,215.1c0-9.377-4.7-17.377-12.174-17.377s-13.535,2.789-13.535,16.98c0,9.046,2.4,17.547,10.93,18.1,9.1,0,14.779-8.324,14.779-17.7" transform="translate(-131.734 -52.197)" fill="#e8aa80"/><path d="M522.757,220.646c-2.053-3.077-3.422-6.933-4.688-10.378a53.988,53.988,0,0,1-17.134-.368,69.384,69.384,0,0,0-2.318,8.118,23.553,23.553,0,0,1,1.03-12.571,93.819,93.819,0,0,1,23.177-2.3c.11,5.38-.184,11.364-.066,17.5" transform="translate(-131.519 -53.621)" fill="#d68163"/><path d="M525.213,198.249a2.355,2.355,0,0,0-.832-.574c-3.8-1.973-19.07-6.749-21.065-5.778-2.23,1.089.118,3.113.118,3.113s-7.353-.795-8.648.92,1.273,5.108,1.273,5.108-1.906-.25-2.451,1.148c-.184.464.213,2.3.832,4.541.839,3.084,2.083,6.933,2.8,9.075a9.957,9.957,0,0,1,.64-1.082,79.124,79.124,0,0,1,1.1-8.928c6.079.868,18.01-.155,18.01-.155l4.342,12.711h2.8c.007.015,2.76-17.3,1.082-20.1" transform="translate(-130.295 -50.625)" fill="#1d0100"/><path d="M524.387,197.668a73.81,73.81,0,0,0-14.345-3.334,5.663,5.663,0,0,0-2.053,0,2.077,2.077,0,0,0-1.531,1.259,2.252,2.252,0,0,0,.994,2.208,18.932,18.932,0,0,0-6.764-.832,4.2,4.2,0,0,0-3.246,1.759,3.5,3.5,0,0,0-.294,2.473,3.782,3.782,0,0,0,1.178,2.142c-1.288-.618-2.893.339-3.481,1.641a4.625,4.625,0,0,0-.383,1.752c-.618-2.245-1.016-4.077-.832-4.541.545-1.4,2.451-1.148,2.451-1.148s-2.569-3.4-1.273-5.108,8.648-.92,8.648-.92-2.355-2.024-.118-3.113c1.98-.986,17.245,3.79,21.05,5.763" transform="translate(-130.3 -50.626)" fill="#360f0a"/><path d="M531.423,223.1c2.321-.721,4.655.148,5.212,1.941s-.873,3.832-3.194,4.554-4.655-.147-5.212-1.941.873-3.832,3.194-4.554" transform="translate(-139.415 -58.828)" fill="#e8aa80"/><path d="M534.606,226.951a1.623,1.623,0,0,1-.515,1.332,2.407,2.407,0,0,1-1.237.552,5.622,5.622,0,0,1-.11-.979,8.426,8.426,0,0,1,.184-1.958,7.242,7.242,0,0,1,.236-.905,1.847,1.847,0,0,1,.986.618,2.221,2.221,0,0,1,.456,1.34" transform="translate(-140.637 -59.396)" fill="#d68163"/><path d="M535.482,227.167A1.429,1.429,0,0,1,534.1,228.5a.84.84,0,0,1-.191.015,1.7,1.7,0,0,1-1.163-.442,8.426,8.426,0,0,1,.184-1.958,1.679,1.679,0,0,1,.979-.3c.081,0,.162.007.243.015a1.443,1.443,0,0,1,1.332,1.34" transform="translate(-140.637 -59.612)" fill="#1c5180"/><path d="M530.17,257.067l-5.255-3.584-14.1,13.808c-1.869-2.583-5.505-6.83-6.19-13.513l-8.155,2.208L493.855,316.4l35.814-1.06Z" transform="translate(-130.372 -66.917)" fill="#53aedb"/><path d="M516.855,266.984c4.777-4.777,10.444-11.43,12.21-14.691l2.532.876-2.164,13.859c-3.032-1.818-7.544-2.208-12.578-.044" transform="translate(-136.444 -66.602)" fill="#78c8e3"/><path d="M513.3,267.2a72.652,72.652,0,0,1-5.388-14.095l-4.173,1.435-.361,12a9.448,9.448,0,0,1,4.975-.883A32.29,32.29,0,0,1,513.3,267.2" transform="translate(-132.885 -66.816)" fill="#78c8e3"/><path d="M482.715,403.555l50.917.758,2.26-37.25-52.75-.221Z" transform="translate(-127.431 -96.842)" fill="#a1a7bf"/><path d="M500.576,252.613s-3.077,12-5.071,22.125c-2.157,10.967-3.849,21.7-5.947,40.378-3.2,28.52,0,61.98,0,61.98l-11.953.508s1.251-111.344,6.587-118.586c2.723-3.695,16.384-6.4,16.384-6.4" transform="translate(-126.082 -66.687)" fill="#fefffe"/><path d="M504,252.3s-4.019,17.753-5.277,24.237-3.032,14.477-3.032,14.477-7.25-9.023-6.506-10.488,5.417-4.769,5.417-4.769-6.72-4.858-5.807-6.2,6.425-14.293,8.8-15.935c1.347-.927,6.4-1.325,6.4-1.325" transform="translate(-129.014 -66.605)" fill="#e1e8f5"/><rect width="38.184" height="3.835" transform="translate(361.613 324.002)" fill="#89512c"/><path d="M494.121,389.062a1.658,1.658,0,0,1-.007.191l-.346,4.9-2.893,41.423a2.766,2.766,0,0,1-5.52-.184,1.658,1.658,0,0,1,.007-.191l2.878-41.055.368-5.27a2.762,2.762,0,0,1,5.513.184" transform="translate(-128.128 -101.993)" fill="#5e2c1f"/><path d="M495.156,389.064a1.665,1.665,0,0,1-.007.191l-.346,4.9h-5.527l.368-5.27a2.762,2.762,0,0,1,5.513.177" transform="translate(-129.163 -101.996)" fill="#451e18"/><path d="M519.945,388.992v46.428a2.652,2.652,0,0,1-.81,1.914,2.778,2.778,0,0,1-1.95.795,2.732,2.732,0,0,1-2.76-2.708V388.992a2.669,2.669,0,0,1,.81-1.914,2.791,2.791,0,0,1,1.95-.795,2.741,2.741,0,0,1,2.76,2.709" transform="translate(-135.802 -101.974)" fill="#5e2c1f"/><path d="M519.945,388.992v5.137h-5.52v-5.137a2.669,2.669,0,0,1,.81-1.914,2.791,2.791,0,0,1,1.95-.795,2.741,2.741,0,0,1,2.76,2.709" transform="translate(-135.802 -101.974)" fill="#451e18"/><path d="M546.854,435.384a2.762,2.762,0,0,1-5.513.184l-2.893-41.423-.346-4.9a1.657,1.657,0,0,1-.007-.191,2.762,2.762,0,0,1,5.513-.184l.368,5.27,2.87,41.055a1.722,1.722,0,0,1,.007.191" transform="translate(-142.051 -101.99)" fill="#5e2c1f"/><path d="M543.976,394.145h-5.527l-.346-4.9a1.657,1.657,0,0,1-.007-.191,2.762,2.762,0,0,1,5.513-.184Z" transform="translate(-142.051 -101.99)" fill="#451e18"/><path d="M483.055,383.349v-4.144a3.813,3.813,0,0,1,3.813-3.813h41.57a3.813,3.813,0,0,1,3.813,3.813v4.144a3.813,3.813,0,0,1-3.812,3.813h-41.57a3.813,3.813,0,0,1-3.813-3.812" transform="translate(-127.521 -99.1)" fill="#89512c"/><path d="M497.535,229.63s4.549,22.1,12.417,22.1c7.176,0,12.726-13.042,14.382-22.5" transform="translate(-131.344 -60.515)" fill="none" stroke="#15325e" stroke-miterlimit="10" stroke-width="1"/><path d="M491.216,262.3c-3.518,25.017-15.066,38.788-29.661,38.788-17.929,0-34.46-18.857-34.46-18.857" transform="translate(-112.748 -69.245)" fill="none" stroke="#15325e" stroke-linecap="round" stroke-miterlimit="10" stroke-width="1"/><path d="M512.985,262.356l.339-2.333,1.465.059-.375,2.488Z" transform="translate(-135.422 -68.643)" fill="#2e5785"/><path d="M428.323,451.493l31.612-.419c-.1-1.016-.236-1.958-.4-2.841-.817-4.328-2.355-7.161-3.209-9.84l-3.268-1.479s-4.254,1.6-14.095,4.475c-6.838,1.995-9.406,4.725-10.319,6.845a4.82,4.82,0,0,0-.316,3.261" transform="translate(-113.034 -115.34)" fill="#448fc2"/><path d="M428.323,455.554l31.612-.419c-.1-1.016-.236-1.958-.4-2.841h-30.89a4.82,4.82,0,0,0-.316,3.261" transform="translate(-113.034 -119.4)" fill="#adcddb"/><path d="M479.088,337.533s-36.955,4.453-42.07,13.2,5.527,63.334,5.527,63.334l18.194-.1L459.2,369.7l34.865-20.1Z" transform="translate(-115.001 -89.105)" fill="#08183d"/><path d="M442.023,453.123l31.612-.42c-.1-1.016-.236-1.958-.4-2.841-.817-4.328-2.355-7.161-3.209-9.84l-3.268-1.479s-4.254,1.6-14.095,4.475c-6.838,1.995-9.406,4.725-10.319,6.845a4.82,4.82,0,0,0-.316,3.261" transform="translate(-116.651 -115.77)" fill="#53aedb"/><path d="M442.023,457.184l31.612-.42c-.1-1.016-.236-1.958-.4-2.841h-30.89a4.82,4.82,0,0,0-.316,3.261" transform="translate(-116.651 -119.831)" fill="#cff3fc"/><path d="M521.591,336.913s3.695,26.6-2.8,29.065-46.3,2.812-46.3,2.812l2.127,46.6H456.262s-9.848-53.817-2.422-62.428,36.182-8.1,35.719-8.221c-3.967-1-7.22-7.367-7.22-7.367Z" transform="translate(-119.077 -88.941)" fill="#0f2752"/><path d="M549.385,260.888c-.581-2.017-16.023-8.295-16.023-8.295a54.944,54.944,0,0,0-5.417,23.346c0,13.13.052,104.2.052,104.2l26.747-1.818S553.5,275.1,549.385,260.888" transform="translate(-139.372 -66.682)" fill="#fefffe"/><path d="M527.836,290.985a204.084,204.084,0,0,1,0-21.425c.471-5.8,5.145-17.517,5.145-17.517a57.246,57.246,0,0,1,5.527,2.046c1.987.935,2.223,17.1,2.046,17.5s-6.639,5.071-6.639,5.071,5.233,5.4,5.2,6-11.276,8.324-11.276,8.324" transform="translate(-139.262 -66.536)" fill="#e1e8f5"/><rect width="3.201" height="16.795" transform="matrix(0.123, -0.992, 0.992, 0.123, 392.739, 293.212)" fill="#e1e8f5"/><path d="M510.494,325s-6.712.942-6.374,2.863,8.236,1.266,8.236,1.266Z" transform="translate(-133.079 -85.797)" fill="#d68163"/><path d="M516.4,319.265a2.311,2.311,0,0,0-3.651.044l-2.473,2.252a6.017,6.017,0,0,0-2.12,2.922,2.2,2.2,0,0,0,2.09,2.7,2.064,2.064,0,0,0,.162,1.98,2.358,2.358,0,0,0,1.9.935,1.959,1.959,0,0,0,.434,1.752,1.39,1.39,0,0,0,1.8.375,2.246,2.246,0,0,0,1.847,2.031,2.981,2.981,0,0,0,2.679-.721c2.973,1.509,6.013-.832,6.013-.832s1.111-4.342,1.678-6.293c-.736-.434-7.735-5.27-10.356-7.147" transform="translate(-134.135 -84.056)" fill="#e8aa80"/><path d="M511.225,328.381a20.211,20.211,0,0,1,3.967-3.8" transform="translate(-134.958 -85.686)" fill="none" stroke="#cf5953" stroke-linecap="round" stroke-linejoin="round" stroke-width="1"/><path d="M513.975,332.554a17.985,17.985,0,0,1,3.452-3.481" transform="translate(-135.684 -86.872)" fill="none" stroke="#cf5953" stroke-linecap="round" stroke-linejoin="round" stroke-width="1"/><path d="M516.865,335.534a20.578,20.578,0,0,1,2.5-2.981" transform="translate(-136.447 -87.79)" fill="none" stroke="#cf5953" stroke-linecap="round" stroke-linejoin="round" stroke-width="1"/><path d="M522.229,337.575a1.945,1.945,0,0,1-.854-1.362" transform="translate(-137.637 -88.756)" fill="none" stroke="#cf5953" stroke-linecap="round" stroke-linejoin="round" stroke-width="1"/><path d="M521.305,337.533a2.625,2.625,0,0,1-1.31.478" transform="translate(-137.273 -89.105)" fill="none" stroke="#cf5953" stroke-linecap="round" stroke-linejoin="round" stroke-width="1"/><path d="M529.56,327.437l7.117-.574,1.5,9.23-9.553-.324Z" transform="translate(-139.551 -86.288)" fill="#e8aa80"/><path d="M541.682,277.882l4.46-18.1s8.059,4.762,9.406,6.646c2.672,3.732,16.737,43.13,12.306,47.561s-32.546,7.971-32.546,7.971l-2.753-12.807s17.09-2.686,16.987-5.027-7.861-26.246-7.861-26.246" transform="translate(-140.588 -68.58)" fill="#fefffe"/><path d="M547.645,272.043a36.794,36.794,0,0,0-.869,21.58,68.905,68.905,0,0,0,4.129,10.886,184.743,184.743,0,0,1-18.371,7.507" transform="translate(-140.583 -71.816)" fill="none" stroke="#e1e8f5" stroke-linecap="round" stroke-miterlimit="10" stroke-width="1"/><path d="M535.445,340.043a27.955,27.955,0,0,0,1.214,3.68c5.888-.773,12.313-1.472,17.973-3.283" transform="translate(-141.351 -89.768)" fill="none" stroke="#e1e8f5" stroke-linecap="round" stroke-miterlimit="10" stroke-width="1"/><path d="M551.448,305.3a10.21,10.21,0,0,1-5.653-4.725" transform="translate(-144.084 -79.348)" fill="none" stroke="#e1e8f5" stroke-linecap="round" stroke-miterlimit="10" stroke-width="1"/><path d="M477.834,120.163a26.349,26.349,0,1,1-26.349,26.349,26.349,26.349,0,0,1,26.349-26.349" transform="translate(-119.187 -31.722)" fill="#82ced8"/><path d="M463.852,144.48c6.241-10.172,16.914,3.15,16.914,3.15s11.276-11.923,16.914-3.15c6.815,10.613-17.2,23.788-17.2,23.788s-23.125-13.2-16.626-23.788" transform="translate(-122.148 -37.131)" fill="#ba2f54"/><path d="M454.935,155h13.741l2.12-8.442,4.262,16.972,3.687-20.7,3.091,18.548,4.821-11.629,2.1,5.285h11.209" transform="translate(-120.098 -37.706)" fill="none" stroke="#fff0f4" stroke-miterlimit="10" stroke-width="1"/><path d="M239.114,46.693a26.349,26.349,0,1,1-26.349,26.349,26.349,26.349,0,0,1,26.349-26.349" transform="translate(-56.168 -12.326)" fill="#82ced8"/><path d="M245.856,55.711a7.385,7.385,0,0,1,9.472,4.394l6.955,19a7.384,7.384,0,0,1-13.866,5.078l-6.955-19a7.379,7.379,0,0,1,4.394-9.472" transform="translate(-63.624 -14.588)" fill="#941b3f"/><path d="M245.856,55.711a7.385,7.385,0,0,1,9.472,4.394l3.481,9.5-13.866,5.078-3.481-9.5a7.379,7.379,0,0,1,4.394-9.472" transform="translate(-63.624 -14.588)" fill="#ebe1e2"/><path d="M223.421,72.4a7.374,7.374,0,0,1,10.437,0L248.166,86.7a7.38,7.38,0,0,1-10.437,10.437L223.421,82.834a7.387,7.387,0,0,1,0-10.437" transform="translate(-58.411 -18.541)" fill="#ba2f54"/><path d="M223.421,72.4a7.374,7.374,0,0,1,10.437,0l7.154,7.154L230.575,89.988l-7.154-7.154a7.387,7.387,0,0,1,0-10.437" transform="translate(-58.411 -18.541)" fill="#fff"/><path d="M467.274,10.893a26.349,26.349,0,1,1-26.349,26.349,26.349,26.349,0,0,1,26.349-26.349" transform="translate(-116.399 -2.876)" fill="#82ced8"/><path d="M485.91,25.843v19.3a12.278,12.278,0,0,1-5.38,10.164l-6.72,4.556a3.34,3.34,0,0,1-3.68.052l-7.235-4.644a12.291,12.291,0,0,1-5.66-10.341V25.843Z" transform="translate(-120.705 -6.822)" fill="#fff"/><path d="M491.052,25.843v19.3a12.278,12.278,0,0,1-5.38,10.164l-6.72,4.556a3.3,3.3,0,0,1-2.237.559V25.843Z" transform="translate(-125.847 -6.822)" fill="#ebe1e2"/><rect width="17.458" height="5.395" transform="translate(342.146 32.35)" fill="#ba2f54"/><rect width="5.395" height="17.458" transform="translate(348.183 26.319)" fill="#ba2f54"/><g transform="translate(-15932.22 8750.089)"><path d="M131.087,63.716l-1.224-.992,1.417-1.966" transform="translate(16178.296 -8643.212)" fill="none" stroke="#000" stroke-linecap="round" stroke-linejoin="round" stroke-width="0.809"/><path d="M103.337,52.882s1.6-3.982,6.964-.923a5.077,5.077,0,0,1-6.964.923" transform="translate(16209.123 -8636.953)" fill="#fff"/><path d="M108.46,51.026a1.892,1.892,0,1,0,2.131-1.683,1.921,1.921,0,0,0-2.131,1.683" transform="translate(16205.303 -8636.024)"/><path d="M110.3,51.958a5.077,5.077,0,0,1-6.964.923,3.589,3.589,0,0,1,3.323-2.079,7.463,7.463,0,0,1,3.641,1.155" transform="translate(16209.122 -8636.953)" fill="none"/><path d="M110.191,51.423a5.82,5.82,0,0,0-3.805-1.329,4.177,4.177,0,0,0-2.033.438,2.644,2.644,0,0,0-1.325,1.686.245.245,0,0,0,.476.115l0-.008.006-.028a2.213,2.213,0,0,1,1.048-1.4,3.774,3.774,0,0,1,1.833-.456,5.535,5.535,0,0,1,3.643,1.164.118.118,0,0,0,.167-.013.121.121,0,0,0-.012-.167" transform="translate(16209.311 -8636.508)"/><path d="M138.9,52.3s-1.551-4.088-4.551-1.319c0,0,1.673,3.879,4.551,1.319" transform="translate(16169.003 -8636.457)" fill="#fff"/><path d="M140.019,50.917a1.385,1.385,0,1,1-1.588-1.481,1.557,1.557,0,0,1,1.588,1.481" transform="translate(16166.76 -8636.086)"/><path d="M138.9,52.3c-2.878,2.56-4.551-1.319-4.551-1.319a3.012,3.012,0,0,1,2-.962c1.688,0,2.554,2.281,2.554,2.281" transform="translate(16169.003 -8636.457)" fill="none"/><path d="M134.229,50.838a1.874,1.874,0,0,1,1.978-.8l.02,0a3.009,3.009,0,0,1,2.18,1.95l.006.014a.207.207,0,1,0,.387-.148l0-.007a3.358,3.358,0,0,0-2.524-2.1l.019,0a2.119,2.119,0,0,0-2.227.971.1.1,0,0,0,.023.14.106.106,0,0,0,.141-.026" transform="translate(16169.21 -8636.26)"/><path d="M141.459,39.363a.99.99,0,0,1-.854,1.274,12.35,12.35,0,0,0-2.39.463.579.579,0,0,1-.762-.283.809.809,0,0,1,0-.778,4.069,4.069,0,0,1,2.392-1.4c1.362-.254,1.611.727,1.611.727" transform="translate(16165.301 -8629.276)"/><path d="M103.5,37.1s-.4,1.093,1.242,1.324a25.907,25.907,0,0,1,3.907.967.962.962,0,0,0,1.079-.268.627.627,0,0,0-.02-.795,8.76,8.76,0,0,0-3.929-1.927c-1.944-.3-2.279.7-2.279.7" transform="translate(16209.519 -8627.866)"/><path d="M117.29,72.918l5.915-.143a2.57,2.57,0,0,1-2.81,2.467c-3,.063-3.105-2.323-3.105-2.323" transform="translate(16191.038 -8650.767)" fill="#fff"/><path d="M110.761,47.38a4.72,4.72,0,1,1-4.832-4.6A4.72,4.72,0,0,1,110.761,47.38Z" transform="translate(16209.408 -8631.905)" fill="none" stroke="#15325e" stroke-miterlimit="10" stroke-width="1.01"/><path d="M142.146,48.162a4.537,4.537,0,0,1-4.163,4.832,4.485,4.485,0,0,1-4.37-4.6,4.537,4.537,0,0,1,4.163-4.832A4.485,4.485,0,0,1,142.146,48.162Z" transform="translate(16166.036 -8632.396)" fill="none" stroke="#15325e" stroke-miterlimit="10" stroke-width="1.01"/><path d="M126.742,55.329a2.574,2.574,0,0,1,2.552-.062" transform="translate(16181.44 -8639.564)" fill="none" stroke="#15325e" stroke-miterlimit="10" stroke-width="1.01"/><line x2="3.553" y2="2.002" transform="translate(16320.165 -8584.647)" fill="none" stroke="#15325e" stroke-miterlimit="10" stroke-width="1.01"/></g><g transform="translate(127.551 122.381)"><path d="M130.071,63.95l1.321-1.07-1.528-2.122" transform="translate(-114.603 -50.979)" fill="none" stroke="#000" stroke-linecap="round" stroke-linejoin="round" stroke-width="0.809"/><path d="M110.851,53.046s-1.731-4.3-7.514-1a5.478,5.478,0,0,0,7.514,1" transform="translate(-98.704 -45.013)" fill="#fff"/><path d="M112.506,51.16a2.041,2.041,0,1,1-2.3-1.816,2.073,2.073,0,0,1,2.3,1.816" transform="translate(-101.764 -44.127)"/><path d="M103.338,52.05a5.478,5.478,0,0,0,7.514,1,3.873,3.873,0,0,0-3.586-2.243,8.053,8.053,0,0,0-3.928,1.247" transform="translate(-98.704 -45.013)" fill="none"/><path d="M103.064,51.528a6.279,6.279,0,0,1,4.106-1.434,4.507,4.507,0,0,1,2.193.473,2.853,2.853,0,0,1,1.43,1.82.264.264,0,0,1-.514.125l0-.009-.006-.03a2.388,2.388,0,0,0-1.131-1.514,4.072,4.072,0,0,0-1.978-.492,5.972,5.972,0,0,0-3.931,1.256.128.128,0,0,1-.181-.014.13.13,0,0,1,.013-.18" transform="translate(-98.514 -44.588)"/><path d="M134.353,52.476s1.673-4.411,4.911-1.423c0,0-1.806,4.185-4.911,1.423" transform="translate(-117.294 -44.54)" fill="#fff"/><path d="M137.355,51.035a1.494,1.494,0,1,0,1.714-1.6,1.68,1.68,0,0,0-1.714,1.6" transform="translate(-119.077 -44.186)"/><path d="M134.353,52.476c3.106,2.762,4.911-1.423,4.911-1.423a3.25,3.25,0,0,0-2.155-1.038c-1.822,0-2.756,2.461-2.756,2.461" transform="translate(-117.294 -44.54)" fill="none"/><path d="M138.99,50.927a2.022,2.022,0,0,0-2.134-.866l-.021,0a3.247,3.247,0,0,0-2.352,2.1l-.006.015a.223.223,0,1,1-.417-.159l0-.007a3.623,3.623,0,0,1,2.723-2.267l-.021,0a2.286,2.286,0,0,1,2.4,1.048.108.108,0,0,1-.025.151.114.114,0,0,1-.153-.028" transform="translate(-117.109 -44.352)"/><path d="M137.391,39.424a1.068,1.068,0,0,0,.922,1.375,13.325,13.325,0,0,1,2.578.5.625.625,0,0,0,.822-.3.873.873,0,0,0,0-.84,4.391,4.391,0,0,0-2.581-1.514c-1.469-.274-1.739.785-1.739.785" transform="translate(-119.093 -37.694)"/><path d="M110.32,37.163s.43,1.179-1.34,1.428a27.953,27.953,0,0,0-4.216,1.043,1.039,1.039,0,0,1-1.165-.289.676.676,0,0,1,.022-.857,9.452,9.452,0,0,1,4.24-2.079c2.1-.319,2.459.754,2.459.754" transform="translate(-98.775 -36.35)"/><path d="M123.672,72.93l-6.382-.155a2.773,2.773,0,0,0,3.032,2.661c3.239.069,3.35-2.507,3.35-2.507" transform="translate(-107.067 -58.182)" fill="#fff"/></g></g></g></g></g></g></svg>