<svg xmlns="http://www.w3.org/2000/svg" width="50.799" height="50.007" viewBox="0 0 50.799 50.007"><g transform="translate(-362.514 -2205)"><g transform="translate(362.514 2201.01)"><path d="M49.063,45.812H44.853a5.985,5.985,0,0,0-3.285-3.285v-5.05h1.259a1.738,1.738,0,0,0,1.736-1.736V30.284a3.228,3.228,0,0,0-3-3.216v-.883a5.215,5.215,0,0,0-5.209-5.209H30.1V18.6h1.24a1.738,1.738,0,0,0,1.736-1.736v-.992a1.738,1.738,0,0,0-1.736-1.736H28.7a.744.744,0,1,0,0,1.488H31.34a.248.248,0,0,1,.248.248v.992a.248.248,0,0,1-.248.248H22.41a.248.248,0,0,1-.248-.248v-.992a.248.248,0,0,1,.248-.248h2.818a.744.744,0,1,0,0-1.488H22.41a1.738,1.738,0,0,0-1.736,1.736v.992A1.738,1.738,0,0,0,22.41,18.6h1.24v2.093a17.112,17.112,0,0,0-3.658-1.009l-1.233-7.641a3.739,3.739,0,0,0-3.711-3.127l-1.255.065-.14-.865A4.892,4.892,0,0,0,8.8,3.99H2.237a2.236,2.236,0,1,0,0,4.473h6.4a.642.642,0,0,1,.637.542l.688,4.259a.744.744,0,0,0,1.469-.237l-.688-4.259A2.125,2.125,0,0,0,8.64,6.975h-6.4a.748.748,0,0,1,0-1.5H8.8a3.409,3.409,0,0,1,3.379,2.877l1.844,11.42q-.736.14-1.449.341l-.593-3.672a.744.744,0,1,0-1.469.237l.631,3.908A17.268,17.268,0,0,0,2.541,45.754a.744.744,0,0,0,1.268-.779A15.8,15.8,0,1,1,5.829,47.6.744.744,0,0,0,4.75,48.627,17.111,17.111,0,0,0,17.264,54,17.284,17.284,0,0,0,34.51,37.478H37.1v5.05a5.952,5.952,0,1,0,7.749,7.749h4.209A1.738,1.738,0,0,0,50.8,48.54v-.992a1.738,1.738,0,0,0-1.736-1.736Zm-6.235-9.822H34.51q-.032-.753-.127-1.488h8.693v1.24A.248.248,0,0,1,42.828,35.989ZM37.1,27.06H31.555a17.372,17.372,0,0,0-1.243-1.618H36.36a.745.745,0,0,1,.744.744v.874Zm0,1.488v4.465H34.122a17.141,17.141,0,0,0-1.662-4.465Zm5.972,1.736v2.728H41.569V28.565A1.738,1.738,0,0,1,43.076,30.284Zm-3-4.1v6.826H38.592V26.186a2.235,2.235,0,0,0-2.232-2.232h-7.5a17.374,17.374,0,0,0-1.887-1.488H36.36a3.725,3.725,0,0,1,3.721,3.721ZM28.611,18.6v2.375H25.139V18.6ZM15.5,19.559l-1.469-9.1,1.073-.055a2.223,2.223,0,0,1,2.186,1.877l1.167,7.23A17.909,17.909,0,0,0,15.5,19.559ZM38.592,37.478h1.488v4.662a5.778,5.778,0,0,0-1.488,0Zm.744,15.031A4.465,4.465,0,1,1,43.8,48.044,4.47,4.47,0,0,1,39.336,52.509Zm9.974-3.969a.248.248,0,0,1-.248.248H45.241a5.777,5.777,0,0,0,0-1.488h3.821a.248.248,0,0,1,.248.248Z" transform="translate(0)" fill="#13c6cc"/><path d="M66.5,210.936a.744.744,0,0,0,.43-.96,13.154,13.154,0,1,0,.858,4.68c0-.367-.015-.739-.046-1.1a.744.744,0,1,0-1.483.123c.027.324.041.654.041.98a11.647,11.647,0,1,1-.76-4.15.744.744,0,0,0,.96.43Z" transform="translate(-37.383 -177.923)" fill="#13c6cc"/><path d="M77.166,226.51a10.666,10.666,0,1,0,10.666,10.666A10.678,10.678,0,0,0,77.166,226.51Zm9.147,9.922H82.321a5.209,5.209,0,0,0-1.935-3.345l2-3.457A9.181,9.181,0,0,1,86.313,236.432ZM77.166,240.9a3.721,3.721,0,1,1,3.721-3.721A3.725,3.725,0,0,1,77.166,240.9Zm3.929-12.014-2,3.457a5.19,5.19,0,0,0-3.865,0l-2-3.457a9.166,9.166,0,0,1,7.857,0Zm-9.145.746,2,3.457a5.208,5.208,0,0,0-1.935,3.345H68.019A9.18,9.18,0,0,1,71.95,229.629Zm-3.931,8.291h3.992a5.209,5.209,0,0,0,1.935,3.345l-2,3.457A9.181,9.181,0,0,1,68.019,237.92Zm5.219,7.549,2-3.457a5.19,5.19,0,0,0,3.865,0l2,3.457a9.167,9.167,0,0,1-7.858,0Zm9.145-.746-2-3.457a5.208,5.208,0,0,0,1.935-3.345h3.992A9.18,9.18,0,0,1,82.382,244.722Z" transform="translate(-59.902 -200.442)" fill="#13c6cc"/><path d="M153.732,311.51a2.232,2.232,0,1,0,2.232,2.232A2.235,2.235,0,0,0,153.732,311.51Zm0,2.977a.744.744,0,1,1,.744-.744A.745.745,0,0,1,153.732,314.487Z" transform="translate(-136.469 -277.009)" fill="#13c6cc"/><path d="M369.448,418.01a2.976,2.976,0,1,0,2.977,2.977A2.98,2.98,0,0,0,369.448,418.01Zm0,4.465a1.488,1.488,0,1,1,1.488-1.488A1.49,1.49,0,0,1,369.448,422.475Z" transform="translate(-330.111 -372.942)" fill="#13c6cc"/></g></g></svg>