<svg xmlns="http://www.w3.org/2000/svg" xmlns:xlink="http://www.w3.org/1999/xlink" width="126" height="126" viewBox="0 0 126 126"><defs><filter id="a" x="0" y="0" width="126" height="126" filterUnits="userSpaceOnUse"><feOffset dy="3" input="SourceAlpha"/><feGaussianBlur stdDeviation="3" result="b"/><feFlood flood-opacity="0.161"/><feComposite operator="in" in2="b"/><feComposite in="SourceGraphic"/></filter></defs><g transform="translate(-1156.936 -2912)"><g transform="matrix(1, 0, 0, 1, 1156.94, 2912)" filter="url(#a)"><circle cx="54" cy="54" r="54" transform="translate(9 6)" fill="#13c6cc"/></g><g transform="translate(1167.936 2906.249)"><g transform="translate(1.527 28.653)"><g transform="translate(47.443)"><path d="M325.684,50.706a16.08,16.08,0,1,0-32.16,0s-.005,23.578-.006,27.26H325.69c0-3.682-.006-27.26-.006-27.26Z" transform="translate(-282.747 -34.626)" fill="#756e78"/><g transform="translate(24.06)"><path d="M377.687,50.705a16.068,16.068,0,0,0-18.876-15.833,7.5,7.5,0,0,1,5.585,7.251V77.965h13.3C377.692,74.283,377.687,50.705,377.687,50.705Z" transform="translate(-358.811 -34.625)" fill="#665e66"/></g><g transform="translate(36.494 15.751)"><path d="M419.9,112.013v9.11h5.377a2.29,2.29,0,0,0,2.29-2.29V114.3a2.29,2.29,0,0,0-2.29-2.29H419.9Z" transform="translate(-419.903 -112.013)" fill="#9bc4f9"/></g><g transform="translate(9.551 15.751)"><path d="M295.192,112.013v9.11h-5.378a2.29,2.29,0,0,1-2.29-2.29V114.3a2.29,2.29,0,0,1,2.29-2.29h5.378Z" transform="translate(-287.524 -112.013)" fill="#9bc4f9"/></g><g transform="translate(0 27.483)"><path d="M335.535,190.174l-3.773-8.3c-.039-.008-.076-.018-.114-.027a3.278,3.278,0,0,1-2.545-3.193v-9.005H316.555v9.005a3.278,3.278,0,0,1-2.545,3.193c-.038.009-.075.02-.114.027l-3.773,8.3Z" transform="translate(-295.973 -169.653)" fill="#ffddce"/><path d="M280.875,235.229l-.086.076a16.995,16.995,0,0,1-26.669,0l-.1-.074A17.448,17.448,0,0,0,240.6,252.209V262.8h53.712V252.209A17.447,17.447,0,0,0,280.875,235.229Z" transform="translate(-240.599 -221.882)" fill="#dbe8f9"/><path d="M404.071,222.223l-.5-2.767a3.282,3.282,0,0,0,2.342,2.062c.038.009.075.02.114.027l3.773.968a17.448,17.448,0,0,1,14.15,17.133v10.592H403.372A69.723,69.723,0,0,0,404.071,222.223Z" transform="translate(-370.242 -209.319)" fill="#7fb2f9"/><path d="M410.6,222.513l-3.773-.968c-.039-.008-.076-.018-.114-.027a3.282,3.282,0,0,1-2.342-2.062l.5,2.767c.256,1.426.461,2.858.627,4.294a17.433,17.433,0,0,1,5.959,13.129v10.592h13.3V239.646A17.448,17.448,0,0,0,410.6,222.513Z" transform="translate(-371.036 -209.319)" fill="#60a0f7"/><path d="M260.484,222.223l.5-2.767a3.282,3.282,0,0,1-2.342,2.062c-.038.009-.075.02-.114.027l-3.773.968a17.448,17.448,0,0,0-14.15,17.133v10.592h20.583a69.723,69.723,0,0,1-.7-28.016Z" transform="translate(-240.6 -209.319)" fill="#7fb2f9"/><path d="M436.561,293.754h4.886a1.628,1.628,0,0,0,1.628-1.628v-2.384a1.628,1.628,0,0,0-1.628-1.628h-4.886a1.628,1.628,0,0,0-1.628,1.628v2.384A1.628,1.628,0,0,0,436.561,293.754Z" transform="translate(-395.38 -264.003)" fill="#ffd064"/></g><g transform="translate(15.387 8.929)"><g transform="translate(0 0)"><path d="M339.137,85.319a10.762,10.762,0,0,1-5.407-6.4.608.608,0,0,0-1.112-.106c-2.492,4.485-7.453,6.507-13.166,6.507H316.2v7.264a11.471,11.471,0,0,0,22.939,0Z" transform="translate(-316.198 -78.497)" fill="#ffddce"/></g><path d="M361.627,78.918a.608.608,0,0,0-1.112-.106,11.332,11.332,0,0,1-2.163,2.774v11a11.477,11.477,0,0,1-7.129,10.446,11.473,11.473,0,0,0,15.81-10.446V85.319a10.76,10.76,0,0,1-5.407-6.4Z" transform="translate(-344.095 -78.497)" fill="#ffcbbe"/><g transform="translate(13.426 19.098)"><path d="M388.049,177.136h-3.48a2.4,2.4,0,0,1,0-4.808h3.48a2.4,2.4,0,0,1,0,4.808Z" transform="translate(-382.165 -172.328)" fill="#db636e"/></g></g></g><path d="M116.933,387.309h74.758a4.125,4.125,0,0,0,4.125-4.125V364.294H116.933Z" transform="translate(-94.66 -297.196)" fill="#eaf2ff"/><path d="M423.027,364.294v18.891a4.124,4.124,0,0,1-4.125,4.124h13.3a4.125,4.125,0,0,0,4.125-4.124V364.294Z" transform="translate(-335.168 -297.196)" fill="#dbe8f9"/><g transform="translate(0 17.136)"><g transform="translate(0 30.192)"><path d="M122.389,276.577v-9.416H109.282v9.416a3.428,3.428,0,0,1-2.661,3.338s.348,7.742,9.215,7.742,9.776-7.628,9.776-7.628l-.442-.085a3.428,3.428,0,0,1-2.78-3.366Z" transform="translate(-86.447 -267.161)" fill="#ffddce"/><path d="M61.316,359.857a4.963,4.963,0,0,0,4.963-4.963v-4.457a20.248,20.248,0,0,0-16.421-19.883l-3.192-.614a13.6,13.6,0,0,1-18.881-.007l-.11-.106c-.04.009-.079.021-.119.029l-3.634.7A20.248,20.248,0,0,0,7.5,350.437v4.457a4.963,4.963,0,0,0,4.963,4.963Z" transform="translate(-7.5 -317.072)" fill="#f7c46b"/><g transform="translate(34.987 12.868)"><path d="M186.77,331l-3.192-.614a13.557,13.557,0,0,1-4.178,2.749,20.25,20.25,0,0,1,10.5,17.748v4.457a4.963,4.963,0,0,1-4.963,4.963h13.29a4.963,4.963,0,0,0,4.963-4.963V350.88A20.247,20.247,0,0,0,186.77,331Z" transform="translate(-179.4 -330.383)" fill="#e2ae52"/></g></g><path d="M102.506,136.167a7.386,7.386,0,0,0,.605-4.247l-.014-.1a3.023,3.023,0,0,0-.89-2.13,1.133,1.133,0,0,1-.337-.8,4.043,4.043,0,0,0-2.7-3.753,1.372,1.372,0,0,1-.846-.912,3.32,3.32,0,0,0-3-2.34,1.135,1.135,0,0,1-.841-.471,3.445,3.445,0,0,0-2.807-1.4,3.572,3.572,0,0,0-.918.119,1.388,1.388,0,0,1-1.33-.336,3.754,3.754,0,0,0-2.945-.985h0a3.706,3.706,0,0,0-2.945.985,1.388,1.388,0,0,1-1.33.336,3.572,3.572,0,0,0-.918-.119,3.445,3.445,0,0,0-2.807,1.4,1.133,1.133,0,0,1-.841.471,3.32,3.32,0,0,0-3,2.34,1.373,1.373,0,0,1-.846.912,4.043,4.043,0,0,0-2.7,3.753,1.133,1.133,0,0,1-.337.8,3.023,3.023,0,0,0-.89,2.13l-.014.1a7.391,7.391,0,0,0,.621,4.283,36.912,36.912,0,0,1,.992,4.9,8.309,8.309,0,0,0,.876,2.6,8.426,8.426,0,0,1,.952,2.916,12.463,12.463,0,0,0,4.138,7.92,13.506,13.506,0,0,0,18.214-.078,12.466,12.466,0,0,0,4.072-7.955,8.061,8.061,0,0,1,.94-2.9l.008-.016a8.331,8.331,0,0,0,.9-2.683A35.816,35.816,0,0,1,102.506,136.167Z" transform="translate(-57.092 -118.821)" fill="#ffddce"/><path d="M143.625,131.92l-.014-.1a3.024,3.024,0,0,0-.89-2.13,1.133,1.133,0,0,1-.337-.8,4.043,4.043,0,0,0-2.7-3.753,1.372,1.372,0,0,1-.846-.912,3.321,3.321,0,0,0-3-2.34,1.135,1.135,0,0,1-.841-.471,3.445,3.445,0,0,0-2.807-1.4,3.572,3.572,0,0,0-.918.119,1.389,1.389,0,0,1-1.33-.336A3.754,3.754,0,0,0,127,118.82h0a3.706,3.706,0,0,0-2.945.985,1.388,1.388,0,0,1-1.331.336,3.593,3.593,0,0,0-2.076.072,3.462,3.462,0,0,1,1.009.584c.659.535.694,1.04,1.431,1.093a3.53,3.53,0,0,1,1.707.582c1.6,1.072.944,2.217,2.14,2.67a4.042,4.042,0,0,1,2.7,3.753c0,1,1.324.847,1.327,4.148,0,2.642-.551.937-1.631,7.877-.4,2.551-1.564,3.11-1.852,5.594a12.465,12.465,0,0,1-4.072,7.955,14.95,14.95,0,0,1-2.771,1.938,13.6,13.6,0,0,0,6.432,1.633,13.858,13.858,0,0,0,9.092-3.571,12.466,12.466,0,0,0,4.072-7.955,8.061,8.061,0,0,1,.94-2.9l.009-.016a8.331,8.331,0,0,0,.9-2.683,35.69,35.69,0,0,1,.94-4.753A7.385,7.385,0,0,0,143.625,131.92Z" transform="translate(-97.606 -118.82)" fill="#ffcbbe"/><path d="M103.1,131.825a3.024,3.024,0,0,0-.89-2.13,1.133,1.133,0,0,1-.337-.8,4.043,4.043,0,0,0-2.7-3.753,1.372,1.372,0,0,1-.846-.912,3.321,3.321,0,0,0-3-2.34,1.135,1.135,0,0,1-.842-.471,3.445,3.445,0,0,0-2.807-1.4,3.572,3.572,0,0,0-.918.119,1.389,1.389,0,0,1-1.33-.336,3.754,3.754,0,0,0-2.945-.985h0a3.706,3.706,0,0,0-2.945.985,1.388,1.388,0,0,1-1.33.336,3.572,3.572,0,0,0-.918-.119,3.446,3.446,0,0,0-2.807,1.4,1.135,1.135,0,0,1-.842.471,3.32,3.32,0,0,0-3,2.34,1.373,1.373,0,0,1-.846.912,4.043,4.043,0,0,0-2.7,3.753,1.133,1.133,0,0,1-.337.8,3.023,3.023,0,0,0-.89,2.13l-.014.1a7.391,7.391,0,0,0,.621,4.283,36.912,36.912,0,0,1,.992,4.9,8.316,8.316,0,0,0,.876,2.6,9.049,9.049,0,0,1,.556,1.261,7.462,7.462,0,0,0,2.547,3.523l.111.082a18.527,18.527,0,0,0,21.986-.08l.025-.019a7.32,7.32,0,0,0,2.507-3.532,8.612,8.612,0,0,1,.582-1.328l.009-.016a8.33,8.33,0,0,0,.9-2.683,35.69,35.69,0,0,1,.94-4.753,7.386,7.386,0,0,0,.605-4.247Z" transform="translate(-57.092 -118.82)" fill="#756e78"/><path d="M143.67,131.919l-.014-.1a3.024,3.024,0,0,0-.89-2.13,1.133,1.133,0,0,1-.337-.8,4.043,4.043,0,0,0-2.7-3.753,1.372,1.372,0,0,1-.846-.912,3.321,3.321,0,0,0-3-2.34,1.135,1.135,0,0,1-.842-.471,3.445,3.445,0,0,0-2.807-1.4,3.572,3.572,0,0,0-.918.119,1.389,1.389,0,0,1-1.33-.336,3.754,3.754,0,0,0-2.945-.985h0a3.706,3.706,0,0,0-2.945.985,1.388,1.388,0,0,1-1.33.336,3.593,3.593,0,0,0-2.076.072,3.461,3.461,0,0,1,1.009.584c.659.536.694,1.04,1.431,1.093a3.53,3.53,0,0,1,1.707.582c1.6,1.072.944,2.217,2.14,2.67a4.042,4.042,0,0,1,2.7,3.753c0,1,1.324.847,1.327,4.148,0,2.642-.551.937-1.631,7.877-.4,2.551-1.564,3.11-1.852,5.594a12.831,12.831,0,0,1-2,5.563c.52.044,1.054.071,1.6.074A18.443,18.443,0,0,0,138.1,148.5l.025-.019a7.321,7.321,0,0,0,2.507-3.532,8.613,8.613,0,0,1,.582-1.328l.009-.016a8.33,8.33,0,0,0,.9-2.683,35.686,35.686,0,0,1,.94-4.752A7.383,7.383,0,0,0,143.67,131.919Z" transform="translate(-97.651 -118.819)" fill="#665e66"/></g></g><g transform="translate(0 27.127)"><g transform="translate(0 0)"><path d="M93.438,69.357c0-.022,0-1.514,0-15.343a3.8,3.8,0,0,0,1.221-2.79v-4.53a3.8,3.8,0,0,0-1.25-2.816,17.6,17.6,0,0,0-35.164,0,3.8,3.8,0,0,0-1.25,2.816v4.53a3.8,3.8,0,0,0,1.223,2.792v4.805a1.526,1.526,0,0,0,1.526,1.527h0a1.526,1.526,0,0,0,1.526-1.526V55.041h2.05a12.964,12.964,0,0,0,4.706,6.85c-.034,3.239.083,3.348-.115,3.868-.5,1.33-1.468.985-6.644,2.444V65.959a1.526,1.526,0,0,0-1.526-1.527h0a1.526,1.526,0,0,0-1.526,1.526v3.4A19.008,19.008,0,0,0,47.443,86.463v2.406a21.732,21.732,0,0,0-3.271-.9l-3.634-.7A1.9,1.9,0,0,1,39,85.4V84.155a16.95,16.95,0,0,0,2.089-1.57,13.961,13.961,0,0,0,4.58-8.926A6.657,6.657,0,0,1,46.44,71.3c1.454-2.687,1.2-5.643,1.892-7.535,1.124-2.425,1.26-6.166-.5-8.066A5.54,5.54,0,0,0,44.2,50.706a4.849,4.849,0,0,0-4.158-3.354,5.039,5.039,0,0,0-5.186-1.733,5.16,5.16,0,0,0-3.946-1.356,5.153,5.153,0,0,0-3.945,1.356,5.036,5.036,0,0,0-5.186,1.733,4.842,4.842,0,0,0-4.158,3.354A5.54,5.54,0,0,0,14,55.7c-1.793,1.932-1.623,5.685-.484,8.11.205.543.671,3.275.79,4,.593,3.626,1.621,3.718,1.9,5.976a13.958,13.958,0,0,0,4.654,8.887,17.02,17.02,0,0,0,1.971,1.469V85.4a1.891,1.891,0,0,1-1.476,1.85h0l-3.7.717A21.662,21.662,0,0,0,9.9,91.089a1.527,1.527,0,0,0,1.665,2.559,18.612,18.612,0,0,1,6.667-2.686l3-.577a15.043,15.043,0,0,0,10.017,3.8h.006a15.044,15.044,0,0,0,9.9-3.69l2.44.47a18.747,18.747,0,0,1,15.183,18.384V113.8a3.44,3.44,0,0,1-3.436,3.436H50.761v-5.408a1.526,1.526,0,1,0-3.053,0v5.408H14.089v-5.408a1.526,1.526,0,1,0-3.053,0v5.408H6.489A3.44,3.44,0,0,1,3.053,113.8v-4.457A18.584,18.584,0,0,1,6.759,98.166,1.526,1.526,0,0,0,4.31,96.342,21.615,21.615,0,0,0,0,109.347V113.8a6.5,6.5,0,0,0,6.489,6.489H98.558a5.657,5.657,0,0,0,5.651-5.651V86.462A19.009,19.009,0,0,0,93.438,69.357ZM18.767,53.539a2.917,2.917,0,0,0,1.777-1.928,1.793,1.793,0,0,1,1.64-1.229,2.7,2.7,0,0,0,1.971-1.1,1.98,1.98,0,0,1,2.094-.694,2.924,2.924,0,0,0,2.793-.723,2.241,2.241,0,0,1,1.874-.546,2.293,2.293,0,0,1,1.874.546,2.923,2.923,0,0,0,2.794.723l.018,0a2.233,2.233,0,0,1,2.375,1.041,2.647,2.647,0,0,0,1.4.723c.246.044,1.575.055,1.914,1.264a2.917,2.917,0,0,0,1.776,1.928,2.512,2.512,0,0,1,1.713,2.318,2.648,2.648,0,0,0,.776,1.879c.491.5.933,2.759,0,4.756-.819,1.759-.657,5.237-1.81,7.37-.947,1.749-.872,3.024-2.653,4.358l-.03.023a17,17,0,0,1-20.168.075l-.1-.076c-1.749-1.309-1.841-2.728-2.671-4.28-1.086-2.033-1.028-5.734-1.833-7.44-.889-1.885-.6-4.191-.01-4.785a2.647,2.647,0,0,0,.776-1.879,2.511,2.511,0,0,1,1.713-2.318Zm2.018,24.353A20.014,20.014,0,0,0,30.99,80.646h.029a20,20,0,0,0,10.053-2.751,10.355,10.355,0,0,1-2,2.4,12,12,0,0,1-16.208.069A10.364,10.364,0,0,1,20.784,77.892Zm3.581,11.081a4.92,4.92,0,0,0,1.513-3.331,14.708,14.708,0,0,0,10.075.009,4.953,4.953,0,0,0,1.811,3.58A12.013,12.013,0,0,1,24.365,88.973Zm76.791-2.51v7.763H95.689V91.154a1.526,1.526,0,1,0-3.053,0v3.071h-8.4a71.056,71.056,0,0,0,.25-24.357c3.622.928,3.682.946,3.755.96A15.943,15.943,0,0,1,101.156,86.462ZM70.521,94.225a67.838,67.838,0,0,1-1.056-17.8,18.584,18.584,0,0,0,12.721,0,67.844,67.844,0,0,1-1.056,17.8Zm20.32-48.294a.764.764,0,0,1,.763.763v4.53a.764.764,0,0,1-.763.763H88.812c.021-.563,0,.161.01-6.057ZM87.356,57.739c-.018-.048-.034-.1-.053-.144a12.971,12.971,0,0,0,1.027-2.554h2.052v.879a1.856,1.856,0,0,1-1.853,1.82Zm-2.811,1.346a.879.879,0,0,1-.878.878h-3.48a.878.878,0,0,1,0-1.755h3.48A.879.879,0,0,1,84.545,59.084Zm.5,7.777.021,0a1.787,1.787,0,0,1-1.438-1.724V63.015h.042A3.932,3.932,0,0,0,87.2,60.792h1.327a4.88,4.88,0,0,0,1.854-.365l0,7.776C90.364,68.2,85.064,66.865,85.043,66.861ZM75.826,30.18a14.586,14.586,0,0,1,14.43,12.7H87.684a9.209,9.209,0,0,1-4.341-5.34,2.136,2.136,0,0,0-3.9-.381C75.82,43.677,67.885,42.878,61.4,42.878A14.584,14.584,0,0,1,75.826,30.18ZM60.811,51.987a.765.765,0,0,1-.764-.763v-4.53a.765.765,0,0,1,.764-.763H62.83c.009,6.848-.013,5.385.012,6.057Zm5.072-.331V45.931c.728-.119,10.119,1.016,15.236-5.765A12.216,12.216,0,0,0,85.769,45.3v6.356a9.938,9.938,0,0,1-.791,3.727,3.9,3.9,0,0,0-1.311-.229h-3.48a3.924,3.924,0,0,0-3.193,6.214,9.918,9.918,0,0,1-11.111-9.712Zm14.69,11.936c.06,1.824,1.047,7.487,1.309,9.666a15.475,15.475,0,0,1-12.111,0c.261-2.173,1.249-7.845,1.309-9.66A13,13,0,0,0,80.573,63.592ZM50.5,90.241V86.462A15.943,15.943,0,0,1,63.409,70.828c.073-.014.132-.032,3.755-.96a71.057,71.057,0,0,0,.25,24.357h-8.4V91.154a1.526,1.526,0,0,0-3.053,0v3.071h-.255A21.8,21.8,0,0,0,50.5,90.241Zm50.659,24.4a2.6,2.6,0,0,1-2.6,2.6H60.843a6.449,6.449,0,0,0,.988-3.436v-4.457a21.69,21.69,0,0,0-3.178-11.3l-.333-.52a.159.159,0,0,1,.134-.244h42.7Z" transform="translate(0 -27.127)"/><path d="M427.433,283.767v2.384a3.159,3.159,0,0,0,3.155,3.155h4.886a3.159,3.159,0,0,0,3.155-3.155v-2.384a3.159,3.159,0,0,0-3.155-3.155h-4.886A3.159,3.159,0,0,0,427.433,283.767Zm3.053,0a.1.1,0,0,1,.1-.1h4.886a.1.1,0,0,1,.1.1v2.384a.1.1,0,0,1-.1.1h-4.886a.1.1,0,0,1-.1-.1Z" transform="translate(-340.437 -229.02)"/></g></g></g></g></svg>