<svg xmlns="http://www.w3.org/2000/svg" width="85.523" height="182.935" viewBox="0 0 85.523 182.935"><g transform="translate(-207.146 -4585)"><g transform="translate(207.146 4585)"><g transform="translate(0 0)"><g transform="translate(0)"><path d="M418.688,119.934a2.239,2.239,0,1,1-2.238-2.14A2.191,2.191,0,0,1,418.688,119.934Z" transform="translate(-414.214 -117.794)" fill="#0273bc"/><path d="M418.688,119.934a2.239,2.239,0,1,1-2.238-2.14A2.191,2.191,0,0,1,418.688,119.934Z" transform="translate(-363.559 -117.794)" fill="#0273bc"/><path d="M427.134,119.934a2.239,2.239,0,1,1-2.236-2.14A2.19,2.19,0,0,1,427.134,119.934Z" transform="translate(-412.529 -117.794)" fill="#0273bc"/><path d="M427.134,119.934a2.239,2.239,0,1,1-2.236-2.14A2.19,2.19,0,0,1,427.134,119.934Z" transform="translate(-361.873 -117.794)" fill="#0273bc"/><path d="M435.58,119.934a2.239,2.239,0,1,1-2.236-2.14A2.191,2.191,0,0,1,435.58,119.934Z" transform="translate(-410.844 -117.794)" fill="#0273bc"/><path d="M435.58,119.934a2.239,2.239,0,1,1-2.236-2.14A2.191,2.191,0,0,1,435.58,119.934Z" transform="translate(-360.189 -117.794)" fill="#0273bc"/><path d="M444.027,119.934a2.239,2.239,0,1,1-2.238-2.14A2.191,2.191,0,0,1,444.027,119.934Z" transform="translate(-409.16 -117.794)" fill="#0273bc"/><path d="M444.027,119.934a2.239,2.239,0,1,1-2.238-2.14A2.191,2.191,0,0,1,444.027,119.934Z" transform="translate(-358.504 -117.794)" fill="#0273bc"/><path d="M452.473,119.934a2.239,2.239,0,1,1-2.236-2.14A2.19,2.19,0,0,1,452.473,119.934Z" transform="translate(-407.475 -117.794)" fill="#0273bc"/></g><g transform="translate(0 11.115)"><ellipse cx="2.237" cy="2.139" rx="2.237" ry="2.139" transform="translate(0 0.001)" fill="#0273bc"/><ellipse cx="2.237" cy="2.139" rx="2.237" ry="2.139" transform="translate(50.656 0.001)" fill="#0273bc"/><path d="M427.134,127.442a2.239,2.239,0,1,1-2.236-2.14A2.189,2.189,0,0,1,427.134,127.442Z" transform="translate(-412.529 -125.302)" fill="#0273bc"/><path d="M427.134,127.442a2.239,2.239,0,1,1-2.236-2.14A2.189,2.189,0,0,1,427.134,127.442Z" transform="translate(-361.873 -125.302)" fill="#0273bc"/><ellipse cx="2.237" cy="2.139" rx="2.237" ry="2.139" transform="translate(20.262 0.001)" fill="#0273bc"/><ellipse cx="2.237" cy="2.139" rx="2.237" ry="2.139" transform="translate(70.918 0.001)" fill="#0273bc"/><path d="M444.027,127.442a2.239,2.239,0,1,1-2.238-2.14A2.189,2.189,0,0,1,444.027,127.442Z" transform="translate(-409.16 -125.302)" fill="#0273bc"/><path d="M444.027,127.442a2.239,2.239,0,1,1-2.238-2.14A2.189,2.189,0,0,1,444.027,127.442Z" transform="translate(-358.504 -125.302)" fill="#0273bc"/><path d="M452.473,127.442a2.239,2.239,0,1,1-2.236-2.14A2.189,2.189,0,0,1,452.473,127.442Z" transform="translate(-407.475 -125.302)" fill="#0273bc"/></g><g transform="translate(0 22.431)"><path d="M418.688,104.917a2.239,2.239,0,1,1-2.238-2.138A2.19,2.19,0,0,1,418.688,104.917Z" transform="translate(-414.214 -102.779)" fill="#0273bc"/><path d="M418.688,104.917a2.239,2.239,0,1,1-2.238-2.138A2.19,2.19,0,0,1,418.688,104.917Z" transform="translate(-363.559 -102.779)" fill="#0273bc"/><path d="M427.134,104.917a2.239,2.239,0,1,1-2.236-2.138A2.189,2.189,0,0,1,427.134,104.917Z" transform="translate(-412.529 -102.779)" fill="#0273bc"/><path d="M427.134,104.917a2.239,2.239,0,1,1-2.236-2.138A2.189,2.189,0,0,1,427.134,104.917Z" transform="translate(-361.873 -102.779)" fill="#0273bc"/><path d="M435.58,104.917a2.239,2.239,0,1,1-2.236-2.138A2.189,2.189,0,0,1,435.58,104.917Z" transform="translate(-410.844 -102.779)" fill="#0273bc"/><path d="M435.58,104.917a2.239,2.239,0,1,1-2.236-2.138A2.189,2.189,0,0,1,435.58,104.917Z" transform="translate(-360.189 -102.779)" fill="#0273bc"/><path d="M444.027,104.917a2.239,2.239,0,1,1-2.238-2.138A2.19,2.19,0,0,1,444.027,104.917Z" transform="translate(-409.16 -102.779)" fill="#0273bc"/><path d="M444.027,104.917a2.239,2.239,0,1,1-2.238-2.138A2.19,2.19,0,0,1,444.027,104.917Z" transform="translate(-358.504 -102.779)" fill="#0273bc"/><path d="M452.473,104.917a2.239,2.239,0,1,1-2.236-2.138A2.189,2.189,0,0,1,452.473,104.917Z" transform="translate(-407.475 -102.779)" fill="#0273bc"/></g><g transform="translate(0 33.544)"><ellipse cx="2.237" cy="2.139" rx="2.237" ry="2.139" transform="translate(0 0.001)" fill="#0273bc"/><ellipse cx="2.237" cy="2.139" rx="2.237" ry="2.139" transform="translate(50.656 0.001)" fill="#0273bc"/><path d="M427.134,112.425a2.239,2.239,0,1,1-2.236-2.138A2.19,2.19,0,0,1,427.134,112.425Z" transform="translate(-412.529 -110.287)" fill="#0273bc"/><path d="M427.134,112.425a2.239,2.239,0,1,1-2.236-2.138A2.19,2.19,0,0,1,427.134,112.425Z" transform="translate(-361.873 -110.287)" fill="#0273bc"/><ellipse cx="2.237" cy="2.139" rx="2.237" ry="2.139" transform="translate(20.262 0.001)" fill="#0273bc"/><ellipse cx="2.237" cy="2.139" rx="2.237" ry="2.139" transform="translate(70.918 0.001)" fill="#0273bc"/><path d="M444.027,112.425a2.239,2.239,0,1,1-2.238-2.138A2.191,2.191,0,0,1,444.027,112.425Z" transform="translate(-409.16 -110.287)" fill="#0273bc"/><path d="M444.027,112.425a2.239,2.239,0,1,1-2.238-2.138A2.191,2.191,0,0,1,444.027,112.425Z" transform="translate(-358.504 -110.287)" fill="#0273bc"/><path d="M452.473,112.425a2.239,2.239,0,1,1-2.236-2.138A2.19,2.19,0,0,1,452.473,112.425Z" transform="translate(-407.475 -110.287)" fill="#0273bc"/></g><g transform="translate(0 45)"><g transform="translate(0)"><path d="M418.688,119.934a2.239,2.239,0,1,1-2.238-2.14A2.191,2.191,0,0,1,418.688,119.934Z" transform="translate(-414.214 -117.794)" fill="#0273bc"/><path d="M418.688,119.934a2.239,2.239,0,1,1-2.238-2.14A2.191,2.191,0,0,1,418.688,119.934Z" transform="translate(-363.559 -117.794)" fill="#0273bc"/><path d="M427.134,119.934a2.239,2.239,0,1,1-2.236-2.14A2.19,2.19,0,0,1,427.134,119.934Z" transform="translate(-412.529 -117.794)" fill="#0273bc"/><path d="M427.134,119.934a2.239,2.239,0,1,1-2.236-2.14A2.19,2.19,0,0,1,427.134,119.934Z" transform="translate(-361.873 -117.794)" fill="#0273bc"/><path d="M435.58,119.934a2.239,2.239,0,1,1-2.236-2.14A2.191,2.191,0,0,1,435.58,119.934Z" transform="translate(-410.844 -117.794)" fill="#0273bc"/><path d="M435.58,119.934a2.239,2.239,0,1,1-2.236-2.14A2.191,2.191,0,0,1,435.58,119.934Z" transform="translate(-360.189 -117.794)" fill="#0273bc"/><path d="M444.027,119.934a2.239,2.239,0,1,1-2.238-2.14A2.191,2.191,0,0,1,444.027,119.934Z" transform="translate(-409.16 -117.794)" fill="#0273bc"/><path d="M444.027,119.934a2.239,2.239,0,1,1-2.238-2.14A2.191,2.191,0,0,1,444.027,119.934Z" transform="translate(-358.504 -117.794)" fill="#0273bc"/><path d="M452.473,119.934a2.239,2.239,0,1,1-2.236-2.14A2.19,2.19,0,0,1,452.473,119.934Z" transform="translate(-407.475 -117.794)" fill="#0273bc"/></g><g transform="translate(0 11.115)"><ellipse cx="2.237" cy="2.139" rx="2.237" ry="2.139" transform="translate(0 0.001)" fill="#0273bc"/><ellipse cx="2.237" cy="2.139" rx="2.237" ry="2.139" transform="translate(50.656 0.001)" fill="#0273bc"/><path d="M427.134,127.442a2.239,2.239,0,1,1-2.236-2.14A2.189,2.189,0,0,1,427.134,127.442Z" transform="translate(-412.529 -125.302)" fill="#0273bc"/><path d="M427.134,127.442a2.239,2.239,0,1,1-2.236-2.14A2.189,2.189,0,0,1,427.134,127.442Z" transform="translate(-361.873 -125.302)" fill="#0273bc"/><ellipse cx="2.237" cy="2.139" rx="2.237" ry="2.139" transform="translate(20.262 0.001)" fill="#0273bc"/><ellipse cx="2.237" cy="2.139" rx="2.237" ry="2.139" transform="translate(70.918 0.001)" fill="#0273bc"/><path d="M444.027,127.442a2.239,2.239,0,1,1-2.238-2.14A2.189,2.189,0,0,1,444.027,127.442Z" transform="translate(-409.16 -125.302)" fill="#0273bc"/><path d="M444.027,127.442a2.239,2.239,0,1,1-2.238-2.14A2.189,2.189,0,0,1,444.027,127.442Z" transform="translate(-358.504 -125.302)" fill="#0273bc"/><path d="M452.473,127.442a2.239,2.239,0,1,1-2.236-2.14A2.189,2.189,0,0,1,452.473,127.442Z" transform="translate(-407.475 -125.302)" fill="#0273bc"/></g><g transform="translate(0 22.431)"><path d="M418.688,104.917a2.239,2.239,0,1,1-2.238-2.138A2.19,2.19,0,0,1,418.688,104.917Z" transform="translate(-414.214 -102.779)" fill="#0273bc"/><path d="M418.688,104.917a2.239,2.239,0,1,1-2.238-2.138A2.19,2.19,0,0,1,418.688,104.917Z" transform="translate(-363.559 -102.779)" fill="#0273bc"/><path d="M427.134,104.917a2.239,2.239,0,1,1-2.236-2.138A2.189,2.189,0,0,1,427.134,104.917Z" transform="translate(-412.529 -102.779)" fill="#0273bc"/><path d="M427.134,104.917a2.239,2.239,0,1,1-2.236-2.138A2.189,2.189,0,0,1,427.134,104.917Z" transform="translate(-361.873 -102.779)" fill="#0273bc"/><path d="M435.58,104.917a2.239,2.239,0,1,1-2.236-2.138A2.189,2.189,0,0,1,435.58,104.917Z" transform="translate(-410.844 -102.779)" fill="#0273bc"/><path d="M435.58,104.917a2.239,2.239,0,1,1-2.236-2.138A2.189,2.189,0,0,1,435.58,104.917Z" transform="translate(-360.189 -102.779)" fill="#0273bc"/><path d="M444.027,104.917a2.239,2.239,0,1,1-2.238-2.138A2.19,2.19,0,0,1,444.027,104.917Z" transform="translate(-409.16 -102.779)" fill="#0273bc"/><path d="M444.027,104.917a2.239,2.239,0,1,1-2.238-2.138A2.19,2.19,0,0,1,444.027,104.917Z" transform="translate(-358.504 -102.779)" fill="#0273bc"/><path d="M452.473,104.917a2.239,2.239,0,1,1-2.236-2.138A2.189,2.189,0,0,1,452.473,104.917Z" transform="translate(-407.475 -102.779)" fill="#0273bc"/></g><g transform="translate(0 33.544)"><ellipse cx="2.237" cy="2.139" rx="2.237" ry="2.139" transform="translate(0 0.001)" fill="#0273bc"/><ellipse cx="2.237" cy="2.139" rx="2.237" ry="2.139" transform="translate(50.656 0.001)" fill="#0273bc"/><path d="M427.134,112.425a2.239,2.239,0,1,1-2.236-2.138A2.19,2.19,0,0,1,427.134,112.425Z" transform="translate(-412.529 -110.287)" fill="#0273bc"/><path d="M427.134,112.425a2.239,2.239,0,1,1-2.236-2.138A2.19,2.19,0,0,1,427.134,112.425Z" transform="translate(-361.873 -110.287)" fill="#0273bc"/><ellipse cx="2.237" cy="2.139" rx="2.237" ry="2.139" transform="translate(20.262 0.001)" fill="#0273bc"/><ellipse cx="2.237" cy="2.139" rx="2.237" ry="2.139" transform="translate(70.918 0.001)" fill="#0273bc"/><path d="M444.027,112.425a2.239,2.239,0,1,1-2.238-2.138A2.191,2.191,0,0,1,444.027,112.425Z" transform="translate(-409.16 -110.287)" fill="#0273bc"/><path d="M444.027,112.425a2.239,2.239,0,1,1-2.238-2.138A2.191,2.191,0,0,1,444.027,112.425Z" transform="translate(-358.504 -110.287)" fill="#0273bc"/><path d="M452.473,112.425a2.239,2.239,0,1,1-2.236-2.138A2.19,2.19,0,0,1,452.473,112.425Z" transform="translate(-407.475 -110.287)" fill="#0273bc"/></g></g></g><g transform="translate(0 89)"><g transform="translate(0)"><path d="M418.688,119.934a2.239,2.239,0,1,1-2.238-2.14A2.191,2.191,0,0,1,418.688,119.934Z" transform="translate(-414.214 -117.794)" fill="#0273bc"/><path d="M418.688,119.934a2.239,2.239,0,1,1-2.238-2.14A2.191,2.191,0,0,1,418.688,119.934Z" transform="translate(-363.559 -117.794)" fill="#0273bc"/><path d="M427.134,119.934a2.239,2.239,0,1,1-2.236-2.14A2.19,2.19,0,0,1,427.134,119.934Z" transform="translate(-412.529 -117.794)" fill="#0273bc"/><path d="M427.134,119.934a2.239,2.239,0,1,1-2.236-2.14A2.19,2.19,0,0,1,427.134,119.934Z" transform="translate(-361.873 -117.794)" fill="#0273bc"/><path d="M435.58,119.934a2.239,2.239,0,1,1-2.236-2.14A2.191,2.191,0,0,1,435.58,119.934Z" transform="translate(-410.844 -117.794)" fill="#0273bc"/><path d="M435.58,119.934a2.239,2.239,0,1,1-2.236-2.14A2.191,2.191,0,0,1,435.58,119.934Z" transform="translate(-360.189 -117.794)" fill="#0273bc"/><path d="M444.027,119.934a2.239,2.239,0,1,1-2.238-2.14A2.191,2.191,0,0,1,444.027,119.934Z" transform="translate(-409.16 -117.794)" fill="#0273bc"/><path d="M444.027,119.934a2.239,2.239,0,1,1-2.238-2.14A2.191,2.191,0,0,1,444.027,119.934Z" transform="translate(-358.504 -117.794)" fill="#0273bc"/><path d="M452.473,119.934a2.239,2.239,0,1,1-2.236-2.14A2.19,2.19,0,0,1,452.473,119.934Z" transform="translate(-407.475 -117.794)" fill="#0273bc"/></g><g transform="translate(0 11.115)"><ellipse cx="2.237" cy="2.139" rx="2.237" ry="2.139" transform="translate(0 0.001)" fill="#0273bc"/><ellipse cx="2.237" cy="2.139" rx="2.237" ry="2.139" transform="translate(50.656 0.001)" fill="#0273bc"/><path d="M427.134,127.442a2.239,2.239,0,1,1-2.236-2.14A2.189,2.189,0,0,1,427.134,127.442Z" transform="translate(-412.529 -125.302)" fill="#0273bc"/><path d="M427.134,127.442a2.239,2.239,0,1,1-2.236-2.14A2.189,2.189,0,0,1,427.134,127.442Z" transform="translate(-361.873 -125.302)" fill="#0273bc"/><ellipse cx="2.237" cy="2.139" rx="2.237" ry="2.139" transform="translate(20.262 0.001)" fill="#0273bc"/><ellipse cx="2.237" cy="2.139" rx="2.237" ry="2.139" transform="translate(70.918 0.001)" fill="#0273bc"/><path d="M444.027,127.442a2.239,2.239,0,1,1-2.238-2.14A2.189,2.189,0,0,1,444.027,127.442Z" transform="translate(-409.16 -125.302)" fill="#0273bc"/><path d="M444.027,127.442a2.239,2.239,0,1,1-2.238-2.14A2.189,2.189,0,0,1,444.027,127.442Z" transform="translate(-358.504 -125.302)" fill="#0273bc"/><path d="M452.473,127.442a2.239,2.239,0,1,1-2.236-2.14A2.189,2.189,0,0,1,452.473,127.442Z" transform="translate(-407.475 -125.302)" fill="#0273bc"/></g><g transform="translate(0 22.431)"><path d="M418.688,104.917a2.239,2.239,0,1,1-2.238-2.138A2.19,2.19,0,0,1,418.688,104.917Z" transform="translate(-414.214 -102.779)" fill="#0273bc"/><path d="M418.688,104.917a2.239,2.239,0,1,1-2.238-2.138A2.19,2.19,0,0,1,418.688,104.917Z" transform="translate(-363.559 -102.779)" fill="#0273bc"/><path d="M427.134,104.917a2.239,2.239,0,1,1-2.236-2.138A2.189,2.189,0,0,1,427.134,104.917Z" transform="translate(-412.529 -102.779)" fill="#0273bc"/><path d="M427.134,104.917a2.239,2.239,0,1,1-2.236-2.138A2.189,2.189,0,0,1,427.134,104.917Z" transform="translate(-361.873 -102.779)" fill="#0273bc"/><path d="M435.58,104.917a2.239,2.239,0,1,1-2.236-2.138A2.189,2.189,0,0,1,435.58,104.917Z" transform="translate(-410.844 -102.779)" fill="#0273bc"/><path d="M435.58,104.917a2.239,2.239,0,1,1-2.236-2.138A2.189,2.189,0,0,1,435.58,104.917Z" transform="translate(-360.189 -102.779)" fill="#0273bc"/><path d="M444.027,104.917a2.239,2.239,0,1,1-2.238-2.138A2.19,2.19,0,0,1,444.027,104.917Z" transform="translate(-409.16 -102.779)" fill="#0273bc"/><path d="M444.027,104.917a2.239,2.239,0,1,1-2.238-2.138A2.19,2.19,0,0,1,444.027,104.917Z" transform="translate(-358.504 -102.779)" fill="#0273bc"/><path d="M452.473,104.917a2.239,2.239,0,1,1-2.236-2.138A2.189,2.189,0,0,1,452.473,104.917Z" transform="translate(-407.475 -102.779)" fill="#0273bc"/></g><g transform="translate(0 33.544)"><ellipse cx="2.237" cy="2.139" rx="2.237" ry="2.139" transform="translate(0 0.001)" fill="#0273bc"/><ellipse cx="2.237" cy="2.139" rx="2.237" ry="2.139" transform="translate(50.656 0.001)" fill="#0273bc"/><path d="M427.134,112.425a2.239,2.239,0,1,1-2.236-2.138A2.19,2.19,0,0,1,427.134,112.425Z" transform="translate(-412.529 -110.287)" fill="#0273bc"/><path d="M427.134,112.425a2.239,2.239,0,1,1-2.236-2.138A2.19,2.19,0,0,1,427.134,112.425Z" transform="translate(-361.873 -110.287)" fill="#0273bc"/><ellipse cx="2.237" cy="2.139" rx="2.237" ry="2.139" transform="translate(20.262 0.001)" fill="#0273bc"/><ellipse cx="2.237" cy="2.139" rx="2.237" ry="2.139" transform="translate(70.918 0.001)" fill="#0273bc"/><path d="M444.027,112.425a2.239,2.239,0,1,1-2.238-2.138A2.191,2.191,0,0,1,444.027,112.425Z" transform="translate(-409.16 -110.287)" fill="#0273bc"/><path d="M444.027,112.425a2.239,2.239,0,1,1-2.238-2.138A2.191,2.191,0,0,1,444.027,112.425Z" transform="translate(-358.504 -110.287)" fill="#0273bc"/><path d="M452.473,112.425a2.239,2.239,0,1,1-2.236-2.138A2.19,2.19,0,0,1,452.473,112.425Z" transform="translate(-407.475 -110.287)" fill="#0273bc"/></g><g transform="translate(0 45)"><g transform="translate(0)"><path d="M418.688,119.934a2.239,2.239,0,1,1-2.238-2.14A2.191,2.191,0,0,1,418.688,119.934Z" transform="translate(-414.214 -117.794)" fill="#0273bc"/><path d="M418.688,119.934a2.239,2.239,0,1,1-2.238-2.14A2.191,2.191,0,0,1,418.688,119.934Z" transform="translate(-363.559 -117.794)" fill="#0273bc"/><path d="M427.134,119.934a2.239,2.239,0,1,1-2.236-2.14A2.19,2.19,0,0,1,427.134,119.934Z" transform="translate(-412.529 -117.794)" fill="#0273bc"/><path d="M427.134,119.934a2.239,2.239,0,1,1-2.236-2.14A2.19,2.19,0,0,1,427.134,119.934Z" transform="translate(-361.873 -117.794)" fill="#0273bc"/><path d="M435.58,119.934a2.239,2.239,0,1,1-2.236-2.14A2.191,2.191,0,0,1,435.58,119.934Z" transform="translate(-410.844 -117.794)" fill="#0273bc"/><path d="M435.58,119.934a2.239,2.239,0,1,1-2.236-2.14A2.191,2.191,0,0,1,435.58,119.934Z" transform="translate(-360.189 -117.794)" fill="#0273bc"/><path d="M444.027,119.934a2.239,2.239,0,1,1-2.238-2.14A2.191,2.191,0,0,1,444.027,119.934Z" transform="translate(-409.16 -117.794)" fill="#0273bc"/><path d="M444.027,119.934a2.239,2.239,0,1,1-2.238-2.14A2.191,2.191,0,0,1,444.027,119.934Z" transform="translate(-358.504 -117.794)" fill="#0273bc"/><path d="M452.473,119.934a2.239,2.239,0,1,1-2.236-2.14A2.19,2.19,0,0,1,452.473,119.934Z" transform="translate(-407.475 -117.794)" fill="#0273bc"/></g><g transform="translate(0 11.115)"><ellipse cx="2.237" cy="2.139" rx="2.237" ry="2.139" transform="translate(0 0.001)" fill="#0273bc"/><ellipse cx="2.237" cy="2.139" rx="2.237" ry="2.139" transform="translate(50.656 0.001)" fill="#0273bc"/><path d="M427.134,127.442a2.239,2.239,0,1,1-2.236-2.14A2.189,2.189,0,0,1,427.134,127.442Z" transform="translate(-412.529 -125.302)" fill="#0273bc"/><path d="M427.134,127.442a2.239,2.239,0,1,1-2.236-2.14A2.189,2.189,0,0,1,427.134,127.442Z" transform="translate(-361.873 -125.302)" fill="#0273bc"/><ellipse cx="2.237" cy="2.139" rx="2.237" ry="2.139" transform="translate(20.262 0.001)" fill="#0273bc"/><ellipse cx="2.237" cy="2.139" rx="2.237" ry="2.139" transform="translate(70.918 0.001)" fill="#0273bc"/><path d="M444.027,127.442a2.239,2.239,0,1,1-2.238-2.14A2.189,2.189,0,0,1,444.027,127.442Z" transform="translate(-409.16 -125.302)" fill="#0273bc"/><path d="M444.027,127.442a2.239,2.239,0,1,1-2.238-2.14A2.189,2.189,0,0,1,444.027,127.442Z" transform="translate(-358.504 -125.302)" fill="#0273bc"/><path d="M452.473,127.442a2.239,2.239,0,1,1-2.236-2.14A2.189,2.189,0,0,1,452.473,127.442Z" transform="translate(-407.475 -125.302)" fill="#0273bc"/></g><g transform="translate(0 22.431)"><path d="M418.688,104.917a2.239,2.239,0,1,1-2.238-2.138A2.19,2.19,0,0,1,418.688,104.917Z" transform="translate(-414.214 -102.779)" fill="#0273bc"/><path d="M418.688,104.917a2.239,2.239,0,1,1-2.238-2.138A2.19,2.19,0,0,1,418.688,104.917Z" transform="translate(-363.559 -102.779)" fill="#0273bc"/><path d="M427.134,104.917a2.239,2.239,0,1,1-2.236-2.138A2.189,2.189,0,0,1,427.134,104.917Z" transform="translate(-412.529 -102.779)" fill="#0273bc"/><path d="M427.134,104.917a2.239,2.239,0,1,1-2.236-2.138A2.189,2.189,0,0,1,427.134,104.917Z" transform="translate(-361.873 -102.779)" fill="#0273bc"/><path d="M435.58,104.917a2.239,2.239,0,1,1-2.236-2.138A2.189,2.189,0,0,1,435.58,104.917Z" transform="translate(-410.844 -102.779)" fill="#0273bc"/><path d="M435.58,104.917a2.239,2.239,0,1,1-2.236-2.138A2.189,2.189,0,0,1,435.58,104.917Z" transform="translate(-360.189 -102.779)" fill="#0273bc"/><path d="M444.027,104.917a2.239,2.239,0,1,1-2.238-2.138A2.19,2.19,0,0,1,444.027,104.917Z" transform="translate(-409.16 -102.779)" fill="#0273bc"/><path d="M444.027,104.917a2.239,2.239,0,1,1-2.238-2.138A2.19,2.19,0,0,1,444.027,104.917Z" transform="translate(-358.504 -102.779)" fill="#0273bc"/><path d="M452.473,104.917a2.239,2.239,0,1,1-2.236-2.138A2.189,2.189,0,0,1,452.473,104.917Z" transform="translate(-407.475 -102.779)" fill="#0273bc"/></g><g transform="translate(0 33.544)"><path d="M418.688,104.917a2.239,2.239,0,1,1-2.238-2.138A2.19,2.19,0,0,1,418.688,104.917Z" transform="translate(-414.214 -102.779)" fill="#0273bc"/><path d="M418.688,104.917a2.239,2.239,0,1,1-2.238-2.138A2.19,2.19,0,0,1,418.688,104.917Z" transform="translate(-363.559 -102.779)" fill="#0273bc"/><path d="M427.134,104.917a2.239,2.239,0,1,1-2.236-2.138A2.189,2.189,0,0,1,427.134,104.917Z" transform="translate(-412.529 -102.779)" fill="#0273bc"/><path d="M427.134,104.917a2.239,2.239,0,1,1-2.236-2.138A2.189,2.189,0,0,1,427.134,104.917Z" transform="translate(-361.873 -102.779)" fill="#0273bc"/><path d="M435.58,104.917a2.239,2.239,0,1,1-2.236-2.138A2.189,2.189,0,0,1,435.58,104.917Z" transform="translate(-410.844 -102.779)" fill="#0273bc"/><path d="M435.58,104.917a2.239,2.239,0,1,1-2.236-2.138A2.189,2.189,0,0,1,435.58,104.917Z" transform="translate(-360.189 -102.779)" fill="#0273bc"/><path d="M444.027,104.917a2.239,2.239,0,1,1-2.238-2.138A2.19,2.19,0,0,1,444.027,104.917Z" transform="translate(-409.16 -102.779)" fill="#0273bc"/><path d="M444.027,104.917a2.239,2.239,0,1,1-2.238-2.138A2.19,2.19,0,0,1,444.027,104.917Z" transform="translate(-358.504 -102.779)" fill="#0273bc"/><path d="M452.473,104.917a2.239,2.239,0,1,1-2.236-2.138A2.189,2.189,0,0,1,452.473,104.917Z" transform="translate(-407.475 -102.779)" fill="#0273bc"/></g><g transform="translate(0 44.657)"><path d="M418.688,104.917a2.239,2.239,0,1,1-2.238-2.138A2.19,2.19,0,0,1,418.688,104.917Z" transform="translate(-414.214 -102.779)" fill="#0273bc"/><path d="M418.688,104.917a2.239,2.239,0,1,1-2.238-2.138A2.19,2.19,0,0,1,418.688,104.917Z" transform="translate(-363.559 -102.779)" fill="#0273bc"/><path d="M427.134,104.917a2.239,2.239,0,1,1-2.236-2.138A2.189,2.189,0,0,1,427.134,104.917Z" transform="translate(-412.529 -102.779)" fill="#0273bc"/><path d="M427.134,104.917a2.239,2.239,0,1,1-2.236-2.138A2.189,2.189,0,0,1,427.134,104.917Z" transform="translate(-361.873 -102.779)" fill="#0273bc"/><path d="M435.58,104.917a2.239,2.239,0,1,1-2.236-2.138A2.189,2.189,0,0,1,435.58,104.917Z" transform="translate(-410.844 -102.779)" fill="#0273bc"/><path d="M435.58,104.917a2.239,2.239,0,1,1-2.236-2.138A2.189,2.189,0,0,1,435.58,104.917Z" transform="translate(-360.189 -102.779)" fill="#0273bc"/><path d="M444.027,104.917a2.239,2.239,0,1,1-2.238-2.138A2.19,2.19,0,0,1,444.027,104.917Z" transform="translate(-409.16 -102.779)" fill="#0273bc"/><path d="M444.027,104.917a2.239,2.239,0,1,1-2.238-2.138A2.19,2.19,0,0,1,444.027,104.917Z" transform="translate(-358.504 -102.779)" fill="#0273bc"/><path d="M452.473,104.917a2.239,2.239,0,1,1-2.236-2.138A2.189,2.189,0,0,1,452.473,104.917Z" transform="translate(-407.475 -102.779)" fill="#0273bc"/></g></g></g></g></g></svg>