<svg xmlns="http://www.w3.org/2000/svg" width="85" height="84.473" viewBox="0 0 85 84.473"><g transform="translate(-180 -1137)"><rect width="85" height="84.473" transform="translate(180 1137)" fill="#004f83"/><g transform="translate(195 1150.199)"><path d="M53.5,24.876l-5.721-6.362a2.6,2.6,0,0,0-4.54,1.742v2.653H35.173a11.588,11.588,0,0,0-4.524.914V12.733h2.8a2.6,2.6,0,0,0,1.742-4.541L28.827,2.47a2.6,2.6,0,0,0-3.484,0L18.981,8.192a2.6,2.6,0,0,0,1.742,4.541h2.8V18.41a.793.793,0,0,0,1.587,0V11.94a.794.794,0,0,0-.793-.793H20.724a1.018,1.018,0,0,1-.681-1.774L26.4,3.651a1.017,1.017,0,0,1,1.362,0l6.361,5.721a1.018,1.018,0,0,1-.68,1.775H29.856a.794.794,0,0,0-.793.793v12.7A11.741,11.741,0,0,0,25.108,28.7V21.584a.793.793,0,1,0-1.587,0V34.115A11.587,11.587,0,0,0,19,33.2H10.932V30.548a2.6,2.6,0,0,0-4.54-1.741L.67,35.168a2.6,2.6,0,0,0,0,3.483l5.721,6.361a2.6,2.6,0,0,0,4.54-1.741V40.329H19a4.529,4.529,0,0,1,4.524,4.524V54.8a.794.794,0,0,0,.793.793h5.541a.794.794,0,0,0,.793-.793V34.56a4.529,4.529,0,0,1,4.524-4.524h8.066v2.942a2.6,2.6,0,0,0,4.54,1.742l1.406-1.564A.793.793,0,1,0,48,32.1L46.6,33.659a1.017,1.017,0,0,1-1.774-.681V29.243a.794.794,0,0,0-.793-.793H35.173a6.118,6.118,0,0,0-6.111,6.111v4.428a11.74,11.74,0,0,0-3.955-4.053V34.56A10.076,10.076,0,0,1,35.173,24.5h8.859a.794.794,0,0,0,.793-.793V20.256a1.017,1.017,0,0,1,1.773-.681l5.722,6.363a1.015,1.015,0,0,1,0,1.36l-2.2,2.444A.793.793,0,0,0,51.3,30.8l2.2-2.444a2.6,2.6,0,0,0,0-3.482ZM29.062,44.852V54H25.108v-9.15A6.117,6.117,0,0,0,19,38.742H10.138a.794.794,0,0,0-.793.793v3.735a1.017,1.017,0,0,1-1.774.68L1.85,37.59a1.015,1.015,0,0,1,0-1.361l5.721-6.361a1.017,1.017,0,0,1,1.774.68v3.447a.794.794,0,0,0,.793.793H19A10.076,10.076,0,0,1,29.062,44.852Z" fill="#fff"/></g></g></svg>