<svg xmlns="http://www.w3.org/2000/svg" xmlns:xlink="http://www.w3.org/1999/xlink" width="126" height="126" viewBox="0 0 126 126"><defs><filter id="a" x="0" y="0" width="126" height="126" filterUnits="userSpaceOnUse"><feOffset dy="3" input="SourceAlpha"/><feGaussianBlur stdDeviation="3" result="b"/><feFlood flood-opacity="0.161"/><feComposite operator="in" in2="b"/><feComposite in="SourceGraphic"/></filter></defs><g transform="translate(-266.75 -864.391)"><g transform="matrix(1, 0, 0, 1, 266.75, 864.39)" filter="url(#a)"><circle cx="54" cy="54" r="54" transform="translate(9 6)" fill="#13c6cc"/></g><g transform="translate(285.971 862.983)"><g transform="translate(1.945 27.817)"><path d="M77.5,66.394a2.487,2.487,0,0,0-.659,2.34l-12.72,12.72A26.543,26.543,0,0,0,57.9,91.359l-1.91,5.361,5.293-1.829A26.536,26.536,0,0,0,71.44,88.582L77.5,82.52v27.514H32.96a11.48,11.48,0,0,1-22.96,0V35.872H77.5Z" transform="translate(-10 -35.872)" fill="#fff"/></g><g transform="translate(13.426 101.98)"><path d="M128.56,428.593a11.618,11.618,0,0,0,11.48-11.48H80.5a11.481,11.481,0,0,1-11.48,11.48Z" transform="translate(-69.016 -417.113)" fill="#bdd3dd"/></g><g transform="translate(47.938 60.678)"><path d="M274.507,212.018l-12.628,12.626a26.55,26.55,0,0,1-10.155,6.311l-5.293,1.828,1.91-5.36a26.527,26.527,0,0,1,6.222-9.905L267.284,204.8a2.448,2.448,0,0,0,.658,1.176l5.386,5.388a2.462,2.462,0,0,0,1.178.658Z" transform="translate(-246.431 -204.796)" fill="#d98964"/></g><g transform="translate(68.721 43.865)"><path d="M359.383,141.745,354,136.358a2.486,2.486,0,0,1,0-3.516l12.63-12.63a6.3,6.3,0,1,1,8.9,8.9l-12.63,12.63A2.486,2.486,0,0,1,359.383,141.745Z" transform="translate(-353.268 -118.368)" fill="#eab7a2"/></g><g transform="translate(0 25.872)"><path d="M128.772,106.581H156.56a1.945,1.945,0,1,0,0-3.891H128.772a1.945,1.945,0,1,0,0,3.891Z" transform="translate(-102.155 -87.747)"/><path d="M69.938,175.3h39.233a1.945,1.945,0,0,0,0-3.891H69.938a1.945,1.945,0,1,0,0,3.891Z" transform="translate(-54.766 -143.095)"/><path d="M69.938,244.013H98.982a1.945,1.945,0,0,0,0-3.891H69.938a1.945,1.945,0,0,0,0,3.891Z" transform="translate(-54.766 -198.444)"/><path d="M67.719,307.493a1.946,1.946,0,0,0,1.831-1.29c.644-1.8,3.176-6.928,6.263-6.928.247,0,.681.029.805.22.43.661.146,1.828,0,2.526a19.627,19.627,0,0,1-.918,2.855,1.945,1.945,0,0,0,1.093,2.473c1.425.58,2.344-.536,2.8-1.72a12.682,12.682,0,0,1,1.646-2.795c.445-.554,1.135-1.351,1.924-1.351a.945.945,0,0,1,.565.109c.293.427.115,2.006-.363,3.244a1.964,1.964,0,0,0,1.811,2.656H89.7a1.945,1.945,0,1,0,0-3.891H87.682a6.033,6.033,0,0,0-.73-4.2c-1.451-2.129-4.514-2.248-6.57-.975a4.578,4.578,0,0,0-4.569-3.041c-2.784,0-5.41,1.718-7.594,4.969a22.914,22.914,0,0,0-2.332,4.537,1.946,1.946,0,0,0,1.831,2.6Z" transform="translate(-52.978 -242.957)"/><path d="M96.616,48.591l-4.258-4.258a8.25,8.25,0,0,0-11.654,0l-9.31,9.31V27.817a1.945,1.945,0,0,0-1.945-1.945H1.945A1.945,1.945,0,0,0,0,27.817V101.98a13.55,13.55,0,0,0,13.426,13.426H42.543a1.945,1.945,0,0,0,0-3.891H22.876l.041-.041a13.314,13.314,0,0,0,3.794-7.548H82.307a9.638,9.638,0,0,1-9.338,7.59H59.641a1.945,1.945,0,0,0,0,3.891H72.969A13.58,13.58,0,0,0,86.395,101.98a1.945,1.945,0,0,0-1.945-1.945H71.394V75.27l5.365-5.365a4.409,4.409,0,0,0,2.968-1.288l12.63-12.63a8.191,8.191,0,0,0,2.173-3.859,6.3,6.3,0,0,1-.666,8.118L84.63,69.481a1.946,1.946,0,0,0,0,2.751,1.966,1.966,0,0,0,2.751,0L96.616,63a10.187,10.187,0,0,0,0-14.407ZM3.891,101.98V29.763H67.5v27.9a4.383,4.383,0,0,0-.728,2.282L54.694,72.024q-.7.7-1.338,1.439a29.57,29.57,0,0,0-5.471,9.556q-.891,2.5-1.779,4.994A1.965,1.965,0,0,0,48.573,90.5c1.752-.605,3.507-1.2,5.256-1.816A28.873,28.873,0,0,0,64.761,81.9L67.5,79.161v20.874h-42.6a1.945,1.945,0,0,0-1.945,1.945,9.635,9.635,0,0,1-9.536,9.534,9.621,9.621,0,0,1-9.534-9.534ZM62.009,79.152a27.508,27.508,0,0,1-10.88,6.354,27.759,27.759,0,0,1,6.316-10.73L68.532,63.689,73,68.16Zm27.6-25.915-12.63,12.63a.553.553,0,0,1-.765,0l-5.39-5.39a.548.548,0,0,1,0-.761l12.63-12.63a4.35,4.35,0,1,1,6.151,6.152Z" transform="translate(0 -25.872)"/><path d="M256.153,467.33a1.944,1.944,0,1,0-.678,2.334A1.966,1.966,0,0,0,256.153,467.33Z" transform="translate(-203.309 -380.486)"/></g></g></g></svg>