<svg xmlns="http://www.w3.org/2000/svg" xmlns:xlink="http://www.w3.org/1999/xlink" width="141.985" height="143.184" viewBox="0 0 141.985 143.184"><defs><filter id="a" x="7.492" y="17.184" width="126" height="126" filterUnits="userSpaceOnUse"><feOffset dy="3" input="SourceAlpha"/><feGaussianBlur stdDeviation="3" result="b"/><feFlood flood-opacity="0.161"/><feComposite operator="in" in2="b"/><feComposite in="SourceGraphic"/></filter></defs><g transform="translate(-939.508 -924.092)"><g transform="matrix(1, 0, 0, 1, 939.51, 924.09)" filter="url(#a)"><circle cx="54" cy="54" r="54" transform="translate(16.49 23.18)" fill="#1b3f5e"/></g><g transform="translate(980.672 965.411)"><path d="M143.665,85.943v7.391a1.5,1.5,0,0,1-1.5,1.5H87.5a1.5,1.5,0,0,1-1.5-1.5V85.943a14.027,14.027,0,0,1,14.038-13.92,7.755,7.755,0,0,0,6.285-3.308,8.718,8.718,0,0,0,1.395-5.71l.028-.069A18.537,18.537,0,0,1,96.3,45.805v-.586a4.651,4.651,0,0,1-3.786-1.883s0,0,0,0a4.544,4.544,0,0,1-.893-2.707V22.379a5.055,5.055,0,0,1,5.055-5.055A14.89,14.89,0,0,1,110.5,7.963c8.909,0,14.635-.067,15.113.172.112.017,1.145.2,1.226.242a14.889,14.889,0,0,1,11.4,14.478v17.5a4.868,4.868,0,0,1-4.868,4.868v.586a18.537,18.537,0,0,1-11.449,17.131l.028.069a8.714,8.714,0,0,0,1.395,5.71,7.753,7.753,0,0,0,6.285,3.308A14.027,14.027,0,0,1,143.665,85.943Z" transform="translate(-84.502 -6.465)" fill="#ffdfba"/><path d="M162.6,22.854v17.5a4.868,4.868,0,0,1-4.868,4.868V34.853a1.5,1.5,0,0,0-1.406-1.494,53.6,53.6,0,0,1-25.485-8.2,1.5,1.5,0,0,0-2.256.889,7.384,7.384,0,0,1-3.243,4.564,9.847,9.847,0,0,1-3.744,1.093,1.49,1.49,0,0,0-.936,1.385V45.219a4.652,4.652,0,0,1-3.786-1.883s0,0,0,0a4.539,4.539,0,0,1-.809-1.835c-.12-.612-.084.769-.084-19.119a5.055,5.055,0,0,1,5.055-5.055A14.894,14.894,0,0,1,134.86,7.963c8.909,0,14.635-.067,15.113.172A14.856,14.856,0,0,1,154,9.356c.022.011.379.176.393.191a14.889,14.889,0,0,1,8.2,13.308Z" transform="translate(-108.864 -6.465)" fill="#42434d"/><path d="M143.665,349.728v7.391a1.5,1.5,0,0,1-1.5,1.5H87.5a1.5,1.5,0,0,1-1.5-1.5v-7.391a14.027,14.027,0,0,1,14.038-13.92,7.755,7.755,0,0,0,6.285-3.308l7.4,8.219a1.5,1.5,0,0,0,2.228,0c2.138-2.377.393-.437,7.4-8.219a7.753,7.753,0,0,0,6.285,3.308A14.027,14.027,0,0,1,143.665,349.728Z" transform="translate(-84.502 -270.249)" fill="#d6f4fc"/><path d="M264.059,335.182c-.023.049-1.871,8.456-1.859,8.4a1.378,1.378,0,0,1-2.386.607c-4.916-5.661-4.245-4.923-4.743-5.371l5.688-6.321a7.779,7.779,0,0,0,3.3,2.683Z" transform="translate(-221.919 -270.249)" fill="#e8f8fc"/><path d="M180.221,332.5l5.553,6.171-4.606,5.458a1.378,1.378,0,0,1-2.4-.592c-.012-.053-1.825-8.3-1.849-8.354A7.778,7.778,0,0,0,180.221,332.5Z" transform="translate(-158.4 -270.249)" fill="#e8f8fc"/><path d="M178.07,119.494a18.535,18.535,0,0,1-37.07,0v-12.71a1.5,1.5,0,0,1,1.418-1.5,6.992,6.992,0,0,0,6.506-5.549,1.5,1.5,0,0,1,2.255-.889,53.59,53.59,0,0,0,25.485,8.2,1.5,1.5,0,0,1,1.406,1.495Z" transform="translate(-129.205 -80.154)" fill="#ffebd2"/><path d="M153.4,13.579H140.472a14.892,14.892,0,0,0-13.383,8.361,2.065,2.065,0,0,1-1.462,1.1,5.057,5.057,0,0,0-4.037,4.952v3.714a1.49,1.49,0,0,0-.936,1.385v8.891a2.131,2.131,0,0,1-3.872,1.232,4.636,4.636,0,0,1-.687-1.55c-.169-.727-.122.679-.122-19.289a5.055,5.055,0,0,1,5.055-5.055,14.893,14.893,0,0,1,13.826-9.361c8.849,0,14.634-.067,15.113.172A14.978,14.978,0,0,1,153.652,9.2c.059.025.708.317.736.344A2.131,2.131,0,0,1,153.4,13.579Z" transform="translate(-108.859 -6.465)" fill="#4d4e59"/><path d="M215.522,304.773a18.587,18.587,0,0,1-14.652,0,11.6,11.6,0,0,0,.212-3.074l.028-.069a18.573,18.573,0,0,0,14.173,0l.028.069a11.606,11.606,0,0,0,.212,3.074Z" transform="translate(-177.866 -245.159)" fill="#ffd6a6"/><path d="M104,351.215a13.962,13.962,0,0,0-13.315,13.946v5.1H87.5a1.5,1.5,0,0,1-1.5-1.5v-7.38a14.041,14.041,0,0,1,14.043-13.932,7.756,7.756,0,0,0,2.979-.625c.023.049.962,4.331.974,4.385Z" transform="translate(-84.502 -281.897)" fill="#e8f8fc"/><path d="M297.88,351.215A13.962,13.962,0,0,1,311.2,365.161v5.1h3.183a1.5,1.5,0,0,0,1.5-1.5v-7.38a14.041,14.041,0,0,0-14.043-13.932,7.755,7.755,0,0,1-2.979-.625C298.83,346.879,297.892,351.161,297.88,351.215Z" transform="translate(-256.713 -281.897)" fill="#bdeffc"/><path d="M180.339,340.363c.279,1.267.577,2.617.829,3.765a1.378,1.378,0,0,1-2.4-.591c-.72-3.269-1.834-8.321-1.849-8.354a7.78,7.78,0,0,0,3.3-2.683l1.6,1.779A7.229,7.229,0,0,0,180.339,340.363Z" transform="translate(-158.4 -270.249)" fill="#f1fafc"/><path d="M155.447,102.97a9.359,9.359,0,0,1-3.434,6.476,13.677,13.677,0,0,0-5.4,11.008v4.654a2.286,2.286,0,0,1-4.412.969,18.493,18.493,0,0,1-1.2-6.586v-12.71a1.5,1.5,0,0,1,1.418-1.5,6.991,6.991,0,0,0,6.507-5.55,1.5,1.5,0,0,1,2.253-.89c.947.6,1.977,1.207,3.089,1.809a2.3,2.3,0,0,1,1.181,2.314Z" transform="translate(-129.205 -80.151)" fill="#fff3e4"/><path d="M218.438,365.61l2.8,19.8H210l2.66-19.946,1.843,2.047a1.5,1.5,0,0,0,2.226,0Z" transform="translate(-185.287 -297.039)" fill="#fe4f60"/><path d="M214.617,367.634l-2.37,17.773H210l2.66-19.946Z" transform="translate(-185.287 -297.039)" fill="#e84857"/><path d="M123.2,64.061a6.222,6.222,0,0,1-5.353-3.005,1.5,1.5,0,1,0-2.558,1.558,9.246,9.246,0,0,0,3.133,3.122l-1.552,7.044-3.742-4.309a1.5,1.5,0,1,0-2.183-2.055l-2.633,3.028-6.634-7.371a9.148,9.148,0,0,0,1-3.514,20.054,20.054,0,0,0,25.682-19.22V26.96a1.5,1.5,0,0,0-3,0v12.38a17.037,17.037,0,0,1-34.075,0V26.629a8.457,8.457,0,0,0,7.864-6.655,51.236,51.236,0,0,0,20.563,7.608,1.5,1.5,0,0,0,.415-2.967A48.269,48.269,0,0,1,98.9,16.189a1.5,1.5,0,0,0-2.363,1.232c0,.037-.014,3.752-2.832,5.447a6.165,6.165,0,0,1-3.894.722,1.5,1.5,0,0,0-1.5,1.325c-.016.145-.011-.348-.011,11.985a3.093,3.093,0,0,1-1.685-2.74V15.914a3.561,3.561,0,0,1,3.557-3.557,1.5,1.5,0,0,0,1.391-.942A13.33,13.33,0,0,1,104,3h12.845a13.409,13.409,0,0,1,13.394,13.394V34.16a1.5,1.5,0,0,0,3,0V16.389A16.408,16.408,0,0,0,116.841,0H104A16.3,16.3,0,0,0,89.152,9.44a6.563,6.563,0,0,0-5.536,6.474V34.16a6.111,6.111,0,0,0,4.7,5.92A20.062,20.062,0,0,0,99.718,57.424v.4a6.248,6.248,0,0,1-6.259,6.242A15.45,15.45,0,0,0,78,79.52v8.847a1.5,1.5,0,0,0,3,0V79.52A12.456,12.456,0,0,1,93.46,67.057a9.348,9.348,0,0,0,1.957-.208l2.09,9.485a1.5,1.5,0,0,0,2.594.66l2.951-3.4-1.823,14.586a1.5,1.5,0,0,0,2.973.371L106.307,71.7c.1.106.928,1.039,1.035,1.134a1.5,1.5,0,0,0,2.11-.132c.3-.339-.47.541.9-1.032l2.111,16.888a1.5,1.5,0,0,0,2.973-.371L113.61,73.6l2.951,3.4a1.5,1.5,0,0,0,2.594-.66l2.09-9.485a9.406,9.406,0,0,0,1.957.208A12.457,12.457,0,0,1,135.665,79.52v8.847a1.5,1.5,0,0,0,3,0V79.52A15.45,15.45,0,0,0,123.2,64.061ZM99.791,72.78l-1.553-7.047a9.3,9.3,0,0,0,1.6-1.225l3.631,4.035Z" transform="translate(-78 0)"/></g><g transform="translate(940.508 925.093)"><g transform="translate(0 0)"><g transform="translate(0 59.348)"><g transform="translate(106.419)"><path d="M19.5,130.1l-15.96-9.412a1.231,1.231,0,0,1,0-2.121l15.96-9.411a1.231,1.231,0,0,1,1.857,1.06v4.345H35.265a1.231,1.231,0,0,1,1.231,1.231v7.671a1.231,1.231,0,0,1-1.231,1.231H21.353v4.345A1.231,1.231,0,0,1,19.5,130.1Z" transform="translate(-2.931 -108.979)" fill="#ccedf6" stroke="#0d0909" stroke-width="2"/></g><g transform="translate(0)"><path d="M210.091,130.1l15.96-9.412a1.231,1.231,0,0,0,0-2.121l-15.96-9.411a1.231,1.231,0,0,0-1.857,1.06v4.345H194.322a1.231,1.231,0,0,0-1.231,1.231v7.671a1.231,1.231,0,0,0,1.231,1.231h13.912v4.345A1.231,1.231,0,0,0,210.091,130.1Z" transform="translate(-193.091 -108.979)" fill="#ccedf6" stroke="#0d0909" stroke-width="2"/></g></g><g transform="translate(59.347 0)"><path d="M130.1,19.932l-9.412,15.96a1.231,1.231,0,0,1-2.121,0l-9.411-15.96a1.231,1.231,0,0,1,1.061-1.857h4.345V4.162a1.231,1.231,0,0,1,1.231-1.231h7.671a1.231,1.231,0,0,1,1.231,1.231V18.075h4.345A1.231,1.231,0,0,1,130.1,19.932Z" transform="translate(-108.98 -2.931)" fill="#ccedf6" stroke="#0d0909" stroke-width="2"/></g></g></g></g></svg>