<svg xmlns="http://www.w3.org/2000/svg" xmlns:xlink="http://www.w3.org/1999/xlink" width="104.37" height="104.37" viewBox="0 0 104.37 104.37"><defs><filter id="a" x="0" y="0" width="104.37" height="104.37" filterUnits="userSpaceOnUse"><feOffset dy="3" input="SourceAlpha"/><feGaussianBlur stdDeviation="3" result="b"/><feFlood flood-opacity="0.161"/><feComposite operator="in" in2="b"/><feComposite in="SourceGraphic"/></filter></defs><g transform="translate(-589.3 -5104)"><g transform="matrix(1, 0, 0, 1, 589.3, 5104)" filter="url(#a)"><circle cx="43.185" cy="43.185" r="43.185" transform="translate(9 6)" fill="#d3d9e7"/></g><g transform="translate(616.49 5126.211)"><path d="M0,0H1.6V3.218H0Z" transform="matrix(0.198, -0.98, 0.98, 0.198, 17.109, 25.735)" fill="#12263f"/><path d="M70.625,26.824a19.659,19.659,0,0,0-2.818-15.888c-.36-.5-.736-.99-1.118-1.444l-1.226,1.032c.355.421.7.873,1.04,1.342a18.037,18.037,0,0,1,2.565,14.578,16.941,16.941,0,0,1-8.723,11.315l-2,1.016a4.558,4.558,0,0,1-2.444-4.2c.127-.053.253-.111.378-.177a5.559,5.559,0,0,0,2.614-6.444,3.949,3.949,0,0,0-5.758-2.336A5.15,5.15,0,0,0,51.494,27a6.125,6.125,0,0,1-3.181-2.519c-.968-1.61-1.085-3.738-.351-6.322l1.54-3.353-1.457-.669L46.824,16.8c-2.188-1.16-8.639-5.012-8.649-10.1a4.647,4.647,0,0,1,2.108-4.334c2.044-1.225,5.047-.828,6.956.2a19.44,19.44,0,0,0,5.645,1.614c3.635.67,7.756,1.431,11.492,5.166L65.51,8.206C61.421,4.119,56.849,3.276,53.175,2.6A18.081,18.081,0,0,1,48,1.149C45.76-.052,42.135-.615,39.459.989c-1.321.792-2.893,2.425-2.887,5.712A8.759,8.759,0,0,0,38,11.328a15.983,15.983,0,0,0-3.51,7.632,21.256,21.256,0,0,0-.027,4.9l-4.375,3.11a5.1,5.1,0,0,0-2.116,4.571l.147,1.639-2.281.47a6.007,6.007,0,0,0-4.777,5.862v5.409h1.6V39.514a4.4,4.4,0,0,1,3.5-4.292l3.683-.759-.275-3.06a3.487,3.487,0,0,1,1.448-3.125l3.646-2.592c.032.243.064.481.1.707a1.337,1.337,0,0,1-.509,1.249l-2.2,1.691a1.87,1.87,0,0,0-.216,2.912l1.538,1.43.282,4.736a4.008,4.008,0,0,0,4.558,3.73l.858-.121v.116a1.337,1.337,0,0,1-1.336,1.336H33.677a3.453,3.453,0,0,1-3.459-3.163L30.08,37.1l-3.382.41-.065.011a2.038,2.038,0,0,0-1.621,1.989V53.045H22.661V46.519h-1.6v8.129h5.557V39.514a.435.435,0,0,1,.318-.413l1.62-.2.064,1.492,0,.034a5.076,5.076,0,0,0,5.058,4.646h4.053a2.942,2.942,0,0,0,2.939-2.939V41.8l3.363-.472.692,6.666-8.168,6.6,32.522.008v-.8a9.011,9.011,0,0,0-2.215-5.875,10.107,10.107,0,0,0-5.1-3.136l-2.109-4.877,1.413-.718a18.523,18.523,0,0,0,9.553-12.364ZM36.071,19.213a14.316,14.316,0,0,1,2.9-6.533,24.225,24.225,0,0,0,7.293,5.634,9.058,9.058,0,0,0,.676,6.993,7.576,7.576,0,0,0,3.422,2.962l-9.9,4.2a9.691,9.691,0,0,0-1.512-3.526l-2.872-4.992A19.923,19.923,0,0,1,36.071,19.213ZM65.65,48.966a7.347,7.347,0,0,1,1.782,4.026l-26.339-.007,5.316-4.294-.791-7.622,2.172-.4a3.985,3.985,0,0,0,3.205-3.18l.285-1.474-1.574-.3-.285,1.474A2.391,2.391,0,0,1,47.5,39.09l-6.829,1.088v-2.4h-1.6V40.4l-1.081.152a2.4,2.4,0,0,1-2.735-2.238l-.321-5.377-2.008-1.868a.267.267,0,0,1,.035-.418l2.269-1.739a2.939,2.939,0,0,0,1.016-1.463l1.336,2.322.036.057a8.093,8.093,0,0,1,1.452,4.637v1.6h1.6v-1.6c0-.114,0-.227-.006-.34l11.394-4.837.125-.307a3.783,3.783,0,0,1,1.7-1.947,2.35,2.35,0,0,1,3.486,1.414,3.959,3.959,0,0,1-1.838,4.53,2.463,2.463,0,0,1-2.1.165l-.6,1.485a3.834,3.834,0,0,0,1.447.282h0A6.344,6.344,0,0,0,58,40.409l.161.074,1.726,3.991c-.261-.019-.522-.032-.784-.032a10.173,10.173,0,0,0-8.255,4.1l1.3.941A8.566,8.566,0,0,1,59.1,46.045a9.081,9.081,0,0,1,1.7.16h0l.219.048a8.518,8.518,0,0,1,4.628,2.714Z" transform="translate(-21.058 0)" fill="#12263f"/><path d="M180.538,179.736v-1.6a4.125,4.125,0,0,1-3.369-1.762l-1.361.847A5.744,5.744,0,0,0,180.538,179.736Z" transform="translate(-159.271 -157.522)" fill="#12263f"/></g></g></svg>