<svg xmlns="http://www.w3.org/2000/svg" xmlns:xlink="http://www.w3.org/1999/xlink" width="104.37" height="104.37" viewBox="0 0 104.37 104.37"><defs><filter id="a" x="0" y="0" width="104.37" height="104.37" filterUnits="userSpaceOnUse"><feOffset dy="3" input="SourceAlpha"/><feGaussianBlur stdDeviation="3" result="b"/><feFlood flood-opacity="0.161"/><feComposite operator="in" in2="b"/><feComposite in="SourceGraphic"/></filter></defs><g transform="translate(-1219.3 -5104)"><g transform="matrix(1, 0, 0, 1, 1219.3, 5104)" filter="url(#a)"><circle cx="43.185" cy="43.185" r="43.185" transform="translate(9 6)" fill="#d3d9e7"/></g><g transform="translate(1243.448 5126.211)"><path d="M52.289,34.257a2.788,2.788,0,0,0,0-5.576h-.006V15a2.407,2.407,0,0,0-.71-1.713l-4.1-4.1a.807.807,0,0,0-1.141,1.141l4.1,4.1a.8.8,0,0,1,.237.572v13.68H49.051V15.67a.807.807,0,0,0-.236-.571L38.7,4.989a.81.81,0,1,1,1.144-1.145l4.237,4.238a.807.807,0,1,0,1.141-1.141L40.988,2.7a2.417,2.417,0,0,0-4.054,1.1A10.585,10.585,0,0,0,24.168,5.489a.807.807,0,0,0,0,1.141L37.981,20.443a.807.807,0,0,0,1.141,0,10.505,10.505,0,0,0,3.1-7.477A10.656,10.656,0,0,0,41.93,10.5L47.437,16V28.682h-8.9a2.788,2.788,0,0,0,0,5.576h8.9V42.88l-5.928-3.357A4.038,4.038,0,0,0,39.519,39H27.99V37.74a8.706,8.706,0,0,0,5.964-8.252.807.807,0,0,0-.807-.807H31.711V23.068a4.985,4.985,0,0,0-9.969,0v1.418a.807.807,0,0,0,.807.807h2.66a.807.807,0,0,0,.807-.807V23.068a.711.711,0,1,1,1.423,0v5.613H17.376a.807.807,0,0,0-.807.807,8.706,8.706,0,0,0,5.964,8.251V39h-6.2l-8.7-16.993A4.038,4.038,0,1,0,.443,25.686L9.379,43.138a.807.807,0,0,0,1.436-.735L1.879,24.951A2.425,2.425,0,1,1,6.2,22.741l8.927,17.432a.807.807,0,0,0,.718.439H39.519a2.423,2.423,0,0,1,1.195.315l10,5.665a2.425,2.425,0,1,1-2.389,4.22l-9.263-5.245a.807.807,0,0,0-.4-.1h-24.8a2.424,2.424,0,0,1-1.58-.586A.807.807,0,0,0,11.232,46.1a4.039,4.039,0,0,0,2.632.976h4.313l-3.237,8.47a.807.807,0,0,0,.754,1.095H34.3a.807.807,0,0,0,.754-1.095l-3.237-8.47h6.641l8.982,5.086v3.673a.807.807,0,0,0,.807.807h3.232a.807.807,0,0,0,.807-.807V51.647a4.036,4.036,0,0,0,0-5.895v-11.5ZM38.526,18.706,25.9,6.085A8.961,8.961,0,0,1,38.526,18.706Zm-11.8,2.037A2.328,2.328,0,0,0,24.4,23.068v.611H23.356v-.611a3.371,3.371,0,0,1,6.742,0v5.613H29.051V23.068a2.328,2.328,0,0,0-2.325-2.325Zm-8.5,9.552H32.3a7.079,7.079,0,0,1-14.066,0Zm5.918,7.812a8.442,8.442,0,0,0,2.23,0V39h-2.23Zm-7.28,16.92,3.039-7.951H30.087l3.039,7.951Zm20.5-23.558A1.175,1.175,0,0,1,38.538,30.3h13.75a1.174,1.174,0,0,1,0,2.348H38.538A1.176,1.176,0,0,1,37.364,31.469Zm13.3,23.558H49.051V52.712a3.992,3.992,0,0,0,.469.029,4.034,4.034,0,0,0,1.149-.169Zm0-10.317-1.618-.916V34.257h1.618Z" transform="translate(0 -1.993)" fill="#12263f"/></g></g></svg>