<svg xmlns="http://www.w3.org/2000/svg" xmlns:xlink="http://www.w3.org/1999/xlink" width="137" height="137" viewBox="0 0 137 137"><defs><filter id="a" x="0" y="0" width="137" height="137" filterUnits="userSpaceOnUse"><feOffset dy="3" input="SourceAlpha"/><feGaussianBlur stdDeviation="3" result="b"/><feFlood flood-opacity="0.161"/><feComposite operator="in" in2="b"/><feComposite in="SourceGraphic"/></filter></defs><g transform="translate(-13406 10844)"><g transform="matrix(1, 0, 0, 1, 13406, -10844)" filter="url(#a)"><circle cx="59.5" cy="59.5" r="59.5" transform="translate(9 6)" fill="#1b3f5e"/></g><g transform="translate(13428.882 -10822.997)"><path d="M73.74,13.5,63.885,15.14,68.812,2l-8,2.91a33.043,33.043,0,0,1-20.367.718,32.227,32.227,0,0,0-24.286,2.7L14.9,9.007a6.164,6.164,0,0,0-2.562,8.166,2.319,2.319,0,0,1-.187,2.39L9.873,22.756a10.4,10.4,0,0,0,1.109,13.393l3.429,3.429A4.913,4.913,0,0,1,17.9,38.135V23.352H57.315V38.135a4.909,4.909,0,0,1,3.466,1.429l5.8-6.849a7.227,7.227,0,0,0,1.367-6.264,7.227,7.227,0,0,1,1-5.759Z" transform="translate(5.099 0.644)" fill="#ce6f49"/><path d="M55.347,29.782V15H15.927V29.782a4.927,4.927,0,0,0,0,9.855H17.57V36.352H53.7v3.285h1.642a4.927,4.927,0,1,0,0-9.855Z" transform="translate(7.067 8.996)" fill="#ffdec7"/><path d="M14.288,34.71a4.927,4.927,0,0,1,3.336-4.665,2.345,2.345,0,0,0,1.592-2.222V15H15.93V29.782A4.927,4.927,0,0,0,11,34.974a5.115,5.115,0,0,0,5.207,4.663h1.363v-.3a4.911,4.911,0,0,1-3.285-4.625Z" transform="translate(7.064 8.996)" fill="#f7d1b7"/><path d="M15,28H51.135v4.927a18.067,18.067,0,1,1-36.135,0Z" transform="translate(9.637 17.349)" fill="#c4d6e9"/><path d="M18.285,32.927V28H15v4.927A18.067,18.067,0,0,0,33.067,50.995c.555,0,1.1-.034,1.642-.082A18.067,18.067,0,0,1,18.285,32.927Z" transform="translate(9.637 17.349)" fill="#a3c4e2"/><path d="M56.632,49l-4.27,4.806a20.654,20.654,0,0,1-30.879,0L17.212,49A21.883,21.883,0,0,0,9,66.082v5.913H64.844V66.082A21.883,21.883,0,0,0,56.632,49Z" transform="translate(5.782 30.841)" fill="#ffb531"/><path d="M56.632,49l-4.27,4.806a20.654,20.654,0,0,1-30.879,0L17.212,49A21.883,21.883,0,0,0,9,66.082v4.927a21.881,21.881,0,0,1,3.226-11.435,5.786,5.786,0,0,1,9.259-.846,20.654,20.654,0,0,0,30.879,0,5.786,5.786,0,0,1,9.259.846,21.881,21.881,0,0,1,3.223,11.435V66.082A21.883,21.883,0,0,0,56.632,49Z" transform="translate(5.782 30.841)" fill="#dc9515"/><path d="M28.782,42v6.57L14,53.5,18.27,58.3a20.662,20.662,0,0,0,30.879,0l4.27-4.806L38.637,48.57V42Z" transform="translate(8.995 26.343)" fill="#ffdec7"/><path d="M59.425,70.419A33.835,33.835,0,0,1,43,41.41V34.815A3.815,3.815,0,0,1,46.815,31H72.034a3.815,3.815,0,0,1,3.815,3.815V41.41A33.834,33.834,0,0,1,59.427,70.418Z" transform="translate(27.627 19.276)" fill="#7ab355"/><path d="M46.285,41.41V34.815A3.815,3.815,0,0,1,50.1,31H46.815A3.815,3.815,0,0,0,43,34.815V41.41A33.834,33.834,0,0,0,59.423,70.418c.564-.327,1.108-.693,1.645-1.058A33.825,33.825,0,0,1,46.285,41.41Z" transform="translate(27.627 19.276)" fill="#548931"/><path d="M47.136,46.549,51.781,41.9l3.485,3.484,8.13-8.13L68.041,41.9,55.266,54.679Z" transform="translate(30.284 23.296)" fill="#fff"/><path d="M54.338,47.97,49.6,43.232,47.136,45.7l8.13,8.13L68.041,41.051l-2.464-2.464L56.194,47.97a1.314,1.314,0,0,1-1.856,0Z" transform="translate(30.284 24.151)" fill="#ededed"/><path d="M72.677,30H47.458A5.463,5.463,0,0,0,42,35.456v6.6A35.65,35.65,0,0,0,59.221,72.47a1.642,1.642,0,0,0,1.692,0A35.65,35.65,0,0,0,78.135,42.052v-6.6A5.463,5.463,0,0,0,72.677,30ZM74.85,42.053A32.357,32.357,0,0,1,60.067,69.127,32.357,32.357,0,0,1,45.285,42.053v-6.6a2.175,2.175,0,0,1,2.173-2.171H72.677a2.175,2.175,0,0,1,2.173,2.171Z" transform="translate(26.984 18.634)"/><path d="M65.2,36.739a1.642,1.642,0,0,0-2.322,0l-6.969,6.967-2.324-2.322a1.642,1.642,0,0,0-2.322,0l-4.645,4.645a1.642,1.642,0,0,0,0,2.322l8.13,8.13a1.642,1.642,0,0,0,2.322,0L69.845,43.707a1.642,1.642,0,0,0,0-2.322ZM55.909,53,50.1,47.19l2.322-2.322,2.324,2.322a1.642,1.642,0,0,0,2.322,0l6.969-6.967,2.322,2.322Z" transform="translate(29.642 22.654)"/><path d="M27.3,25.594l1.823-2.733a10.512,10.512,0,0,0-11.678,0l1.823,2.733A7.227,7.227,0,0,1,27.3,25.594Z" transform="translate(11.208 12.909)"/><path d="M37.3,25.594l1.823-2.733a10.512,10.512,0,0,0-11.678,0l1.823,2.733A7.227,7.227,0,0,1,37.3,25.594Z" transform="translate(17.633 12.909)"/><path d="M51,19h3.285v3.285H51Z" transform="translate(32.766 11.566)"/><path d="M49,21h3.285v3.285H49Z" transform="translate(31.481 12.851)"/><path d="M53,21h3.285v3.285H53Z" transform="translate(34.051 12.851)"/><path d="M51,23h3.285v3.285H51Z" transform="translate(32.766 14.136)"/><path d="M2,26H5.285v3.285H2Z" transform="translate(1.285 16.064)"/><path d="M0,28H3.285v3.285H0Z" transform="translate(0 17.349)"/><path d="M4,28H7.285v3.285H4Z" transform="translate(2.57 17.349)"/><path d="M2,30H5.285v3.285H2Z" transform="translate(1.285 18.634)"/><path d="M58.991,78.558l-.008.01a1.584,1.584,0,0,0-.493-.284L44.824,73.729V68.836a19.726,19.726,0,0,0,13.14-18.56,6.54,6.54,0,0,0,5.571-10.019l4.973-5.877a8.91,8.91,0,0,0,1.679-7.687,5.584,5.584,0,0,1,.77-4.448l4.8-7.2a1.642,1.642,0,0,0-1.642-2.531l-7.046,1.174L71,3.217a1.642,1.642,0,0,0-2.1-2.12l-8,2.914a31.2,31.2,0,0,1-19.35.682A33.7,33.7,0,0,0,16.018,7.526l-1.252.685a7.775,7.775,0,0,0-3.244,10.348.677.677,0,0,1-.056.7L9.182,22.448a11.99,11.99,0,0,0,1.288,15.51L12.9,40.383a6.544,6.544,0,0,0,5.648,9.893,19.726,19.726,0,0,0,13.14,18.56v4.893L18.026,78.284a1.584,1.584,0,0,0-.493.284l-.008-.01A23.409,23.409,0,0,0,8.69,96.922v5.913a1.642,1.642,0,0,0,1.642,1.642H66.176a1.642,1.642,0,0,0,1.642-1.642V96.922A23.409,23.409,0,0,0,58.991,78.558ZM11.86,24.356l2.28-3.195a3.953,3.953,0,0,0,.328-4.078,4.5,4.5,0,0,1,1.879-5.988L17.6,10.41A30.4,30.4,0,0,1,40.646,7.852,34.492,34.492,0,0,0,62.021,7.1l4.648-1.69-3.674,9.8A1.642,1.642,0,0,0,64.8,17.4l6.115-1.018-2.7,4.042A8.869,8.869,0,0,0,67,27.49a5.584,5.584,0,0,1-1.027,4.8l-4.817,5.691a6.57,6.57,0,0,0-1.546-.641V24a1.642,1.642,0,0,0-1.642-1.642H18.545A1.642,1.642,0,0,0,16.9,24V37.345a6.519,6.519,0,0,0-1.68.716L12.8,35.632a8.723,8.723,0,0,1-.936-11.276Zm3.4,19.35a3.285,3.285,0,0,1,3.285-3.285,1.642,1.642,0,0,0,1.642-1.642V25.639H56.322v13.14a1.642,1.642,0,0,0,1.642,1.642,3.285,3.285,0,1,1,0,6.57V45.349a1.642,1.642,0,0,0-1.642-1.642H20.187a1.642,1.642,0,0,0-1.642,1.642v1.642A3.285,3.285,0,0,1,15.26,43.706Zm9.886,16.425H46.467V56.846H23.211a16.167,16.167,0,0,1-1.05-3.285h27.59V50.276H21.829V46.991h32.85v3.285a16.4,16.4,0,0,1-29.533,9.855ZM33.851,76.47a1.642,1.642,0,0,0,1.119-1.557V69.688a18.3,18.3,0,0,0,6.57,0v5.225a1.642,1.642,0,0,0,1.123,1.557l12.419,4.141-2.616,2.945a19.012,19.012,0,0,1-28.415,0l-2.618-2.947Zm30.683,24.723H11.975v-4.27a20.1,20.1,0,0,1,6.437-14.764l3.178,3.577a22.3,22.3,0,0,0,33.329,0L58.1,82.16a20.1,20.1,0,0,1,6.437,14.763Z" transform="translate(4.45 0)"/></g></g></svg>