<svg xmlns="http://www.w3.org/2000/svg" width="85" height="84.473" viewBox="0 0 85 84.473"><g transform="translate(-180 -1243)"><rect width="85" height="84.473" transform="translate(180 1243)" fill="#004f83"/><g transform="translate(195.275 1259)"><path d="M52.587,22.753H51.045L45.2,7.616H50.9a1.036,1.036,0,1,0,0-2.072H33.654a6.559,6.559,0,0,0-12.96,0H3.453a1.036,1.036,0,1,0,0,2.072H9.144L3.3,22.753H1.761A1.036,1.036,0,0,0,.725,23.789V28.1a6.618,6.618,0,0,0,6.61,6.61h6.438a6.618,6.618,0,0,0,6.61-6.61V23.789a1.036,1.036,0,0,0-1.036-1.036H17.8L11.964,7.616h8.73a6.6,6.6,0,0,0,3.056,4.575V41.61H14.7a5.444,5.444,0,0,0-5.438,5.438v3.929H7.182a1.036,1.036,0,0,0,0,2.072H47.167a1.036,1.036,0,0,0,0-2.072H45.084V47.048a5.444,5.444,0,0,0-5.438-5.438H30.6V12.192a6.6,6.6,0,0,0,3.056-4.575h8.73L36.544,22.753H35a1.036,1.036,0,0,0-1.036,1.036V28.1a6.618,6.618,0,0,0,6.61,6.61h6.438a6.618,6.618,0,0,0,6.61-6.61V23.789a1.036,1.036,0,0,0-1.036-1.036ZM18.311,28.1a4.543,4.543,0,0,1-4.538,4.538H7.335A4.543,4.543,0,0,1,2.8,28.1V24.825H18.311V28.1ZM5.524,22.753l5.03-13.035,5.03,13.035ZM43.012,47.048v3.929H11.336V47.048A3.369,3.369,0,0,1,14.7,43.683H39.647A3.369,3.369,0,0,1,43.012,47.048ZM28.526,41.61h-2.7V13.02a6.579,6.579,0,0,0,2.7,0ZM27.174,11.088A4.508,4.508,0,1,1,31.663,6.58,4.5,4.5,0,0,1,27.174,11.088Zm16.62-1.37,5.03,13.035H38.765ZM51.551,28.1a4.543,4.543,0,0,1-4.538,4.538H40.576A4.543,4.543,0,0,1,36.037,28.1V24.825H51.551V28.1Z" transform="translate(0)" fill="#fff"/></g></g></svg>