<svg xmlns="http://www.w3.org/2000/svg" width="85" height="84.473" viewBox="0 0 85 84.473"><g transform="translate(-1020 -1243)"><rect width="85" height="84.473" transform="translate(1020 1243)" fill="#004f83"/><g transform="translate(1016.884 1257)"><path d="M191.377,14h-.569a15.885,15.885,0,0,0-1.4-3.388l.4-.4a2.463,2.463,0,0,0,0-3.477l-2.7-2.693a2.458,2.458,0,0,0-3.478,0l-.4.4a15.828,15.828,0,0,0-3.389-1.407V2.459A2.461,2.461,0,0,0,177.382,0H173.57a2.462,2.462,0,0,0-2.459,2.459v.569a15.873,15.873,0,0,0-3.391,1.407l-.4-.4a2.458,2.458,0,0,0-3.478,0l-2.7,2.7a2.463,2.463,0,0,0,0,3.476l.4.4A15.8,15.8,0,0,0,160.142,14h-.571a2.462,2.462,0,0,0-2.459,2.459V20.27a2.462,2.462,0,0,0,2.459,2.459h.571a15.809,15.809,0,0,0,1.405,3.388l-.4.4a2.463,2.463,0,0,0,0,3.476l2.694,2.694a2.436,2.436,0,0,0,1.74.722h0a2.435,2.435,0,0,0,1.738-.72l.4-.4a15.8,15.8,0,0,0,3.391,1.406v.571a2.462,2.462,0,0,0,2.459,2.459h3.812a2.462,2.462,0,0,0,2.459-2.459v-.571a15.746,15.746,0,0,0,3.389-1.405l.4.4a2.458,2.458,0,0,0,3.478,0l2.7-2.7a2.463,2.463,0,0,0,0-3.476l-.4-.4a15.891,15.891,0,0,0,1.4-3.388h.569a2.462,2.462,0,0,0,2.459-2.459V16.455A2.462,2.462,0,0,0,191.377,14Zm-13.73,20.27a.269.269,0,0,1-.265.265H173.57a.269.269,0,0,1-.265-.265v-8.34a1.1,1.1,0,0,0-.715-1.028,7.513,7.513,0,0,1-1.626-13.277c.093-.063.175-.115.247-.158,0,.143-.014.278-.019.349-.008.111-.015.2-.015.286v5.177a4.539,4.539,0,0,0,4.227,4.518,1.106,1.106,0,0,0,.145,0,4.537,4.537,0,0,0,4.224-4.518V12.1c0-.087-.006-.174-.015-.285-.005-.071-.015-.207-.019-.351.072.042.153.094.246.157A7.514,7.514,0,0,1,178.362,24.9a1.1,1.1,0,0,0-.715,1.028v8.34Zm14-14a.272.272,0,0,1-.265.265h-1.421a1.1,1.1,0,0,0-1.07.855A13.72,13.72,0,0,1,187.1,25.7a1.1,1.1,0,0,0,.152,1.362l1.008,1.008a.269.269,0,0,1,0,.373l-2.7,2.7a.264.264,0,0,1-.371,0l-1.008-1.008a1.1,1.1,0,0,0-1.363-.151,13.609,13.609,0,0,1-2.974,1.412v-4.74a9.706,9.706,0,0,0,1.382-16.847c-.409-.279-1.651-1.129-2.737-.5-1.067.614-.961,2.054-.915,2.669,0,.053.008.1.009.123v5.177a2.114,2.114,0,1,1-4.208,0V12.106c0-.033,0-.078.009-.132.046-.615.153-2.054-.913-2.668-1.086-.626-2.33.223-2.74.5a9.705,9.705,0,0,0,1.385,16.847V31.4a13.682,13.682,0,0,1-2.978-1.413,1.1,1.1,0,0,0-1.362.152l-1.01,1.01a.264.264,0,0,1-.371,0l-2.7-2.7a.269.269,0,0,1,0-.374l1.007-1.008a1.1,1.1,0,0,0,.152-1.362,13.649,13.649,0,0,1-1.788-4.312,1.1,1.1,0,0,0-1.07-.857h-1.424a.272.272,0,0,1-.265-.265V16.455a.269.269,0,0,1,.265-.265H161a1.1,1.1,0,0,0,1.07-.857,13.645,13.645,0,0,1,1.788-4.312,1.1,1.1,0,0,0-.152-1.362l-1.008-1.008a.27.27,0,0,1,0-.374l2.7-2.7a.264.264,0,0,1,.371,0l1.007,1.008a1.1,1.1,0,0,0,1.362.152,13.712,13.712,0,0,1,4.317-1.791,1.1,1.1,0,0,0,.855-1.07V2.459a.269.269,0,0,1,.265-.265h3.812a.269.269,0,0,1,.265.265V3.88a1.1,1.1,0,0,0,.855,1.07,13.657,13.657,0,0,1,4.312,1.791,1.1,1.1,0,0,0,1.363-.151l1.01-1.01a.264.264,0,0,1,.372,0l2.7,2.7a.269.269,0,0,1,0,.374L187.25,9.659a1.1,1.1,0,0,0-.152,1.362,13.721,13.721,0,0,1,1.788,4.314,1.1,1.1,0,0,0,1.07.855h1.421a.269.269,0,0,1,.265.265V20.27Z" transform="translate(-121.968)" fill="#fff"/><path d="M380.179,437.708a1.1,1.1,0,1,0,1.551,1.551l0,0a1.1,1.1,0,0,0-1.554-1.548Z" transform="translate(-320.28 -389.408)" fill="#fff"/><path d="M64.981,333.481l-8.709,4.472a4.045,4.045,0,0,0-2.917-1.242H47.388a1.647,1.647,0,0,1-.421-.028,3.211,3.211,0,0,1-.324-.285l-.054-.051c-4.827-4.544-8.905-4.256-13.543-2.426a3.156,3.156,0,0,1-1.518.329H30.178a2.917,2.917,0,0,0-2.765-2H23.026a2.915,2.915,0,0,0-2.91,2.913V346.68a2.913,2.913,0,0,0,2.91,2.91h4.387a2.917,2.917,0,0,0,2.765-2h2.468a1.167,1.167,0,0,1,.471.071c.092.026.2.058.349.1L44.819,350.8c.5.135.959.268,1.4.4a14.306,14.306,0,0,0,3.952.776A8.673,8.673,0,0,0,55.1,350.2l.029-.02,2.167-1.545a1.1,1.1,0,0,0-1.274-1.786l-2.153,1.535c-2.874,1.912-4.1,1.558-7.037.706-.453-.131-.922-.267-1.444-.408l-11.354-3.037c-.133-.036-.237-.065-.323-.089a3.056,3.056,0,0,0-1.066-.154h-2.32v-8.954h1.233l.063,0a5.142,5.142,0,0,0,2.23-.48c4.073-1.607,7.217-1.8,11.235,1.984l.054.051a2.656,2.656,0,0,0,2.248.908h5.967a1.864,1.864,0,0,1,1.629.961l.011.019a1.86,1.86,0,0,1-1.64,2.743h-9.67a1.1,1.1,0,0,0,0,2.194h9.67a4.052,4.052,0,0,0,3.959-4.939l8.669-4.452a1.765,1.765,0,1,1,1.869,2.991l-3.8,2.708a1.1,1.1,0,1,0,1.273,1.787l3.8-2.709a3.952,3.952,0,0,0-4.145-6.73Zm-36.849,13.2a.727.727,0,0,1-.719.716H23.026a.725.725,0,0,1-.716-.716V335.166a.718.718,0,0,1,.716-.719h4.387a.729.729,0,0,1,.719.719Z" transform="translate(0 -295.807)" fill="#fff"/></g></g></svg>