<svg xmlns="http://www.w3.org/2000/svg" width="100" height="104.49" viewBox="0 0 100 104.49"><g transform="translate(-402 -1747.755)"><g transform="translate(391 1747.755)"><path d="M61,22A50.025,50.025,0,0,0,14.878,91.336l.2-.041V88.531a2.86,2.86,0,0,1,2.857-2.857h2.392v-1.7a8.235,8.235,0,0,1,8.225-8.225H48.478A8.235,8.235,0,0,1,56.7,83.971v7.417h50.215l.266-.2A50.007,50.007,0,0,0,61,22Z" transform="translate(0 -17.51)" fill="#4aa3dc"/><path d="M285.633,169H269.124a8.008,8.008,0,0,1-3.626.865h-6.261a8.007,8.007,0,0,1-3.625-.865h-8.55A3.061,3.061,0,0,0,244,172.061v.948a4.893,4.893,0,0,1,1.122-.131h34.49a4.9,4.9,0,0,1,4.9,4.9v30.612h4.184V172.061A3.061,3.061,0,0,0,285.633,169Z" transform="translate(-185.449 -134.51)" fill="#acacac"/><path d="M245.122,172.673h5v-.612A3.061,3.061,0,0,1,253.184,169h-6.122A3.061,3.061,0,0,0,244,172.061v.738A5.108,5.108,0,0,1,245.122,172.673Z" transform="translate(-185.449 -134.51)" fill="#9c9c9c"/><path d="M234.946,408v20.612l.2.445q2.025.164,4.093.168a49.94,49.94,0,0,0,40.75-21.02l-.137-.2Z" transform="translate(-178.243 -324.735)" fill="#ffbd86"/><g transform="translate(54.571 0)"><path d="M264.092,187H229.6a5.1,5.1,0,0,0-5.1,5.1v17.676a8.193,8.193,0,0,1,2.132,5.519v7.417h42.562V192.1A5.1,5.1,0,0,0,264.092,187Z" transform="translate(-224.5 -148.837)" fill="#fff"/><path d="M229.6,187a5.1,5.1,0,0,0-5.1,5.1v17.676a8.193,8.193,0,0,1,2.132,5.519v7.417h3.276V192.1a5.1,5.1,0,0,1,5.1-5.1Z" transform="translate(-224.5 -148.837)" fill="#f8f6f6"/><path d="M287.963,181.681l-9.13-12.133a8.01,8.01,0,0,1-3.4.753h-6.261a8.01,8.01,0,0,1-3.4-.753l-9.13,12.133a.911.911,0,0,0,.251,1.281l4.745,3.094-4.4,2.934a.887.887,0,0,0-.27,1.193l7.758,12.983V175.373a.659.659,0,0,1,.659-.659h13.834a.659.659,0,0,1,.659.659v27.793l7.758-12.982a.887.887,0,0,0-.269-1.193l-4.4-2.934,4.745-3.094A.911.911,0,0,0,287.963,181.681Z" transform="translate(-249.959 -134.946)" fill="#eaf6ff"/><path d="M311.369,228.081V194.63a.887.887,0,0,0-.887-.887H296.649a.887.887,0,0,0-.887.887v33.451Z" transform="translate(-281.219 -154.204)" fill="#22b27f"/><path d="M314.451,176.316v-3.8a8.073,8.073,0,0,1-1.529.147h-6.261a8.072,8.072,0,0,1-1.529-.147v3.8a.532.532,0,0,1-.532.532h-1.015l5.755,9.281a.532.532,0,0,0,.9,0L316,176.848h-1.015A.532.532,0,0,1,314.451,176.316Z" transform="translate(-287.444 -137.309)" fill="#ffbd86"/><path d="M308.8,176.848a.532.532,0,0,0,.532-.532v-3.653h-2.671a8.073,8.073,0,0,1-1.529-.147v3.8a.532.532,0,0,1-.532.532h-1.016l5.755,9.281a.532.532,0,0,0,.9,0l1.648-2.658-3.572-5.76A.565.565,0,0,1,308.8,176.848Z" transform="translate(-287.443 -137.309)" fill="#f6a96c"/><g transform="translate(5.724)"><g transform="translate(1.52)"><path d="M354.576,16v6.761h3.231a2.86,2.86,0,0,1,2.857,2.857v2.859h1.847a3.361,3.361,0,0,1,2.065.709V19.708a7.151,7.151,0,0,0-7.151-7.151h-3.983A5.767,5.767,0,0,1,354.576,16Z" transform="translate(-334.371 -9.994)" fill="#fb8801"/><path d="M262.065,18.481h1.847V15.622a2.86,2.86,0,0,1,2.857-2.857h13.64V6a6,6,0,0,0-6-6H266a6,6,0,0,0-6,6V19.19A3.361,3.361,0,0,1,262.065,18.481Z" transform="translate(-260 0)" fill="#fe9901"/><path d="M262.065,18.481h1.847V15.622a2.86,2.86,0,0,1,2.211-2.781V6a6,6,0,0,1,6-6H266a6,6,0,0,0-6,6V19.19A3.361,3.361,0,0,1,262.065,18.481Z" transform="translate(-260 0)" fill="#fb8801"/></g><g transform="translate(0 18.277)"><path d="M257.982,98.575V89.557h-1.847a3.585,3.585,0,0,0-3.585,3.585v2.623a3.585,3.585,0,0,0,3.585,3.585h1.885C258,99.1,257.982,98.837,257.982,98.575Z" transform="translate(-252.55 -89.557)" fill="#ffbd86"/><path d="M390.532,89.557h-1.847v9.018c0,.262-.014.52-.038.776h1.885a3.585,3.585,0,0,0,3.585-3.585V93.143A3.585,3.585,0,0,0,390.532,89.557Z" transform="translate(-360.872 -89.557)" fill="#ffbd86"/></g><g transform="translate(5.228 12.56)"><path d="M278.166,64.607V76.28a8.264,8.264,0,0,0,8.264,8.264h6.261a8.264,8.264,0,0,0,8.264-8.264V64.607a3.061,3.061,0,0,0-3.061-3.061H281.227A3.061,3.061,0,0,0,278.166,64.607Z" transform="translate(-278.166 -61.546)" fill="#fed2a4"/></g><g transform="translate(9.291 17.331)"><g transform="translate(2.431 10.31)"><path d="M315.2,140.018a6.709,6.709,0,0,1-4.758-1.968,1.531,1.531,0,0,1,2.165-2.165,3.672,3.672,0,0,0,5.188,0,1.531,1.531,0,1,1,2.164,2.165,6.708,6.708,0,0,1-4.758,1.968Z" transform="translate(-309.99 -135.438)" fill="#ea9b58"/></g><g transform="translate(5.217 2.334)"><path d="M326.922,102.727h-1.167a2.116,2.116,0,0,1-2.114-2.114V97.89a1.531,1.531,0,1,1,3.061,0v1.776h.22a1.531,1.531,0,1,1,0,3.061Z" transform="translate(-323.641 -96.359)" fill="#ea9b58"/></g><g transform="translate(-28.087 -47.045)"><path d="M112.126,224.056a2.355,2.355,0,1,0,2.355,2.355A2.355,2.355,0,0,0,112.126,224.056Z" transform="translate(-70.752 -177.416)" fill="#0a3575"/><path d="M125.077,224.055a1.178,1.178,0,1,0,1.178,1.178A1.178,1.178,0,0,0,125.077,224.055Z" transform="translate(-82.133 -177.415)" fill="#fff5f5"/></g><g transform="translate(-40.087 -47.045)"><path d="M112.126,224.056a2.355,2.355,0,1,0,2.355,2.355A2.355,2.355,0,0,0,112.126,224.056Z" transform="translate(-70.752 -177.416)" fill="#0a3575"/><path d="M125.077,224.055a1.178,1.178,0,1,0,1.178,1.178A1.178,1.178,0,0,0,125.077,224.055Z" transform="translate(-82.133 -177.415)" fill="#fff5f5"/></g></g></g></g><g transform="translate(71.816 45.206)"><path d="M331.609,257.293V231.134a.689.689,0,0,0-.689-.689H309.689a.689.689,0,0,0-.689.689v26.159Z" transform="translate(-309 -228.622)" fill="#0182fc"/><path d="M313.286,257.293V231.134a.689.689,0,0,1,.689-.689h-4.286a.689.689,0,0,0-.689.689v26.159Z" transform="translate(-309 -228.622)" fill="#0172fb"/><g transform="translate(6.297)"><path d="M340.544,225.67h8.637a.689.689,0,0,0,.689-.689V222.2a.689.689,0,0,0-.689-.689h-8.637a.689.689,0,0,0-.689.689v2.781A.689.689,0,0,0,340.544,225.67Z" transform="translate(-339.855 -221.511)" fill="#9c9c9c"/></g><g transform="translate(6.297)"><path d="M343.966,224.981V222.2a.689.689,0,0,1,.689-.689h-4.111a.689.689,0,0,0-.689.689v2.781a.689.689,0,0,0,.689.689h4.111A.689.689,0,0,1,343.966,224.981Z" transform="translate(-339.855 -221.511)" fill="#838383"/></g><path d="M393.082,317.139a1.579,1.579,0,0,1,0,2.9,1.446,1.446,0,0,0,.172.6h7.053a2.642,2.642,0,0,0,.741-1.837v-6.118a2.653,2.653,0,0,0-2.653-2.653h-3.759a1.541,1.541,0,0,0-1.554,1.412,1.579,1.579,0,0,1,0,2.9,1.506,1.506,0,0,1,0,2.8Z" transform="translate(-375.922 -291.962)" fill="#fed2a4"/><path d="M393.082,317.139a1.579,1.579,0,0,1,0,2.9,1.446,1.446,0,0,0,.172.6h3.4a2.638,2.638,0,0,1-.741-1.837v-6.118a2.651,2.651,0,0,1,2.569-2.649c-.028,0-.056,0-.084,0h-3.759a1.541,1.541,0,0,0-1.554,1.412,1.579,1.579,0,0,1,0,2.9,1.506,1.506,0,0,1,0,2.8Z" transform="translate(-375.922 -291.962)" fill="#ffbd86"/></g><path d="M234.946,361v9.8h45.046a49.916,49.916,0,0,0,5.435-9.8Z" transform="translate(-178.243 -287.327)" fill="#f6a96c"/><path d="M243.12,364.673V361h-8.174v9.8h45.046q1.4-1.971,2.613-4.082H245.161A2.041,2.041,0,0,1,243.12,364.673Z" transform="translate(-178.243 -287.327)" fill="#ea9b58"/><g transform="translate(20.127 13.419)"><path d="M152.705,263.631v2.3a6.068,6.068,0,0,1-.27,1.793l-.082.264h5.561c0-.031,0-.063,0-.094V263.54a8.5,8.5,0,0,1-1.235.091h-3.977Z" transform="translate(-132.633 -223.175)" fill="#ffbd86"/><path d="M84.072,284.353H64.15a8.429,8.429,0,0,0-8.429,8.429v1.7H81.9a2.86,2.86,0,0,1,2.857,2.857v32.053a49.875,49.875,0,0,0,7.744,1.249V292.782A8.429,8.429,0,0,0,84.072,284.353Z" transform="translate(-55.721 -239.741)" fill="#8ac9fe"/><g transform="translate(0 47.358)"><path d="M64.146,304.988v-1.5a8.392,8.392,0,0,1,1.014-4.012H62.188a6.247,6.247,0,0,1-4.261-1.672,8.4,8.4,0,0,0-2.205,5.684v1.5Z" transform="translate(-55.722 -297.805)" fill="#60b7ff"/></g><g transform="translate(0.195)"><path d="M81.936,65.752H71.509A14.831,14.831,0,0,0,56.678,80.583v27.927a6.271,6.271,0,0,0,6.271,6.271h7.539a6.271,6.271,0,0,0,6.271-6.271v-2.1l.2-.237V97.731a.926.926,0,0,0-.933-.916H75.59A3.187,3.187,0,0,1,72.4,93.628V89.456a3.187,3.187,0,0,1,3.187-3.187h.422a.547.547,0,0,1,.552.545V90.7a.769.769,0,0,0,.244.569.8.8,0,0,0,.541.214.772.772,0,0,0,.551-.233L88.408,80.637a.378.378,0,0,1,.273-.117.39.39,0,0,1,.395.392V83.44a6.7,6.7,0,0,0,4.2-6.216V77.09A11.338,11.338,0,0,0,81.936,65.752Z" transform="translate(-56.678 -65.752)" fill="#883f2e"/></g><g transform="translate(0.195 0)"><path d="M63.07,108.511V80.583A14.831,14.831,0,0,1,77.9,65.752H71.509A14.831,14.831,0,0,0,56.678,80.583v27.927a6.271,6.271,0,0,0,6.271,6.271h6.392A6.271,6.271,0,0,1,63.07,108.511Z" transform="translate(-56.678 -65.752)" fill="#6d3326"/></g><g transform="translate(15.725 14.573)"><path d="M153.341,153.177l-3.315-4.526a.976.976,0,0,1-.189-.577V137.747a.586.586,0,0,0-1-.412L138.329,147.95a.586.586,0,0,1-1-.412v-3.889a.74.74,0,0,0-.74-.74h-.43a3.392,3.392,0,0,0-3.382,3.382v4.172a3.392,3.392,0,0,0,3.382,3.382h.43a.741.741,0,0,1,.74.739v8.663H141.1a8.738,8.738,0,0,0,8.66-7.579.974.974,0,0,1,.966-.847h1.782A1.034,1.034,0,0,0,153.341,153.177Z" transform="translate(-132.775 -137.16)" fill="#fed2a4"/></g><g transform="translate(-13.627 -24.133)"><path d="M112.126,224.056a2.355,2.355,0,1,0,2.355,2.355A2.355,2.355,0,0,0,112.126,224.056Z" transform="translate(-70.752 -177.416)" fill="#0a3575"/><path d="M125.077,224.055a1.178,1.178,0,1,0,1.178,1.178A1.178,1.178,0,0,0,125.077,224.055Z" transform="translate(-82.133 -177.415)" fill="#fff5f5"/></g></g><g transform="translate(14.878 67.959)"><path d="M61.429,333H33.061A3.061,3.061,0,0,0,30,336.061v2.805a50.1,50.1,0,0,0,34.49,29.3V336.061A3.061,3.061,0,0,0,61.429,333Z" transform="translate(-30 -333)" fill="#9c9c9c"/></g><g transform="translate(14.878 67.959)"><path d="M38.163,336.061A3.061,3.061,0,0,1,41.224,333H33.061A3.061,3.061,0,0,0,30,336.061v2.805a49.988,49.988,0,0,0,8.163,13.2Z" transform="translate(-30 -333)" fill="#838383"/></g></g></g></svg>