<svg xmlns="http://www.w3.org/2000/svg" xmlns:xlink="http://www.w3.org/1999/xlink" width="1328" height="1347" viewBox="0 0 1328 1347"><defs><clipPath id="a"><rect width="1328" height="1347" transform="translate(135.936 1409)" fill="#13c6cc" opacity="0.46"/></clipPath><clipPath id="b"><rect width="334.109" height="353.201" fill="none"/></clipPath><clipPath id="e"><rect width="334.109" height="353.201" transform="translate(0 0)" fill="none"/></clipPath></defs><g transform="translate(-136.051 -1409)"><g transform="translate(0.115)"><g transform="translate(-0.551 -1394.151)" opacity="0.77"><rect width="1327" height="1347" transform="translate(136.486 2803.151)" fill="#d2e1f1"/></g><g clip-path="url(#a)"><g transform="translate(34.408 1420.999)" opacity="0.7"><g transform="translate(0 0)" opacity="0.61" clip-path="url(#b)"><path d="M.116,109.126q-.038.786-.063,1.565c-1.546,47.233,31.334,52.348,84.822,46.523a3.92,3.92,0,0,0,1.918-.746c52.485-19.878,75.539-13.137,140.478,34.026,87.959,63.881,160.092-93.159,53.88-155.41H51.84c-2.934,1.468-5.673,2.927-8.212,4.351A84.881,84.881,0,0,0,.116,109.126" transform="translate(-0.001 -35.083)" fill="#b8dcf1"/><path d="M272.541,19.69c-2.225,5.79.749,11.3,7.233,10.729,6.574-.583,23.617-1.454,38.121,14.119,30.118,32.338,49.584-11.34,18.235-34.374C314.671-5.6,281.442-3.473,272.541,19.69" transform="translate(-176.065 170.407)" fill="#b8dcf1"/><path d="M272.541,36.36c-2.225-5.79.749-11.3,7.233-10.728,6.574.583,23.617,1.454,38.121-14.119,30.118-32.337,49.584,11.34,18.235,34.374-21.459,15.767-54.688,13.636-63.589-9.526" transform="translate(-216.212 285.658)" fill="#b8dcf1"/></g></g><g transform="translate(1331.408 2402.799)" opacity="0.7"><g transform="translate(0 0)" opacity="0.61" clip-path="url(#b)"><path d="M.116,131.447q-.038-.786-.063-1.565C-1.493,82.65,31.387,77.534,84.875,83.36a3.92,3.92,0,0,1,1.918.746c52.485,19.879,75.539,13.137,140.478-34.026C315.23-13.8,387.363,143.238,281.151,205.49H51.84c-2.934-1.468-5.673-2.927-8.212-4.351A84.882,84.882,0,0,1,.116,131.447" transform="translate(-0.001 147.711)" fill="#b8dcf1"/><path d="M272.541,36.36c-2.225-5.79.749-11.3,7.233-10.729,6.574.583,23.617,1.454,38.121-14.119,30.118-32.338,49.584,11.34,18.235,34.374-21.459,15.767-54.688,13.636-63.589-9.526" transform="translate(-176.065 126.744)" fill="#b8dcf1"/><path d="M272.541,19.69c-2.225,5.79.749,11.3,7.233,10.729,6.574-.583,23.617-1.454,38.121,14.119,30.118,32.337,49.584-11.34,18.235-34.374C314.671-5.6,281.442-3.473,272.541,19.69" transform="translate(-216.212 11.493)" fill="#b8dcf1"/></g></g><g transform="translate(377.568 1984.469) rotate(83)" opacity="0.7"><g transform="translate(0 0)" opacity="0.61" clip-path="url(#b)"><path d="M.116,131.447q-.038-.786-.063-1.565C-1.493,82.65,31.387,77.534,84.875,83.36a3.92,3.92,0,0,1,1.918.746c52.485,19.879,75.539,13.137,140.478-34.026C315.23-13.8,387.363,143.238,281.151,205.49H51.84c-2.934-1.468-5.673-2.927-8.212-4.351A84.882,84.882,0,0,1,.116,131.447" transform="translate(-0.001 147.711)" fill="#b8dcf1"/><path d="M272.541,36.36c-2.225-5.79.749-11.3,7.233-10.729,6.574.583,23.617,1.454,38.121-14.119,30.118-32.338,49.584,11.34,18.235,34.374-21.459,15.767-54.688,13.636-63.589-9.526" transform="translate(-176.065 126.744)" fill="#b8dcf1"/></g></g><g transform="translate(1620.286 1364.581) rotate(97)" opacity="0.7"><g transform="translate(0 0)" opacity="0.61" clip-path="url(#e)"><path d="M.076,49q-.025.52-.042,1.035C-.989,81.292,20.77,84.678,56.167,80.822a2.594,2.594,0,0,0,1.27-.494c34.733-13.155,49.989-8.694,92.964,22.517C208.61,145.121,256.345,41.2,186.057,0H34.306c-1.942.972-3.754,1.937-5.435,2.879A56.172,56.172,0,0,0,.076,49" transform="translate(39.546 80.553)" fill="#b8dcf1"/><path d="M.732,19.691c-2.225,5.79.749,11.3,7.233,10.729,6.574-.583,23.617-1.454,38.121,14.119C76.2,76.876,95.67,33.2,64.32,10.164,42.862-5.6,9.633-3.472.732,19.691" transform="translate(95.744 170.407)" fill="#b8dcf1"/></g></g></g></g></g></svg>